<?xml version="1.0" encoding="utf-8"?>
<!-- Generator: Adobe Illustrator 24.1.2, SVG Export Plug-In . SVG Version: 6.00 Build 0)  -->
<svg version="1.2" baseProfile="tiny" id="Layer_1" xmlns="http://www.w3.org/2000/svg" xmlns:xlink="http://www.w3.org/1999/xlink"
	 x="0px" y="0px" viewBox="0 0 50 50" overflow="visible" xml:space="preserve">
<path fill="#191970" d="M49.7,25c0,13.6-11,24.7-24.7,24.7c-13.6,0-24.7-11-24.7-24.7c0-13.6,11-24.7,24.7-24.7
	C38.6,0.3,49.7,11.4,49.7,25L49.7,25z M49.7,25"/>
<path fill="#111D3D" d="M36.1,19.2c-2,0-3.7,0.7-5,2.1c-0.4,0.4-0.7,0.9-1,1.4l-9-9h-4.5l-8.2,21l14.8,14.8c0.6,0,1.2,0.1,1.7,0.1
	c12.1,0,22.2-8.8,24.3-20.3L41,21.1l0,0C39.7,19.9,38.1,19.2,36.1,19.2L36.1,19.2z M36.1,19.2"/>
<path fill="#FFFFFF" d="M29.5,34.8h-4.6L23.1,30h-8.4l-1.7,4.8H8.4l8.2-21h4.5L29.5,34.8z M21.7,26.5l-2.9-7.8L16,26.5H21.7z
	 M21.7,26.5"/>
<path fill="#FFFFFF" d="M39.1,30l4,0.7c-0.5,1.5-1.3,2.6-2.4,3.4c-1.1,0.8-2.5,1.2-4.2,1.2c-2.6,0-4.6-0.9-5.9-2.6
	c-1-1.4-1.5-3.1-1.5-5.2c0-2.5,0.7-4.5,2-5.9c1.3-1.4,3-2.1,5-2.1c2.3,0,4,0.7,5.4,2.2c1.3,1.5,1.9,3.8,1.9,6.9H33.2
	c0,1.2,0.4,2.1,1,2.8c0.6,0.7,1.4,1,2.3,1c0.6,0,1.2-0.2,1.6-0.5C38.5,31.3,38.8,30.7,39.1,30L39.1,30z M39.3,25.9
	c0-1.2-0.3-2.1-0.9-2.7c-0.6-0.6-1.3-0.9-2.1-0.9c-0.9,0-1.6,0.3-2.2,1c-0.6,0.6-0.9,1.5-0.8,2.6H39.3z M39.3,25.9"/>
</svg>
