<?xml version="1.0" encoding="utf-8"?>
<!-- Generator: Adobe Illustrator 25.1.0, SVG Export Plug-In . SVG Version: 6.00 Build 0)  -->
<svg version="1.1" id="Layer_1" xmlns="http://www.w3.org/2000/svg" xmlns:xlink="http://www.w3.org/1999/xlink" x="0px" y="0px"
	 viewBox="0 0 44 44" style="enable-background:new 0 0 44 44;" xml:space="preserve">
<style type="text/css">
	.st0{fill:#FFFFFF;}
</style>
<g id="Design">
	<g>
		<g>
			<g>
				<path class="st0" d="M22,43.9C9.9,43.9,0.1,34.1,0.1,22S9.9,0.1,22,0.1c12,0,21.8,9.8,21.8,21.9C43.9,34.1,34,43.9,22,43.9z
					 M22,2.5C11.2,2.5,2.5,11.2,2.5,22S11.2,41.5,22,41.5S41.5,32.8,41.5,22S32.7,2.5,22,2.5z"/>
			</g>
		</g>
	</g>
</g>
<g id="XMLID_1997_">
	<path id="XMLID_2003_" class="st0" d="M19.2,28.3c0.6-0.1,1.1-0.3,1.5-0.7c0.4-0.3,0.7-0.6,0.9-1c0.4-0.6,0.6-1.3,0.6-2.1
		c0-0.8-0.2-1.4-0.5-2c-0.3-0.5-0.9-0.9-1.5-1.2c0.4-0.2,0.8-0.5,1-0.8c0.4-0.5,0.6-1.1,0.6-2c0-0.8-0.2-1.5-0.6-2
		c-0.7-0.9-1.8-1.4-3.5-1.4h-6.4v13.3h6C18,28.5,18.6,28.4,19.2,28.3z M13.9,17.5h2.9c0.6,0,1.2,0.1,1.6,0.2
		c0.5,0.2,0.7,0.6,0.7,1.2c0,0.6-0.2,1-0.5,1.2c-0.4,0.2-0.8,0.3-1.4,0.3h-3.2V17.5z M13.9,26.2v-3.6h3.3c0.6,0,1,0.1,1.3,0.2
		c0.6,0.3,0.8,0.7,0.8,1.4c0,0.8-0.3,1.4-0.9,1.7c-0.3,0.2-0.8,0.2-1.3,0.2H13.9z"/>
	<g id="XMLID_1998_">
		<path id="XMLID_2000_" class="st0" d="M24.5,27.6c1,0.8,2.2,1.2,3.5,1.2c1.6,0,2.8-0.5,3.7-1.4c0.6-0.6,0.9-1.2,1-1.8H30
			c-0.2,0.3-0.3,0.5-0.5,0.7c-0.4,0.3-0.8,0.5-1.4,0.5c-0.6,0-1-0.1-1.4-0.4c-0.6-0.4-1-1.1-1-2.1h7.2c0-0.9,0-1.5-0.1-2
			c-0.1-0.8-0.4-1.5-0.8-2c-0.4-0.7-1-1.2-1.7-1.5c-0.7-0.3-1.5-0.5-2.3-0.5c-1.4,0-2.6,0.5-3.5,1.4C23.4,20.7,23,22,23,23.7
			C23,25.5,23.5,26.8,24.5,27.6z M26.3,21.1c0.4-0.4,0.9-0.6,1.5-0.6c0.6,0,1.1,0.2,1.5,0.5c0.4,0.4,0.6,0.9,0.7,1.6h-4.4
			C25.7,22,25.9,21.4,26.3,21.1z"/>
		<rect id="XMLID_1999_" x="24.8" y="15.9" class="st0" width="5.8" height="1.3"/>
	</g>
</g>
</svg>
