<?xml version="1.0" encoding="utf-8"?>
<!-- Generator: Adobe Illustrator 24.1.2, SVG Export Plug-In . SVG Version: 6.00 Build 0)  -->
<svg version="1.1" xmlns="http://www.w3.org/2000/svg" xmlns:xlink="http://www.w3.org/1999/xlink" x="0px" y="0px"
	 viewBox="0 0 44 44" style="enable-background:new 0 0 44 44;" xml:space="preserve">
<style type="text/css">
	.st0{fill:#312C30;}
	.st1{fill-rule:evenodd;clip-rule:evenodd;fill:#312C30;}
</style>
<g id="Layer_1">
</g>
<g id="Design">
	<g>
		<g>
			<path class="st0" d="M22.1,43.8c-12.08,0-21.9-9.82-21.9-21.9S10.02,0,22.1,0C34.18,0,44,9.82,44,21.9S34.18,43.8,22.1,43.8z
				 M22.1,2.35c-10.78,0-19.55,8.77-19.55,19.55c0,10.78,8.77,19.55,19.55,19.55c10.78,0,19.55-8.77,19.55-19.55
				C41.65,11.12,32.88,2.35,22.1,2.35z"/>
		</g>
		<g>
			<g>
				<path class="st1" d="M32.31,24.45c-1.01-0.6-2.32-1.28-3.51-0.79c-0.91,0.37-1.49,1.8-2.08,2.53c-0.3,0.37-0.67,0.43-1.13,0.25
					c-3.42-1.36-6.05-3.65-7.94-6.8c-0.32-0.49-0.26-0.88,0.12-1.33c0.57-0.67,1.29-1.43,1.44-2.34c0.15-0.91-0.27-1.96-0.64-2.77
					c-0.48-1.03-1.01-2.5-2.04-3.08c-0.95-0.54-2.2-0.24-3.04,0.45c-1.46,1.19-2.16,3.05-2.14,4.89c0.01,0.52,0.07,1.05,0.19,1.55
					c0.29,1.22,0.86,2.35,1.49,3.43c0.48,0.81,1,1.6,1.56,2.37c1.83,2.49,4.11,4.65,6.75,6.26c1.32,0.81,2.74,1.52,4.21,2
					c1.65,0.54,3.12,1.11,4.9,0.77c1.86-0.35,3.7-1.51,4.44-3.3c0.22-0.53,0.33-1.12,0.21-1.69C34.82,25.7,33.25,25.01,32.31,24.45z
					"/>
			</g>
		</g>
	</g>
</g>
</svg>
