<?xml version="1.0" encoding="utf-8"?>
<!-- Generator: Adobe Illustrator 24.1.2, SVG Export Plug-In . SVG Version: 6.00 Build 0)  -->
<svg version="1.1" xmlns="http://www.w3.org/2000/svg" xmlns:xlink="http://www.w3.org/1999/xlink" x="0px" y="0px"
	 viewBox="0 0 44 44" style="enable-background:new 0 0 44 44;" xml:space="preserve">
<style type="text/css">
	.st0{fill:#312C30;}
</style>
<g id="Layer_1">
</g>
<g id="Design">
	<g>
		<path class="st0" d="M22.1,43.8c-12.08,0-21.9-9.82-21.9-21.9S10.02,0,22.1,0C34.18,0,44,9.82,44,21.9S34.18,43.8,22.1,43.8z
			 M22.1,2.35c-10.78,0-19.55,8.77-19.55,19.55c0,10.78,8.77,19.55,19.55,19.55c10.78,0,19.55-8.77,19.55-19.55
			C41.65,11.12,32.88,2.35,22.1,2.35z"/>
	</g>
</g>
<g id="Capa_1">
	<path class="st0" d="M31.87,11.57H11.76c-1.73,0-3.13,1.35-3.13,3.01v14.02c0,1.66,1.4,3.01,3.13,3.01h20.11
		c1.73,0,3.13-1.35,3.13-3.01V14.58C35,12.92,33.6,11.57,31.87,11.57z M31.87,28.94H11.76c-0.25,0-0.48-0.16-0.48-0.35V16.43
		l9.09,7.68c0.19,0.16,0.42,0.24,0.67,0.24l1.54,0c0.24,0,0.48-0.09,0.67-0.24l9.09-7.68v12.16C32.35,28.78,32.12,28.94,31.87,28.94
		z M21.82,21.72l-8.85-7.49h17.69L21.82,21.72z"/>
</g>
</svg>
