<?xml version="1.0" encoding="utf-8"?>
<!-- Generator: Adobe Illustrator 24.1.2, SVG Export Plug-In . SVG Version: 6.00 Build 0)  -->
<svg version="1.1" id="Layer_1" xmlns="http://www.w3.org/2000/svg" xmlns:xlink="http://www.w3.org/1999/xlink" x="0px" y="0px"
	 viewBox="0 0 44 44" style="enable-background:new 0 0 44 44;" xml:space="preserve">
<style type="text/css">
	.st0{fill:#FFFFFF;}
	.st1{fill-rule:evenodd;clip-rule:evenodd;fill:#FFFFFF;}
</style>
<g id="Layer_1_1_">
</g>
<g id="Design">
	<g>
		<g>
			<path class="st0" d="M22.1,43.8C10.1,43.8,0.2,34,0.2,21.9C0.2,9.8,10.1,0,22.1,0C34.2,0,44,9.8,44,21.9
				C44,34,34.2,43.8,22.1,43.8z M22.1,2.3c-10.8,0-19.5,8.8-19.5,19.5s8.8,19.5,19.5,19.5s19.5-8.8,19.5-19.5S32.9,2.3,22.1,2.3z"/>
		</g>
		<g>
			<path class="st1" d="M18.7,22v12.7c0,0.2,0.1,0.3,0.3,0.3h4.7c0.2,0,0.3-0.2,0.3-0.3V21.8h3.4c0.2,0,0.3-0.1,0.3-0.3l0.3-3.9
				c0-0.2-0.1-0.4-0.3-0.4h-3.7v-2.8c0-0.6,0.5-1.2,1.2-1.2h2.6c0.2,0,0.3-0.1,0.3-0.3V9.1c0-0.2-0.1-0.3-0.3-0.3h-4.5
				c-2.6,0-4.7,2.1-4.7,4.7v3.7h-2.4c-0.2,0-0.3,0.1-0.3,0.3v3.9c0,0.2,0.1,0.3,0.3,0.3h2.4L18.7,22L18.7,22z"/>
		</g>
	</g>
</g>
</svg>
