<?xml version="1.0" encoding="utf-8"?>
<!-- Generator: Adobe Illustrator 24.1.2, SVG Export Plug-In . SVG Version: 6.00 Build 0)  -->
<svg version="1.1" id="Layer_1" xmlns="http://www.w3.org/2000/svg" xmlns:xlink="http://www.w3.org/1999/xlink" x="0px" y="0px"
	 viewBox="0 0 44 44" style="enable-background:new 0 0 44 44;" xml:space="preserve">
<style type="text/css">
	.st0{fill:#FFFFFF;}
</style>
<g id="Layer_1_1_">
</g>
<g id="Design">
	<g>
		<path class="st0" d="M22.1,43.8C10,43.8,0.2,34,0.2,21.9S10,0,22.1,0S44,9.8,44,21.9S34.2,43.8,22.1,43.8z M22.1,2.1
			C11.2,2.1,2.3,11,2.3,21.9s8.9,19.8,19.8,19.8s19.8-8.9,19.8-19.8S33,2.1,22.1,2.1z M29,13.6c-0.8,0-1.5,0.6-1.5,1.5
			s0.6,1.5,1.5,1.5c0.8,0,1.5-0.6,1.5-1.5C30.5,14.3,29.8,13.6,29,13.6z M22.3,15.6c-3.5,0-6.3,2.8-6.3,6.3s2.8,6.3,6.3,6.3
			s6.3-2.8,6.3-6.3S25.7,15.6,22.3,15.6z M22.3,26.3c-2.4,0-4.4-2-4.4-4.4s2-4.4,4.4-4.4s4.4,2,4.4,4.4S24.7,26.3,22.3,26.3z
			 M35,16.6c0-4.3-3.4-7.7-7.7-7.7H17.1c-4.3,0-7.7,3.4-7.7,7.7v10.2c0,4.3,3.4,7.7,7.7,7.7h10.2c4.3,0,7.7-3.4,7.7-7.7V16.6
			L35,16.6z M32.6,26.8c0,2.9-2.3,5.3-5.3,5.3H17.1c-2.9,0-5.3-2.3-5.3-5.3V16.6c0-2.9,2.4-5.3,5.3-5.3h10.2c2.9,0,5.3,2.4,5.3,5.3
			V26.8z"/>
	</g>
</g>
</svg>
