<?xml version="1.0" encoding="utf-8"?>
<!-- Generator: Adobe Illustrator 25.2.0, SVG Export Plug-In . SVG Version: 6.00 Build 0)  -->
<svg version="1.1" id="Layer_1" xmlns="http://www.w3.org/2000/svg" xmlns:xlink="http://www.w3.org/1999/xlink" x="0px" y="0px"
	 viewBox="0 0 44 44" style="enable-background:new 0 0 44 44;" xml:space="preserve">
<style type="text/css">
	.st0{fill:none;stroke:#FFFFFF;stroke-width:2;stroke-miterlimit:10;}
	.st1{fill:#FFFFFF;}
	.st2{fill:#02B902;}
</style>
<g id="Layer_1_1_">
</g>
<g id="LINE_LOGO">
	<g>
		<circle class="st0" cx="22" cy="22.1" r="20.4"/>
		<g id="TYPE_A_19_">
			<g>
				<path class="st1" d="M35.6,20.9c0-6.2-6.2-11.1-13.6-11.1s-13.6,4.9-13.6,11c0,5.4,4.9,10,11.4,10.9c0.5,0.1,1,0.3,1.2,0.7
					c0.1,0.4,0.1,0.9,0,1.2c0,0-0.2,0.9-0.2,1.1c-0.1,0.4-0.3,1.3,1.2,0.7c1.4-0.7,7.8-4.6,10.7-7.9l0,0
					C34.7,25.5,35.6,23.3,35.6,20.9"/>
				<g>
					<path class="st2" d="M19.2,17.9h-0.9c-0.2,0-0.3,0.1-0.3,0.3v6c0,0.2,0.1,0.3,0.3,0.3h0.9c0.2,0,0.3-0.1,0.3-0.3v-6
						C19.5,18,19.4,17.9,19.2,17.9"/>
					<path class="st2" d="M25.8,17.9h-0.9c-0.2,0-0.3,0.1-0.3,0.3v3.5l-2.7-3.6l0,0l0,0l0,0l0,0l0,0l0,0l0,0l0,0l0,0l0,0l0,0l0,0
						l0,0l0,0l0,0l0,0l0,0l0,0l0,0H21c-0.2,0-0.3,0.1-0.3,0.3v6c0,0.2,0.1,0.3,0.3,0.3h0.9c0.2,0,0.3-0.1,0.3-0.3v-3.5l2.7,3.6
						c0,0,0,0,0.1,0.1l0,0l0,0l0,0l0,0l0,0l0,0l0,0l0,0c0,0,0,0,0.1,0H26c0.2,0,0.3-0.1,0.3-0.3v-6C26.1,18,25.9,17.9,25.8,17.9"/>
					<path class="st2" d="M17,22.8h-2.6v-4.7c0-0.2-0.1-0.3-0.3-0.3h-0.9c-0.2,0-0.3,0.1-0.3,0.3v6l0,0c0,0.1,0,0.1,0.1,0.2l0,0l0,0
						c0.1,0,0.1,0.1,0.2,0.1l0,0H17c0.2,0,0.3-0.1,0.3-0.3v-0.9C17.2,22.9,17.1,22.8,17,22.8"/>
					<path class="st2" d="M31.1,19.4c0.2,0,0.3-0.1,0.3-0.3v-0.9c0-0.2-0.1-0.3-0.3-0.3h-3.8l0,0c-0.1,0-0.1,0-0.2,0.1l0,0l0,0
						c0,0-0.1,0.1-0.1,0.2l0,0v6l0,0c0,0.1,0,0.1,0.1,0.2l0,0l0,0c0,0,0.1,0.1,0.2,0.1l0,0h3.8c0.2,0,0.3-0.1,0.3-0.3v-0.9
						c0-0.2-0.1-0.3-0.3-0.3h-2.6v-1h2.6c0.2,0,0.3-0.1,0.3-0.3v-0.9c0-0.2-0.1-0.3-0.3-0.3h-2.6v-1L31.1,19.4L31.1,19.4z"/>
				</g>
			</g>
		</g>
	</g>
</g>
<g id="Design">
</g>
</svg>
