<?xml version="1.0" encoding="utf-8"?>
<!-- Generator: Adobe Illustrator 24.1.2, SVG Export Plug-In . SVG Version: 6.00 Build 0)  -->
<svg version="1.1" id="Layer_1" xmlns="http://www.w3.org/2000/svg" xmlns:xlink="http://www.w3.org/1999/xlink" x="0px" y="0px"
	 viewBox="0 0 44 44" style="enable-background:new 0 0 44 44;" xml:space="preserve">
<style type="text/css">
	.st0{fill:#FFFFFF;}
</style>
<g id="Layer_1_1_">
</g>
<g id="Design">
	<g>
		<g>
			<g>
				<path class="st0" d="M22,43.9C9.9,43.9,0.1,34.1,0.1,22C0.1,9.9,9.9,0.1,22,0.1C34,0.1,43.8,9.9,43.8,22
					C43.9,34.1,34,43.9,22,43.9z M22,2.5C11.2,2.5,2.5,11.2,2.5,22S11.2,41.5,22,41.5S41.5,32.8,41.5,22C41.5,11.2,32.7,2.5,22,2.5z
					"/>
			</g>
			<g>
				<g>
					<path class="st0" d="M34.3,23.7v8.2c0,0.2-0.2,0.4-0.4,0.4h-4.2c-0.2,0-0.4-0.2-0.4-0.4v-7.6c0-2-0.7-3.4-2.5-3.4
						c-1.4,0-2.2,0.9-2.5,1.8c-0.1,0.3-0.2,0.8-0.2,1.2v8c0,0.2-0.2,0.4-0.4,0.4h-4.2c-0.2,0-0.4-0.2-0.4-0.4c0-2,0-11.8,0-14.1
						c0-0.2,0.2-0.4,0.4-0.4h4.2c0.2,0,0.4,0.2,0.4,0.4v1.7c0,0,0,0,0,0h0v0c0.7-1,1.8-2.5,4.5-2.5C31.9,17,34.3,19.1,34.3,23.7
						L34.3,23.7z M11.9,32.2h4.2c0.2,0,0.4-0.2,0.4-0.4V17.7c0-0.2-0.2-0.4-0.4-0.4h-4.2c-0.2,0-0.4,0.2-0.4,0.4v14.2
						C11.6,32,11.7,32.2,11.9,32.2z"/>
				</g>
			</g>
		</g>
		<g>
			<circle class="st0" cx="13.9" cy="12.8" r="2.7"/>
		</g>
	</g>
</g>
</svg>
