<?xml version="1.0" encoding="utf-8"?>
<!-- Generator: Adobe Illustrator 25.2.0, SVG Export Plug-In . SVG Version: 6.00 Build 0)  -->
<svg version="1.1" id="Layer_1" xmlns="http://www.w3.org/2000/svg" xmlns:xlink="http://www.w3.org/1999/xlink" x="0px" y="0px"
	 viewBox="0 0 48 48" style="enable-background:new 0 0 48 48;" xml:space="preserve">
<style type="text/css">
	.st0{fill:#FFFFFF;}
	.st1{fill:#1340BE;}
</style>
<path class="st0" d="M39,44.2H8.8c-3.1,0-5.5-2.5-5.5-5.5V9.2c0-3,2.4-5.5,5.5-5.5H39c3.1,0,5.5,2.5,5.5,5.5v29.5
	C44.5,41.8,42.1,44.2,39,44.2z"/>
<g>
	<path class="st1" d="M25.4,18.1c-1.3,0-2.3,0.5-3,1.6c-0.8,1.1-1.1,2.5-1.1,4.3c0,3.9,1.5,5.7,4.4,5.7c0.9,0,1.7-0.1,2.6-0.3
		s1.6-0.5,2.5-0.9v4.5c-1.6,0.8-3.6,1.1-5.6,1.1c-3,0-5.3-0.9-6.9-2.6c-1.6-1.7-2.4-4.3-2.4-7.6c0-2.1,0.4-3.9,1.2-5.4
		c0.8-1.5,1.9-2.8,3.4-3.6c1.5-0.9,3.1-1.3,5.2-1.3c2.2,0,4.2,0.4,6.2,1.4l-1.6,4.2c-0.8-0.3-1.5-0.6-2.2-0.9
		C27.1,18.3,26.2,18.1,25.4,18.1z"/>
</g>
</svg>
