<?xml version="1.0" encoding="utf-8"?>
<!-- Generator: Adobe Illustrator 25.2.0, SVG Export Plug-In . SVG Version: 6.00 Build 0)  -->
<svg version="1.1" id="Layer_1" xmlns="http://www.w3.org/2000/svg" xmlns:xlink="http://www.w3.org/1999/xlink" x="0px" y="0px"
	 viewBox="0 0 75 75" style="enable-background:new 0 0 75 75;" xml:space="preserve">
<style type="text/css">
	.st0{fill:#1340BE;}
	.st1{fill:#FFFFFF;}
</style>
<path class="st0" d="M69.4,75H5.6C2.5,75,0,72.5,0,69.4V5.6C0,2.5,2.5,0,5.6,0h63.8C72.5,0,75,2.5,75,5.6v63.8
	C75,72.5,72.5,75,69.4,75z"/>
<g>
	<path class="st1" d="M40.3,26.8c-2.4,0-4.1,1-5.5,2.9c-1.4,2-2,4.5-2,7.8c0,7.1,2.7,10.4,8,10.4c1.6,0,3.1-0.2,4.7-0.6
		s2.9-1,4.5-1.6v8.2c-2.9,1.4-6.5,2-10.2,2c-5.5,0-9.6-1.6-12.5-4.7c-2.9-3.1-4.3-7.8-4.3-13.7c0-3.7,0.8-7.1,2.2-9.8
		s3.5-5.1,6.1-6.5c2.7-1.6,5.7-2.4,9.4-2.4c3.9,0,7.6,0.8,11.2,2.5L49,29.2c-1.4-0.6-2.7-1.2-3.9-1.6C43.3,27.2,41.7,26.8,40.3,26.8
		z"/>
</g>
</svg>
