<?xml version="1.0" encoding="utf-8"?>
<!-- Generator: Adobe Illustrator 24.1.2, SVG Export Plug-In . SVG Version: 6.00 Build 0)  -->
<svg version="1.2" baseProfile="tiny" id="Layer_1" xmlns="http://www.w3.org/2000/svg" xmlns:xlink="http://www.w3.org/1999/xlink"
	 x="0px" y="0px" viewBox="0 0 436 300" overflow="visible" xml:space="preserve">
<g id="Layer_1_1_">
	<g id="Layer_1-2">
		<line fill="none" stroke="#1C1C1C" stroke-width="0.25" stroke-miterlimit="10" x1="17" y1="291.9" x2="435.1" y2="291.9"/>
	</g>
</g>
<g id="Background_Complete">
	<path fill="#E1E1E1" d="M238.5,188.9c0.5-0.3,1.1-0.4,1.7-0.3c0.6,0,1.2,0.1,1.7,0.3c0,0.2-0.8,0.3-1.7,0.3
		C239.3,189.2,238.5,189.1,238.5,188.9z"/>
	<path fill="#E1E1E1" d="M231.4,188.9c0.5-0.2,1.1-0.4,1.7-0.3c0.6-0.1,1.2,0,1.7,0.3c0,0.2-0.7,0.3-1.7,0.3
		C232.1,189.2,231.4,189.1,231.4,188.9z"/>
	<path fill="#E1E1E1" d="M224.5,188.9c0.5-0.3,1.1-0.4,1.7-0.3c0.6,0,1.2,0.1,1.7,0.3c0,0.2-0.8,0.3-1.7,0.3
		S224.5,189.1,224.5,188.9z"/>
	<path fill="#E1E1E1" d="M217.4,188.9c0.5-0.2,1.1-0.4,1.7-0.3c0.6-0.1,1.2,0,1.7,0.3c0,0.2-0.7,0.3-1.7,0.3
		S217.4,189.1,217.4,188.9z"/>
	<path fill="#E1E1E1" d="M210.5,188.9c0.5-0.3,1.1-0.4,1.7-0.3c0.6,0,1.2,0.1,1.7,0.3c0,0.2-0.8,0.3-1.7,0.3
		S210.5,189.1,210.5,188.9z"/>
	<path fill="#E1E1E1" d="M203.4,188.9c0.5-0.2,1.1-0.4,1.7-0.3c0.6-0.1,1.2,0,1.7,0.3c0,0.2-0.7,0.3-1.7,0.3
		S203.4,189.1,203.4,188.9z"/>
	<path fill="#E1E1E1" d="M196.5,188.9c0.5-0.3,1.1-0.4,1.7-0.3c0.6,0,1.2,0.1,1.7,0.3c0,0.2-0.8,0.3-1.7,0.3
		C197.3,189.2,196.5,189.1,196.5,188.9z"/>
	<path fill="#E1E1E1" d="M189.4,188.9c0.5-0.2,1.1-0.4,1.7-0.3c0.6-0.1,1.2,0,1.7,0.3c0,0.2-0.7,0.3-1.7,0.3
		C190.2,189.2,189.4,189.1,189.4,188.9z"/>
	<path fill="#E1E1E1" d="M182.5,188.9c0.5-0.3,1.1-0.4,1.7-0.3c0.6,0,1.2,0.1,1.7,0.3c0,0.2-0.8,0.3-1.7,0.3
		S182.5,189.1,182.5,188.9z"/>
	<path fill="#E1E1E1" d="M175.5,188.9c0.5-0.2,1.1-0.4,1.7-0.3c0.6-0.1,1.2,0,1.7,0.3c0,0.2-0.7,0.3-1.7,0.3
		S175.5,189.1,175.5,188.9z"/>
	<path fill="#E1E1E1" d="M168.5,188.9c0.5-0.3,1.1-0.4,1.7-0.3c0.6,0,1.2,0.1,1.7,0.3c0,0.2-0.8,0.3-1.7,0.3
		S168.5,189.1,168.5,188.9z"/>
	<path fill="#E1E1E1" d="M161.5,188.9c0.5-0.2,1.1-0.4,1.7-0.3c0.6-0.1,1.3,0,1.8,0.3c0,0.2-0.8,0.3-1.8,0.3
		S161.5,189.1,161.5,188.9z"/>
	<path fill="#E1E1E1" d="M156.5,187c0.2,0,0.3,0.7,0.3,1.7v0.2l-0.3-0.3l1.5,0.3c0,0.2-0.6,0.3-1.5,0.3h-0.2v-0.5
		C156.2,188.1,156.2,187.5,156.5,187z"/>
	<path fill="#E1E1E1" d="M156.5,179.9c0.2,0,0.3,0.8,0.3,1.7s-0.1,1.7-0.3,1.7c-0.2-0.6-0.3-1.1-0.2-1.7
		C156.2,181.1,156.3,180.5,156.5,179.9z"/>
	<path fill="#E1E1E1" d="M156.5,173c0.2,0,0.3,0.7,0.3,1.7c0,1-0.1,1.7-0.3,1.7c-0.2-0.6-0.3-1.1-0.2-1.7
		C156.2,174.1,156.2,173.6,156.5,173z"/>
	<path fill="#E1E1E1" d="M156.5,165.9c0.2,0,0.3,0.8,0.3,1.7s-0.1,1.7-0.3,1.7c-0.2-0.6-0.3-1.1-0.2-1.7
		C156.2,167.1,156.3,166.5,156.5,165.9z"/>
	<path fill="#E1E1E1" d="M156.5,159c0.2,0,0.3,0.7,0.3,1.7s-0.1,1.7-0.3,1.7c-0.2-0.6-0.3-1.1-0.2-1.7
		C156.2,160.2,156.2,159.6,156.5,159z"/>
	<path fill="#E1E1E1" d="M156.5,152c0.2,0,0.3,0.8,0.3,1.7c0,0.9-0.1,1.7-0.3,1.7c-0.2-0.6-0.3-1.1-0.2-1.7
		C156.2,153.1,156.3,152.5,156.5,152z"/>
	<path fill="#E1E1E1" d="M156.5,145c0.2,0,0.3,0.7,0.3,1.7s-0.1,1.7-0.3,1.7c-0.2-0.6-0.3-1.1-0.2-1.7
		C156.2,146.2,156.2,145.6,156.5,145z"/>
	<path fill="#E1E1E1" d="M156.5,138c0.2,0,0.3,0.8,0.3,1.7s-0.1,1.7-0.3,1.7c-0.2-0.6-0.3-1.1-0.2-1.7
		C156.2,139.1,156.3,138.5,156.5,138z"/>
	<path fill="#E1E1E1" d="M156.5,131c0.2,0,0.3,0.7,0.3,1.7c0,1-0.1,1.7-0.3,1.7c-0.2-0.6-0.3-1.1-0.2-1.7
		C156.2,132.2,156.2,131.6,156.5,131z"/>
	<path fill="#E1E1E1" d="M156.5,124c0.2,0,0.3,0.8,0.3,1.7c0,0.9-0.1,1.8-0.3,1.8c-0.2-0.6-0.3-1.2-0.2-1.8
		C156.2,125.1,156.3,124.5,156.5,124z"/>
	<path fill="#E1E1E1" d="M156.5,117c0.2,0,0.3,0.7,0.3,1.7c0,1-0.1,1.7-0.3,1.7c-0.2-0.6-0.3-1.1-0.2-1.7
		C156.2,118.2,156.2,117.6,156.5,117z"/>
	<path fill="#E1E1E1" d="M156.5,110c0.2,0,0.3,0.8,0.3,1.7c0,0.9-0.1,1.8-0.3,1.8c-0.2-0.6-0.3-1.2-0.2-1.8
		C156.2,111.1,156.3,110.5,156.5,110z"/>
	<path fill="#E1E1E1" d="M157.1,103.5c0,0.1-0.2,0.2-0.6,0.2l0.3-0.2v1.2c0,0.9-0.1,1.7-0.3,1.7c-0.2-0.6-0.3-1.1-0.2-1.7v-1.4h0.1
		C156.9,103.3,157.1,103.4,157.1,103.5z"/>
	<path fill="#E1E1E1" d="M164,103.5c0,0.2-0.8,0.3-1.7,0.3s-1.7-0.1-1.7-0.3s0.8-0.3,1.7-0.3S164,103.3,164,103.5z"/>
	<path fill="#E1E1E1" d="M171.1,103.5c0,0.2-0.8,0.3-1.8,0.3c-1,0-1.7-0.1-1.7-0.3s0.8-0.3,1.7-0.3
		C170.1,103.2,171.1,103.3,171.1,103.5z"/>
	<path fill="#E1E1E1" d="M178,103.5c0,0.2-0.8,0.3-1.7,0.3c-0.9,0-1.7-0.1-1.7-0.3s0.7-0.3,1.7-0.3C177.3,103.2,178,103.3,178,103.5
		z"/>
	<path fill="#E1E1E1" d="M185.1,103.5c0,0.2-0.8,0.3-1.8,0.3s-1.7-0.1-1.7-0.3s0.8-0.3,1.7-0.3S185.1,103.3,185.1,103.5z"/>
	<path fill="#E1E1E1" d="M192,103.5c0,0.2-0.8,0.3-1.7,0.3s-1.7-0.1-1.7-0.3s0.7-0.3,1.7-0.3S192,103.3,192,103.5z"/>
	<ellipse fill="#E1E1E1" cx="197.2" cy="103.5" rx="1.7" ry="0.3"/>
	<path fill="#E1E1E1" d="M206,103.5c0,0.2-0.8,0.3-1.7,0.3s-1.7-0.1-1.7-0.3s0.7-0.3,1.7-0.3S206,103.3,206,103.5z"/>
	<path fill="#E1E1E1" d="M212.9,103.5c0,0.2-0.7,0.3-1.7,0.3c-1,0-1.7-0.1-1.7-0.3s0.8-0.3,1.7-0.3
		C212.1,103.2,212.9,103.3,212.9,103.5z"/>
	<path fill="#E1E1E1" d="M220,103.5c0,0.2-0.8,0.3-1.7,0.3c-0.9,0-1.7-0.1-1.7-0.3s0.7-0.3,1.7-0.3C219.3,103.2,220,103.3,220,103.5
		z"/>
	<path fill="#E1E1E1" d="M226.9,103.5c0,0.2-0.7,0.3-1.7,0.3s-1.7-0.1-1.7-0.3s0.8-0.3,1.7-0.3S226.9,103.3,226.9,103.5z"/>
	<path fill="#E1E1E1" d="M234,103.5c0,0.2-0.8,0.3-1.7,0.3s-1.7-0.1-1.7-0.3s0.7-0.3,1.7-0.3S234,103.3,234,103.5z"/>
	<path fill="#E1E1E1" d="M240.9,103.5c0,0.2-0.7,0.3-1.7,0.3s-1.7-0.1-1.7-0.3s0.8-0.3,1.7-0.3S240.9,103.3,240.9,103.5z"/>
	<path fill="#E1E1E1" d="M242,109.6c-0.2,0-0.3-0.8-0.3-1.7c0-0.9,0.1-1.7,0.3-1.7c0.3,0.5,0.4,1.1,0.3,1.7
		C242.3,108.4,242.2,109,242,109.6z"/>
	<path fill="#E1E1E1" d="M242,116.6c-0.2,0-0.3-0.8-0.3-1.8c0-1,0.1-1.7,0.3-1.7c0.2,0.5,0.4,1.1,0.3,1.7
		C242.3,115.4,242.2,116,242,116.6z"/>
	<path fill="#E1E1E1" d="M242,123.6c-0.2,0-0.3-0.8-0.3-1.7c0-0.9,0.1-1.7,0.3-1.7c0.3,0.5,0.4,1.1,0.3,1.7
		C242.3,122.4,242.2,123,242,123.6z"/>
	<path fill="#E1E1E1" d="M242,130.5c-0.2,0-0.3-0.7-0.3-1.7s0.1-1.7,0.3-1.7c0.2,0.5,0.4,1.1,0.3,1.7
		C242.3,129.4,242.2,130,242,130.5z"/>
	<path fill="#E1E1E1" d="M242,137.6c-0.2,0-0.3-0.8-0.3-1.7s0.1-1.7,0.3-1.7c0.3,0.5,0.4,1.1,0.3,1.7
		C242.3,136.4,242.2,137,242,137.6z"/>
	<path fill="#E1E1E1" d="M242,144.5c-0.2,0-0.3-0.7-0.3-1.7c0-1,0.1-1.7,0.3-1.7c0.2,0.5,0.4,1.1,0.3,1.7
		C242.3,143.4,242.2,144,242,144.5z"/>
	<path fill="#E1E1E1" d="M242,151.5c-0.2,0-0.3-0.8-0.3-1.7c0-0.9,0.1-1.7,0.3-1.7c0.3,0.5,0.4,1.1,0.3,1.7
		C242.3,150.4,242.2,151,242,151.5z"/>
	<path fill="#E1E1E1" d="M242,158.5c-0.2,0-0.3-0.7-0.3-1.7s0.1-1.7,0.3-1.7c0.2,0.5,0.4,1.1,0.3,1.7
		C242.3,157.4,242.2,158,242,158.5z"/>
	<path fill="#E1E1E1" d="M242,165.5c-0.2,0-0.3-0.8-0.3-1.7s0.1-1.7,0.3-1.7c0.3,0.5,0.4,1.1,0.3,1.7
		C242.3,164.4,242.2,165,242,165.5z"/>
	<path fill="#E1E1E1" d="M242,172.5c-0.2,0-0.3-0.7-0.3-1.7s0.1-1.7,0.3-1.7c0.2,0.5,0.4,1.1,0.3,1.7
		C242.3,171.3,242.2,171.9,242,172.5z"/>
	<path fill="#E1E1E1" d="M242,179.5c-0.2,0-0.3-0.8-0.3-1.7s0.1-1.7,0.3-1.7c0.3,0.5,0.4,1.1,0.3,1.7
		C242.3,178.4,242.2,179,242,179.5z"/>
	<path fill="#E1E1E1" d="M242,186.5c-0.2,0-0.3-0.7-0.3-1.7c0-1,0.1-1.7,0.3-1.7c0.2,0.5,0.4,1.1,0.3,1.7
		C242.3,185.3,242.2,185.9,242,186.5z"/>
	<rect x="238.8" y="185" fill="#E1E1E1" width="6.3" height="6.3"/>
	<rect x="153.4" y="185.8" fill="#E1E1E1" width="6.3" height="6.3"/>
	<rect x="238.8" y="99.8" fill="#E1E1E1" width="6.3" height="6.3"/>
	<rect x="153.4" y="100.4" fill="#E1E1E1" width="6.3" height="6.3"/>
</g>
<g id="Character_3">
	<path fill="#121212" d="M49.9,291.8c-2.7-14.3-5.9-34.6-4.8-43c1.6-13.5,10.7-49,10.7-49l73,1.2c0.9-0.2,8.4,33.7,7.4,46.9
		c-0.6,8.3-3.3,29.3-5.3,43.9H97.1l-4.3-49.8l0.8,49.8H49.9z"/>
	<path fill="#375A64" d="M96,208.8v4.8c-0.1,2.9-0.3,6.9-0.6,11.3c-0.3,4.4-0.9,8.5-1.3,11.3c-0.4,2.9-0.4,2.6-0.5,3.4l-0.3,1.2
		c0-0.4,0-0.8,0.1-1.2c0.1-0.9,0.2-2,0.4-3.5c0.2-1.4,0.7-6.8,1.1-11.2c0.4-4.4,0.6-8.5,0.8-11.4c0-1.3,0.1-2.6,0.1-3.4
		S95.9,208.8,96,208.8z"/>
	<path fill="#375A64" d="M101.5,211.5c-0.1,0,0.2-0.1,0.6,0c0.6,0.1,1.2,0.4,1.6,0.9l0.6,1.2c0.1,0.5,0,1-0.1,1.5
		c-0.5,1.1-1.6,1.8-2.8,1.8c-1.2,0-2.3-0.8-2.7-1.9c-0.2-0.5-0.2-1-0.1-1.5c0.1-0.5,0.3-0.9,0.7-1.1c0.4-0.5,1-0.8,1.6-0.8l0,0
		c-0.6,0.1-1.1,0.4-1.4,0.8c-0.6,0.6-0.8,1.5-0.4,2.2c0.3,1,1.2,1.7,2.2,1.7c1-0.1,1.9-0.7,2.3-1.6c0.2-0.8,0.1-1.7-0.4-2.3
		c-0.4-0.4-0.8-0.7-1.3-0.9L101.5,211.5z"/>
	<path fill="#375A64" d="M133.5,217.2l-0.8,0.3l-2.3,0.4c-2.6,0.2-5.1-0.2-7.5-1.3c-2.3-1.1-4.3-2.9-5.8-5c-0.4-0.7-0.8-1.3-1.1-2
		l-0.3-0.8c0.5,0.9,1.1,1.8,1.7,2.7c1.5,2,3.5,3.7,5.7,4.8c2.3,1,4.8,1.5,7.3,1.4C132.2,217.5,133.5,217.1,133.5,217.2z"/>
	<path fill="#121212" d="M63.6,54.6c-2.2,8.4-5.8,15.1-9.2,18.5c-3.4,3.4-7,7.4-6.9,12.2c0,1.9,0.7,4-0.1,5.6s-4,2.7-6.1,3.9
		c-3.1,2-4.9,5.5-4.8,9.2c0.2,3.7,1.8,7.1,4.5,9.6c2.7,2.7,6.9,4.6,10.2,2.8c3.3-1.8,3.1-3.3,4.1-5.3c5.2-10.6,9.9-21.4,14.2-32.4"
		/>
	<path fill="#121212" d="M84.9,18.5c6.1-6.6,15.6-8.9,24-5.7c8.3,3.4,13.8,11.5,13.8,20.4c0,5.5,0.3,11.1,1.1,16.5
		c0.5,4,0.5,8.3,1,12.3c0.5,4,0.2,7,0.4,11.7c0.1,3,2,5.6,4.2,7.8c2.1,2.1,4.7,3.8,6.7,6c5.5,6.3,5.9,16.3,1.7,23.6
		S125.6,123,117.3,124c-8.3,0.9-16.9-1.2-24.3-5.3c-4.8-2.6-9.3-6-12.2-10.7S77,97.3,79.3,92.3"/>
	<path fill="#131375" d="M102.6,88.8c0,0,18.9,5.5,20.7,8.5c1.8,3,7.8,38,7.8,38l-11.6,41.2c0,0,9.6,15.4,10.1,23.2
		c-21.5,13.8-45.6,9.9-70.8-1.1l-1.7-40.2l-2.5-64.4l15.6-5.4L102.6,88.8z"/>
	<path fill="#131375" d="M123.4,97.3l18.9,51.3l12.7-25.2l16.5,3.4l-9.5,39.8c-1,7.1-6.4,12.8-13.4,14.2l0,0
		c-5.8,1.2-11.9-0.8-15.8-5.2l-5.9-6.5L123.4,97.3z"/>
	<polygon fill="#FFC8AF" points="175.5,120.9 167.5,126.7 158.7,124.6 160.7,122.2 	"/>
	<polygon fill="#FAFAFA" points="204.2,49.5 139.9,77.4 140.2,96.1 132.9,103.6 157.5,125.7 164.6,117.6 183.8,115 	"/>
	<path fill="#1A2E35" d="M204.2,49.5c-0.5,1.8-8.3,27-20.1,65.5v0.2h-0.1l-19.2,2.7h0.1l-7.2,8.1l-0.2,0.2v-0.2l-12.6-11.2
		c-4.1-3.6-8.2-7.2-12.1-10.7h-0.2l0.2-0.2l7.3-7.7v0.2c-0.1-6.4-0.2-12.7-0.2-18.7h0.1l64.4-27.7l-64.5,27.7l0.2-0.2
		c0.1,6.1,0.2,12.3,0.3,18.7h-0.1l-7.3,7.8v-0.3l12.1,10.7l12.6,11.2h-0.4l7.3-8.1h0.1l19.1-2.7h-0.1
		C195.7,76.5,203.6,51.3,204.2,49.5z"/>
	<path fill="#121212" d="M178.1,95.2c-3.7,4.1-10,4.4-14.1,0.7c-4.1-3.7-4.4-10-0.7-14.1c3.7-4.1,10-4.4,14.1-0.8
		C181.4,84.7,181.8,91,178.1,95.2z"/>
	<path fill="#1A2E35" d="M204.2,49.5c0.1,0.1-7.4,8.9-16.5,19.7c-9.2,10.8-17,19.3-17.1,19.3c-0.1,0,7.4-8.9,16.7-19.6
		S204.1,49.5,204.2,49.5z"/>
	<path fill="#6161E0" d="M6,271.8L6,271.8c-6.6-5.9-7.2-16-1.3-22.6l121-136.9l24,21.5L28.8,270.5c-5.8,6.6-15.8,7.4-22.5,1.6
		C6.2,272,6.1,271.9,6,271.8z"/>
	
		<rect x="135.6" y="99.4" transform="matrix(0.6665 -0.7455 0.7455 0.6665 -40.7672 145.4594)" fill="#6161E0" width="13.2" height="37.8"/>
	<rect x="199.9" y="46.5" transform="matrix(0.6428 -0.766 0.766 0.6428 34.3435 173.7213)" fill="#131375" width="7" height="7"/>
	<path fill="#131375" d="M248,85.9c-0.2,0.3-20.7-16.5-45.9-37.6S157,10,157.2,9.7c0.2-0.3,20.7,16.5,45.9,37.6S248.3,85.6,248,85.9
		z"/>
	<path fill="#131375" d="M249,86.7c-0.7,0.9-2,1-2.9,0.3c-0.9-0.7-1-2-0.3-2.9c0.7-0.9,2-1,2.9-0.3C249.6,84.6,249.7,85.8,249,86.7z
		"/>
	<path fill="#131375" d="M158.7,11.1c-0.7,0.8-2,0.9-2.9,0.2c-0.9-0.7-1-2.1-0.3-3c0.8-0.8,2.1-0.9,3-0.2
		C159.4,8.8,159.5,10.1,158.7,11.1C158.7,11,158.7,11.1,158.7,11.1z"/>
	<image width="26" height="26" xlink:href="BA172205CE6A8420.png"  transform="matrix(1 0 0 1 124 112)">
	</image>
	<image width="4" height="22" xlink:href="BA172205CE6A8426.png"  transform="matrix(1 0 0 1 140 107)">
	</image>
	<path fill="#FFC8AF" d="M169,99.8l8.8,3.5l1.8,7l-4.2,10.6l-15.5,2.2l4.5-4.7l-0.5-4c0,0-4.4-1.4-4.5-2c-0.1-0.6,0.5-2.9,1.2-3
		s5.2,1.5,5.2,1.5s-5.4-4.3-5.2-4.9s0.7-2.5,1.7-2.7c1-0.2,9.8,3.9,9.8,3.9l1.4,3.3l1.2-5.2C174.8,105.4,167.1,103.2,169,99.8z"/>
	<path fill="#FF9A6C" d="M167.9,116.3c0.1,0.1,0.2-0.3,0.3-0.8c0.1-0.8,0-1.5-0.3-2.2c-0.3-0.7-0.7-1.3-1.2-1.8
		c-0.2-0.3-0.5-0.4-0.8-0.5c0.7,0.7,1.2,1.6,1.6,2.6C167.8,114.4,167.9,115.3,167.9,116.3z"/>
	<path fill="#FF9A6C" d="M172.1,114.8c-0.2-0.7-0.3-1.5-0.3-2.2c-0.1-0.9-0.3-1.7-0.5-2.6c-0.1-0.5-0.4-1-0.8-1.4
		c-0.4-0.4-0.9-0.6-1.4-0.8c-1.8-0.7-3.6-1.3-5.4-1.8l-2.2-0.7c0.7,0.5,1.4,0.8,2.1,1l5.4,1.9c0.4,0.2,0.9,0.4,1.2,0.7
		c0.3,0.4,0.6,0.8,0.7,1.2c0.3,0.8,0.5,1.6,0.5,2.5C171.6,114,172,114.9,172.1,114.8z"/>
	<path fill="#FF9A6C" d="M174.1,113.2c0.1-0.6,0.1-1.2-0.1-1.7c0-0.6-0.2-1.2-0.5-1.7c-0.1,0.6-0.1,1.2,0.1,1.7
		C173.6,112.1,173.8,112.7,174.1,113.2z"/>
	<path fill="#FFC8AF" d="M108,176.1l14.5-5c0.3-0.1,9.9-4.6,9.1-7.2c0,0,2.8-2.2,1.9-3.4l-3.9,1.5c0,0,5.5-3.5,4.5-6.7
		c0,0,0.6-1,0-1.7s-3.5,1.4-5.5,2.7l-4.1,1.6c-1.8,0.7-3.7,0.8-5.5,0.3l0,0c-0.9-0.3-1.4-1.2-1.2-2.1c0.7-3.1,0.6-6.4-0.3-9.5
		c0,0-1,0.4-1.7,2.6c-0.7,2.1-3.7,4.9-4.7,6.7l-2.2,4c-0.5,1.1-1.5,1.9-2.7,2.1l1,7.4L108,176.1z"/>
	<path fill="#FF9A6C" d="M123.4,162.8h0.5l1.2-0.6c1.4-0.6,2.8-1.3,4.1-2.1c1.5-1,2.8-2,3.7-2.8l0.9-1c0.3-0.2,0.4-0.3,0.4-0.4
		l-0.4,0.4l-1.1,0.8c-1.1,1-2.3,1.9-3.6,2.8c-1.3,0.8-2.6,1.6-4,2.2l-1.3,0.6L123.4,162.8z"/>
	<path fill="#FF9A6C" d="M123.6,165.6l1.1-0.4l2.3-1.1l2.1-1.5l0.8-0.7l-3.2,2l-2.2,1.2L123.6,165.6z"/>
	<path fill="#FF9A6C" d="M123.5,169l1.3-0.5c1.1-0.5,2.1-1,3.1-1.6c1-0.6,1.9-1.3,2.8-2c0.4-0.3,0.7-0.6,1-0.9l-1.1,0.8l-2.9,1.9
		l-3,1.6L123.5,169z"/>
	<path fill="#131375" d="M108,176.1l-52.4,15.8c-12.1-5.5-19.4-18-18.2-31.3c1.6-18.6,3.8-42.9,4.4-49c1.1-10.2,12.8-17.7,12.8-17.7
		c16.1,1,12.6,32.8,12.6,32.8l-6.5,36.6l45.6-1.8L108,176.1z"/>
	<path fill="#FFFFFF" d="M60.6,163.3c0,0,0-0.5,0.1-1.4s0.2-2.3,0.4-4c0.4-3.4,1.1-8,2-13c0.9-5,1.9-9.6,2.7-12.9l0.9-3.9
		c0.2-0.9,0.3-1.4,0.4-1.4c0.1,0-0.1,0.5-0.2,1.4c-0.1,0.9-0.5,2.3-0.8,4c-0.6,3.3-1.5,7.8-2.5,12.9c-0.9,5.1-1.7,9.6-2.2,12.9
		c-0.2,1.6-0.4,3-0.5,4C60.8,162.9,60.7,163.3,60.6,163.3z"/>
	<path fill="#FFFFFF" d="M106.2,161.5h-1.8l-5.3,0.3l-17.3,0.6l-17.4,0.5l-5.2,0.2l0,0l5.2-0.3l17.4-0.6l17.3-0.5l5.3-0.2H106.2z"/>
	<image width="63" height="26" xlink:href="BA172205CE6A8422.png"  transform="matrix(1 0 0 1 52 174)">
	</image>
	<path fill="#121212" d="M65.4,41c1.1-2.7,0.2-5.7-2.1-7.4c-2.4-1.5-5.5-1.4-7.8,0.4c-2.2,1.9-3.1,4.8-2.2,7.6
		c1.1,3.2,4.2,5.4,7.7,5.2c3.4-0.3,6.2-2.9,6.7-6.2"/>
	<path fill="#FFC8AF" d="M74.2,25.7V30l-0.9,64.2c-0.1,7.5,6.2,13.5,14.2,13.6l0,0c8.1,0,14.7-6,15-13.6s0.6-16.1,0.6-16.1
		s10.2-1.4,12.7-14.6c1.2-6.6,1.2-17.5,0.9-26.4c-0.3-7.8-6.9-13.8-14.7-13.5c-0.2,0-0.3,0-0.5,0L74.2,25.7z"/>
	<path fill="#1A2E35" d="M112.2,44.8c0,0.9-0.7,1.6-1.6,1.6c0,0-0.1,0-0.1,0c-0.8,0.1-1.5-0.4-1.6-1.2c0-0.1,0-0.2,0-0.3
		c0-0.9,0.7-1.6,1.6-1.6c0.8-0.1,1.6,0.5,1.7,1.3C112.2,44.6,112.2,44.7,112.2,44.8z"/>
	<path fill="#1A2E35" d="M114.2,42.6c-0.2,0.2-1.4-0.8-3.3-0.8s-3.2,0.8-3.4,0.6c-0.2-0.2,0.1-0.5,0.7-0.9c0.8-0.6,1.8-0.8,2.8-0.7
		c0.9,0,1.9,0.3,2.6,0.9C114.2,42.1,114.3,42.5,114.2,42.6z"/>
	<path fill="#1A2E35" d="M94.2,44.6c0,0.9-0.7,1.7-1.6,1.7c-0.9,0-1.7-0.7-1.7-1.6c0-0.9,0.7-1.6,1.6-1.6c0,0,0.1,0,0.1,0
		C93.5,43.1,94.2,43.7,94.2,44.6z"/>
	<path fill="#1A2E35" d="M96.2,42.4c-0.2,0.3-1.5-0.7-3.3-0.8c-1.7-0.1-3.3,0.9-3.5,0.6s0.2-0.5,0.7-0.9c0.8-0.5,1.8-0.7,2.8-0.7
		c1,0,1.9,0.3,2.7,0.9C96.1,41.9,96.3,42.3,96.2,42.4z"/>
	<path fill="#1A2E35" d="M102.4,56.2l3.1-0.4c0.4-0.1,0.9-0.1,1-0.4c0-0.5-0.1-1-0.3-1.4c-0.4-1.1-0.8-2.3-1.3-3.6
		c-1.7-5.2-3.1-9.4-2.9-9.4s1.8,4,3.7,9.1c0.4,1.3,0.8,2.5,1.2,3.7c0.2,0.6,0.3,1.2,0.1,1.8c-0.1,0.3-0.4,0.5-0.7,0.6h-0.8
		C104.5,56.3,103.4,56.3,102.4,56.2z"/>
	<path fill="#FFAF91" d="M103.1,78c-6.3-0.1-12.4-1.9-17.7-5.2c0,0,4.1,9.2,17.4,8.3L103.1,78z"/>
	<path fill="#FF4F5B" d="M103.6,61c-0.9-0.7-2.2-0.9-3.3-0.4c-0.7,0.3-1.3,0.9-1.6,1.6c-0.3,0.7-0.2,1.6,0.4,2.1
		c0.8,0.5,1.7,0.4,2.5-0.1c0.8-0.5,1.5-1.2,1.9-1.9c0.1-0.2,0.3-0.4,0.3-0.6C103.9,61.5,103.9,61.2,103.6,61"/>
	<path fill="#1A2E35" d="M98.3,59.2c0.2-0.1,0.8,1.8,2.9,2.8c2,0.9,4,0.1,4.1,0.4c0.1,0.3-0.4,0.5-1.2,0.7c-2.3,0.7-4.7-0.4-5.7-2.6
		C98.1,59.8,98.1,59.3,98.3,59.2z"/>
	<path fill="#1A2E35" d="M96.9,35.3c-0.2,0.5-2,0.2-4.2,0.4c-2.1,0.2-4,0.7-4.2,0.3c-0.2-0.4,0.2-0.7,0.9-1.1c0.9-0.6,2-0.9,3.1-1
		c1.1-0.1,2.2,0.1,3.3,0.5C96.6,34.7,96.9,35.1,96.9,35.3z"/>
	<path fill="#1A2E35" d="M113.6,37.3c-0.3,0.4-1.5-0.1-3.1-0.1c-1.5,0-2.9,0.2-3.1-0.3c-0.2-0.5,0-0.6,0.6-1
		c0.8-0.4,1.7-0.6,2.6-0.6c0.9,0.1,1.7,0.4,2.5,0.9C113.6,36.7,113.9,37.1,113.6,37.3z"/>
	<path fill="#121212" d="M91,21.5c3.5,4.7-0.2,11.4-4.3,15.6s-9.1,9.2-8,15s10.5,11,9.1,17.8c-0.4,2.5-2.3,4.5-2.3,6.9
		c-0.1,4.6,5.8,6.7,7.5,10.9s-4,11.4-4.1,17.7c-0.1,3.5,1.9,6.7,2,10.2c0.2,7.3-8.3,12.5-15.3,10.7c-7-1.7-11.7-8.6-13.2-15.6
		s0.7-16.9,1.8-24l-12.1,2.9c-2.2-2.1,0.8-4.5,1.3-7.6c1.3-7.7,6.3-14.2,8.8-21.6c2.5-7.4,2-13.4,3-20.1c0.9-6.7,3.1-13.8,8.2-18.3
		c5.1-4.5,14.1-5,18.3,0.4"/>
	<path fill="#FF4F5B" d="M64.8,46.2c-0.4-1.4-0.6-2.9-0.3-4.4c0-1.5,0.4-3,1.1-4.3c0.1,0-0.5,1.9-0.7,4.3
		C64.7,44.2,65,46.2,64.8,46.2z"/>
	<path fill="#121212" d="M59,67.4c-0.4,1.7-2,2.9-3.5,3.9c-1.7,1.1-3.3,2.4-4.8,3.7c-3.4,2.8-6.4,6-9.1,9.5
		c-2.6,3.5-4.5,7.5-5.6,11.7c-0.7,2.1-0.9,4.3-0.5,6.5c0.5,2.2,1.4,4.4,2.6,6.3c0.8,1.7,3.5,0.2,2.7-1.5c-1.1-1.9-1.9-4-2.3-6.1
		c-0.2-2.1,0.6-4.3,1.2-6.4c0.6-2,1.4-4,2.5-5.8c1.1-1.7,2.4-3.4,3.7-5c2.7-3.1,5.7-5.9,8.9-8.4c2.8-2.2,6.4-4,7.4-7.6
		c0.2-0.8-0.3-1.7-1.1-1.9C60.1,66.1,59.2,66.6,59,67.4z"/>
	<path fill="#121212" d="M40.9,100.7c1.1-3.1,2.7-5.9,4.6-8.6c1.7-2.8,3.8-5.5,6.1-7.9l-2.5-1.8c-2.2,3.2-4.3,6.6-6,10.1l2.7,1.5
		l4.6-10l-2.9-1.1c-0.6,1.9-1.6,3.7-2.9,5.3l2.7,1.5c0.5-2.1,1.2-4.2,2.1-6.1l-2.6-1.5c-0.9,1.9-2,3.8-3.3,5.5l2.9,1.2
		c0.6-1.8,1.4-3.6,2.3-5.3c0.4-0.7,0.2-1.7-0.6-2.1s-1.7-0.2-2.1,0.6c-1.4,2.5-2.9,4.8-4.7,6.9l2.3,1.8l1.2-2.7l-2.7-1.5L40,92.2
		l2.8,1.2l0.2-1.3c0.1-0.8-0.5-1.6-1.3-1.7c-0.6-0.1-1.1,0.2-1.5,0.6c-0.9,1.3-1.8,2.6-2.5,4l2.9,0.7v-0.9c0.1-1.5-2.2-2.1-2.9-0.8
		l-1.2,2.6c-0.8,1.7,1.6,3.3,2.7,1.5c2.3-4,5.5-7.5,9.2-10.2c0.7-0.4,1-1.2,0.6-1.9c0,0,0-0.1-0.1-0.1c-0.4-0.7-1.3-1-2-0.6
		c-4.1,3-7.6,6.9-10.2,11.3l2.7,1.5l1.2-2.6l-2.9-0.7v0.9c0,0.8,0.6,1.6,1.5,1.6c0.6,0,1.1-0.3,1.4-0.8c0.7-1.4,1.5-2.7,2.5-4
		l-2.9-1.2l-0.2,1.3c-0.2,0.7,0.2,1.5,0.9,1.7c0.6,0.3,1.5,0.1,1.8-0.5c0,0,0-0.1,0-0.1l2.6-5.6c0.4-0.7,0.1-1.6-0.6-2
		c-0.7-0.4-1.6-0.2-2,0.5l-1.2,2.7c-0.5,0.7-0.4,1.6,0.3,2.1c0.7,0.5,1.6,0.4,2.1-0.3c1.9-2.4,3.6-4.9,5.1-7.6L46.2,82
		c-1,1.9-1.9,3.9-2.7,6c-0.6,1.7,1.8,2.6,2.8,1.1c1.3-1.7,2.3-3.6,3.2-5.5c0.9-1.7-1.7-3.3-2.6-1.5c-1.1,2.2-2,4.5-2.6,6.8
		c-0.4,1.3,1.5,2.8,2.6,1.4c1.5-2,2.8-4.2,3.6-6.6c0.5-1.6-2-2.9-2.8-1.2l-4.6,10c-0.4,0.7-0.1,1.6,0.5,2.1c0.7,0.4,1.7,0.2,2.1-0.5
		c0,0,0-0.1,0-0.1c1.8-3.5,3.8-6.9,6-10.1c1-1.4-1.2-3-2.5-1.8c-1.2,1.1-4.5,5.5-6.5,8.4c-2,2.9-3.7,6.1-4.9,9.4
		C37.4,101.7,40.3,102.5,40.9,100.7z"/>
	<path fill="#121212" d="M52.7,77.3c5.3-5,9.7-10.8,13-17.3c0.9-1.7-1.7-3.3-2.7-1.5c-3.2,6.2-7.4,11.9-12.5,16.7
		C49.1,76.5,51.2,78.6,52.7,77.3z"/>
	<path fill="#121212" d="M80.8,63c3.5,2.9,6.1,6.7,8.6,10.4c2.5,3.7,3.8,8,3.8,12.5c-0.1,4.4-1.3,8.6-3.4,12.5c-2,4-4.6,8-3.4,12.6
		c0.4,1.9,3.4,1.1,3-0.8c-1.2-4.5,2.6-8.8,4.3-12.7c1.8-4.2,2.7-8.7,2.6-13.2c-0.3-4.5-1.8-8.9-4.4-12.6c-2.5-3.8-5.3-7.9-8.9-10.8
		C81.5,59.6,79.2,61.8,80.8,63L80.8,63z"/>
	<path fill="#121212" d="M84.5,70.9c1.1,3.3,2,6.6,2.6,10l2.8-1.1l-4.2-9.9c-0.6-1.5-2.8-0.6-2.9,0.7l-0.2,13.5h3.1
		c0-2.9,0.3-5.8,0.8-8.6l-3-0.4l0.6,7.9c0.2,1.9,3.1,1.9,3.1,0v-9.4c0-1.9-3-1.9-3.1,0c-0.1,2.9,0,5.7,0.2,8.6
		c0,0.8,0.7,1.5,1.5,1.5s1.5-0.7,1.5-1.5l0.2-9.3l-3.1,0.4l1.7,11.6c0.3,1.7,3,1.2,3.1-0.4c0.1-3.3,0.1-6.5,0.1-9.8s-3.1-1.9-3.1,0
		c-0.1,3.8,0.3,7.7,0.9,11.4c0.3,1.7,3,1.2,3-0.4c0.2-3.6,0.2-7.3,0.2-10.8c-0.1-1.9-3.1-1.9-3.1,0s0,6.2,0.2,9.3
		c0.2,3.1,3.2,2,3.1,0c-0.1-2.9-0.4-5.8-0.8-8.7c0-0.8-0.7-1.5-1.5-1.5c-0.8,0-1.5,0.7-1.5,1.5c-0.1,2.9-0.1,5.8,0.1,8.7
		c0.1,1.6,2.7,2.1,3,0.4l0.6-3l-3.1-0.4c0.1,2.8,0.3,5.5,0.7,8.3c0.3,1.4,2.8,1.4,3,0c0.5-2.5,0.8-5,0.9-7.5h-3.1
		c-0.1,2.3,0,4.6,0.3,6.9c0,0.8,0.7,1.5,1.5,1.5c0.8,0,1.5-0.7,1.5-1.5v-6.3c0-0.8-0.7-1.5-1.5-1.5c-0.8,0-1.5,0.7-1.5,1.5
		c0,2.1,0.1,4.1,0.5,6.1c0.2,1.7,2.9,1.2,3-0.4c0.1-1.6,0.1-3.4,0.1-5c0-0.8-0.7-1.5-1.5-1.5c-0.8,0-1.5,0.7-1.5,1.5
		c-0.1,1.1,0,2.2,0.2,3.3c0.2,1.5,2.6,1.4,3,0l0.2-0.9l-3-0.4c-0.1,1.1,0,2.2,0.2,3.3c0.1,0.8,0.9,1.3,1.6,1.2
		c0.2,0,0.4-0.1,0.6-0.3c1.5-1,1.5-2.8,1.3-4.4c-0.3-1.9-0.8-3.8-1.4-5.6c-1-3.5-2.5-6.9-4.7-9.8c-0.6-0.6-1.5-0.6-2.1,0
		c-0.6,0.6-0.6,1.5,0,2.1c1.6,2.3,2.9,4.9,3.8,7.6c0.4,1.3,0.8,2.8,1.1,4.1c0.2,0.7,0.4,1.5,0.5,2.2v0.9c0,0.2-0.1,0.4,0.1,0.3
		l2.2,0.9c-0.2-0.8-0.2-1.7-0.1-2.6c0.1-1.7-2.7-2-3.1-0.4L90,85.9h3c-0.2-0.8-0.2-1.6-0.1-2.5h-3.1c0,1.6,0,3.3-0.1,5l3-0.4
		c-0.2-1.8-0.3-3.5-0.3-5.3h-3.1V89h3.1c-0.3-2.3-0.4-4.6-0.3-6.9c0.1-1.9-3-1.9-3.1,0c-0.1,2.2-0.4,4.4-0.8,6.6h3
		c-0.4-2.5-0.6-5-0.6-7.5c0-1.6-2.7-2.1-3-0.4l-0.6,3l3.1,0.4c-0.2-2.9-0.2-5.8-0.1-8.7h-3.1c0.4,2.9,0.7,5.8,0.8,8.7h3.1
		c-0.2-3.1-0.3-6.1-0.2-9.3h-3.1c0,3.6,0,7.3-0.2,10.8l3.1-0.4c-0.6-3.5-0.9-7.1-0.8-10.6h-3.1c0,3.3,0,6.5-0.1,9.8l3-0.4l-1.7-11.6
		c-0.3-1.7-3-1.2-3,0.4l-0.2,9.3h3.1c-0.2-2.9-0.3-5.7-0.2-8.6h-3.1V83h3.1l-0.6-7.9c-0.1-0.7-0.6-1.4-1.3-1.5
		c-0.8,0-1.4,0.4-1.7,1.1c-0.6,3.1-0.9,6.2-0.9,9.4c0,0.8,0.7,1.5,1.5,1.5c0.8,0,1.5-0.7,1.5-1.5L86,70.6l-2.9,0.8l4.2,9.9
		c0.4,0.6,1.2,0.8,1.9,0.6c0.7-0.3,1.1-1.1,0.9-1.8c-0.6-3.4-1.5-6.7-2.6-10c-0.6-1.8-3.6-1-3,0.8L84.5,70.9z"/>
	<path fill="#121212" d="M83.2,64.9l1.1,1.1c-0.1,0-0.2-0.2-0.1,0c0.1,0,0.1,0,0.1,0.1l0.3,0.4l0.4,0.6c0.3,0.4,0.5,0.9,0.8,1.4
		l0.3,0.7c0-0.1-0.1-0.3-0.1-0.1c0,0.2,0.1,0.1,0.1,0.2s0.1,0.2,0.2,0.4c0.2,0.8,1,1.2,1.7,1.1c0,0,0.1,0,0.1,0
		c0.8-0.2,1.3-1,1.1-1.8c-0.9-2.3-2.2-4.5-3.9-6.3c-0.6-0.6-1.6-0.6-2.2,0C82.7,63.3,82.7,64.3,83.2,64.9z"/>
</g>
<g id="Plants">
	<path fill="#9B9BF9" d="M182.5,266.8c-7-4.1-10.9-13.7-11.1-21.6c-0.2-7.9,3-16.1,9.4-20.6s16.4-4.6,23.4-0.2
		c7,4.7,11.1,12.8,10.8,21.2c-0.5,8.4-4.8,16.1-11.5,21"/>
	<path fill="#FFFFFF" d="M193.9,267.5c-0.1,0-0.1-0.6-0.2-1.7c-0.1-1.1-0.1-3-0.1-4.9c-0.1-4.2-0.3-9.9-0.5-16.1
		c-0.2-6.2-0.6-12.1-0.9-16.1c-0.1-2-0.2-3.7-0.3-4.9c0-1.2-0.1-1.8,0-1.8l0.3,1.7c0.1,1.2,0.3,2.9,0.5,4.9c0.3,4.2,0.7,9.8,1,16.1
		c0.3,6.3,0.4,12.1,0.4,16.2c-0.1,2-0.1,3.8-0.1,4.9C194,266.9,193.9,267.5,193.9,267.5z"/>
	<path fill="#1A2E35" d="M173.4,243.4c0,0.2-1.1,0.3-2.6,0.1c-1.4-0.2-2.5-0.3-2.5-0.5c0-0.2,1.1-0.2,2.6-0.1
		C172.4,243,173.4,243.2,173.4,243.4z"/>
	<path fill="#1A2E35" d="M173.8,236.3c-0.1,0.2-1-0.1-2.1-0.6c-1.1-0.5-2-1-1.9-1.2c0.8,0,1.5,0.2,2.1,0.6
		C173,235.6,173.9,236.2,173.8,236.3z"/>
	<path fill="#1A2E35" d="M177.5,231.1c-0.9-0.2-1.7-0.7-2.3-1.3c-1.2-0.9-1.9-1.9-1.7-2C174.9,228.7,176.3,229.8,177.5,231.1z"/>
	<path fill="#1A2E35" d="M181.1,226.2c-0.5-0.5-0.9-1.2-1.1-1.8c-0.5-1.1-0.8-2-0.6-2.1c0.2-0.1,0.7,0.7,1.2,1.8
		C181.1,225.2,181.3,226.1,181.1,226.2z"/>
	<path fill="#1A2E35" d="M186.8,222.6c-0.1,0.1-0.7-0.8-1.1-1.9c-0.4-1.1-0.4-2.3-0.2-2.3s0.5,0.9,0.9,2.1
		C186.8,221.7,187,222.6,186.8,222.6z"/>
	<path fill="#1A2E35" d="M196.4,218.8c0,0.6-0.1,1.1-0.3,1.6c-0.3,0.8-0.6,1.5-0.8,1.4c-0.2-0.1-0.1-0.8,0.2-1.6
		C195.8,219.4,196.2,218.7,196.4,218.8z"/>
	<path fill="#1A2E35" d="M203.4,221.7c0.1,0.2-0.3,0.8-1,1.4c-0.7,0.6-1.3,1-1.4,0.9c-0.1-0.1,0.3-0.8,1-1.4
		S203.3,221.6,203.4,221.7z"/>
	<path fill="#1A2E35" d="M209.7,225.8c0.1,0.1-0.4,0.7-1.2,1.2c-0.8,0.5-1.5,0.8-1.6,0.7c-0.1-0.1,0.5-0.7,1.2-1.2
		C208.8,226,209.6,225.6,209.7,225.8z"/>
	<path fill="#1A2E35" d="M214.2,231.8c-0.6,0.5-1.2,0.9-1.9,1.1c-1.2,0.5-2.1,0.8-2.2,0.6c-0.1-0.2,0.8-0.7,1.9-1.2
		C213,231.8,214.1,231.6,214.2,231.8z"/>
	<path fill="#1A2E35" d="M215.9,238.4c0,0.2-0.9,0.4-2,0.5c-0.7,0.2-1.4,0.2-2,0c0-0.2,0.8-0.5,1.9-0.6
		C214.9,238.2,215.8,238.2,215.9,238.4z"/>
	<path fill="#1A2E35" d="M216.8,246.4c-0.8,0-1.5-0.2-2.1-0.6c-1.1-0.4-1.9-0.9-1.8-1.1c0.1-0.2,1,0.1,2,0.5
		S216.8,246.2,216.8,246.4z"/>
	<path fill="#1A2E35" d="M216,253.3c-0.1,0.2-1.3-0.1-2.6-0.9c-1.2-0.8-1.9-1.7-1.8-1.9c0.8,0.4,1.6,0.9,2.2,1.4L216,253.3z"/>
	<path fill="#1A2E35" d="M212.3,259.6c-0.1,0.2-1-0.4-1.9-1.4c-0.9-1-1.4-1.9-1.2-2c0.2-0.1,0.8,0.7,1.7,1.6
		C211.8,258.7,212.5,259.5,212.3,259.6z"/>
	<path fill="#1A2E35" d="M178.2,260.3c-0.6,0.7-1.4,1.2-2.2,1.5c-0.8,0.5-1.6,0.8-2.6,1c-0.1-0.2,0.9-0.9,2.2-1.5
		C176.4,260.9,177.3,260.5,178.2,260.3z"/>
	<path fill="#1A2E35" d="M175,254.7c0.1,0.1-0.7,0.6-1.8,1.1c-0.6,0.4-1.3,0.6-2,0.6c-0.1-0.2,0.7-0.7,1.8-1.2
		C174.1,254.7,174.9,254.5,175,254.7z"/>
	<path fill="#1A2E35" d="M172.7,249.6c0.1,0.2-0.9,0.5-2.1,0.7c-1.2,0.2-2.2,0.1-2.3-0.1c0.7-0.3,1.5-0.5,2.2-0.6
		C171.7,249.4,172.7,249.4,172.7,249.6z"/>
	<path fill="#1A2E35" d="M180.3,246.9c0.1,0.2-0.9,0.6-2.1,0.7s-2.3,0-2.3-0.2c0-0.2,1-0.3,2.2-0.4S180.3,246.7,180.3,246.9z"/>
	<path fill="#1A2E35" d="M186.6,240.6c0,0.2-0.7,0.5-1.8,0.6c-1.1,0.1-1.8-0.1-1.8-0.3l1.8-0.3C185.7,240.5,186.5,240.4,186.6,240.6
		z"/>
	<path fill="#1A2E35" d="M187.7,235.6c0,0.2-0.8,0.1-1.8-0.3s-1.7-0.7-1.6-0.9c0.6,0,1.3,0.1,1.8,0.3
		C187.1,235,187.8,235.4,187.7,235.6z"/>
	<path fill="#1A2E35" d="M190.1,230.6c-0.2,0.1-0.7-0.3-1.1-1c-0.4-0.7-0.5-1.3-0.3-1.4c0.2-0.1,0.5,0.5,0.9,1.1
		C190,229.9,190.2,230.4,190.1,230.6z"/>
	<path fill="#1A2E35" d="M187.3,251.3c0,0.2-0.7,0.5-1.6,0.7l-1.3,0.2l-0.2-0.4h0.5l-0.3,0.3v-0.4l1.2-0.4
		C186.4,251.1,187.2,251,187.3,251.3z"/>
	<path fill="#1A2E35" d="M188.5,260.1c0.1,0.1-0.8,0.6-2,1.1c-1.2,0.5-2.2,0.7-2.2,0.5c0-0.2,0.8-0.7,2-1.1
		C187.5,260.2,188.5,259.9,188.5,260.1z"/>
	<path fill="#1A2E35" d="M181.5,256.2c0.1,0.2-0.5,0.5-1.3,0.8c-0.8,0.3-1.5,0.4-1.6,0.2c-0.1-0.2,0.6-0.5,1.4-0.8
		C180.8,256.1,181.4,255.9,181.5,256.2z"/>
	<path fill="#1A2E35" d="M182,238.2c0,0.2-1.1,0.1-2.3-0.4c-0.8-0.2-1.5-0.6-2-1.1c0.1-0.2,1.1,0.1,2.3,0.5S182.1,238,182,238.2z"/>
	<path fill="#1A2E35" d="M199.2,236.2c0.1,0.1-0.5,0.7-1.3,1.2c-0.8,0.5-1.6,0.9-1.7,0.7c-0.1-0.2,0.5-0.7,1.3-1.2
		C198.2,236.4,199,236,199.2,236.2z"/>
	<path fill="#1A2E35" d="M200.1,245.1c-0.4,0.3-0.9,0.5-1.4,0.6h-1.5c0-0.2,0.6-0.5,1.4-0.7C199.4,244.8,200.1,244.9,200.1,245.1z"
		/>
	<path fill="#1A2E35" d="M201.2,255c-0.1,0.2-1,0-2-0.5c-1-0.5-1.8-1-1.7-1.2c0.7,0,1.4,0.3,1.9,0.6
		C200,254.2,200.7,254.5,201.2,255z"/>
	<path fill="#1A2E35" d="M198.8,264.8c-0.1,0.1-0.7-0.4-1.3-1.1s-0.9-1.3-0.8-1.5c0.1-0.2,0.8,0.4,1.3,1.1
		C198.5,264,198.9,264.6,198.8,264.8z"/>
	<path fill="#1A2E35" d="M198.4,229.7c0.1,0.1-0.3,0.6-1,0.9c-0.7,0.3-1.2,0.4-1.3,0.2c-0.1-0.2,0.4-0.5,1-0.8
		S198.2,229.5,198.4,229.7z"/>
	<path fill="#1A2E35" d="M206.8,238.6c0,0.2-0.7,0.6-1.8,0.8c-1.1,0.2-1.9-0.1-1.8-0.3c0.6-0.2,1.1-0.3,1.7-0.4
		C205.5,238.6,206.2,238.5,206.8,238.6z"/>
	<path fill="#1A2E35" d="M205.1,230.6c0.1,0.1-0.6,0.7-1.7,1c-0.7,0.2-1.4,0.3-2,0.2c-0.1-0.2,0.8-0.5,1.8-0.8
		C204.2,230.7,205,230.4,205.1,230.6z"/>
	<path fill="#1A2E35" d="M208.7,251c-0.1,0.2-1.3,0.3-3,0c-1.6-0.3-2.8-0.8-2.8-1c1,0,1.9,0.2,2.9,0.4
		C207.3,250.7,208.7,250.8,208.7,251z"/>
	<path fill="#1A2E35" d="M205.5,262.8c-0.8-0.3-1.5-0.8-2-1.4c-1-1-1.5-1.9-1.4-2c0.1-0.1,0.9,0.6,1.9,1.5S205.6,262.6,205.5,262.8z
		"/>
	<path fill="#FFFFFF" d="M191.8,221.1c-2.1,1.3-4.1,2.8-5.8,4.6c-4.1,4.4-6.7,10-7.4,16c-0.3,3.3-0.1,6.6,0.5,9.9
		c0.4,2.7,1,5.4,1.8,8c0.6,2.1,1.2,4,1.6,5.2c0.2,0.6,0.4,1.3,0.5,1.9l-0.8-1.8c-0.4-1.2-1.1-3-1.8-5.2c-0.8-2.6-1.5-5.3-1.9-8
		c-0.7-3.3-0.9-6.7-0.5-10c0.7-6.1,3.3-11.9,7.6-16.3c1.3-1.3,2.8-2.5,4.4-3.5l1.3-0.7L191.8,221.1z"/>
	<path fill="#FFFFFF" d="M200.9,267.2c1.2-2.3,2.2-4.7,3-7.2c2-5.9,2.6-12.2,1.8-18.4c-0.5-3.4-1.4-6.7-2.9-9.8
		c-1.2-2.5-2.8-4.9-4.8-6.8c-1.4-1.2-3.1-2.2-4.8-3l-1.9-0.7h0.5c0.5,0.1,1,0.2,1.5,0.4c1.8,0.6,3.5,1.6,5,2.9
		c2.1,1.9,3.8,4.3,5,6.8c1.6,3.1,2.6,6.5,3,10c0.9,6.3,0.2,12.7-1.9,18.7c-0.4,1.1-0.9,2.1-1.2,3l-1.1,2.2L200.9,267.2z"/>
	<polygon fill="#1A2E35" points="175,265.7 211.8,265.7 212,273 175,273 	"/>
	<polygon fill="#1A2E35" points="178.2,269.3 180.3,291.8 207.1,291.8 209.4,269.5 	"/>
	<path fill="#375A64" d="M212,273.1c0,0.2-8.3,0.3-18.5,0.3s-18.5-0.1-18.5-0.3c0-0.2,8.3-0.4,18.5-0.4S212,272.9,212,273.1z"/>
	<path fill="#375A64" d="M208.3,280c-0.2,0.5-0.5,0.9-0.8,1.3c-0.8,1.2-1.8,2.4-2.9,3.4l-0.2,0.2v-0.2c-2.2-2.3-4.7-4.4-7.3-6.2h0.4
		l-3.2,2.9l-3.8,3.3l-0.2,0.2l-0.2-0.2l-6.1-5.1h0.3l-3.2,3.9c-0.7,0.9-1.2,1.4-1.2,1.3s0.3-0.5,1-1.5s1.8-2.3,3-4l0.2-0.2l0.2,0.2
		l6.2,5h-0.4l3.8-3.3c1-1,2.1-1.9,3.2-2.8l0.2-0.2h0.2c2.6,1.9,5,4.1,7.2,6.5h-0.3C205.9,283.1,207.2,281.6,208.3,280z"/>
</g>
</svg>
