<?xml version="1.0" encoding="utf-8"?>
<!-- Generator: Adobe Illustrator 24.1.2, SVG Export Plug-In . SVG Version: 6.00 Build 0)  -->
<svg version="1.2" baseProfile="tiny" xmlns="http://www.w3.org/2000/svg" xmlns:xlink="http://www.w3.org/1999/xlink" x="0px"
	 y="0px" viewBox="0 0 435.8 249" overflow="visible" xml:space="preserve">
<g id="Isolation_Mode">
	<g>
		<g>
			<path fill="#E1E1E1" d="M333.6,45.5c0.1-1.2,0.2-2.5,0.2-3.7c0-0.7,0-1.3-0.1-2l-6.1-2c-0.4-2.6-1.1-5-2.2-7.3l4.1-5
				c-0.9-1.7-2-3.2-3.2-4.7l-6.1,2c-1.8-1.8-3.8-3.4-6.1-4.7l0.3-6.4c-1.7-0.8-3.5-1.4-5.3-1.9l-3.8,5.2c-1.5-0.2-3-0.4-4.5-0.4
				c-1.1,0-2.1,0.1-3.1,0.2l-3.5-5.4c-1.9,0.4-3.7,0.9-5.4,1.6l0,6.4c-2.3,1.1-4.4,2.6-6.3,4.3l-6-2.3c-1.3,1.4-2.4,2.9-3.5,4.5
				l3.8,5.2c-1.2,2.2-2,4.7-2.6,7.2l-6.2,1.7c-0.1,1.2-0.2,2.5-0.2,3.7c0,0.7,0,1.3,0.1,2l6.1,2c0.4,2.6,1.1,5,2.2,7.3l-4.1,5
				c0.9,1.7,2,3.2,3.2,4.7l6.1-2c1.8,1.8,3.8,3.4,6.1,4.7l-0.3,6.4c1.7,0.8,3.5,1.4,5.3,1.9l3.8-5.2c1.5,0.2,3,0.4,4.5,0.4
				c1.1,0,2.1-0.1,3.1-0.2l3.5,5.4c1.9-0.4,3.7-0.9,5.4-1.6l0-6.4c2.3-1.1,4.4-2.6,6.3-4.3l6,2.3c1.3-1.4,2.4-2.9,3.5-4.5l-3.8-5.2
				c1.2-2.2,2-4.7,2.6-7.2L333.6,45.5z M300.8,54.7c-7.1,0-12.9-5.8-12.9-12.9c0-7.1,5.8-12.9,12.9-12.9s12.9,5.8,12.9,12.9
				C313.8,48.9,308,54.7,300.8,54.7z"/>
			<g>
				<path fill="#FFFFFF" d="M318.5,56.5c-0.1,0-0.2,0-0.3-0.1c-0.2-0.2-0.2-0.5-0.1-0.7c3.3-3.9,5-8.9,5-14c0-2.4-0.4-4.8-1.2-7.1
					c-0.1-0.3,0-0.5,0.3-0.6c0.3-0.1,0.5,0,0.6,0.3c0.8,2.4,1.2,4.9,1.2,7.4c0,5.3-1.9,10.5-5.3,14.6
					C318.8,56.5,318.6,56.5,318.5,56.5z"/>
			</g>
			<g>
				<path fill="#FFFFFF" d="M316.6,26c-0.1,0-0.2,0-0.3-0.1c-2.2-2.1-4.7-3.6-7.5-4.6c-0.3-0.1-0.4-0.4-0.3-0.6
					c0.1-0.3,0.4-0.4,0.6-0.3c2.9,1.1,5.6,2.7,7.9,4.8c0.2,0.2,0.2,0.5,0,0.7C316.9,25.9,316.7,26,316.6,26z"/>
			</g>
			<g>
				<path fill="#FFFFFF" d="M295.8,20.6c-0.2,0-0.4-0.1-0.5-0.4c-0.1-0.3,0.1-0.5,0.4-0.6c1.8-0.5,3.7-0.7,5.6-0.7
					c0.3,0,0.5,0.2,0.5,0.5s-0.2,0.5-0.5,0.5c-1.8,0-3.6,0.2-5.4,0.7C295.9,20.6,295.9,20.6,295.8,20.6z"/>
			</g>
		</g>
		<g>
			<path fill="#E1E1E1" d="M377.1,53.9c0.1-0.8,0.1-1.7,0.1-2.6c0-0.5,0-0.9,0-1.4l-4.2-1.4c-0.3-1.8-0.8-3.5-1.5-5.1l2.8-3.5
				c-0.7-1.1-1.4-2.2-2.2-3.2l-4.2,1.4c-1.2-1.3-2.6-2.4-4.2-3.2l0.2-4.5c-1.2-0.5-2.4-1-3.7-1.3l-2.6,3.6c-1-0.2-2.1-0.3-3.1-0.3
				c-0.7,0-1.4,0-2.2,0.1l-2.4-3.7c-1.3,0.3-2.6,0.6-3.8,1.1l0,4.5c-1.6,0.8-3.1,1.8-4.4,3l-4.2-1.6c-0.9,1-1.7,2-2.4,3.1l2.6,3.6
				c-0.8,1.5-1.4,3.2-1.8,5l-4.3,1.1c-0.1,0.8-0.1,1.7-0.1,2.6c0,0.5,0,0.9,0,1.4l4.2,1.4c0.3,1.8,0.8,3.5,1.5,5.1l-2.8,3.5
				c0.7,1.1,1.4,2.2,2.2,3.2l4.2-1.4c1.2,1.3,2.6,2.4,4.2,3.2l-0.2,4.5c1.2,0.5,2.4,1,3.7,1.3l2.6-3.6c1,0.2,2.1,0.3,3.1,0.3
				c0.7,0,1.4,0,2.2-0.1l2.4,3.7c1.3-0.3,2.6-0.6,3.8-1.1l0-4.5c1.6-0.8,3.1-1.8,4.4-3l4.2,1.6c0.9-1,1.7-2,2.4-3.1l-2.6-3.6
				c0.8-1.5,1.4-3.2,1.8-5L377.1,53.9z M354.3,60.3c-4.9,0-9-4-9-9c0-4.9,4-9,9-9c4.9,0,9,4,9,9C363.3,56.3,359.3,60.3,354.3,60.3z"
				/>
			<g>
				<path fill="#FFFFFF" d="M366.6,61.7c-0.1,0-0.2,0-0.3-0.1c-0.2-0.2-0.2-0.5-0.1-0.7c2.2-2.7,3.5-6.1,3.5-9.6
					c0-1.7-0.3-3.3-0.8-4.9c-0.1-0.3,0-0.5,0.3-0.6c0.3-0.1,0.5,0,0.6,0.3c0.6,1.7,0.9,3.4,0.9,5.2c0,3.7-1.3,7.3-3.7,10.2
					C366.8,61.7,366.7,61.7,366.6,61.7z"/>
			</g>
			<g>
				<path fill="#FFFFFF" d="M365.3,40.6c-0.1,0-0.2,0-0.3-0.1c-1.5-1.4-3.2-2.5-5.2-3.2c-0.3-0.1-0.4-0.4-0.3-0.6
					c0.1-0.3,0.4-0.4,0.6-0.3c2,0.7,3.9,1.9,5.5,3.4c0.2,0.2,0.2,0.5,0,0.7C365.5,40.5,365.4,40.6,365.3,40.6z"/>
			</g>
			<g>
				<path fill="#FFFFFF" d="M350.9,36.8c-0.2,0-0.4-0.1-0.5-0.4c-0.1-0.3,0.1-0.5,0.4-0.6c1.3-0.3,2.6-0.5,3.9-0.5
					c0.3,0,0.5,0.2,0.5,0.5c0,0.3-0.2,0.5-0.5,0.5c-1.2,0-2.5,0.2-3.7,0.5C351,36.8,350.9,36.8,350.9,36.8z"/>
			</g>
		</g>
	</g>
</g>
<g id="Слой_1">
	<g id="Layer_1_1_">
		<line fill="none" stroke="#1C1C1C" stroke-width="0.25" stroke-miterlimit="10" x1="21.1" y1="224.8" x2="334.1" y2="224.8"/>
	</g>
	<g>
		<circle fill="#E1E1E1" cx="132.2" cy="80.2" r="58.9"/>
		<circle fill="#9E9E9E" cx="132.1" cy="80.9" r="47.6"/>
		<circle fill="#FFFFFF" cx="132.2" cy="79.4" r="45.2"/>
		<g>
			<path fill="#9E9E9E" d="M132.2,80.9L115,71c-0.7-0.5-1-1.4-0.6-2.2c0.4-0.8,1.4-1,2.2-0.6l17.1,9.8c0.8,0.4,1,1.4,0.6,2.2
				c-0.3,0.5-0.8,0.8-1.4,0.8C132.7,81.1,132.4,81,132.2,80.9z"/>
			<path fill="#9E9E9E" d="M132.4,80.5C132.4,80.5,132.3,80.5,132.4,80.5c-0.6-0.4-0.8-1.1-0.5-1.6l13.2-23.1c0,0,0,0,0-0.1
				c0.3-0.5,1-0.7,1.6-0.4c0.6,0.3,0.8,1,0.5,1.6L134,80.1c-0.2,0.4-0.6,0.6-1,0.6C132.8,80.7,132.6,80.6,132.4,80.5z"/>
		</g>
		<path fill="#1A2E35" d="M129.8,48.8h-2V42h-2v-1.4l4-0.6V48.8z"/>
		<path fill="#1A2E35" d="M139,48.8h-6.3v-1.3l2.9-3c0.3-0.3,0.6-0.7,0.8-1.1c0.2-0.3,0.3-0.6,0.3-0.9c0-0.3-0.1-0.6-0.3-0.8
			c-0.2-0.2-0.5-0.3-0.8-0.3c-0.3,0-0.6,0.1-0.7,0.4c-0.2,0.3-0.3,0.6-0.3,1h-2c-0.1-0.8,0.2-1.5,0.8-2.1c0.6-0.6,1.4-0.9,2.2-0.9
			c0.8-0.1,1.7,0.2,2.3,0.7c0.6,0.5,0.9,1.2,0.9,2c0,0.5-0.2,1.1-0.5,1.5c-0.5,0.7-1,1.3-1.6,1.9l-1.2,1.3h3.5V48.8z"/>
		<path fill="#1A2E35" d="M132.7,108.4l0.9,0.1l0.9,0.2l-0.3,1.6l-0.7-0.2h-0.7c-0.4,0-0.9,0.2-1.1,0.5c-0.3,0.4-0.5,1-0.5,1.5h0.1
			c0.2-0.2,0.4-0.4,0.7-0.5c0.3-0.1,0.7-0.2,1-0.2c0.7,0,1.4,0.3,1.8,0.9c0.5,0.6,0.7,1.4,0.7,2.2c0,0.8-0.3,1.6-0.9,2.2
			c-0.6,0.6-1.4,0.9-2.2,0.9c-0.9,0-1.7-0.3-2.4-0.9c-0.6-0.7-0.9-1.7-0.9-2.6v-1.8c-0.1-2,1.4-3.7,3.3-3.8
			C132.5,108.4,132.6,108.4,132.7,108.4L132.7,108.4z M132.3,113l-0.7,0.1c-0.2,0.1-0.3,0.2-0.5,0.3v0.5c0,0.5,0.1,1,0.3,1.5
			c0.2,0.3,0.5,0.5,0.9,0.5c0.3,0,0.6-0.2,0.8-0.5c0.2-0.3,0.3-0.7,0.3-1c0-0.4-0.1-0.8-0.3-1.1C132.9,113.2,132.6,113,132.3,113
			L132.3,113z"/>
		<path fill="#1A2E35" d="M95.8,81.7c0.4,0,0.8-0.1,1-0.4c0.3-0.4,0.4-0.8,0.4-1.3v-0.4c-0.2,0.2-0.4,0.4-0.7,0.6
			c-0.3,0.1-0.6,0.2-0.9,0.2c-0.7,0.1-1.4-0.2-1.9-0.8c-0.5-0.6-0.7-1.4-0.7-2.2c0-0.8,0.3-1.6,0.9-2.2c0.6-0.6,1.4-1,2.2-0.9
			c0.8,0,1.6,0.3,2.2,0.9c0.6,0.8,1,1.7,0.9,2.7v2.1c0,0.9-0.3,1.8-1,2.5c-0.7,0.6-1.6,1-2.5,0.9l-1-0.1l-0.9-0.3l0.2-1.4l0.8,0.2
			L95.8,81.7z M96.2,78.8c0.2,0,0.4,0,0.6-0.1c0.2-0.1,0.3-0.2,0.5-0.3v-0.9c0-0.5-0.1-0.9-0.3-1.3c-0.2-0.3-0.4-0.4-0.7-0.5
			c-0.3,0-0.6,0.2-0.7,0.5c-0.2,0.3-0.3,0.7-0.3,1.1c0,0.4,0.1,0.8,0.2,1.1C95.6,78.7,95.9,78.9,96.2,78.8z"/>
		<path fill="#1A2E35" d="M166.9,77.8h1c0.3,0,0.6-0.1,0.8-0.3c0.2-0.2,0.4-0.5,0.3-0.8c0-0.3-0.1-0.5-0.3-0.7
			c-0.2-0.2-0.5-0.3-0.8-0.3c-0.2,0-0.5,0.1-0.7,0.2c-0.2,0.2-0.3,0.4-0.3,0.6h-2c0-0.7,0.3-1.3,0.8-1.7c0.6-0.4,1.4-0.7,2.1-0.6
			c0.8-0.1,1.6,0.2,2.3,0.6c0.6,0.4,1,1.1,0.9,1.9c0,0.4-0.2,0.8-0.4,1.1c-0.2,0.4-0.6,0.6-1,0.8c0.4,0.2,0.8,0.4,1.1,0.8
			c0.3,0.4,0.4,0.8,0.4,1.3c0,0.8-0.3,1.5-0.9,2c-0.7,0.5-1.6,0.7-2.4,0.7c-0.8,0-1.5-0.2-2.2-0.6c-0.6-0.5-1-1.2-0.9-2h2
			c0,0.3,0.1,0.5,0.3,0.7c0.2,0.2,0.5,0.3,0.8,0.3c0.3,0,0.7-0.1,0.9-0.3c0.2-0.2,0.3-0.5,0.3-0.7c0-0.4-0.1-0.7-0.3-1
			c-0.3-0.2-0.6-0.3-0.9-0.3h-1V77.8z"/>
	</g>
	<g>
		<path fill="#9BD6E8" d="M338.4,115.3c-8.8,0-15.9-7.1-15.9-15.9s7.1-15.9,15.9-15.9c8.8,0,15.9,7.1,15.9,15.9
			S347.2,115.3,338.4,115.3L338.4,115.3z M338.4,87.1c-6.7-0.1-12.3,5.3-12.4,12.1s5.3,12.3,12.1,12.4c6.7,0.1,12.3-5.3,12.4-12.1
			c0,0,0-0.1,0-0.1C350.5,92.6,345.1,87.2,338.4,87.1z"/>
		<path fill="#9BD6E8" d="M318.3,115.3c-8.8,0-15.9-7.1-15.9-15.9s7.1-15.9,15.9-15.9c8.8,0,15.9,7.1,15.9,15.9
			S327.1,115.3,318.3,115.3L318.3,115.3z M318.3,87.1c-6.7,0-12.2,5.5-12.2,12.2c0,6.7,5.5,12.2,12.2,12.2c6.7,0,12.2-5.5,12.2-12.2
			c0,0,0,0,0,0C330.6,92.6,325.1,87.1,318.3,87.1z"/>
		<path fill="#9BD6E8" d="M296.8,115.3c-8.8,0-15.9-7.1-15.9-15.9s7.1-15.9,15.9-15.9c8.8,0,15.9,7.1,15.9,15.9
			S305.6,115.3,296.8,115.3L296.8,115.3z M296.8,87.1c-6.7-0.1-12.3,5.3-12.4,12.1s5.3,12.3,12.1,12.4c6.7,0.1,12.3-5.3,12.4-12.1
			c0,0,0-0.1,0-0.1C308.9,92.6,303.5,87.2,296.8,87.1z"/>
		<path fill="#9BD6E8" d="M276.7,115.3c-8.8,0-15.9-7.1-15.9-15.9s7.1-15.9,15.9-15.9c8.8,0,15.9,7.1,15.9,15.9
			S285.5,115.3,276.7,115.3L276.7,115.3z M276.7,87.1c-6.7,0-12.2,5.5-12.2,12.2c0,6.7,5.5,12.2,12.2,12.2c6.7,0,12.2-5.5,12.2-12.2
			c0,0,0,0,0,0C289,92.6,283.5,87.1,276.7,87.1z"/>
		<path fill="#9BD6E8" d="M256,115.3c-8.8,0-15.9-7.1-15.9-15.9s7.1-15.9,15.9-15.9c8.8,0,15.9,7.1,15.9,15.9S264.8,115.3,256,115.3
			L256,115.3z M256,87.1c-6.7,0-12.2,5.5-12.2,12.2c0,6.7,5.5,12.2,12.2,12.2c6.7,0,12.2-5.5,12.2-12.2c0,0,0,0,0,0
			C268.2,92.6,262.8,87.1,256,87.1z"/>
		<path fill="#9BD6E8" d="M236.1,115.3c-8.8,0-15.9-7.1-15.9-15.9s7.1-15.9,15.9-15.9c8.8,0,15.9,7.1,15.9,15.9
			S244.9,115.3,236.1,115.3L236.1,115.3z M236.1,87.1c-6.7-0.1-12.3,5.3-12.4,12.1s5.3,12.3,12.1,12.4c6.7,0.1,12.3-5.3,12.4-12.1
			c0,0,0-0.1,0-0.1c0.1-6.7-5.3-12.1-11.9-12.2C236.2,87.1,236.1,87.1,236.1,87.1z"/>
		<path fill="#9BD6E8" d="M213.7,115.3c-8.8,0-15.9-7.1-15.9-15.9s7.1-15.9,15.9-15.9c8.8,0,15.9,7.1,15.9,15.9l0,0
			C229.6,108.1,222.5,115.3,213.7,115.3z M213.7,87.1c-6.7,0-12.2,5.5-12.2,12.2c0,6.7,5.5,12.2,12.2,12.2c6.7,0,12.2-5.5,12.2-12.2
			c0,0,0,0,0,0C225.9,92.6,220.5,87.1,213.7,87.1z"/>
		<path fill="#212D51" d="M354.4,236.5H133.3c-2,0.1-3.7-1.6-3.8-3.6c0-0.3,0-0.6,0.1-0.9l24-128.1c0.6-2.6,2.9-4.4,5.5-4.5h221.2
			c2-0.1,3.7,1.6,3.8,3.6c0,0.3,0,0.6-0.1,0.9l-24,128.1C359.3,234.5,357.1,236.4,354.4,236.5z"/>
		<path fill="#2E5B9A" d="M358.6,236.5H137.4c-2,0.1-3.7-1.6-3.8-3.6c0-0.3,0-0.6,0.1-0.9l24-128.1c0.7-2.5,2.9-4.4,5.5-4.5h221.2
			c2-0.1,3.7,1.6,3.8,3.6c0,0.3,0,0.6-0.1,0.9l-24,128.1C363.5,234.6,361.2,236.4,358.6,236.5z"/>
		<path fill="#212D51" d="M403.2,236.5H182.1c-2.6-0.1-4.9-2-5.5-4.5l-22.5-128.1c-0.5-2,0.8-4,2.8-4.4c0.3-0.1,0.6-0.1,0.9-0.1H379
			c2.6,0.1,4.8,2,5.4,4.5L407,232c0.5,2-0.8,4-2.8,4.4C403.9,236.5,403.5,236.5,403.2,236.5z"/>
		<path fill="#3E6BAB" d="M407.9,236.5H186.7c-2.6-0.1-4.8-2-5.4-4.5l-22.7-128.1c-0.5-2,0.8-4,2.8-4.4c0.3-0.1,0.7-0.1,1.1-0.1
			h221.2c2.6,0.1,4.8,2,5.4,4.5L411.7,232c0.4,2.1-1,4.1-3.1,4.5C408.4,236.5,408.1,236.5,407.9,236.5z"/>
		<path fill="#212D51" d="M348.8,111.8c0.8,2.1,0.1,3.8-1.5,3.8c-1.6,0-3.4-1.8-4.3-3.8c-0.8-2.1,0-3.8,1.5-3.8
			C346.6,108.3,348.3,109.8,348.8,111.8z"/>
		<path fill="#212D51" d="M328.6,111.8c0.7,2.1,0,3.8-1.5,3.8c-1.5,0-3.4-1.8-4.3-3.8c-0.8-2.1-0.1-3.8,1.5-3.8
			C326,108,327.8,109.6,328.6,111.8z"/>
		<path fill="#212D51" d="M306.1,111.8c0.8,2.1,0.1,3.8-1.5,3.8c-1.6,0-3.4-1.8-4.3-3.8c-0.8-2.1-0.1-3.8,1.5-3.8
			S305.3,109.6,306.1,111.8z"/>
		<path fill="#212D51" d="M285.8,111.8c0.8,2.1,0.1,3.8-1.4,3.8c-1.5,0-3.6-1.8-4.3-3.8c-0.7-2.1-0.1-3.8,1.4-3.8
			C283.6,108.3,285.3,109.8,285.8,111.8z"/>
		<path fill="#212D51" d="M266.3,112.1c0.7,2.2,0.1,3.8-1.5,3.8c-1.6,0-3.4-1.6-4.3-3.8c-0.8-2.2-0.1-3.8,1.5-3.8
			S265.5,110,266.3,112.1z"/>
		<path fill="#212D51" d="M247.1,112.1c0.8,2.2,0.1,3.8-1.5,3.8c-1.6,0-3.4-1.6-4.3-3.8c-0.8-2.2,0-3.8,1.5-3.8
			S246.3,110,247.1,112.1z"/>
		<path fill="#212D51" d="M225.7,112.1c0.8,2.2,0.1,3.8-1.5,3.8c-1.6,0-3.4-1.6-4.3-3.8c-0.8-2.2,0-3.8,1.5-3.8S225,110,225.7,112.1
			z"/>
		<path fill="#9BD6E8" d="M345.1,113.5c-1.1,0-1.9-0.9-1.9-2c0-0.7,0.4-1.3,0.9-1.6c3.9-2.1,6.3-6.2,6.3-10.6
			c0-6.7-5.4-12.1-12.1-12.2c-1,0.1-1.8-0.7-1.9-1.6c0,0,0-0.1,0-0.1c0-1.1,0.9-1.9,1.9-1.9c8.7-0.1,15.9,6.8,16.1,15.5
			c0.1,6-3.2,11.5-8.5,14.3C345.7,113.4,345.4,113.5,345.1,113.5z"/>
		<path fill="#9BD6E8" d="M325.1,113.5c-1.1,0-1.9-0.9-1.9-2c0-0.7,0.4-1.3,0.9-1.6c4-2,6.4-6.1,6.5-10.6c0-6.5-5.1-11.9-11.5-12.2
			c-1.1,0-1.9-0.9-1.9-1.9c0.1-1.1,1-1.9,2-1.8c0,0,0,0,0,0c8.8,0.5,15.5,7.9,15.1,16.7c-0.3,5.6-3.5,10.6-8.4,13.2L325.1,113.5z"/>
		<path fill="#9BD6E8" d="M302.7,113.9c-0.7,0-1.4-0.4-1.6-1.1c-0.5-0.8-0.3-1.8,0.5-2.3c0.1-0.1,0.2-0.1,0.4-0.2
			c6.1-2.9,8.6-10.2,5.7-16.3c-1.9-4-5.8-6.6-10.2-6.9c-1,0.2-2.1-0.4-2.3-1.4s0.4-2.1,1.4-2.3c0.3-0.1,0.7-0.1,1,0
			c8.5,0.4,15.2,7.4,15.2,15.9c-0.1,6.1-3.7,11.7-9.2,14.4L302.7,113.9z"/>
		<path fill="#9BD6E8" d="M282.4,114c-0.8,0.1-1.5-0.4-1.8-1.1c-0.4-0.9,0-2,1-2.5c4.5-1.9,7.4-6.3,7.4-11.1
			c0-6.5-5.1-11.9-11.7-12.2c-1,0-1.8-0.8-1.8-1.8c0,0,0-0.1,0-0.1c0.1-1.1,1-1.9,2-1.8c0,0,0,0,0,0c8.8,0.5,15.5,8,15,16.8
			c-0.3,6-4,11.3-9.5,13.7L282.4,114z"/>
		<path fill="#9BD6E8" d="M262.3,113.8c-0.7,0-1.4-0.4-1.6-1.1c-0.4-1-0.1-2.1,0.8-2.6c4.1-2,6.7-6.1,6.7-10.7
			c-0.1-6.5-5.1-11.8-11.5-12.2c-0.9,0.1-1.7-0.6-1.8-1.5c0-0.1,0-0.3,0-0.4c0-1,0.8-1.8,1.8-1.8c0,0,0.1,0,0.1,0
			c8.8,0.5,15.5,8,15.1,16.7c-0.3,5.7-3.6,10.7-8.6,13.3L262.3,113.8z"/>
		<path fill="#9BD6E8" d="M243.1,113.3c-0.7,0-1.3-0.4-1.6-1c-0.6-0.8-0.3-1.9,0.5-2.5c0.1,0,0.1-0.1,0.2-0.1c3.7-2.2,6-6.1,6-10.4
			c0.1-6.3-4.7-11.6-11-12.1c-1-0.1-1.7-1-1.6-2.1c0-1,0.8-1.8,1.8-1.8c0.1,0,0.2,0,0.3,0c8.2,0.8,14.4,7.7,14.4,15.9
			c0,5.7-3.1,10.9-8,13.7L243.1,113.3z"/>
		<path fill="#9BD6E8" d="M221.4,112.9c-0.6,0-1.2-0.3-1.5-0.8c-0.6-0.9-0.3-2.1,0.5-2.7c3.4-2.2,5.5-6,5.5-10
			c0-6.1-4.5-11.3-10.6-12.1c-1-0.4-1.5-1.5-1.1-2.5c0.2-0.7,0.8-1.1,1.5-1.2c8.7,1.1,14.9,9.1,13.8,17.8c-0.6,4.6-3.2,8.7-7.1,11.3
			L221.4,112.9z"/>
		<path fill="#FFFFFF" d="M400.7,232.2H192.4c-2.3,0-4.3-1.7-4.7-4l-18.3-103c-0.4-1.8,0.8-3.5,2.5-3.9c0.2-0.1,0.5-0.1,0.8-0.1
			h208.3c2.3,0.1,4.2,1.7,4.7,4l18.1,103c0.5,1.7-0.5,3.4-2.2,3.9C401.3,232.2,401,232.3,400.7,232.2z"/>
		<path fill="#9EC8FF" d="M395.9,225.7H194.8v-0.3L177.6,128h201.1L395.9,225.7z M195,225.2h200.5l-17-96.8H178L195,225.2z"/>
		<rect x="222.6" y="209.9" fill="#9EC8FF" width="173.4" height="0.3"/>
		<rect x="188" y="186.4" fill="#9EC8FF" width="200.9" height="0.4"/>
		<rect x="184.6" y="166.9" fill="#9EC8FF" width="200.9" height="0.4"/>
		<rect x="181.2" y="147.5" fill="#9EC8FF" width="200.9" height="0.4"/>
		
			<rect x="358.3" y="127.4" transform="matrix(0.9848 -0.1736 0.1736 0.9848 -25.2429 64.9469)" fill="#9EC8FF" width="0.4" height="98.6"/>
		
			<rect x="329.5" y="127.5" transform="matrix(0.9848 -0.1736 0.1736 0.9848 -25.6876 59.9449)" fill="#9EC8FF" width="0.4" height="98.6"/>
		
			<rect x="300.9" y="127.5" transform="matrix(0.9848 -0.1736 0.1736 0.9848 -26.1301 54.9668)" fill="#9EC8FF" width="0.4" height="98.6"/>
		
			<rect x="272.2" y="127.5" transform="matrix(0.9848 -0.1736 0.1736 0.9848 -26.5727 49.9886)" fill="#9EC8FF" width="0.4" height="98.6"/>
		
			<rect x="243.5" y="127.4" transform="matrix(0.9848 -0.1736 0.1736 0.9848 -26.9914 45.0084)" fill="#9EC8FF" width="0.4" height="98.6"/>
		
			<rect x="214.9" y="127.5" transform="matrix(0.9848 -0.1736 0.1736 0.9848 -27.434 40.0303)" fill="#9EC8FF" width="0.4" height="98.6"/>
		<path fill="#F39892" d="M373.3,140.5h-6.7c-2.7-0.1-5-2-5.5-4.7c-0.5-2,0.6-4,2.6-4.5c0.4-0.1,0.8-0.1,1.2-0.1h6.7
			c2.7,0.1,5,2,5.5,4.7c0.5,2.1-0.9,4.1-2.9,4.6C373.9,140.5,373.6,140.5,373.3,140.5z"/>
		<path fill="#F39892" d="M382.6,179.8h-11.7c-1.3-0.1-2.4-1.1-2.6-2.3l-0.8-4.8c-0.3-0.9,0.2-1.9,1.1-2.2c0.2-0.1,0.4-0.1,0.6-0.1
			h11.7c1.3,0.1,2.4,1,2.6,2.3l1,4.8c0.2,1.1-0.6,2.2-1.8,2.3C382.7,179.8,382.6,179.8,382.6,179.8z"/>
		<path fill="#9EC8FF" d="M234.7,164.3h-15.8c-1.8-0.1-3.4-1.4-3.8-3.2l-1.2-7.6c-0.3-1.4,0.6-2.8,2-3.1c0.2,0,0.4-0.1,0.6-0.1h15.8
			c1.8,0.1,3.4,1.4,3.8,3.2l1.2,7.6c0.3,1.4-0.6,2.8-2,3.1C235.1,164.3,234.9,164.3,234.7,164.3z"/>
		<path fill="#FFFFFF" d="M232.1,162.4h-11.4c-1.3-0.1-2.4-1-2.6-2.3l-1-5.4c-0.2-1,0.4-2.1,1.5-2.3c0.2,0,0.3,0,0.5,0h11.4
			c1.3,0.1,2.4,1,2.6,2.3l1,5.4c0.2,1-0.4,2.1-1.5,2.3C232.4,162.3,232.3,162.4,232.1,162.4z"/>
		<path fill="#9EC8FF" d="M368.1,224.3h-13.6c-1.6,0-2.9-1.2-3.2-2.7l-1.2-6.4c-0.3-1.2,0.5-2.4,1.7-2.7c0.2,0,0.3-0.1,0.5-0.1h13.8
			c1.6,0.1,2.9,1.2,3.2,2.7l1.2,6.4c0.3,1.2-0.5,2.4-1.7,2.7C368.5,224.3,368.3,224.3,368.1,224.3z"/>
		<path fill="#FFFFFF" d="M365.9,222.6h-9.8c-1.1,0-2.1-0.8-2.4-1.9l-0.8-4.6c-0.2-0.9,0.4-1.8,1.3-2c0.1,0,0.3,0,0.4,0h9.8
			c1.2,0,2.1,0.9,2.4,2l0.7,4.6c0.2,0.8-0.3,1.7-1.1,1.9C366.2,222.6,366.1,222.6,365.9,222.6z"/>
		<path fill="#9EC8FF" d="M292.4,154.4H280c-0.9,0.1-1.7-0.6-1.8-1.5c0,0,0,0,0,0c-0.2-0.7,0.3-1.3,0.9-1.5c0.1,0,0.2,0,0.3,0h12.4
			c0.9,0,1.6,0.7,1.8,1.5c0.2,0.7-0.3,1.3-0.9,1.5C292.6,154.4,292.5,154.4,292.4,154.4z"/>
		<path fill="#9EC8FF" d="M293.2,159.2h-12.4c-0.9,0-1.6-0.7-1.8-1.5c-0.2-0.7,0.3-1.3,0.9-1.5c0.1,0,0.2,0,0.3,0h12.4
			c0.9,0,1.6,0.7,1.8,1.5c0.2,0.7-0.3,1.3-0.9,1.5C293.4,159.2,293.3,159.2,293.2,159.2z"/>
		<path fill="#9EC8FF" d="M294.8,215.6h-10.7c-0.7,0-1.4-0.6-1.5-1.3c-0.1-0.6,0.2-1.1,0.8-1.3c0.1,0,0.2,0,0.3,0h10.7
			c0.8,0,1.5,0.6,1.7,1.3c0.1,0.6-0.2,1.1-0.8,1.3C295.1,215.6,294.9,215.7,294.8,215.6z"/>
		<path fill="#9EC8FF" d="M295.6,219.8h-10.8c-0.7,0-1.4-0.6-1.5-1.3c-0.2-0.6,0.1-1.2,0.6-1.4c0.1,0,0.3-0.1,0.4-0.1h10.8
			c0.8,0,1.4,0.6,1.5,1.4c0.1,0.6-0.2,1.1-0.8,1.3C295.8,219.8,295.7,219.8,295.6,219.8z"/>
		<path fill="#9EC8FF" d="M204.4,176.1H192c-0.9,0-1.7-0.7-1.8-1.6c-0.2-0.7,0.3-1.3,0.9-1.5c0.1,0,0.2,0,0.3,0h12.4
			c0.9,0,1.6,0.7,1.8,1.5c0.2,0.6-0.1,1.3-0.8,1.6C204.7,176.1,204.5,176.1,204.4,176.1z"/>
		<path fill="#9EC8FF" d="M205.2,180.8h-12.4c-0.9,0-1.6-0.7-1.8-1.5c-0.2-0.7,0.3-1.3,0.9-1.5c0.1,0,0.2,0,0.3,0h12.4
			c0.9,0,1.6,0.7,1.8,1.5c0.2,0.7-0.3,1.3-0.9,1.5C205.4,180.7,205.3,180.8,205.2,180.8z"/>
		<path fill="#9CD499" d="M243.6,203.8h-18.4c-1.7-0.1-3.1-1.3-3.4-2.9l-1.4-8.2c-0.4-1.1,0.2-2.4,1.4-2.8c0.3-0.1,0.6-0.1,1-0.1
			h18.4c1.7,0.1,3.1,1.3,3.4,2.9l1.4,8.2c0.3,1.3-0.5,2.5-1.7,2.8C244.1,203.8,243.9,203.8,243.6,203.8z"/>
		<path fill="#FFFFFF" d="M232.5,200.4h-0.3l-4.1-3.8c-0.1-0.1-0.3-0.4,0-0.5h0.4l3.8,3.6l5.9-6.9h0.5c0.1,0.2,0.1,0.4,0,0.5l-6,7.1
			H232.5z"/>
		<path fill="#9CD499" d="M322.6,164.4h-18.4c-1.7-0.1-3.1-1.3-3.4-2.9l-1.5-8.4c-0.2-1.3,0.7-2.6,2-2.8c0.1,0,0.3,0,0.4,0h18.4
			c1.6,0.1,2.9,1.3,3.3,2.9l1.5,8.4c0.3,1.3-0.5,2.5-1.7,2.8C323,164.4,322.8,164.4,322.6,164.4z"/>
		<path fill="#FFFFFF" d="M311.3,161h-0.3l-4.1-3.8c-0.1-0.2-0.1-0.4,0-0.5h0.5l3.8,3.6l5.9-6.9c0.1-0.1,0.3-0.1,0.4,0c0,0,0,0,0,0
			c0.2,0,0.3,0.1,0.3,0.2c0,0.2-0.1,0.3-0.2,0.3l0,0l-6.2,7.1H311.3L311.3,161z"/>
		<path fill="#9EC8FF" d="M324.9,196.3c0.7,2.9-1.1,5.8-4,6.4c-0.5,0.1-0.9,0.2-1.4,0.1c-3.8-0.1-7-2.9-7.7-6.6
			c-0.7-2.8,1-5.6,3.8-6.3c0.5-0.1,1-0.2,1.5-0.1C321,190,324.1,192.6,324.9,196.3z"/>
		<path fill="#9EC8FF" d="M267.8,219c0.6,2.5-0.9,5-3.4,5.6c-0.4,0.1-0.8,0.1-1.2,0.1c-3.3-0.1-6-2.5-6.6-5.7
			c-0.6-2.4,0.9-4.9,3.3-5.4c0.4-0.1,0.9-0.1,1.3-0.1C264.4,213.4,267.2,215.8,267.8,219z"/>
		<path fill="#85BAFF" d="M313.5,137.1l-12.1,2.6c-0.9,0.2-1.8-0.3-2.2-1.1c-0.3-0.6,0-1.4,0.7-1.6c0.1,0,0.2-0.1,0.3-0.1l12.1-2.7
			c0.9-0.1,1.7,0.3,2.2,1.1c0.3,0.7-0.1,1.5-0.8,1.8C313.6,137.1,313.5,137.1,313.5,137.1z"/>
		<path fill="#85BAFF" d="M315.3,141.6l-12.1,2.6c-0.9,0.2-1.8-0.3-2.2-1.1c-0.2-0.8,0.1-1.6,1-1.7l12.1-2.6c0.8-0.2,1.7,0.2,2.1,1
			c0.3,0.7-0.1,1.5-0.8,1.8C315.4,141.6,315.3,141.6,315.3,141.6z"/>
	</g>
	<g>
		<path fill="#FFFFFF" d="M375.4,57l-0.5-0.3c-0.4-0.3-0.5-0.8-0.2-1.1c0,0,0-0.1,0.1-0.1c4.4-5.2,6.8-11.8,6.8-18.6
			c0-3.2-0.5-6.5-1.6-9.5c-0.1-0.5,0.2-1,0.7-1.2c0.4-0.1,0.9,0.1,1.1,0.5c1.1,3.3,1.6,6.7,1.6,10.2c0,7.2-2.5,14.2-7.1,19.7
			C376,56.8,375.7,57,375.4,57z"/>
		<path fill="#FFC8AF" d="M364,224.1c1.1,4.3-1.1,7.8-3.9,10.3s-9.4,2.9-9,3.9c0.4,0.9,8.7,1.4,11.5,0.9s3.6-1.8,7.2-1.8
			s2.7-1.9,1.6-4.2c-1.1-2.3-1.4-3.5-0.5-5.6C371.8,225.5,364,224.1,364,224.1z"/>
		<path fill="#FFC8AF" d="M411.6,224.1c-0.2,4.5-0.7,7.9,0.4,10c4.3,3.5,7.9,7.6,6.5,7.9c-6.5,1.4-8.9-2.5-12.6-3.6
			c-3.6-1.2,0.5-6.9-1.3-14.2c-1.1-4.1,6.7-3.1,6.7-3.1L411.6,224.1z"/>
		<path fill="#2D2D2D" d="M376.6,102.9c-3.3,27.6-9.3,48-9.9,61.2c-0.7,13.2-3.3,64.6-3.3,64.6s7.3-0.4,8-1.6
			c0.7-1.2,13.7-30.2,13.1-48.2c-0.7-18,13.1-45.4,13.1-45.4l-3.3-26.8L376.6,102.9z"/>
		<path d="M379.9,114.8l-5.2,2.2c-1.5,8.7-3,16.6-4.4,23.7c8.2,5.3,12.4,22.9,14.3,33.7c0.8-12.1,6.5-26.7,10.1-34.8L379.9,114.8z"
			/>
		<path fill="#2D2D2D" d="M403.5,100c0,0,11.2,14.1,10.7,30.2c-0.4,24.5-3.1,31.4,1.5,57.1c1.8,9.9-3.9,42.7-3.9,42.7s-5,0.4-7.6-1
			c0.1-2.3-3.3-41.5-9.9-59.6c-3.3-8.7-7.8-33.1-10.2-47.1s-3-16.9-2-16.9C383,105.6,403.5,100,403.5,100z"/>
		<path fill="#FFC8AF" d="M323.6,126.4c-3.2,1.8-6.7,2.8-10.3,3c-3.3,0.3-5,2.4-6.9,3.5c-1.9,1.1-2.3,2.3,0.8,1.4l4.6-1.1
			c1.2,0.1,2.4,0.4,3.5,0.8l1.9,1.2c1,0.9,1.3,2.4,0.7,3.7c-0.8,1.2-1.2,2.6-2,3.1c-0.8,0.5,0.3,1.9,1.8,0.7
			c1.3-1.2,2.3-2.6,3.1-4.2c1.5-2.2,2.7-5.4,4.1-7.1C326.1,129.8,323.6,126.4,323.6,126.4z"/>
		<path fill="#131375" d="M361.4,65.7c-5.3,16.2-9.9,33.5-18.1,42.3c-8.2,8.8-21.9,19.2-21.9,19.2s2.9,5.4,3.8,5.4
			c1,0,21.8-10.9,27.6-16.1s17.1-21.4,17.1-21.4L361.4,65.7z"/>
		<path fill="#020221" d="M363.3,103.8c5.2-6.3,9.9-16.2,9.7-17s-12.8-23.5-12.8-23.5l-3.3,12.8C359.2,86.7,364.6,96.6,363.3,103.8z
			"/>
		<path fill="#131375" d="M375.4,48.4c0,0,16.6,2,24.2,13.3s4.1,30.1,5.8,38.6c1.8,8.6-23.3,19.3-26.4,10.6s-15.9-24.1-17.3-28.7
			c-3-11,7.9-29.8,7.9-29.8L375.4,48.4z"/>
		<path fill="#131375" d="M375.5,95.4c2,13.2-5.6,41.4-5.6,41.4s4.5,1.1,18.4-0.3c13.9-1.4,19.9-15.1,21.9-15.5
			c2-0.4,3.1,12.8,4.1,13.9c1,1.1,1.2-16.6-1.5-23.7c-4.6-12.2-3.8-17.5-2-25C414,72.9,375.5,95.4,375.5,95.4z"/>
		<path fill="#020221" d="M414,115.5c-0.3-1.5-0.7-2.9-1.2-4.4c-4.6-12.2-3.8-17.5-2-25c0.1-0.5-10.9-18.4-10.9-18.4l-14.6-15.6
			c-13.9,22.6,2.9,33.3,1.6,42c-1.2,8.7-8,15.4-8,15.4l0.4,3.1c0.6,4.2,4.6,7.2,8.8,6.5c0,0,0,0,0,0c6-0.8,13.9-2.4,17.4-5.7
			C409.1,110.2,412,112.8,414,115.5z"/>
		<path fill="#FFC8AF" d="M379.9,111.7c0,0-6.1,2.7-6.8,3.3c-0.7,0.5-0.8,2.7-0.8,2.7s-3,3.8-1.5,4.6c1.5,0.8,4.6,3.3,7.6,1.5
			c3-1.8,2.2-8.8,3.5-9.1C383.3,114.4,379.9,111.7,379.9,111.7z"/>
		<path fill="#121212" d="M394,34.2c2.7,4.8,5.8,8.3,8.4,9.8c2.6,1.5,5.3,3.4,6,6.3c0.1,1.2,0.4,2.3,1,3.4c1,1.2,2.9,1,4.2,1.4
			c2.2,0.7,3.9,2.6,4.4,4.9c0.4,2.2,0,4.5-1.2,6.4c-1.2,2-5.8,5-8.2,4.5c-1.3-0.5-2.5-1.4-3.3-2.6c-4.8-5.6-13.5-7.3-13.6-17.4"/>
		<path fill="#131375" d="M388,51c6.8-1,15.1,10.2,19,20.5c3.9,10.3,8.7,24.9,8.7,24.9s-9.8,10.7-20.4,15.2s-14.1,5.6-14.1,5.6
			l-2.9-5.2l20.8-17.5c0,0-11.2-14.6-14.1-26.7S382.9,51.7,388,51z"/>
		<path fill="#121212" d="M375.7,15.7c-4.7-3-10.8-2.9-15.4,0.3c-4.5,3.3-6.6,9.1-5.2,14.6c0.8,3.3,3.1,6.5,2.6,10.1
			c-0.5,3.5-2.2,4.6-1.9,7.1c0.3,2.4,3.4,4.8,3.9,7.6c0.3,1.9-0.2,3.8-1.4,5.3c-1,1.6-2.2,3-3.1,4.8c-2.1,4.9-1.1,10.6,2.6,14.4
			c3.8,3.7,9.2,5.4,14.4,4.6c5.2-0.8,10.1-3.3,13.9-6.9c2.5-2.3,4.5-5.1,5.7-8.3c1.1-3.3,0.5-7-1.5-9.8"/>
		<path fill="#121212" d="M390.8,26.3c-1-1.5-0.9-3.4,0.3-4.8c1.2-1.3,3.1-1.6,4.8-1c1.6,0.8,2.5,2.5,2.4,4.2
			c-0.2,2.1-1.7,3.9-3.8,4.4c-2.1,0.4-4.2-0.8-5-2.7"/>
		<path fill="#FFC8AF" d="M383.1,18.4l0.7,2.6l10.5,38.6c1.1,4.6-1.8,9.2-6.4,10.3c0,0-0.1,0-0.1,0l0,0c-4.7,1.3-9.6-1.2-11.2-5.8
			c-1.4-4.8-2.9-9.7-2.9-9.7s-6.4,0.7-9.9-6.9c-1.9-5.1-3.4-10.3-4.5-15.6c-1-4.7,1.9-9.3,6.6-10.4c0.2,0,0.3-0.1,0.5-0.1
			L383.1,18.4z"/>
		<path fill="#1A2E35" d="M363.3,35.8c0,0.5,0.7,0.8,1.2,0.7c0.5-0.2,0.8-0.7,0.7-1.2c-0.2-0.5-0.7-0.8-1.2-0.7
			C363.5,34.7,363.1,35.2,363.3,35.8C363.3,35.7,363.3,35.8,363.3,35.8z"/>
		<path fill="#1A2E35" d="M361.6,34.8c0.6-0.5,1.2-0.8,1.9-1.1c0.7-0.1,1.4-0.1,2.2-0.1c0-0.1-0.1-0.3-0.7-0.4
			c-0.5-0.2-1.1-0.2-1.6,0c-0.6,0.1-1.1,0.5-1.5,1C361.7,34.3,361.6,34.6,361.6,34.8z"/>
		<path fill="#1A2E35" d="M374,32.9c0.1,0.5,0.6,0.8,1.1,0.7c0,0,0.1,0,0.1,0c0.5-0.1,0.9-0.7,0.8-1.2c-0.3-0.5-1-0.7-1.5-0.4
			C374.2,32.2,374,32.5,374,32.9z"/>
		<path fill="#1A2E35" d="M372.5,32c0.6-0.5,1.2-0.8,1.9-1.1c0.7-0.1,1.4-0.1,2-0.1c0.1-0.1-0.1-0.3-0.5-0.4c-0.6-0.2-1.2-0.2-1.8,0
			c-0.6,0.1-1.1,0.5-1.4,1C372.5,31.6,372.4,31.8,372.5,32z"/>
		<path fill="#1A2E35" d="M370.9,41.2c0-0.1-0.8,0-1.9,0.1c-1.1,0.1-0.5,0.1-0.7-0.1c-0.1-0.3-0.1-0.6,0-0.8c0-0.8,0.1-1.6,0.1-2.4
			c0.2-2,0.3-4.1,0.3-6.1c-0.4,2-0.6,4.1-0.7,6.1c-0.1,0.8-0.1,1.6-0.3,2.3c0,0.4,0,0.8,0.1,1.2l0.7,0.3h0.4L370.9,41.2z"/>
		<path fill="#FFAF91" d="M373.8,54.4c3.8-1,7.2-3.1,9.9-5.8c0,0-1.1,6.1-9.3,7.6L373.8,54.4z"/>
		<path fill="#FFAF91" d="M372.1,43.7c0.2-0.7,0.8-1.1,1.5-1.2c0.5-0.1,1.1,0,1.5,0.3c0.4,0.3,0.5,0.9,0.4,1.4
			c-0.1,0.4-0.8,0.7-1.4,0.7l-1.6-0.4l-0.4-0.3c-0.1,0-0.1-0.3-0.1-0.4"/>
		<path fill="#1A2E35" d="M374.3,41c0,0.9-0.2,1.7-0.7,2.4c-0.7,1.1-2,1.4-2,1.5h1c0.7-0.2,1.3-0.6,1.8-1.2c0.4-0.6,0.5-1.2,0.4-1.9
			C374.6,41.2,374.5,41,374.3,41z"/>
		<path fill="#1A2E35" d="M371,27.8c0.9-0.1,1.7-0.2,2.6-0.4c1.4-0.3,2.4-0.3,2.6-0.5s-0.3-0.4-0.8-0.5c-0.7-0.2-1.4-0.2-2-0.1
			c-0.6,0.2-1.2,0.4-1.8,0.8C371.2,27.2,370.9,27.6,371,27.8z"/>
		<path fill="#1A2E35" d="M361.2,31.4c0.3,0.3,1-0.3,1.8-0.5c0.8-0.3,1.8-0.3,1.9-0.5c0.1-0.3-0.1-0.4-0.5-0.5h-1.6
			c-0.5,0.2-1,0.5-1.4,1C361.1,31.2,361.1,31.4,361.2,31.4z"/>
		<path fill="#121212" d="M372.5,18.5c-1.5,3.4,1.8,6.8,4.9,8.7c3.1,1.9,6.9,4.2,7.1,7.9s-4.6,8.2-2.7,12.1c0.7,1.4,2.2,2.3,2.4,3.8
			c0.3,1.5-2.4,4.9-2.7,7.8s4.1,6.3,5.2,9.9c1.1,3.7-0.1,4.4,0.3,6.5c1,4.4,6.9,6.3,10.9,4.1c3.9-2.2,5.7-6.9,5.6-11.4
			s-3-10.1-4.8-14.1h7.6c1.1-1.6-1.1-2.6-1.9-4.4c-1.9-4.5-6-7.6-8.6-11.7c-2.6-4.1-3.4-7.8-4.9-11.7s-3.9-7.8-7.8-9.7
			s-9.3-1-10.9,3"/>
		<path fill="#FF4F5B" d="M392,29.4c0.1-0.9,0-1.9-0.4-2.7c-0.3-0.9-0.8-1.7-1.4-2.4c-0.1,0,0.5,1.1,1.1,2.4
			C391.5,27.6,391.7,28.5,392,29.4z"/>
		<path fill="#121212" d="M355.8,21.2c-2.7,6.3-3.4,13.4-1.9,20.1c0.7,3.4,2,6.7,3.8,9.7c1.9,3.2,2.1,7.1,0.5,10.5
			c-0.5,0.5-0.5,1.3,0,1.7c0.5,0.5,1.3,0.5,1.7,0c0.1-0.1,0.2-0.3,0.3-0.5c1.6-3.1,1.9-6.6,0.8-9.9c-0.7-1.7-1.5-3.3-2.4-4.8
			c-0.8-1.6-1.5-3.3-1.9-5c-2-6.8-1.6-14,1.1-20.5C358.4,21,356.3,19.9,355.8,21.2z"/>
		<path fill="#121212" d="M358.5,18c-2.9,1.5-3.8,5.2-4.6,8c-0.9,3.5-1.3,7-1.1,10.6c0.3,3.5,1.1,7,2.4,10.2c1.4,3.4,3.8,6.4,5,9.9
			c0.5,1.4,2.9,0.8,2.3-0.7c-0.5-1.5-3.3-5.8-4.6-9c-1.5-2.9-2.3-6-2.6-9.3c-0.4-3.2-0.3-6.5,0.4-9.7c0.3-1.5,0.8-3,1.4-4.5
			c0.4-1.5,1.3-2.8,2.6-3.7C361.1,19.3,359.9,17.3,358.5,18z"/>
		<path fill="#121212" d="M354.8,31.7c-0.1,3.9-0.1,7.8,0,11.8c0,1.1,1.8,1.8,2.2,0.7c0.4-1.1,0.5-5.7,1.4-8.6l-2.3-0.3v5.3
			c-0.1,1.5,2.3,1.5,2.3,0v-5.3c-0.1-0.7-0.8-1.1-1.4-1c-0.4,0.1-0.7,0.3-0.9,0.7c-0.7,2.6,0,5.4-1.1,7.9l2.2,0.5
			c-0.2-3.9-0.1-7.9,0.1-11.8C357.3,30.2,355,30.2,354.8,31.7L354.8,31.7z"/>
		<path fill="#121212" d="M372.3,19.7c0.5,1.1,1,2.2,1.6,3.3c0.7,1.1,2.7,0.1,2-1.2c-0.7-1.4-1.1-2.2-1.6-3.3
			c-0.3-0.5-1.1-0.7-1.6-0.4C372.2,18.5,372,19.2,372.3,19.7z"/>
		<path fill="#121212" d="M370.5,19.3c1.9,2,2.9,4.8,5.4,6.1c2.6,1.4,2.4-1.2,1.2-2c-1.2-0.8-3.3-3.9-4.9-5.7
			c-0.5-0.4-1.3-0.3-1.7,0.3C370.2,18.4,370.2,18.9,370.5,19.3z"/>
		<path fill="#121212" d="M370.8,19.2c0.8,2.3,2,4.4,3.7,6.1c0.8,0.7,1.7,1.3,2.7,1.8l3.5,2.2c1.2,0.8,2.4-1.2,1.2-2l-3-1.9
			l-2.6-1.4c-1.5-1.5-2.6-3.4-3.3-5.4c-0.3-0.6-1-0.9-1.6-0.5C371,18.2,370.7,18.7,370.8,19.2z"/>
		<path fill="#121212" d="M381.5,44.8c-1,3.7-1.3,7.6-1,11.4c0.3,3,1.2,6.4,4.2,7.8c3,1.4,2.6-1.5,1.2-2c-1.4-0.5-3-4.4-3.1-7.1
			c-0.2-3.2,0.1-6.4,0.8-9.5c0.2-0.6-0.2-1.2-0.8-1.4C382.3,43.8,381.7,44.2,381.5,44.8L381.5,44.8z"/>
		<path fill="#121212" d="M383.1,47.1c-0.7,3-0.7,6.1-0.1,9.1c0.3,1.2,2.3,1,2.3-0.4V52H383v3.8c0.1,0.7,0.8,1.1,1.4,1
			c0.4-0.1,0.7-0.3,0.9-0.7c0.7-2,0-4.9,1.6-6.7c1.6-1.8-0.7-2.7-1.6-1.6c-1,1.1-1.5,5-2.3,7.8l2.3,0.3V52c-0.2-0.6-0.9-1-1.6-0.8
			c-0.4,0.1-0.6,0.4-0.8,0.8v3.8l2.3-0.3c-0.4-2.6-0.4-5.3,0-7.9C385.6,46.1,383.4,45.6,383.1,47.1L383.1,47.1z"/>
		<path fill="#121212" d="M382.6,41.9l-1.5,3.9c-0.5,1.5,1.8,2,2.3,0.7l1.5-4.1C385.5,41.1,383.1,40.4,382.6,41.9z"/>
		<path fill="#121212" d="M381.9,42.9c-0.8,2.3-1.2,4.7-1.1,7.1c0.1,1.5,2.4,1.5,2.3,0c0-2.2,0.3-4.4,1.1-6.5
			C384.8,42,382.5,41.4,381.9,42.9z"/>
		<path fill="#121212" d="M383.6,40.1c-2.1,2.4-3.2,5.5-3.3,8.7c0,2.9,0.3,6.3,2.9,8c2.6,1.8,2.4-1.2,1.2-2
			c-1.2-0.8-1.8-4.4-1.6-6.3c0-2.5,0.9-4.9,2.4-6.8C386.1,40.7,384.5,38.9,383.6,40.1L383.6,40.1z"/>
		<path fill="#121212" d="M391.6,35.5c1.5,6.7,8.2,9.5,13.6,12.4c3.1,1.4,5.8,3.5,7.8,6.3c1,1.3,1.7,2.7,2.2,4.2
			c0.3,0.8,1.4,3.4,0.4,3.9c-1,0.5-0.3,2.7,1.1,2c1.4-0.7,1.1-6.1,0.1-8.3c-1.5-3.2-3.7-6-6.5-8c-5.4-3.8-14.7-5.6-16.3-13.2
			C393.5,33.3,391.3,34,391.6,35.5z"/>
		<path fill="#121212" d="M414,55.9c0.3-3.1-2.9-6-5.4-7.2s-1.4-0.3-1.6,0.4c-0.3,0.7,1.5,4.9,3,6.5c1.5,1.6,2.4-0.3,1.9-1.5
			c-0.7-1.3-1.6-2.4-2.6-3.5c-0.8-1-2.4,0.3-1.8,1.5l0.8,1.5c0.4,0.4,0.6,0.9,0.8,1.4c0.1,1.5,2.6,1.5,2.3,0c-0.4-1.5-1-2.9-1.9-4.1
			l-1.9,1.5c0.8,0.9,1.5,1.9,2.2,3l1.8-1.4l-1.5-1.8c-0.1-0.4-1.4-1.6-1.1-2l-1.6,0.5c1.9,0.8,4.5,2.9,4.4,5.2
			C411.6,58.2,413.9,57.6,414,55.9L414,55.9z"/>
		<path fill="#121212" d="M411,67.9c-2,1.4-4.8,1-6.9,2c-1.1,0.5-2.1,1.2-2.9,2l-1.2,1.4l-0.3,0.3l0.7,0.4c0,0,0.4-1,0.5-1
			s-0.7-2.9-1.6-1.8c-1,1.1-1.9,3.3-0.7,4.4c1.2,1.1,2.9-0.5,3.8-1.5c1.1-1.4,2.7-2.3,4.5-2.7c1.8-0.4,3.7-0.4,5.3-1.5
			C413.9,68.8,412.3,66.9,411,67.9L411,67.9z"/>
		<path fill="#121212" d="M403,71.4l5-2.9c0.5-0.5,0.5-1.2,0-1.7c-0.3-0.3-0.8-0.4-1.2-0.3l-4.1,1.5l1.5,1.5c0.3-1.1,1-2.1,1.9-2.9
			l-1.6-1.8c-0.5,0.8-1.3,1.3-2.2,1.6l1.8,1.1c0.2-1.2,0.4-2.5,0.7-3.7c0.1-0.7-0.3-1.3-1-1.4c-0.4-0.1-0.9,0.1-1.2,0.5l-1.8,3
			l2.2,1l0.5-3.7c0.3-1.5-1.9-2.2-2.2-0.7l-0.4,2c-0.3,1.4,2,2,2.3,0.5s0.7-4.5,1-6.8s-1.9-1.5-2.3-0.3c-0.2,0.8-0.6,1.5-1,2.2h2
			c-0.1-0.3-0.2-0.5-0.1-0.8l-1.8,1.1l1.9,0.8c1.4,0.7,2.6-1.4,1.2-2l-1.9-0.8c-0.5-0.4-1.2-0.3-1.5,0.2c-0.2,0.2-0.3,0.5-0.2,0.8
			c-0.1,0.7,0.1,1.4,0.4,2c0.4,0.6,1.1,0.7,1.7,0.3c0.1-0.1,0.3-0.2,0.3-0.3c0.5-0.9,0.9-1.8,1.2-2.7l-2.3-0.4
			c-0.3,2.2-0.5,4.2-1,6.3l2.3,0.5l0.3-1.9l-2.2-0.7l-0.7,3.7c-0.1,1.2,1.5,2.2,2.2,1l1.8-3l-2.2-0.8c-0.3,1.4-0.5,2.8-0.7,4.2
			c-0.1,1,1.1,1.4,1.8,1c1-0.4,1.9-1.1,2.6-1.9c1-1.2-0.5-2.7-1.6-1.8c-1.2,1.1-2.1,2.4-2.6,3.9c-0.2,0.7,0.2,1.3,0.9,1.5
			c0.2,0.1,0.4,0.1,0.6,0l4.6-1.8l-1.2-2l-4.9,2.9C400.6,70.1,401.8,72.1,403,71.4L403,71.4z"/>
		<path fill="#121212" d="M382.7,41.5c-0.9,1.1-1.4,2.3-1.6,3.7c-0.5,1.4-0.8,2.9-0.8,4.4c-0.1,1.4,0,2.8,0.3,4.2
			c0.1,1.2,0.8,2.3,1.8,3c0.5,0.1,0.9-0.1,1.2-0.4l0,0c1.2-1.1-0.5-2.7-1.6-1.6h-0.1l1.2-0.3c0.4,0.1-0.1-1.2-0.1-1.4
			c-0.2-0.4-0.2-0.8-0.3-1.2c-0.1-1-0.1-2,0-3c0.1-1,0.4-2,0.7-3.1s0.4-2,1.1-2.6c0.5-0.5,0.5-1.2,0-1.6
			C383.9,41.1,383.2,41.1,382.7,41.5L382.7,41.5z"/>
	</g>
</g>
<g id="Layer_1">
</g>
</svg>
