<?xml version="1.0" encoding="utf-8"?>
<!-- Generator: Adobe Illustrator 24.1.2, SVG Export Plug-In . SVG Version: 6.00 Build 0)  -->
<svg version="1.2" baseProfile="tiny" id="Layer_1" xmlns="http://www.w3.org/2000/svg" xmlns:xlink="http://www.w3.org/1999/xlink"
	 x="0px" y="0px" viewBox="0 0 436 300" overflow="visible" xml:space="preserve">
<g id="Layer_1_1_">
	<line fill="none" stroke="#1C1C1C" stroke-width="0.25" stroke-miterlimit="10" x1="123" y1="283" x2="436" y2="283"/>
</g>
<g id="Background_Complete">
	<rect x="61.7" y="29.6" fill="#FFFFFF" width="116.3" height="77.8"/>
	<path fill="#E1E1E1" d="M61.7,107.4c0.1-0.5,0.1-0.9,0.1-1.4V86.2c0-13.5,0.1-32.9,0.1-56.6H178l-0.2-0.2v77.8l0.2-0.2h0.2V29.4
		H61.6v0.2c0,23.7,0,43.2,0.1,56.8C61.7,86.4,61.7,107.4,61.7,107.4z"/>
	<path fill="#E1E1E1" d="M178,36.5c0-0.1-26-0.2-58.1-0.2s-58.1,0.1-58.1,0.2s26,0.2,58.1,0.2S178,36.6,178,36.5z"/>
	<image width="3" height="2" xlink:href="2AE2D2B3024F6201.png"  transform="matrix(1 0 0 1 173 32)">
	</image>
	<image width="3" height="2" xlink:href="2AE2D2B3024F6202.png"  transform="matrix(1 0 0 1 170 32)">
	</image>
	<image width="2" height="2" xlink:href="2AE2D2B3024F6203.png"  transform="matrix(1 0 0 1 167 32)">
	</image>
	<rect x="137" y="44.7" fill="#E1E1E1" width="31" height="31"/>
	<path fill="#E1E1E1" d="M77.7,53.4c0,0.1,12.1,0.2,27,0.2s27-0.1,27-0.2s-12.1-0.2-27-0.2S77.7,53.3,77.7,53.4z"/>
	<path fill="#E1E1E1" d="M77.7,59.2c0,0.1,12.1,0.2,27,0.2s27-0.1,27-0.2s-12.1-0.2-27-0.2S77.7,59.1,77.7,59.2z"/>
	<path fill="#E1E1E1" d="M77.7,64.9c0,0.2,12.1,0.2,27,0.2s27,0,27-0.2s-12.1-0.2-27-0.2S77.7,64.8,77.7,64.9z"/>
	<path fill="#E1E1E1" d="M99.8,70.7L99.8,70.7z"/>
	<rect x="151.5" y="86.1" fill="#E1E1E1" width="14.6" height="14.6"/>
	<rect x="125" y="86.1" fill="#E1E1E1" width="14.6" height="14.6"/>
	<rect x="98.6" y="86.1" fill="#E1E1E1" width="14.6" height="14.6"/>
	<rect x="72.2" y="86.1" fill="#E1E1E1" width="14.6" height="14.6"/>
	<polygon fill="#E1E1E1" points="281.8,45.8 193.4,45.8 193.4,173.9 281.2,173.9 	"/>
	<rect x="200.9" y="46.4" fill="#FFFFFF" width="87.5" height="126.9"/>
	<path fill="#E1E1E1" d="M289,45.8v128.1h-88.7V45.8H289z M287.8,172.7V47h-86.3v125.7H287.8z"/>
	<rect x="211.7" y="60.2" fill="#FFFFFF" width="65.8" height="99.4"/>
	<path fill="#E1E1E1" d="M277.5,60.2v7.3c-0.1,4.8-0.1,11.7-0.1,20.5c-0.1,17.5-0.1,42.3-0.2,71.6l0.3-0.3h-65.8l0.4,0.4
		c-0.1-37.5-0.1-72.1-0.1-99.4l-0.3,0.2h-0.2v0.3c0,27.3,0,61.9-0.1,99.4v0.3h66.4v-0.2c0-29.3-0.1-54.2-0.1-71.8
		c-0.1-8.7-0.1-15.6-0.1-20.4V62c-0.1-0.5-0.1-0.9-0.1-1.4L277.5,60.2z"/>
	<path fill="#E1E1E1" d="M288.6,173.3c0.1-0.1-0.4-0.9-1.4-2.2s-2.2-3.1-3.8-5s-2.9-3.5-4-4.7s-1.8-1.9-1.9-1.8s2.4,3.1,5.4,6.9
		S288.5,173.4,288.6,173.3z"/>
	<path fill="#E1E1E1" d="M288.4,46.4c-2,2.1-3.9,4.3-5.7,6.7c-1.9,2.3-3.6,4.6-5.2,7.1c0.2,0.1,2.7-2.9,5.7-6.7
		C285.1,51.2,286.8,48.9,288.4,46.4z"/>
	<path fill="#FFFFFF" d="M200.9,46.5l11.4,14.2"/>
	<path fill="#E1E1E1" d="M212.3,60.7c0.2-0.1-2.3-3.4-5.5-7.3c-1.8-2.4-3.8-4.7-5.9-6.9c-0.2,0.1,2.3,3.4,5.4,7.3
		C208.2,56.2,210.2,58.5,212.3,60.7z"/>
	<path fill="#E1E1E1" d="M200.9,173.3c2-2.1,3.8-4.3,5.6-6.6c3-3.8,5.3-6.9,5.1-7c-2,2.1-3.9,4.3-5.6,6.6
		C203,170.1,200.7,173.2,200.9,173.3z"/>
	<path fill="#E1E1E1" d="M246,111.3h-11.6l-1.3,3.2c-0.4,0.8-0.7,1.7-0.7,2.6c-0.1,0.8,0.4,1.7,1.1,2.1c1,0.3,2.1,0.5,3.2,0.5v0.9
		h-10.9v-0.9c1.1-0.1,2.1-0.6,2.9-1.4c1.2-1.5,2.1-3.2,2.8-5l11.7-26.1h0.5l11.8,26.9c0.7,1.7,1.6,3.4,2.8,4.8
		c0.6,0.6,1.5,0.8,2.3,0.8v0.9h-15.8v-0.9h0.6c0.9,0.1,1.9-0.1,2.7-0.5c0.3-0.3,0.5-0.7,0.5-1.1c0-0.3,0-0.6-0.1-0.9
		c-0.1-0.1-0.3-0.7-0.8-1.8L246,111.3z M245.2,109.5l-4.9-11.3l-5,11.3H245.2z"/>
	<path fill="#ECECEC" d="M27.1,63h2.3l5-7v-4.6c0,0,3.6-0.2,3.1,5.8s0.1,4.5,0.1,4.5s7.6,0.1,8.2,0.7c0.6,0.6,0.6,8,0.7,12
		c0.1,2-1.2,3.8-3.1,4.5h-0.9c-1.8,0-11.5-1.5-11.5-1.5h-4L27.1,63z"/>
	<polygon fill="#ECECEC" points="20.5,61.8 21.9,77.5 25.8,77.5 25.8,62.1 	"/>
</g>
<g id="Character_2">
	<path fill="#1A2E35" d="M51.4,293.7c2.9-13.5,6.4-27.6,6.4-27.6l68.6,1.2c0.5-0.2,3.6,13.5,5.5,26.6"/>
	<path fill="#FFC8AF" d="M135.8,205.6l10.2-45.9l0.6-7.6c0,0,2.4-17.1,2.4-18.7s0.9-2.4,1.6-2.3s1.9,1.4,1.9,3.1s-0.1,9.5-0.1,9.5
		c0.5-0.8,1.1-1.6,1.8-2.4c1.3-1.6,4.4-2.6,7.7-2.4s4.1,0.4,4.1,1.7c0,0.5-0.3,0.9-0.7,1.2c-0.6,0.5-1.3,0.7-2.1,0.7
		c-5.2-0.2-6.6,2.6-6.6,2.6v1c0,0,3.1-2.2,5.6-1.3l1,0.7c2.2,0,4,1.9,3.9,4.1c0,0.7-0.2,1.3-0.5,1.9c-0.3,0.6-0.9,1-1.6,1
		c-0.4-0.1-0.7-0.3-0.9-0.6l-0.5-0.3l-0.6,2.8c0,0-1.7,6.1-2.1,8.8l-2.7,45.5c-0.4,6.3-5.9,11-12.1,10.6c0,0,0,0-0.1,0l0,0
		c-6.2-0.5-10.9-5.9-10.4-12.1C135.6,206.7,135.7,206.1,135.8,205.6z"/>
	<path fill="#FFC8AF" d="M147.5,159.1c1,0.1,2-0.4,2.5-1.3c0.5-0.8,0.7-1.8,1.2-2.6c1.3-2.6,4.6-3.8,5.8-6.5c0.2-0.4,0.3-0.9,0-1.1
		s-0.8-0.1-1.1,0.1l-8.5,4.6"/>
	<path fill="#FF9A6C" d="M147.4,152.3l0.8-0.6l2.5-1.4l3.7-2.1l1.1-0.6c0.4-0.1,0.8-0.5,1.4-0.4c0.3,0.1,0.6,0.4,0.6,0.8
		c0,0.3-0.1,0.5-0.2,0.8c-0.2,0.4-0.4,0.8-0.7,1.2c-1.2,1.5-2.8,2.4-3.9,3.5c-0.5,0.5-0.9,1.1-1.3,1.7c-0.3,0.6-0.6,1.2-0.8,1.8
		c-0.3,1-1.1,1.7-2,2.1c-0.4,0.1-0.7,0.1-1.1,0c0-0.1,0.4,0.1,1-0.2c0.8-0.4,1.4-1.1,1.7-2c0.2-0.7,0.5-1.3,0.8-1.9
		c0.3-0.7,0.8-1.3,1.4-1.8c1.1-1.2,2.6-2.2,3.7-3.6c0.3-0.3,0.5-0.7,0.7-1.1c0.2-0.3,0.2-0.7-0.1-0.7s-0.6,0.1-0.9,0.3l-1.1,0.6
		l-3.8,1.9l-2.6,1.3L147.4,152.3z"/>
	<path fill="#FF9A6C" d="M156.4,146.1c0.1-0.6,0.3-1.2,0.6-1.7c0.4-0.5,1-0.9,1.6-1.1c0.8-0.2,1.7-0.4,2.5-0.4h2.5
		c0.7-0.1,1.4-0.5,1.9-1c0.4-0.3,0.6-0.8,0.5-1.3c0-0.2,0-0.3-0.1-0.5c-0.1,0,0,0.2,0,0.5c0,0.4-0.2,0.9-0.6,1.1
		c-0.5,0.5-1.1,0.7-1.8,0.8c-0.8,0.2-1.6,0.2-2.4,0.2c-0.9,0-1.8,0.1-2.6,0.4c-0.7,0.2-1.3,0.6-1.7,1.2c-0.2,0.4-0.4,0.9-0.4,1.4
		V146.1z"/>
	<path fill="#FF9A6C" d="M152.5,133.5v6.1c-0.1,1.7-0.1,3.1-0.1,4.3v1.8c0.1,0,0.2-0.6,0.3-1.7s0.1-2.7,0.1-4.4s0-3.2-0.1-4.3
		C152.8,134.7,152.7,134.1,152.5,133.5z"/>
	<path fill="#FF9A6C" d="M158.4,148.2l0.6-0.2c0.4-0.2,0.9-0.2,1.4-0.1c0.3,0.2,0.4,0.5,0.4,0.8c0.1,0.4,0,0.7-0.1,1.1
		c-0.1,0.5,0,1,0.2,1.5c0.3,0.4,0.8,0.7,1.4,0.7c0.5,0,1-0.3,1.4-0.6c0.4-0.3,0.6-0.8,0.7-1.3c0.1-0.8,0.1-1.5,0-2.3
		c-0.1-0.5-0.3-1-0.5-1.5l-0.3-0.4c-0.1,0,0.1,0.2,0.2,0.5c0.2,0.5,0.3,1,0.3,1.5c0.1,0.7,0.1,1.5,0,2.2c-0.2,0.8-0.9,1.4-1.8,1.5
		c-0.4,0-0.8-0.2-1.1-0.5c-0.2-0.4-0.2-0.8-0.2-1.2c0.1-0.4,0.2-0.9,0.1-1.3c0-0.4-0.2-0.7-0.6-0.9c-0.5-0.2-1.1-0.2-1.6,0.1
		L158.4,148.2z"/>
	<path fill="#FF9A6C" d="M163.6,151.1c-0.1,0-0.1,0.2,0,0.5c0.2,0.5,0.5,0.8,1,1c0.7,0.1,1.5-0.1,2-0.6c0.6-0.7,0.9-1.5,0.9-2.4
		c0-0.9-0.2-1.7-0.7-2.4c-0.4-0.6-1-1-1.6-1.3c-0.4-0.2-0.9-0.3-1.4-0.3h-0.5c0.6,0.1,1.2,0.3,1.8,0.5c0.6,0.3,1,0.8,1.4,1.3
		c0.4,0.7,0.7,1.4,0.7,2.2c0,0.8-0.3,1.5-0.8,2.1c-0.4,0.5-1.1,0.7-1.7,0.6c-0.4-0.1-0.7-0.4-1-0.7
		C163.6,151.4,163.6,151.3,163.6,151.1z"/>
	<path fill="#FF9A6C" d="M157.3,157.1h-0.9c-0.7,0.2-1.4,0.5-1.9,1.1h0.3c0-0.4-0.1-0.8-0.2-1.2c-0.1-1.4-0.8-2.8-1.8-3.8
		c0.6,1.2,1.2,2.5,1.5,3.9c0.1,0.4,0.2,0.7,0.2,1.1v0.4l0.3-0.3c0.4-0.5,1-0.9,1.7-1.1L157.3,157.1z"/>
	<path fill="#FF9A6C" d="M157.6,141.7c-0.1,0.1,0.3,0.7,1.1,1.1c0.4,0.2,0.9,0.2,1.4,0.1c0-0.2-0.6-0.1-1.3-0.5
		C158.4,142.2,158,142,157.6,141.7z"/>
	<path fill="#131375" d="M54.1,166.6c-3.8,0-12.7,10.6-14.3,26.7c-0.7,7.4-4.4,37.6-6.2,52.2c-0.6,5.2,1.6,10.4,5.9,13.5
		c9.7,7,29,18,54.7,17.7l15.6-13.1l-50.6-21.3v-1.1l-2.2-2.5l6.3-38.7C63.3,200,69.2,166.6,54.1,166.6z"/>
	<path fill="#121212" d="M67.2,98.5c-0.1,5.2-7.1,8.4-7,13.7c0,2.2,1.4,4.2,1.7,6.4s-1.3,5.9-2,8.8c-1.2,6.1,2.3,12.6,7.6,15.9
		s11.8,4,18,3.1"/>
	<path fill="#121212" d="M109.4,97.2c-0.2,2.8,1.6,5.3,3.5,7.5s4,4.3,4.4,7c0.7,5-4.2,9.6-3.2,14.5c0.6,2.6,2.7,4.7,3.1,7.3
		s-1,5.1-2.7,7.1s-3.7,1.6-5.2,3.7c-1.7,2.4-3.9,4.4-6.5,5.8c-5.4,3-11.9-1.3-14.6-2.1"/>
	<path fill="#121212" d="M66.2,101.5c-0.1-2.5,2.3-4.5,4.7-5.4s5-1.3,7.1-2.7s3.1-3.3,4.7-4.9c4-4,9.8-5.5,15.3-4.1
		c5.4,1.6,9.6,5.9,11.1,11.3c0.9,3.7,0.3,7.9-2.6,10.4s-8.2,2.1-12.5,1.3s-9.1-1.8-12.6,0.7s-3.4,4-4.7,6.3s-2.9,4.5-5.4,5.4
		s-5.9-0.6-6-3.2"/>
	<path fill="#FFC8AF" d="M100.1,160.9v-11.5c0,0,9.3-1.6,11.2-13.7c1-6.1,0.7-15.9,0.1-24s-5.3-16.2-12.5-15.4L76.2,102
		c-2.2,0.3-3.8,2.2-3.8,4.4l0,0l2.1,54.9c0.3,7,6,12.4,13,12.3l0,0C94.5,173.5,100,167.9,100.1,160.9z"/>
	<path fill="#1C1C1C" d="M107.6,118.6c0,0.8-0.7,1.5-1.5,1.6c-0.8,0.1-1.5-0.6-1.6-1.4c0,0,0,0,0,0c0-0.8,0.7-1.5,1.5-1.6
		C106.8,117.2,107.5,117.8,107.6,118.6z"/>
	<path fill="#1C1C1C" d="M109.3,116.8c-0.2,0.2-1.4-0.6-3.1-0.6s-2.9,0.8-3,0.6s0.1-0.4,0.6-0.8c0.7-0.5,1.6-0.8,2.5-0.8
		c0.9,0,1.7,0.3,2.4,0.8C109.2,116.4,109.4,116.7,109.3,116.8z"/>
	<path fill="#1C1C1C" d="M91.3,119c0.1,0.8-0.6,1.5-1.4,1.6c0,0-0.1,0-0.1,0c-0.8,0-1.5-0.6-1.6-1.4c0-0.8,0.7-1.5,1.5-1.6
		C90.5,117.5,91.2,118.2,91.3,119C91.3,119,91.3,119,91.3,119z"/>
	<path fill="#1C1C1C" d="M92.8,117.2c-0.1,0.2-1.3-0.7-3-0.7s-2.9,0.9-3.1,0.7s0.1-0.5,0.7-0.9c0.7-0.5,1.5-0.8,2.4-0.8
		c0.9,0,1.7,0.3,2.4,0.8C92.8,116.7,92.9,117.1,92.8,117.2z"/>
	<path fill="#1C1C1C" d="M98.9,129.6c0.9-0.3,1.8-0.5,2.8-0.5c0.4-0.1,0.8-0.2,0.9-0.4c0-0.5-0.1-0.9-0.3-1.3l-1.3-3.3
		c-1.2-2.8-2.1-5.6-2.9-8.5c0.2,0,1.8,3.7,3.6,8.3l1.2,3.3c0.3,0.5,0.3,1.1,0.2,1.6c-0.1,0.3-0.4,0.6-0.7,0.7L98.9,129.6L98.9,129.6
		z"/>
	<path fill="#FFAF91" d="M100.1,149.4c-5.7,0.1-11.3-1.4-16.2-4.3c0.1,0,4.5,8.4,16.1,7.1L100.1,149.4z"/>
	<path fill="#FF4F5B" d="M100.2,133.6c-1-1.3-2.9-1.5-4.2-0.5c-0.1,0.1-0.3,0.2-0.4,0.4c-0.4,0.6-0.5,1.4-0.1,2
		c0.6,0.6,1.4,0.8,2.2,0.6c0.8-0.3,1.5-0.8,2.1-1.3l0.5-0.5C100.4,134.1,100.5,133.8,100.2,133.6"/>
	<path fill="#1C1C1C" d="M96,132.1c0.2,0,0.2,1.3,1.4,2.2s2.7,0.8,2.7,1s-0.3,0.3-1,0.3c-0.8,0-1.6-0.3-2.2-0.8
		c-0.6-0.4-1-1.1-1.1-1.8C95.7,132.4,95.9,132.1,96,132.1z"/>
	<path fill="#1C1C1C" d="M93.6,112.2c-0.2,0.5-1.8,0.3-3.8,0.5s-3.6,0.8-3.8,0.4s0.1-0.6,0.8-1.1c0.9-0.5,1.8-0.9,2.8-1
		c1-0.1,2,0,3,0.4C93.3,111.7,93.7,112,93.6,112.2z"/>
	<path fill="#1C1C1C" d="M108.7,112c-0.3,0.4-1.5,0-2.9,0s-2.5,0.2-2.8-0.2s0.1-0.6,0.6-0.9c0.7-0.5,1.5-0.7,2.3-0.6
		c0.8,0,1.6,0.2,2.2,0.7C108.6,111.4,108.8,111.8,108.7,112z"/>
	<path fill="#121212" d="M71.1,142.6c3.3,0.7,3.6-1,6.1-3.3c2.5-2.4,3.8-5.8,3.4-9.3c-0.4-2.9-2-6-1-8.8s6.6-4.9,8-8.6
		c0.8-2.1,0.1-4.7,1-6.8s3-3.1,5-3.9s4.2-1.2,5.9-2.6s2.8-3.8,1.7-5.7c-9.1,1.1-18,3.3-26.5,6.5c-2,0.7-4,1.6-5.2,3.4
		s-1.2,4.2-1.1,6.5l1.5,32.6"/>
	<path fill="#121212" d="M99.7,94.7c-0.5,4.7-6.1,7.1-10,8.2s-10.6,1.2-15.8,0.9c-2-0.1-2,2.9,0,3c6.1,0.4,12.4,0.4,18.3-1.6
		s10-4.9,10.5-10.5C102.8,92.8,99.8,92.8,99.7,94.7z"/>
	<path fill="#121212" d="M88.1,103.6c-1.3,7.3-3.4,14.5-6.2,21.4c-1.4,3.4-3.1,6.7-4.9,9.9c-1.5,2.7-3.3,5.4-6.3,6.8
		s-0.3,3.3,1.5,2.6c2.9-1.6,5.3-4,6.8-6.9c2-3.4,3.7-6.8,5.3-10.4c3.1-7.3,5.3-14.8,6.7-22.6C91.3,102.5,88.4,101.7,88.1,103.6z"/>
	<path fill="#121212" d="M82.8,114.2c-1.4,4.1-3.8,7.7-6,11.3l2.6,1.5c1.7-3.2,3.5-6.4,5.5-9.4l-2.8-0.8c-0.3,2.6-1.1,5.1-2.2,7.5
		l2.7,1.2l2.6-7.1c0.5-1.5-2.1-2.7-2.8-1.1c-1.4,3.1-3,6.1-4.8,9l2.5,1.5l1.3-2.3l-2.7-1.2c-0.2,0.7-0.4,1.3-0.8,1.9
		c-0.4,0.7-0.2,1.6,0.6,2.1c0.7,0.4,1.6,0.2,2-0.6l0.6-0.9l-2.8-0.3c0.1,0.3,0,0.7-0.2,0.9l2.8,0.8v-0.7c0.2-0.8-0.2-1.6-1-1.8
		c-0.4-0.1-0.8-0.1-1.2,0.1c-1.2,0.5-2.5,0.6-3.8,0.3c-1.9-0.4-2.7,2.5-0.8,2.9c2,0.5,4.2,0.3,6.1-0.6l-2.2-1.7
		c-0.1,0.5-0.1,1-0.1,1.5c0,0.8,0.7,1.5,1.5,1.5c0.5,0,1-0.3,1.3-0.8c0.6-0.9,0.8-2.1,0.5-3.2c-0.2-1.4-2.1-1.4-2.7-0.4l-0.6,0.9
		l2.6,1.5c0.5-0.8,0.9-1.7,1.1-2.6c0.3-0.8-0.1-1.6-0.8-2c-0.8-0.3-1.6,0.1-2,0.9l-1.2,2.3c-0.6,0.6-0.6,1.5,0,2.1
		c0.6,0.6,1.5,0.6,2.1,0c0.2-0.2,0.3-0.4,0.4-0.6c1.9-2.9,3.5-5.9,4.9-9l-2.7-1.2l-2.5,7.1c-0.6,1.6,2,2.7,2.7,1.2
		c1.4-2.9,2.2-5.9,2.6-9.1c0-0.7-0.4-1.3-1.1-1.4c-0.7-0.2-1.4,0.1-1.7,0.7c-2,3-3.8,6.2-5.5,9.4c-0.4,0.7-0.2,1.6,0.6,2
		c0.7,0.4,1.6,0.2,2-0.5c2.5-3.7,4.7-7.8,6.3-12c0.2-0.8-0.2-1.6-1-1.8C83.9,113,83.1,113.4,82.8,114.2z"/>
	<path fill="#121212" d="M102.1,91c3.7,1.5,5.9,4.9,7.5,8.4c2,4.3,3.1,9,3.4,13.7c0,0.8,0.7,1.5,1.5,1.5s1.5-0.7,1.5-1.5l0,0
		c-0.3-5.3-1.6-10.5-3.9-15.3c-1.7-3.9-4.4-7.7-8.4-9.4c-0.7-0.4-1.6-0.1-2.1,0.5C101.2,89.6,101.4,90.5,102.1,91z"/>
	<path fill="#121212" d="M100.4,89.1c1.7,1.1,3.3,2.4,4.7,3.9c0.7,0.8,1.3,1.7,1.9,2.6l2,3c0.4,0.7,1.2,0.9,1.9,0.6
		c0,0,0.1,0,0.1-0.1c0.7-0.4,1-1.3,0.6-2c-1.3-2.2-2.8-4.2-4.4-6.2c-1.6-1.7-3.4-3.2-5.3-4.4c-0.7-0.4-1.6-0.2-2,0.5
		C99.5,87.7,99.8,88.6,100.4,89.1z"/>
	<path fill="#121212" d="M98.7,88.2c3.9,1.2,7.3,4.7,9.6,8c2.4,3.4,4.2,7.2,5.3,11.2c1.2,4.9,1.9,9.9,2,14.9v7.5
		c0,2.4-0.3,4.8-1.1,7.1c-0.6,1.8,2.3,2.6,2.9,0.8c1.4-3.9,1.2-8.2,1.2-12.3c0-4.2-0.2-8.4-0.8-12.6c-1-7.4-3.9-14.4-8.6-20.3
		c-2.5-3-5.8-6-9.7-7.2C97.7,84.7,96.9,87.6,98.7,88.2z"/>
	<path fill="#121212" d="M112.5,118.8c0.3,4.5,0.9,9,1.6,13.4c0.2,0.7,0.9,1.2,1.6,1.1c0.8-0.1,1.4-0.7,1.3-1.5c0,0,0,0,0,0
		c0.2-3.5,0.3-6.9,0.2-10.4c-0.1-1.9-3.1-2-3,0l0.2,10.7c-0.1,0.8,0.5,1.4,1.3,1.5c0,0,0,0,0,0c0.7,0.1,1.4-0.4,1.6-1.1l1.7-9.9
		c0.2-0.8-0.3-1.6-1.1-1.8c-0.7-0.2-1.5,0.2-1.8,0.9c0,0,0,0.1,0,0.1l-1.7,9.9l3,0.4l-0.2-10.7h-3c0.1,3.5,0,6.9-0.2,10.4l3-0.4
		c-0.7-4.2-1.2-8.4-1.5-12.6c0-0.8-0.7-1.5-1.5-1.5C113.2,117.3,112.5,118,112.5,118.8z"/>
	<path fill="#121212" d="M63.5,117.9c-0.5-4.1-3.6-7.4-7.6-8.3c-4.1-0.7-8.2,1.4-10,5.1c-1.7,3.4-1.1,7.5,0.4,11s5.7,7.9,10.3,7.7
		s7.7-3.9,8.9-8s0.7-8.5,0.2-12.7"/>
	<path fill="#131375" d="M53,166.8l21.5-5.5h25.6c0,0,13.3,0.8,20.7,7.3c1.8,1.9,3.2,4.1,4.1,6.6l11.4,26.1l5.8-32.7l20.5,2.9
		l-3.3,56.2c-1.2,12-10,21.8-21.8,24.3l-11.7-13.1c-1.3,10.7-2.5,19.9-2.6,19.7s-63.7-4.1-63.7-4.1l6.4-21.7L53,166.8z"/>
	<path fill="#8C8CF7" d="M134.3,94c-0.1-8.1,6.4-14.8,14.5-14.9c0,0,0,0,0,0c8.1-0.1,14.8,6.4,14.8,14.6c0.1,5.7-3.2,10.8-8.2,13.3
		v3.7h-12.9c0,0-0.1-2-0.1-3.9C137.6,104.3,134.5,99.4,134.3,94z"/>
	<path fill="#1A2E35" d="M147.2,110.7V110c0-0.7-0.1-1.3-0.3-2c-0.1-1.1-0.3-2.1-0.6-3.2c-0.3-1.4-0.8-2.8-1.4-4.1
		c-0.3-0.7-0.7-1.4-1.2-2.1c-0.3-0.4-0.6-0.7-1-0.9c-0.4-0.2-1-0.2-1.4,0l-0.5,0.6c0,0.3,0,0.5,0.1,0.8c0.3,0.4,0.7,0.7,1.2,0.9
		c1,0.4,2.1,0.3,3-0.2c1-0.5,1.7-1.4,2-2.5c0.2-0.5,0.3-1.1,0.1-1.7c-0.2-0.6-0.7-1-1.3-1c-0.3,0-0.6,0.3-0.8,0.5
		c-0.1,0.3-0.1,0.6-0.1,0.9c0.2,0.6,0.6,1.1,1.1,1.5c1.6,1.5,4,1.4,5.5-0.2c0.3-0.3,0.5-0.6,0.7-1c0.3-0.6,0.3-1.2,0.1-1.8
		c-0.2-0.3-0.4-0.5-0.7-0.6c-0.3-0.1-0.6-0.1-0.9,0.1l-0.6,0.6c-0.1,0.3-0.2,0.6-0.2,0.9c0,0.6,0.1,1.2,0.3,1.7c0.3,1,1.1,1.9,2,2.4
		c1,0.5,2.1,0.6,3.1,0.4c0.5-0.1,1-0.3,1.3-0.7c0.3-0.4,0.4-1,0.1-1.5l-0.7-0.3l-0.7,0.2c-0.4,0.2-0.7,0.6-0.9,1l-0.9,2.3
		c-1.2,3-2,5.4-2.5,7.1c-0.2,0.7-0.4,1.3-0.6,2c-0.1,0.2-0.1,0.4-0.2,0.5l0,0c0-0.2,0.1-0.3,0.1-0.5l0.7-2c0.5-1.6,1.3-4.1,2.5-7
		l0.9-2.3c0.2-0.4,0.5-0.8,0.9-1c0.4-0.2,0.9-0.2,1.2,0.1c0.2,0.4,0.2,0.9-0.1,1.3c-0.3,0.3-0.8,0.5-1.2,0.6c-1,0.2-2.1,0.1-3-0.4
		c-0.9-0.5-1.6-1.3-2-2.3c-0.2-0.5-0.2-1.1-0.2-1.6c0-0.6,0.2-1.1,0.7-1.4h0.8c0.2,0,0.4,0.3,0.5,0.5c0.2,0.5,0.2,1.1-0.1,1.6
		c-0.5,1.1-1.4,1.9-2.6,2.1c-1.2,0.2-2.4-0.2-3.3-0.9c-0.5-0.3-0.8-0.8-1-1.4c-0.1-0.3,0-0.6,0.1-0.8c0.1-0.2,0.3-0.4,0.6-0.4
		l0.7,0.2c0.2,0.2,0.4,0.4,0.4,0.7c0.2,0.5,0.2,1.1,0,1.6c-0.3,1-1,1.8-2,2.3c-0.9,0.5-1.9,0.6-2.9,0.3c-0.4-0.2-0.8-0.5-1-0.9
		c-0.2-0.3-0.2-0.7,0.1-1c0.1,0,0.1-0.1,0.2-0.1c0.3-0.3,0.8-0.3,1.2-0.1c0.4,0.2,0.7,0.5,1,0.8c0.5,0.7,0.9,1.4,1.2,2.2
		c0.6,1.3,1.1,2.6,1.4,4l0.7,3.2c0.1,0.7,0.2,1.3,0.3,2c0,0.2,0,0.4,0.1,0.6L147.2,110.7z"/>
	<path fill="#1A2E35" d="M143.6,113.2h11c0.4,0,0.8-0.4,0.8-0.8v0l0,0c0-0.5-0.3-0.8-0.8-0.9l-11.1,0.2c-0.4,0-0.8,0.4-0.8,0.8v0
		l0,0C142.8,112.9,143.2,113.2,143.6,113.2z"/>
	<path fill="#1A2E35" d="M143.6,113.9h11c0.4,0,0.8,0.4,0.8,0.8v0c0.1,0.4-0.3,0.8-0.7,0.9c0,0-0.1,0-0.1,0h-1.2l-1.6,3.1
		c-0.2,0.3-0.5,0.5-0.9,0.5H147c-0.4,0-0.8-0.2-1-0.6l-1.6-3h-0.8c-0.4,0-0.8-0.4-0.8-0.8v0c-0.1-0.4,0.3-0.8,0.7-0.9
		C143.5,113.9,143.6,113.9,143.6,113.9z"/>
	<image width="11" height="18" xlink:href="2AE2D2B3024F6200.png"  transform="matrix(1 0 0 1 152 81)">
	</image>
	<image width="5" height="3" xlink:href="2AE2D2B3024F621D.png"  transform="matrix(1 0 0 1 146 80)">
	</image>
	<path fill="#375A64" d="M146.2,118.9l0.8-0.3l1.8-0.2c0.6,0,1.3,0.1,1.9,0.3l0.7,0.3l-0.7-0.4c-0.6-0.3-1.2-0.4-1.9-0.4
		c-0.6,0-1.3,0.1-1.9,0.3L146.2,118.9z"/>
	<path fill="#375A64" d="M144.4,115.6c1.5,0.1,2.9,0.2,4.4,0.1l4.5-0.2L144.4,115.6L144.4,115.6z"/>
	<path fill="#375A64" d="M145.1,116.9L145.1,116.9z"/>
	<path fill="#1A2E35" d="M123.4,216.5c0.1,0,0.3-0.2,0.7-0.8c0.5-0.8,0.9-1.6,1.1-2.5c0.7-3,0.5-6.2-0.5-9.1
		c-1.2-3.4-2.7-6.3-3.5-8.5l-1-2.6l-0.3-0.9c0,0.3,0.1,0.7,0.2,1c0.2,0.9,0.5,1.8,0.8,2.6c0.8,2.2,2.2,5.1,3.4,8.5
		c1,2.9,1.2,5.9,0.6,8.9C124.6,214.3,124.1,215.5,123.4,216.5z"/>
	<path fill="#1A2E35" d="M64,194.3c0,0.2,0,0.3-0.1,0.5c-0.1,0.4-0.2,0.8-0.3,1.2c-0.2,1.2-0.5,2.8-0.8,4.8c-0.7,4-1.7,9.5-2.7,15.7
		s-1.8,11.7-2.4,15.7c-0.3,2-0.5,3.6-0.6,4.8c0,0.5-0.1,0.9-0.1,1.3l0,0c0-0.4,0.1-0.9,0.2-1.3c0.2-1.2,0.4-2.8,0.7-4.8
		c0.7-4,1.6-9.6,2.6-15.7s1.8-11.6,2.5-15.7c0.3-1.9,0.5-3.5,0.7-4.7c0.1-0.4,0.2-0.9,0.2-1.3L64,194.3z"/>
	<path fill="#1A2E35" d="M136.8,217.4c0.1-0.8,0-1.6-0.1-2.4c-0.2-1.5-0.3-3.5-0.4-5.8s0-4.3,0.1-5.8c0.1-0.8,0.1-1.6,0-2.4
		c-0.2,0.8-0.3,1.6-0.3,2.4c-0.2,1.9-0.3,3.9-0.2,5.8c0.1,2.3,0.3,4.3,0.5,5.8S136.8,217.4,136.8,217.4z"/>
	<path fill="#1A2E35" d="M49.4,244.5c0.2-0.5,0.4-1,0.6-1.5c0.5-1.1,1.3-2,2.3-2.7c0.9-0.8,2.1-1.2,3.3-1.4c0.9-0.1,1.5-0.1,1.5-0.2
		c-0.5-0.1-1-0.2-1.5-0.1c-1.3,0.1-2.5,0.5-3.6,1.3c-1,0.8-1.8,1.8-2.3,3C49.4,243.8,49.3,244.4,49.4,244.5z"/>
	<path fill="#1A2E35" d="M54.1,247c0.7-1,1.4-1.9,2.3-2.8c0.9-0.8,1.9-1.4,2.9-2c-1.2,0.2-2.4,0.8-3.2,1.7
		C55.1,244.7,54.4,245.8,54.1,247z"/>
	<path fill="#1A2E35" d="M70,247l-5.4-2.4l-5.4-2.4c1.6,1.2,3.4,2.1,5.2,2.8C66.2,245.9,68.1,246.5,70,247z"/>
	<path fill="#E1E1E1" d="M153.6,210.7c0,0-12.3,58.9-12.3,58.1s-62.4,2.7-73.5,3.2l-2.3-0.6l-17.6-16.2l20.2-1.6l7.2-41.4
		L153.6,210.7z"/>
	<path fill="#375A64" d="M75.3,212.2c-0.1,0-2.4,13.2-5.1,29.5s-4.9,29.7-4.7,29.7s2.4-13.2,5.1-29.6S75.5,212.2,75.3,212.2z"/>
	<path fill="#375A64" d="M75.1,212.2l0.5,0.4c0.4,0.4,0.8,0.8,1.2,1.3c0.3,0.3,0.6,0.6,0.4,1.1s-0.2,0.9-0.3,1.5s-0.4,2.3-0.6,3.7
		c-1,5.5-2.3,13.1-3.7,21.4s-2.6,15.9-3.5,21.5c-0.4,2.7-0.8,4.9-1,6.5s-0.2,1.3-0.3,1.7v0.7c0-0.2,0-0.4,0.1-0.6
		c0.1-0.5,0.2-1.1,0.4-1.8s0.6-3.8,1.1-6.5c1-5.5,2.2-13.1,3.7-21.4s2.6-15.9,3.5-21.5c0.2-1.3,0.4-2.6,0.6-3.7s0.1-1,0.2-1.5
		c0.1-0.4,0-0.9-0.4-1.2l-1.4-1.2L75.1,212.2z"/>
	<path fill="#375A64" d="M77.4,214.3h11.1l26.7-0.5l26.7-0.5l0,0l-26.7,0.3l-26.7,0.6l-8.1,0.3h-3V214.3z"/>
	<path fill="#375A64" d="M68.2,255.2H67l-3.3,0.2L52.8,256h-0.6l0.5,0.4l0.7,0.6l8.9,7.5l2.8,2.2l1,0.8l-0.9-0.9l-2.7-2.3
		c-2.2-2-5.3-4.7-8.8-7.6l-0.8-0.7v0.4l10.9-0.7l3.3-0.3C67.7,255.3,68.2,255.3,68.2,255.2z"/>
	<path fill="#FFC8AF" d="M122.4,270.6L122.4,270.6l0.8-9.6c-1.6-0.2-3.2,0.9-3.4,2.6c0,0.2,0,0.4,0,0.5v-5.9c0,0-3.7-0.8-4.5,4
		c-0.4,2.5-1,4.9-1.9,7.3l-2,1.1l1.9-11.1c0,0-3.9,0.4-4.6,4c-0.4,2.1-1,4.2-1.7,6.2l-6.1,1.8c0,0,3.5-3.2,3.1-4.2s-0.1-1-0.8-1.1
		c-1.1,0-2.3,0.3-3.2,0.9c-1.2,0.5-7.6,4.4-7.6,4.4v4.7c0,0,15,1.1,18.4,0.4l6.6-1.5C119.7,274.6,121.6,272.9,122.4,270.6z"/>
	<path fill="#FAFAFA" d="M108,239.1c-0.5,2.4,1,4.8,3.4,5.3c2.2,0.4,4.4-1.4,4.8-3.9s-1.1-4.9-3.3-5.2
		C110.5,235,108.3,236.7,108,239.1z"/>
	<image width="14" height="11" xlink:href="2AE2D2B3024F621E.png"  transform="matrix(1 0 0 1 44 237)">
	</image>
	<path fill="#30308C" d="M102.3,164.5c-0.5-1.6-0.1-3.3,0.2-5s0.4-3.6-0.8-4.8s-3-1.4-4.7-1.5l-20.8-0.9c-1.4-0.1-3.1-0.1-4,1.1
		c-0.6,0.7-0.8,1.6-0.7,2.5c1.1,3.3,0.8,7-0.8,10.1"/>
	<path fill="#1A2E35" d="M74.1,162.5l0.9,0.8c0.8,0.7,1.7,1.2,2.7,1.7c3.1,1.8,6.6,2.9,10.2,3.2c2,0.2,4,0.1,5.9-0.2
		c1.6-0.2,3.2-0.7,4.6-1.4c1-0.5,1.9-1.2,2.6-2.1l0.5-0.7v-0.3c-0.9,1.1-2,2.1-3.3,2.8c-1.4,0.7-2.9,1.1-4.5,1.3
		c-1.9,0.3-3.9,0.3-5.8,0.1c-3.5-0.4-6.9-1.3-10.1-2.9C76.5,164.1,75.3,163.3,74.1,162.5z"/>
	<path fill="#1A2E35" d="M88.3,168.2c0.3-0.7,0.5-1.5,0.5-2.3c0.3-1.4,0.7-3.4,1-5.6s0.4-2.1,0.5-3c0.2-0.9,0.2-1.8-0.1-2.7
		c-0.2-0.6-0.6-1-1.1-1.3l-0.6-0.2l0.6,0.3c0.4,0.3,0.7,0.8,0.8,1.3c0.2,0.8,0.2,1.7,0,2.5c-0.1,1-0.3,2-0.5,3.1s-0.7,4.1-0.9,5.6
		C88.3,166.7,88.3,167.4,88.3,168.2z"/>
	<path fill="#1A2E35" d="M77.5,164.9c0.2-0.6,0.3-1.3,0.4-1.9c0.2-1.1,0.4-2.8,0.6-4.6s0.4-3.4,0.5-4.6c0.1-0.4,0.3-0.8,0.7-1.1
		l0.4-0.2c-0.2-0.1-0.4,0-0.5,0.1c-0.4,0.3-0.8,0.7-0.9,1.2c-0.2,1.2-0.4,2.8-0.6,4.6s-0.4,3.4-0.5,4.6S77.4,164.9,77.5,164.9z"/>
	<path fill="#1A2E35" d="M97.3,153.2c0.6,0.3,1,0.7,1.4,1.2c0.4,0.5,0.7,1.2,0.8,1.8c0.1,0.8,0.1,1.6,0,2.4
		c-0.1,1.8-0.3,3.4-0.4,4.6v1.9c0.2-0.6,0.4-1.3,0.4-1.9c0.1-1.2,0.3-2.8,0.5-4.6c0-0.8,0-1.7-0.1-2.5c-0.2-0.7-0.5-1.4-1-1.9
		C98.1,153.2,97.3,153.1,97.3,153.2z"/>
	<path fill="#121212" d="M106.5,94.2c4.3,2.7,6.8,7.2,8.2,12c0.8,2.8,1.3,5.6,1.7,8.5c0.3,2.8,0.9,5.7-0.1,8.5s2.3,2.6,2.9,0.8
		s0.6-6.2,0.2-9.3c-0.4-3.3-1.1-6.6-1.9-9.8c-1.7-5.3-4.7-10.3-9.5-13.3C106.4,90.6,104.9,93.1,106.5,94.2z"/>
	<path fill="#121212" d="M114.6,135.8c-0.1,0.4-0.2,0.8-0.3,1.2l0.2-0.4c-0.2,0.4-0.4,0.8-0.7,1.1l0.2-0.3c-0.2,0.3-0.6,0.7-0.9,0.9
		l0.3-0.2c-0.3,0.3-0.7,0.5-1.1,0.7l0.4-0.2l-0.8,0.3c-0.8,0.2-1.2,0.9-1,1.7c0,0,0,0.1,0,0.1c0.2,0.8,1,1.2,1.8,1.1
		c1.2-0.3,2.3-1,3.2-1.9c0.8-0.9,1.4-2.1,1.6-3.3c0.1-0.4,0.1-0.8-0.1-1.1c-0.2-0.3-0.5-0.6-0.9-0.7c-0.4-0.1-0.8-0.1-1.2,0.1
		C115,135.1,114.7,135.4,114.6,135.8L114.6,135.8z"/>
	<path fill="#121212" d="M92.4,84.4c-7.2,0.4-13.5,4-19.4,7.8c-2.9,1.9-5.9,3.7-7.3,7s-2.6,7.6-3.8,11.4c-0.6,1.8,2.3,2.6,2.9,0.8
		c1.1-3.4,2.1-6.9,3.3-10.2s4.1-4.8,6.8-6.6c5.3-3.5,11.1-6.8,17.5-7.2C94.3,87.3,94.4,84.3,92.4,84.4L92.4,84.4z"/>
	<path fill="#121212" d="M75.7,98.8c0.4-0.7,0.8-1.4,1.2-2.1l0.3-0.5c0.2-0.3-0.1,0.1,0-0.1l0.2-0.2l0.9-0.8l0.2-0.2l0,0l0.5-0.4
		l0.5-0.2l0.3-0.2c-0.2,0.1-0.1,0.1,0,0l1.1-0.3h1c0.8,0,1.5-0.7,1.5-1.5c-0.1-0.8-0.7-1.4-1.5-1.5c-2.1-0.1-4,0.7-5.6,2
		c-1.4,1.2-2.5,2.8-3.2,4.5c-0.4,0.7-0.1,1.6,0.6,2c0.6,0.4,1.5,0.2,1.9-0.4C75.7,98.9,75.7,98.8,75.7,98.8z"/>
	<path fill="#121212" d="M67.4,96.9c-1.8,2.4-3.5,4.8-5,7.4c-1.7,2.4-2.9,5.1-3.5,8c-0.2,0.8,0.2,1.6,1,1.8c0.8,0.2,1.6-0.3,1.8-1.1
		c0.7-2.6,1.8-5,3.3-7.2c1.3-2.4,2.9-4.7,4.6-6.8c0.6-0.6,0.6-1.5,0-2.1C69,96.4,68,96.4,67.4,96.9z"/>
	<path fill="#121212" d="M67.7,96.7c-1.3,0.8-2.5,1.9-3.4,3.1c-1,1.2-2,2.5-2.8,3.9c-1.5,2.7-2.6,5.6-3.2,8.7
		c-0.2,0.7,0.2,1.5,0.9,1.8c0,0,0.1,0,0.1,0c0.8,0.3,1.6-0.2,1.9-1c0,0,0,0,0,0c0.5-2.7,1.4-5.4,2.8-7.8c0.7-1.2,1.4-2.3,2.3-3.3
		c0.8-1.1,1.8-2.1,2.9-2.8C70.9,98.4,69.4,95.8,67.7,96.7z"/>
	<path fill="#121212" d="M70.8,94l-2.1,1.6c-0.8,0.5-1.5,1-2.1,1.6c-1.1,1.3-2,2.8-2.5,4.4c-0.2,0.3,0,0.9,0.1,1.2
		c0.2,0.3,0.5,0.6,0.9,0.7c0.8,0.2,1.7-0.3,1.9-1.1c0-0.2,0.1-0.4,0.2-0.5l0,0c0-0.1,0-0.1,0.1-0.2l0.4-0.9c0.2-0.3,0.4-0.6,0.6-0.9
		c0-0.1,0.2-0.3,0-0.2s0.1,0,0.1,0c0.1-0.2,0.2-0.3,0.4-0.4l0.4-0.4h0.2l0.9-0.6l2-1.5c0.7-0.4,1-1.3,0.6-2c-0.4-0.7-1.4-1-2.1-0.6
		V94z"/>
</g>
<g id="Arrow">
	<polygon fill="#1A2E35" points="225.1,56.4 222.4,70.7 220.1,66.7 215.4,73.9 213,72.3 217.8,65.1 213.4,64.5 	"/>
</g>
</svg>
