<svg id="Layer_1" data-name="Layer 1" xmlns="http://www.w3.org/2000/svg" viewBox="0 0 48 48"><defs><style>.cls-1{fill:#0acf83;}.cls-2{fill:#a259ff;}.cls-3{fill:#f24e1e;}.cls-4{fill:#ff7262;}.cls-5{fill:#1abcfe;}</style></defs><path id="path0_fill" data-name="path0 fill" class="cls-1" d="M15.9,48a8,8,0,0,0,8-8V32h-8a8,8,0,0,0,0,16Z"/><path id="path1_fill" data-name="path1 fill" class="cls-2" d="M7.9,24a8,8,0,0,1,8-8h8V32h-8A8,8,0,0,1,7.9,24Z"/><path id="path1_fill-2" data-name="path1 fill-2" class="cls-3" d="M7.9,8a8,8,0,0,1,8-8h8V16h-8A8,8,0,0,1,7.9,8Z"/><path id="path2_fill" data-name="path2 fill" class="cls-4" d="M23.89,0h8a8,8,0,1,1,.44,16H23.89Z"/><path id="path3_fill" data-name="path3 fill" class="cls-5" d="M39.88,24a8,8,0,1,1-8-8,8,8,0,0,1,8,8Z"/></svg>