<?xml version="1.0" encoding="utf-8"?>
<!-- Generator: Adobe Illustrator 24.1.2, SVG Export Plug-In . SVG Version: 6.00 Build 0)  -->
<svg version="1.2" baseProfile="tiny" id="Layer_1" xmlns="http://www.w3.org/2000/svg" xmlns:xlink="http://www.w3.org/1999/xlink"
	 x="0px" y="0px" viewBox="0 0 509 300" overflow="visible" xml:space="preserve">
<g id="Background_Complete">
	<g>
		<g>
			<g>
				<path fill="#E0E0E0" d="M238.6,298.2H94.3V94c0-16.3,144.3-16.3,144.2,0L238.6,298.2z"/>
				<path fill="#EBEBEB" d="M235.2,298.2H91V94c0-16.3,144.3-16.3,144.2,0V298.2z"/>
				<path fill="#FAFAFA" d="M98.1,287.9V98c0-1.3,0.8-2.5,2-2.9c8-2.9,29.8-6.2,62.9-6.2s54.9,3.3,62.9,6.2c1.2,0.4,2,1.6,2,2.9
					v189.9c0,1.7-1.4,3.1-3.1,3.1H101.2C99.5,291,98.1,289.6,98.1,287.9z"/>
				<g>
					<path fill="#FFFFFF" d="M128.6,90.3L106.1,291H139l22.6-202.1C148.9,89,137.8,89.5,128.6,90.3z"/>
					<path fill="#FFFFFF" d="M171.1,89l-22.6,202h18.1l22.6-201.3C183.7,89.4,177.7,89.1,171.1,89z"/>
				</g>
				<rect x="184.6" y="85.8" fill="#EBEBEB" width="6.3" height="207.8"/>
				<rect x="133.9" y="85.9" fill="#EBEBEB" width="6.3" height="207.8"/>
				<rect x="140.2" y="85.9" fill="#E0E0E0" width="1.1" height="207.8"/>
				<rect x="190.9" y="85.9" fill="#E0E0E0" width="1.1" height="207.8"/>
				<rect x="94.4" y="131.6" fill="#EBEBEB" width="136" height="6.3"/>
			</g>
			<rect x="84.4" y="300.9" fill="#F5F5F5" width="147.2" height="7"/>
			<rect x="231.5" y="301" fill="#E0E0E0" width="7" height="7"/>
		</g>
		<g>
			<g>
				<path fill="#E0E0E0" d="M494.9,298.2H350.7V94c0-16.3,144.3-16.3,144.2,0L494.9,298.2z"/>
				<path fill="#EBEBEB" d="M491.6,298.2H347.4V94c0-16.3,144.3-16.3,144.2,0L491.6,298.2z"/>
				<path fill="#FAFAFA" d="M354.5,287.9V98c0-1.3,0.8-2.5,2-2.9c8-2.9,29.8-6.2,62.9-6.2s54.9,3.3,62.9,6.2c1.2,0.4,2,1.6,2,2.9
					v189.9c0,1.7-1.4,3.1-3.1,3.1H357.6C355.9,291,354.5,289.6,354.5,287.9z"/>
				<g>
					<path fill="#FFFFFF" d="M385,90.3L362.5,291h32.9L418,88.9C405.3,89,394.2,89.5,385,90.3z"/>
					<path fill="#FFFFFF" d="M427.5,89l-22.6,202H423l22.6-201.3C440.1,89.4,434.1,89.1,427.5,89z"/>
				</g>
				<rect x="441" y="85.9" fill="#EBEBEB" width="6.3" height="207.8"/>
				<rect x="390.3" y="85.9" fill="#EBEBEB" width="6.3" height="207.8"/>
				<rect x="396.6" y="85.9" fill="#E0E0E0" width="1.1" height="207.8"/>
				<rect x="447.3" y="85.9" fill="#E0E0E0" width="1.1" height="207.8"/>
				<rect x="350.8" y="131.6" fill="#EBEBEB" width="136" height="6.3"/>
			</g>
			<rect x="340.8" y="301" fill="#F5F5F5" width="147.2" height="7"/>
			<rect x="487.9" y="301" fill="#F5F5F5" width="7" height="7"/>
		</g>
		<g>
			<rect x="300" y="192.5" fill="#F5F5F5" width="36" height="10.2"/>
		</g>
	</g>
	<g>
		<g>
			<path fill="#E0E0E0" d="M350.1,51.9c8.9,0,16.1-7.2,16.1-16.1s-7.2-16.1-16.1-16.1h-1.9v32.1L350.1,51.9L350.1,51.9z"/>
			<circle fill="#EBEBEB" cx="348.1" cy="35.8" r="16.1"/>
			<circle fill="#E0E0E0" cx="348.1" cy="35.8" r="2.3"/>
		</g>
		<g>
			<path fill="#E0E0E0" d="M356.6,63.7h-12.5c-2.6,0-4.8-2.1-4.8-4.8l0,0c0-2.6,2.1-4.8,4.8-4.8h12.5c2.6,0,4.8,2.1,4.8,4.8l0,0
				C361.4,61.5,359.2,63.7,356.6,63.7z"/>
			<path fill="#F5F5F5" d="M354.4,63.7h-12.5c-2.6,0-4.8-2.1-4.8-4.8l0,0c0-2.6,2.1-4.8,4.8-4.8h12.5c2.6,0,4.8,2.1,4.8,4.8l0,0
				C359.1,61.5,357,63.7,354.4,63.7z"/>
			<g>
				<path fill="#E0E0E0" d="M360.3,58.1l-0.4-1.3c3.9-1.2,6-5.3,4.8-9.2l1.3-0.4C367.4,51.8,364.9,56.7,360.3,58.1z"/>
				<path fill="#E0E0E0" d="M366,49.4L366,49.4c-0.7,0.2-1.4-0.2-1.6-0.8l-0.5-1.4c-0.2-0.7,0.2-1.4,0.8-1.6l0,0
					c0.7-0.2,1.4,0.2,1.6,0.8l0.5,1.4C367,48.4,366.6,49.1,366,49.4z"/>
			</g>
		</g>
	</g>
</g>
<g id="Background_Simple" display="none">
	<g display="inline">
		<path fill="#407BFF" d="M230.7,133.8c19.5-44,43.5-72.3,97-65.3c43.7,5.7,40.6,37.3,71.3,57c38.1,24.5,79.1,4.2,106.3,43.3
			c26.3,37.7,1.9,91.4-40.2,108.6c-45.1,18.3-89.8-13.3-135.2-12.1c-53.2,1.3-89.2,40-145,25c-37.5-10.1-56.5-44.7-34.6-80.6
			C170.4,176.5,212.8,174.2,230.7,133.8z"/>
		<image width="1567" height="946" xlink:href="3175AA7B17B89B3.png"  transform="matrix(0.2395 0 0 0.2395 140.9842 67.3354)">
		</image>
	</g>
</g>
<g id="Shadow_1_">
</g>
<g id="Hats">
</g>
<g id="Character_1_">
	<g>
		<path fill="#191919" d="M269.1,90c5.3,0.8,10.9,0.2,15.5-2.7s7.6-8.4,6.5-13.7c-0.6-2.5-2-5.7-1.7-7.6s1.5-3.6,1.5-5.5
			c0.1-4.6-5.9-7.3-6-11.8"/>
		<path fill="#191919" d="M266.8,91.4c-2.3,0.7-7.9,4.4-12.6,1.8c-2.2-1.2-4.1-2.9-5.6-5c-1.3-1.8-3-1.5-4.5-3.2s-2.7-3.9-2.3-6.1
			c0.3-2.2,2.2-4,2.7-6.3c0.9-4.2-3.4-8.2-2.8-12.5c0.3-2.3,2.2-4.1,3.8-6s3.2-4,3-6.5"/>
		<path fill="#191919" d="M286.5,64.4c-0.1,2.2-3,3.5-5.2,2.8c-2.2-0.8-3.5-2.7-4.6-4.6c-1.1-2-1-3.3-4-5.4c-3-2.2-7.1-1.3-10.8-0.6
			c-3.7,0.7-8.3,1-10.8-1.1c-2.5-2.2-3-5.8-2.2-9c1.3-4.7,4.9-8.3,9.6-9.7c4.7-1.2,9.7,0.1,13.2,3.5c1.4,1.4,2.2,3,4,4.2
			s4,1.5,6.1,2.3s4.1,2.5,4,4.6"/>
		<path fill="#FFC8AF" d="M267.4,113.4L267.4,113.4c6,0.1,11-4.6,11.2-10.6l1.8-47.3l0,0c0-1.9-1.4-3.5-3.3-3.8l-19.5-4.9
			c-6.2-0.7-10.2,6.3-10.8,13.3s-0.8,15.4,0.1,20.7c1.6,10.4,9.6,11.8,9.6,11.8v16.1C256.6,114.7,261.4,113.3,267.4,113.4z"/>
		<path fill="#222222" d="M251.5,64.9c0.7,0,1.3,0.6,1.3,1.4l0,0c0,0.7-0.7,1.2-1.4,1.2c-0.7-0.1-1.3-0.7-1.3-1.4
			C250.2,65.4,250.8,64.9,251.5,64.9z"/>
		<path fill="#222222" d="M249.2,63.9c0.6-0.4,1.3-0.7,2.1-0.7s1.5,0.2,2.2,0.7c0.4,0.3,0.6,0.5,0.5,0.7s-1.1-0.5-2.6-0.5
			s-2.5,0.7-2.7,0.5C248.6,64.5,248.7,64.2,249.2,63.9z"/>
		<path fill="#222222" d="M264.1,66.4c0-0.7,0.7-1.2,1.4-1.2c0.7,0.1,1.3,0.7,1.3,1.4c-0.1,0.7-0.7,1.2-1.4,1.2h-0.1
			C264.6,67.8,264.1,67.2,264.1,66.4L264.1,66.4z"/>
		<path fill="#222222" d="M263.4,64.1c0.6-0.4,1.3-0.7,2.1-0.7c0.7,0,1.5,0.2,2.1,0.7c0.5,0.3,0.8,0.6,0.6,0.8
			c-0.2,0.2-1.2-0.6-2.7-0.6s-2.5,0.8-2.6,0.6C262.8,64.8,262.8,64.5,263.4,64.1z"/>
		<path fill="#222222" d="M257.6,75.5h-3c-0.3-0.1-0.5-0.3-0.6-0.6c-0.1-0.5-0.1-1,0.2-1.4l1-2.8c1.5-4,2.9-7.1,3.1-7.1
			c-0.7,2.5-1.5,4.9-2.5,7.3l-1.1,2.8c-0.2,0.3-0.3,0.7-0.3,1.1c0.1,0.2,0.4,0.3,0.8,0.3C256,75.2,256.8,75.3,257.6,75.5L257.6,75.5
			z"/>
		<path fill="#FFAF91" d="M256.6,95c10,1.1,13.8-6.1,13.9-6.1c-4.2,2.5-9,3.8-13.9,3.7V95z"/>
		<path fill="#DD505B" d="M256.4,79.1c-0.2,0.1-0.1,0.3,0,0.5l0.4,0.4c0.5,0.5,1.1,0.8,1.8,1.1c0.7,0.2,1.4,0,1.9-0.5
			c0.3-0.5,0.3-1.2-0.1-1.7c-0.1-0.1-0.2-0.2-0.3-0.3C259,77.7,257.4,77.9,256.4,79.1"/>
		<path fill="#222222" d="M260.3,78.5c-0.1,0.6-0.4,1.2-0.9,1.5c-0.5,0.4-1.2,0.7-1.9,0.7c-0.6,0-0.9-0.1-0.9-0.3
			c0-0.2,1.3-0.1,2.3-0.9s1-1.9,1.2-1.9C260.2,77.7,260.3,78,260.3,78.5z"/>
		<path fill="#222222" d="M263,59.9c0.8-0.3,1.7-0.4,2.6-0.3c0.9,0.1,1.7,0.4,2.4,0.9c0.6,0.4,0.9,0.6,0.7,0.9
			c-0.2,0.3-1.5-0.2-3.3-0.3c-1.7-0.2-3.1,0-3.3-0.4C262.1,60.4,262.4,60.2,263,59.9z"/>
		<path fill="#222222" d="M249.7,59.6c0.5-0.4,1.2-0.6,1.9-0.6c0.7-0.1,1.4,0.1,2,0.5c0.4,0.3,0.8,0.4,0.5,0.8
			c-0.3,0.3-1.2,0.2-2.4,0.2s-2.2,0.3-2.5,0C249.1,60.2,249.2,59.9,249.7,59.6z"/>
		<path fill="#191919" d="M282.6,86.8l1.3-28.1c0.1-2,0.1-4-0.9-5.6c-1-1.5-2.8-2.3-4.5-2.9c-7.4-2.8-15-4.6-22.8-5.6
			c-0.9,1.6,0,3.7,1.5,4.9c1.5,1.2,3.4,1.5,5.1,2.2s3.5,1.5,4.3,3.4s0.2,4,0.9,5.9c1.2,3.2,6,5,6.9,7.4c0.9,2.4-0.5,5.1-0.9,7.6
			c-0.3,3,0.7,5.9,2.9,8c2.2,2,2.4,3.4,5.3,2.8"/>
		<path fill="#191919" d="M254.3,45.5c0.4,4.8,4,7.3,9,9c5.1,1.7,10.5,1.7,15.8,1.4c1.7-0.1,1.7-2.7,0-2.6
			c-4.5,0.3-10.2,0.2-13.6-0.8c-3.4-0.9-8.2-3-8.6-7.1C256.8,43.9,254.2,43.9,254.3,45.5z"/>
		<path fill="#191919" d="M264.4,53.9c1.2,6.7,3.1,13.2,5.8,19.5c1.3,3.1,2.9,6.1,4.6,9c1.3,2.5,3.3,4.6,5.9,5.9
			c1.5,0.6,3.9-1,1.3-2.2s-4.1-3.5-5.4-5.9c-1.6-2.8-3-5.6-4.2-8.5c-2.4-5.9-4.2-12.1-5.3-18.4C266.6,51.6,264.1,52.2,264.4,53.9z"
			/>
		<path fill="#191919" d="M269.8,61.4c-0.7,0.2-1,0.9-0.9,1.5c1.4,3.6,3.2,7.1,5.4,10.3c0.4,0.6,1.1,0.8,1.8,0.5
			c0.6-0.4,0.8-1.1,0.5-1.8c-1.5-2.8-3-5.5-4.7-8.1c-0.3-0.5-0.9-0.8-1.5-0.6c-0.6,0.1-1,0.6-0.9,1.2c0.3,2.7,1.1,5.4,2.2,7.8
			c0.6,1.3,2.8,0.3,2.3-1l-2.2-6.1l-2.3,1c1.2,2.7,2.6,5.3,4.2,7.7c0.1,0.2,0.2,0.4,0.3,0.5c0.5,0.5,1.3,0.5,1.8,0s0.5-1.3,0-1.8
			l-1-2c-0.3-0.7-1-1-1.7-0.7s-1,1-0.7,1.7c0.2,0.8,0.5,1.5,0.9,2.2l2.2-1.3l-0.5-0.8c-0.5-0.9-2.2-0.9-2.3,0.3
			c-0.3,0.9-0.1,1.9,0.4,2.8c0.2,0.4,0.6,0.6,1.1,0.6c0.7,0,1.3-0.5,1.3-1.2c0-0.4,0-0.9-0.1-1.3l-1.9,1.5c1.6,0.8,3.5,1,5.3,0.5
			c1.6-0.3,0.9-2.8-0.7-2.5c-1.1,0.3-2.2,0.2-3.3-0.3c-0.3-0.2-0.7-0.2-1-0.1c-0.7,0.2-1.1,0.9-0.9,1.6v0.6l2.4-0.7
			c-0.2-0.2-0.2-0.5-0.2-0.8l-2.4,0.3l0.5,0.8c0.4,0.6,1.1,0.8,1.8,0.5c0.6-0.4,0.8-1.1,0.5-1.8c-0.3-0.5-0.5-1.1-0.7-1.6l-2.3,1
			l1.1,2l2.2-1.3c-1.5-2.5-2.9-5.1-4.1-7.7c-0.6-1.4-2.8-0.3-2.4,0.9l2.2,6.1l2.3-1c-1-2-1.6-4.2-1.9-6.5l-2.4,0.7
			c1.7,2.6,3.3,5.3,4.7,8.1l2.2-1.3c-1.9-3.1-4-6.2-5.2-9.7C271.2,61.6,270.5,61.3,269.8,61.4z"/>
		<path fill="#191919" d="M255.3,40.5c-0.4-0.6-1.2-0.7-1.8-0.4c-3.4,1.5-5.8,4.7-7.2,8.1c-2,4.1-3.1,8.6-3.4,13.2l0,0
			c0,0.7,0.6,1.3,1.3,1.3s1.3-0.6,1.3-1.3c0.2-4.1,1.2-8.1,2.9-11.8c1.4-3,3.3-5.9,6.5-7.2C255.4,41.9,255.6,41.2,255.3,40.5z"/>
		<path fill="#191919" d="M256.7,38.9c-0.4-0.6-1.1-0.8-1.7-0.4c-1.7,1.1-3.2,2.3-4.6,3.8c-1.4,1.7-2.7,3.5-3.8,5.3
			c-0.3,0.6-0.1,1.4,0.5,1.7c0,0,0.1,0,0.1,0.1c0.6,0.3,1.3,0.1,1.6-0.5l1.7-2.6c0.5-0.8,1-1.5,1.6-2.2c1.2-1.3,2.6-2.4,4-3.4
			C256.9,40.3,257,39.5,256.7,38.9z"/>
		<path fill="#191919" d="M257.1,37.4c-3.4,1-6.2,3.6-8.3,6.2c-4,5-6.6,11.1-7.4,17.5c-0.5,3.6-0.7,7.2-0.7,10.8
			c0,3.5-0.2,7.2,1,10.6c0.5,1.5,3,0.9,2.5-0.7c-0.7-2-1-4-0.9-6.1v-6.5c0.1-4.3,0.7-8.6,1.7-12.8c1-3.4,2.5-6.7,4.6-9.6
			c2-2.8,4.9-5.9,8.3-6.9C259.3,39.4,258.6,36.9,257.1,37.4z"/>
		<path fill="#191919" d="M244.6,65c-0.7,0-1.3,0.6-1.3,1.3c-0.2,3.6-0.7,7.2-1.3,10.8l2.6,0.3c-0.2-3-0.3-5.9-0.2-9h-2.6l-0.2,9.2
			l2.6-0.3l-1.5-8.5v-0.1c-0.2-0.6-0.9-1-1.5-0.8c-0.7,0.2-1.1,0.9-0.9,1.5l1.5,8.5c0.1,0.6,0.7,1.1,1.4,0.9l0,0
			c0.7,0,1.2-0.6,1.1-1.3l0.2-9.2c0.1-1.7-2.5-1.6-2.6,0c-0.1,3,0,5.9,0.2,9l0,0c0,0.7,0.5,1.2,1.1,1.3c0.6,0.1,1.2-0.3,1.4-0.9
			c0.6-3.8,1.1-7.7,1.4-11.5C245.8,65.6,245.3,65,244.6,65z"/>
		<path fill="#191919" d="M286.2,61c-0.4,3.6-0.9,7.4,0.2,10.9c1,3.5,3.7,6.7,7.7,6.9c4,0.2,7.6-3.6,8.9-6.6s1.8-6.5,0.3-9.5
			c-1.6-3.2-5.1-5-8.6-4.4c-3.5,0.7-6.1,3.6-6.5,7.1"/>
		<path fill="#191919" d="M249.8,42.9c-4.1,2.6-6.7,6.9-8.2,11.4c-0.7,2.8-1.3,5.6-1.6,8.4c-0.3,2.7-0.3,6.5,0.2,8s3.4,1.7,2.5-0.7
			c-0.9-2.4-0.3-4.9-0.1-7.3c0.3-2.5,0.8-4.9,1.5-7.3c1.2-4.1,3.4-8,7.1-10.3C252.4,44.1,251.1,42,249.8,42.9z"/>
		<path fill="#191919" d="M244.1,80.9c-0.1-0.3-0.3-0.6-0.6-0.8c-0.3-0.2-0.7-0.2-1-0.1s-0.6,0.3-0.8,0.6c-0.2,0.3-0.2,0.6-0.1,0.9
			c0.2,1.1,0.7,2,1.4,2.8c0.8,0.8,1.7,1.3,2.8,1.6c0.7,0.1,1.3-0.3,1.5-0.9v-0.1c0.2-0.6-0.2-1.3-0.9-1.5l-0.7-0.3l0.3,0.2
			c-0.3-0.1-0.7-0.4-0.9-0.6l0.3,0.2c-0.3-0.2-0.6-0.5-0.8-0.8l0.2,0.3c-0.3-0.3-0.5-0.6-0.6-0.9l0.2,0.3
			C244.2,81.6,244.1,81.3,244.1,80.9L244.1,80.9z"/>
		<path fill="#191919" d="M263.2,36.7c-1.7-0.1-1.6,2.5,0,2.6c5.5,0.3,10.5,3.2,15.1,6.2c2.3,1.5,4.8,2.8,5.9,5.7
			c1,2.8,1.9,5.9,2.8,8.8c0.5,1.5,3,0.9,2.5-0.7c-1-3.3-2.1-7-3.3-9.8c-1.2-2.8-3.8-4.4-6.3-6C274.8,40.1,269.4,37,263.2,36.7
			L263.2,36.7z"/>
		<path fill="#191919" d="M277.6,49.1c0.4,0.6,1.1,0.7,1.7,0.3c0.6-0.3,0.8-1.1,0.5-1.7c-0.6-1.5-1.6-2.8-2.8-3.9
			c-1.3-1.2-3.1-1.8-4.8-1.7c-0.7,0.1-1.2,0.6-1.3,1.3c0,0.7,0.6,1.3,1.3,1.3h0.9L274,45c0.1,0.1,0.2,0.1,0,0l0.3,0.2l0.4,0.2
			l0.4,0.3l0,0l0.2,0.2l0.8,0.7l0.2,0.2c0.1,0.2-0.2-0.2,0,0.1l0.3,0.4C276.9,47.8,277.3,48.4,277.6,49.1L277.6,49.1z"/>
		<path fill="#191919" d="M282.8,47.4c-0.5,0.5-0.5,1.3,0,1.8c1.5,1.8,2.8,3.8,4,5.9c1.3,1.9,2.3,4,2.8,6.2c0.2,0.7,0.9,1.1,1.5,0.9
			c0.7-0.2,1-0.9,0.9-1.5c-0.5-2.5-1.5-4.8-3-6.9c-1.3-2.2-2.7-4.3-4.3-6.4C284.2,47,283.4,47,282.8,47.4z"/>
		<path fill="#191919" d="M283.2,49.5c1,0.6,1.8,1.5,2.5,2.4s1.4,1.8,2,2.8c1.2,2.1,2,4.4,2.4,6.7l0,0c0.2,0.7,0.9,1.1,1.6,0.8h0.1
			c0.6-0.2,1-0.9,0.8-1.5c-0.5-2.6-1.4-5.2-2.8-7.5c-0.7-1.2-1.5-2.3-2.4-3.4c-0.8-1.1-1.8-2-2.9-2.7
			C283,46.5,281.7,48.7,283.2,49.5z"/>
		<path fill="#191919" d="M281.8,45.1c-0.6-0.3-1.4-0.1-1.8,0.5c-0.3,0.6-0.1,1.4,0.5,1.7l1.7,1.3l0.8,0.5h0.2l0.3,0.3
			c0.2,0.1,0.3,0.2,0.3,0.3c0,0,0.3,0.1,0.1,0c-0.2-0.1,0,0.1,0,0.2c0.2,0.2,0.4,0.5,0.5,0.8l0.3,0.8c0,0,0.1,0.1,0.1,0.2l0,0
			c0.1,0.1,0.2,0.3,0.2,0.4c0.2,0.7,0.9,1.1,1.6,0.9c0.3-0.1,0.6-0.3,0.8-0.6c0.1-0.3,0.3-0.8,0.1-1c-0.5-1.4-1.2-2.7-2.2-3.8
			c-0.5-0.5-1.2-1-1.8-1.4l-1.8-1.4L281.8,45.1L281.8,45.1z"/>
		<line fill="none" x1="280.5" y1="199.6" x2="237.6" y2="199.7"/>
		<path fill="#407BFF" d="M296.2,199.6l-45.8,0.3"/>
		<g>
			<polygon fill="#407BFF" points="150.3,61.9 145.3,51 177.6,37.5 209,21.9 213.9,32.8 181.6,46.2 			"/>
			<image width="292" height="171" xlink:href="3175AA7B17B89BC.png"  transform="matrix(0.2355 0 0 0.2355 145.2971 21.7441)">
			</image>
		</g>
		<path fill="#020242" d="M188.4,45.3l-1.7,0.5c-0.6,0.2-1.2-0.2-1.4-0.7l-3.1-10.2c-0.2-0.6,0.2-1.2,0.8-1.4l1.7-0.5
			c0.6-0.2,1.2,0.2,1.4,0.8l3.1,10.2C189.3,44.5,189,45.1,188.4,45.3z"/>
		<path fill="#020242" d="M178.2,49.7l-1.5,1c-0.5,0.4-1.2,0.2-1.6-0.3l-6.2-8.7c-0.4-0.5-0.2-1.2,0.3-1.6l1.5-1
			c0.5-0.4,1.2-0.2,1.6,0.3l6.2,8.7C178.8,48.6,178.7,49.3,178.2,49.7z"/>
		<path fill="#FFC8AF" d="M183.6,56.4L187,44l-14.8,2.8c0,0,0.2,8.7,7.2,13.2L183.6,56.4z"/>
		<polygon fill="#FFC8AF" points="182,32.3 171.4,36.5 172.2,46.8 187,44 		"/>
		<path fill="#FFC8AF" d="M171.2,84.6C171.6,71.4,177,53,177,53l7.5-0.9c0,0-2,14.9-0.8,28.3L171.2,84.6z"/>
		<path fill="#263238" d="M243.7,141.5c-0.9,0.3-1.5,0.4-2.2,0.6l-2,0.5l-4,0.9c-2.6,0.5-5.3,1.1-7.9,1.5
			c-5.3,0.9-10.8,1.6-16.5,1.9c-5.7,0.2-11.7,0.2-18.5-1.3c-3.4-0.8-7-2-10.7-4.2c-0.9-0.5-1.8-1.2-2.7-1.8l-0.3-0.2l-0.5-0.4
			l-0.9-0.8c-0.5-0.5-1.1-1-1.5-1.6c-1.9-2.1-3.1-4-4-5.9c-1.9-3.6-2.9-6.8-3.7-9.7c-0.8-3-1.3-5.8-1.8-8.6
			c-0.9-5.5-1.4-10.8-1.8-16c-0.4-5.2-0.6-10.4-0.8-15.5l-0.3-7.7l-0.1-3.9c0-1.3-0.1-2.5-0.1-4l32.3,2.9c-0.2,0.9-0.4,2.1-0.6,3.2
			l-0.5,3.4c-0.3,2.3-0.6,4.6-0.8,6.9c-0.4,4.6-0.7,9.2-0.8,13.7s0.1,9,0.5,13.1c0.2,2.1,0.6,4,1,5.8c0.4,1.7,0.9,3.3,1.3,4
			c0.2,0.3,0.3,0.4,0.1,0.2c-0.1-0.1-0.2-0.2-0.3-0.3c-0.1-0.1-0.1-0.1-0.2-0.2l-0.1-0.1l0,0c0.1,0.1,0.2,0.1,0.3,0.2
			c0.5,0.3,1.6,0.8,2.9,1.1c2.8,0.6,6.6,0.7,10.6,0.2c4-0.4,8.2-1.3,12.4-2.4c2.1-0.6,4.2-1.2,6.3-2c1-0.4,2.1-0.8,3.1-1.1l1.5-0.6
			c0.4-0.2,1-0.4,1.3-0.6L243.7,141.5z"/>
		<path fill="#FFC8AF" d="M358.7,117.6l1.6-12.8l12.6,8.3c0,0-3.5,8-11.8,9.4L358.7,117.6z"/>
		<polygon fill="#FFC8AF" points="369.5,96 377.7,103.8 373,113.1 360.4,104.8 		"/>
		<path fill="#FFC8AF" d="M359.4,148.3c4.7-12.4,6.8-31.4,6.8-31.4l-6.6-3.7c0,0-3.9,14.5-10.2,26.4L359.4,148.3z"/>
		<path fill="#263238" d="M322,298.2c-11.2-54.5-23.8-127.3-17.7-177c0.6-5.2-2.3-10.1-7.5-10.8c-4.4-0.6-9.8-1.3-15.3-1.5
			c-9.9-0.5-17.9-0.7-26.6,0.1c-6.6,0.6-13.9,1.9-18.9,2.8c-4.1,0.8-7.5,4.3-7.3,8.5c0.7,16.7-15.4,72.3-17.7,177.9L322,298.2z"/>
		<path fill="#263238" d="M303.4,115.4c0.9,1.8,1.9,4,3,5.9c1.1,2,2.2,4,3.4,6c2.3,3.9,4.7,7.8,7.3,11.5c2.6,3.7,5.2,7.2,7.9,10.4
			c1.4,1.6,2.8,3.1,4.1,4.4c1.4,1.3,2.7,2.5,3.9,3.3c0.3,0.2,0.6,0.4,0.8,0.6l0.4,0.2c0.1,0.1,0,0,0,0s-0.1,0-0.1-0.1
			c-0.4-0.2-1.2-0.4-2-0.5c-0.9,0-1.6,0.1-2,0.3c-0.4,0.1-0.4,0.2-0.2,0c0.4-0.3,1.3-1.2,2.2-2.4c0.9-1.3,1.9-2.8,2.8-4.5
			c1.8-3.4,3.5-7.3,4.9-11.4c0.7-2,1.3-4.1,1.9-6.2l0.8-3.2c0.1-0.5,0.2-1.1,0.3-1.6c0.1-0.5,0.2-1.1,0.3-1.4l31,9.4
			c-0.3,0.8-0.6,1.4-0.8,2l-0.8,1.8l-1.6,3.6c-1.1,2.4-2.2,4.8-3.4,7.2c-2.4,4.8-4.8,9.5-7.9,14.4c-1.5,2.4-3.2,4.9-5.3,7.4
			c-2.1,2.5-4.5,5.1-8,7.7c-1.8,1.3-3.9,2.5-6.5,3.5s-5.8,1.6-9,1.4c-3.3-0.1-6.4-1-8.9-2.3l-0.9-0.5c-0.3-0.2-0.7-0.3-0.8-0.4
			l-1.2-0.7c-0.8-0.5-1.5-1-2.2-1.4c-5.5-3.9-9.3-7.9-13-11.8c-3.6-4-7-8-10.1-12c-3.2-4-6.2-8.1-9.1-12.2l-4.4-6.2l-2.2-3.1
			c-0.7-1.1-1.4-2-2.2-3.3L303.4,115.4z"/>
		<path fill="#E6E6E6" d="M257.8,130.7l1.8-10.3l19.6-15.9l6.7,3.9C286,108.4,268.3,131.3,257.8,130.7z"/>
		<path fill="#E6E6E6" d="M257.8,130.7l1.8-10.3l-2.6-13.2l-6.3,1.1C250.8,108.4,247.3,131.3,257.8,130.7z"/>
		<path fill="#ED7203" d="M233.5,112.7c0,0,9.3,23.3,20.4,35.6c0.3-0.3,24.6-6.5,42.9-38l-10.9-2c0,0-7,14.7-28.2,29.9
			c-0.1-0.3-11.4-12.6-16.3-27.6C241.1,110.8,236.3,111.5,233.5,112.7z"/>
		<path fill="#FFFFFF" d="M259.6,120.4c0,0,8.4,8.3,8.9,15.9c5.7-5.6,19.4-23.3,19.6-28.5c-3-2.5-9-4-9-4L259.6,120.4z"/>
		<path fill="#FFFFFF" d="M259.6,120.4c0,0-9.1,6.5-9.5,14.1c-5.7-5.6-3-21.3-2.3-25.6c3-2.5,8.9-3.3,8.9-3.3L259.6,120.4z"/>
		<g>
			<g>
				<polygon fill="#263238" points="307.9,44.9 307.7,45.8 238.9,25.4 239.1,24.5 275.3,26.3 				"/>
			</g>
			<g>
				<polygon fill="#131375" points="307.7,45.8 271.5,44.1 238.9,25.4 275.1,27.2 				"/>
			</g>
			<g>
				<path fill="#407BFF" d="M290.4,55.5c-12.9-5.7-26.4-9.7-40-11.9c-0.9-0.1-1.5-0.9-1.3-1.7l2.4-11.5c0.1-0.6,0.7-1,1.5-0.9
					c13.9,2.2,27.7,6.3,40.8,12.1c0.7,0.3,1.1,1,0.9,1.6l-2.4,11.5C292.1,55.5,291.2,55.8,290.4,55.5z"/>
				<path fill="#020242" d="M290.4,55.5c-12.9-5.7-26.4-9.7-40-11.9c-0.9-0.1-1.5-0.9-1.3-1.7l2.4-11.5c0.1-0.6,0.7-1,1.5-0.9
					c13.9,2.2,27.7,6.3,40.8,12.1c0.7,0.3,1.1,1,0.9,1.6l-2.4,11.5C292.1,55.5,291.2,55.8,290.4,55.5z"/>
			</g>
		</g>
		<g>
			<path fill="#131375" d="M296.5,88.6c-0.1,0-0.3-0.1-0.4-0.2c-0.3-0.3-0.3-0.8-0.1-1.1c6-8.3,2.7-12.1-1.9-17.3
				c-2.6-3-5.6-6.4-7.2-11.2c-4.2-13.3,8.6-22,8.7-22.1c0.3-0.2,0.7-0.1,0.9,0.3c0.2,0.4,0.1,0.8-0.2,1c-0.5,0.3-12,8.2-8.2,20.3
				c1.4,4.5,4.3,7.8,6.8,10.7c4.5,5.1,8.8,10,2,19.4C296.8,88.6,296.7,88.6,296.5,88.6z"/>
			<path fill="#407BFF" d="M296.5,90c-1,0-1.8-1-1.8-2.1s0.8-2.1,1.8-2.1s1.8,1,1.8,2.1S297.5,90,296.5,90z M296.5,87.3
				c-0.3,0-0.5,0.3-0.5,0.6s0.2,0.6,0.5,0.6s0.5-0.3,0.5-0.6S296.8,87.3,296.5,87.3z"/>
		</g>
		<path fill="#ED7203" d="M253,298.2c-2.2-22.7-5.1-79.2,7.8-152.7l-10.6-1.9c0,0-14.8,88.6-9.7,154.6"/>
	</g>
</g>
<g id="Layer_1_1_">
	<line fill="none" stroke="#222222" stroke-width="0.25" stroke-miterlimit="10" x1="13.3" y1="298.4" x2="514.3" y2="298.4"/>
</g>
<image width="54" height="63" xlink:href="3175AA7B17B89B4.png"  transform="matrix(0.24 0 0 0.24 0 300)">
</image>
<image width="54" height="63" xlink:href="3175AA7B17B89B4.png"  transform="matrix(0.24 0 0 0.24 0 300)">
</image>
<image width="54" height="63" xlink:href="3175AA7B17B89B4.png"  transform="matrix(0.24 0 0 0.24 0 300)">
</image>
<image width="54" height="63" xlink:href="3175AA7B17B89B4.png"  transform="matrix(0.24 0 0 0.24 0 300)">
</image>
<image width="54" height="63" xlink:href="3175AA7B17B89B4.png"  transform="matrix(0.24 0 0 0.24 0 300)">
</image>
<image width="54" height="63" xlink:href="3175AA7B17B89B4.png"  transform="matrix(0.24 0 0 0.24 0 300)">
</image>
<image width="54" height="63" xlink:href="3175AA7B17B89B4.png"  transform="matrix(0.24 0 0 0.24 0 300)">
</image>
</svg>
