<?xml version="1.0" encoding="utf-8"?>
<!-- Generator: Adobe Illustrator 24.1.2, SVG Export Plug-In . SVG Version: 6.00 Build 0)  -->
<svg version="1.2" baseProfile="tiny" id="Layer_1" xmlns="http://www.w3.org/2000/svg" xmlns:xlink="http://www.w3.org/1999/xlink"
	 x="0px" y="0px" viewBox="0 0 508 300" overflow="visible" xml:space="preserve">
<g id="Layer_1_2_">
	<g id="Layer_1_1_">
		<g id="Layer_1-2">
			<line fill="none" stroke="#1C1C1C" stroke-width="0.25" stroke-miterlimit="10" x1="3.7" y1="257.8" x2="504.7" y2="257.8"/>
		</g>
	</g>
</g>
<g id="Isolation_Mode">
	<g>
		<path fill="#1B2A49" d="M312.8,255.8c0,0-66.4-61-94.5-25.8c-22.4,28.1,17.4,61,68.3,52.2c35.9-6.2,39.9,2.8,46.2,2.6
			c46.7-4.7,109.7-23.2,79.1-52.2c-41.8-39.6-70,2.4-84.6,12.8C312.8,255.8,312.8,255.8,312.8,255.8z"/>
		<path d="M398.7,231.1c-17.5-4.8-84,27.8-84,27.8s-57.9-23.1-71.8-25.3c-13.9-2.2-20.2,4.8-20.2,4.8s6.5-9.7,14.1-10.6
			c7.6-0.9,18.6-3.3,18.6-3.3s110.9-7,125.5-2.6C395.6,226.3,398.7,231.1,398.7,231.1z"/>
		<path fill="#FFD24F" d="M303.6,98.3c-2.8,0.6-47.1,27.4-47.6,38.7c-0.5,11.2,12.1,102.4,36.6,114.2c24.5,11.9,51.9,0,51.9,0
			s28.7-98.6,20.2-117.3s-47.2-35.6-47.2-35.6S303.6,98.3,303.6,98.3z"/>
		<path fill="#131375" d="M271.1,119.5c-42.3,31.5-52.6,88.3-41.5,100.8c7.8,8.8,37.4,28.2,63,26.9c25.6-1.2,49.6,2.1,49.6,2.1
			s43.9-12.4,52.7-30.7c8.8-18.3-15.5-77.7-37.3-94.9C335.7,106.7,271.1,119.5,271.1,119.5z"/>
		<path fill="#030333" d="M351.7,152.1c12,8.9,22.4,42.5,22.4,42.5s-26.9,5.8-32.5,11.7c-5.6,5.8,0.8-2.2,4-18.3
			C348.8,171.8,351.7,152.1,351.7,152.1z"/>
		<path fill="#030333" d="M268.3,149.6c2.8,17.8,16.2,67.3,16.2,67.3s-12.4-19.6-25.5-20.7c-13.2-1.1-18-1.4-18,3.1
			c0,0.9,2.2-19.7,12.4-32.5C263.5,154.1,268.3,149.6,268.3,149.6z"/>
		<path fill="#FFFFFF" d="M361.3,261.4H260.8c-4,0-7.5-2.9-8.2-6.9l-12.1-72.3c-0.8-5.1,3-9.7,8.2-9.7h124.7c5.1,0,9,4.6,8.2,9.7
			l-12.1,72.3C368.8,258.5,365.4,261.4,361.3,261.4z"/>
		<path fill="#D8D8D8" d="M361.3,261.4H260.8c-4,0-7.5-2.8-8.2-6.7L240.5,185c-0.8-4.9,3-9.3,8.2-9.3h124.7c5.1,0,9,4.4,8.2,9.3
			l-12.1,69.7C368.8,258.6,365.4,261.4,361.3,261.4z"/>
		<path d="M321.5,281c-0.4-0.1-43.2-14.3-52.8-3.8c-9.6,10.4,32,10.6,39.5,8.3C315.7,283.2,321.5,281,321.5,281z"/>
		<path d="M331.1,283.5c0,0,9.1-9.1,21.2-7.5s22.4,5.1,12.1,9.4c-10.4,4.3-21.2,4.9-26.2,4.3C333.2,289.3,331.1,283.5,331.1,283.5z"
			/>
		<path fill="#FFFFFF" d="M295.1,103.5l-0.9-0.8c-0.6-0.7-0.5-1.7,0.2-2.3c0.1,0,0.1-0.1,0.2-0.1c10.9-7.9,18.7-19.3,22.1-32.3
			c1.6-6.2,2.1-12.6,1.5-19c0-1,0.8-1.9,1.8-1.9c0.9,0,1.7,0.6,1.9,1.5c0.5,6.8-0.1,13.7-1.9,20.3c-3.4,13.8-11.6,25.9-23.1,34.2
			C296.4,103.4,295.7,103.6,295.1,103.5z"/>
		<path fill="#121212" d="M307.3,30.8c0.5,2.3,0.8,4.6,1.5,7c0.8,2.4,5.1,1.6,4.5-1.3s-1-4.7-1.5-7c-0.4-1.2-1.7-1.9-2.9-1.6
			C307.8,28.3,307.1,29.5,307.3,30.8z"/>
		<path fill="#121212" d="M369.4,120.2c2-5.8-2.5-12.8-6.9-16.4c-4.3-3.6-2.5-1.2-3.3,0c-0.9,1.2,0.5,10.1,2.5,13.9
			c2.1,3.8,4.8,0.7,4.4-1.9c-0.8-2.8-1.9-5.5-3.2-8c-1.1-2.2-4.8-0.7-4.1,2l0.8,3.3c0.5,0.9,0.8,2,0.9,3c-0.5,2.9,4.2,4.1,4.4,1.1
			c0-3-0.5-6-1.6-8.7l-4.4,1.9c1.1,2.2,2,4.5,2.7,6.8l4-1.7l-2-4.1c-0.1-0.8-1.8-3.8-1.1-4.4l-3.4,0.2c3.2,2.5,7.2,7.6,5.8,12
			C363.6,123.4,368.3,123.3,369.4,120.2L369.4,120.2z"/>
		<g>
			<path fill="#121212" d="M341.8,68.9c2.9,10.4,7.1,18.7,11.3,22.8c4.2,4.1,8.5,9.1,8.4,14.9c-0.4,2.3-0.4,4.7,0.2,7
				c1.2,2.8,5,3.2,7.4,4.7c3.9,2.4,6.2,6.9,5.9,11.5c-0.3,4.4-2.2,8.6-5.5,11.6c-3.3,3.3-13.6,6.8-17.8,4.6c-2.3-1.6-4-3.9-5-6.5
				c-6.4-13-22.1-20.6-17.5-39.9"/>
			<path fill="#121212" d="M315.8,24.6c-7.6-8-19.1-10.7-29.5-7c-10.3,4.1-17,14.2-17,25.3c0,6.6,2.8,14,0,20.5s-6.4,7.8-7.1,12.6
				c-0.7,4.8,4.2,10.7,3.8,16.5c-0.4,3.7-2.2,7.2-5.2,9.5c-2.6,2.7-5.6,4.7-8.3,7.6c-6.5,8.3-7.3,19.6-2.1,28.8
				c5.5,9,14.8,14.8,25.3,15.9c10.4,0.9,20.8-1.3,29.9-6.5c5.9-3.1,11.1-7.6,15-13.1c3.7-5.8,4.4-13,1.9-19.4"/>
			<path fill="#FFC8AF" d="M328.8,33.5v5.3l1.2,78.9c-0.2,9.3-7.9,16.7-17.2,16.6c-0.1,0-0.2,0-0.3,0l0,0c-9.6,0.3-17.7-7-18.4-16.6
				c-0.3-9.8-0.7-19.8-0.7-19.8s-12.5-1.8-15.6-18.1c-1.2-10.6-1.6-21.4-0.9-32.1c0.3-9.5,8.2-16.9,17.7-16.6c0.3,0,0.6,0,0.9,0.1
				L328.8,33.5z"/>
			<path fill="#1A2E35" d="M282.3,57c-0.3,1,0.9,1.9,2,1.9s1.9-0.9,1.9-2s-0.9-1.9-2-1.9C283.2,55,282.3,55.8,282.3,57L282.3,57z"/>
			<path fill="#1A2E35" d="M279.7,54.4c1.3-0.6,2.7-1,4.2-1.1c1.4,0.2,2.8,0.5,4.2,0.8c0.1-0.3-0.1-0.6-1.1-1.1
				c-0.9-0.7-2-0.9-3.1-0.8c-1.2-0.1-2.4,0.3-3.3,1.1C280.1,53.5,279.8,53.9,279.7,54.4z"/>
			<path fill="#1A2E35" d="M304.3,56.8c0,1,0.8,1.9,1.9,1.9c0.1,0,0.1,0,0.2,0c1.1,0,2-0.8,2.2-1.9c-0.3-1.1-1.5-1.8-2.6-1.5
				C305,55.4,304.4,56.1,304.3,56.8z"/>
			<path fill="#1A2E35" d="M301.9,54.3c1.3-0.6,2.7-1,4.2-1.1c1.3,0.2,2.7,0.4,4,0.7c0.3-0.2-0.1-0.6-0.8-1c-1-0.7-2.2-1-3.4-0.9
				c-1.1-0.1-2.3,0.4-3.1,1.2C302.1,53.5,301.7,53.9,301.9,54.3z"/>
			<path fill="#1A2E35" d="M294.2,71.1c0.1-0.3-1.6-0.4-3.7-0.7c-2.1-0.3-1.1,0-1.2-0.6c-0.2-0.6,0-1.1,0.4-1.6
				c0.4-1.6,1.1-3.1,1.5-4.6c1.5-3.8,2.6-7.6,3.5-11.6c-1.7,3.7-3.1,7.5-4.3,11.4c-0.7,1.5-1.1,3.1-1.6,4.3
				c-0.2,0.8-0.4,1.6-0.3,2.4l1.2,0.9l0.8,0.2L294.2,71.1z"/>
			<path fill="#FFAF91" d="M293.3,97.7c7.7-0.1,15.2-2.3,21.8-6.3c0,0-5.1,11.2-21.4,10L293.3,97.7z"/>
			<path fill="#FFAF91" d="M295.4,76.4c0.7-1.2,2.1-1.8,3.5-1.6c1,0,2,0.5,2.7,1.2c0.6,0.8,0.6,1.9,0.1,2.8
				c-0.5,0.7-1.9,0.9-2.9,0.6l-2.9-1.6l-0.6-0.7c-0.3-0.1-0.1-0.6-0.1-0.8"/>
			<path fill="#1A2E35" d="M300.9,72.3c-0.4,1.6-1.3,3.1-2.5,4.3c-1.8,1.7-4.6,1.6-4.6,1.9l1.8,0.5c1.4-0.1,2.8-0.6,4-1.5
				c1-0.9,1.6-2.1,1.7-3.4C301.3,73,301.2,72.4,300.9,72.3z"/>
			<path fill="#1A2E35" d="M301.1,45.5c1.7,0.2,3.4,0.4,5.1,0.5c2.7,0.1,4.8,0.7,5.2,0.2c0.4-0.5-0.3-0.9-1.3-1.4
				c-1.2-0.7-2.5-1.1-3.8-1.3c-1.3,0-2.6,0.2-3.8,0.7C301.6,44.5,300.9,45.2,301.1,45.5z"/>
			<path fill="#1A2E35" d="M280.6,47.7c0.4,0.7,2-0.1,3.6-0.2c1.7-0.1,3.5,0.3,3.9-0.1c0.4-0.5-0.1-0.8-0.8-1.3l-3.1-0.8
				c-1.1,0.1-2.2,0.5-3.1,1.2C280.4,47.1,280.3,47.7,280.6,47.7z"/>
			<path fill="#121212" d="M308.4,28.6c-4.5,5.8,0.1,13.8,5.1,19s11.2,11.4,9.7,18.5s-12.8,13.3-11.1,21.8c0.6,2.9,3,5.5,2.8,8.5
				s-7.1,8.2-9,13.5s4.7,13.9,5,21.5c0.3,7.5-2.4,8.2-2.7,12.6c-0.3,8.8,10.2,15.3,18.8,13.1c8.6-2.2,14.3-10.5,16.2-19.1
				c1.9-8.6-0.8-20.7-2.2-29.3l14.5,3.7c2.9-2.6-0.8-5.5-1.5-9.2c-1.4-9.5-7.7-17.5-10.7-26.5c-2.9-9.1-2.7-16.5-3.6-24.7
				s-3.7-16.7-10.1-22.2s-17.2-6.3-22.2,0.4"/>
			<path fill="#121212" d="M275.2,25.6c-8.3,10.8-13,23.9-13.5,37.5c-0.2,6.9,0.6,13.7,2.6,20.3c2.2,7,0.6,14.6-4.1,20.3
				c-1.1,0.7-1.5,2.2-0.8,3.3c0.7,1.1,2.2,1.5,3.3,0.8c0.3-0.2,0.6-0.5,0.8-0.8c4.5-5.1,6.8-11.8,6.4-18.6
				c-0.4-3.5-1.2-6.9-2.4-10.3c-0.8-3.5-1.2-7-1.2-10.5c-0.6-13.9,3.7-27.6,12.1-38.7C280.2,26.3,276.9,23.3,275.2,25.6z"/>
			<path fill="#121212" d="M281.9,20.7c-6.2,1.5-9.8,8-12.7,13.1c-3.4,6.2-5.9,12.8-7.3,19.7c-1.2,6.8-1.3,13.8-0.3,20.7
				c0.9,7.2,4.2,14.1,4.8,21.4c0.4,2.9,5.1,3,4.7-0.2c-0.3-3.1-3.4-12.8-4.5-19.4c-1.4-6.2-1.5-12.6-0.4-18.9
				c0.8-6.3,2.6-12.5,5.5-18.2c1.4-2.8,3-5.4,4.8-7.9c1.6-2.6,3.9-4.6,6.7-5.8C286.2,24.5,284.9,20.1,281.9,20.7z"/>
			<path fill="#121212" d="M268.2,45.1c-2.1,7.4-4,14.9-5.8,22.6c-0.5,2.1,2.5,4.2,3.8,2.4c1.3-1.9,3.8-10.6,6.8-15.7l-4.3-1.6
				l-2.6,10.1c-1,2.8,3.7,4,4.4,1.1l2.6-10.1c0.1-1.3-1-2.5-2.3-2.5c-0.8,0-1.5,0.3-2,0.9c-2.6,4.6-2.7,10.4-5.9,14.5l3.9,2.1
				c1.6-7.6,3.6-15.1,6-22.5C273.6,43.5,269.2,42.3,268.2,45.1L268.2,45.1z"/>
			<path fill="#121212" d="M304.1,29.1c2.6,4.8,3.1,10.5,7.4,14.3c4.3,3.9,5.3-1.1,3.3-3.3c-1.9-2.2-4.3-9.1-6.6-13.3
				c-0.8-1-2.4-1.2-3.4-0.4C304.1,27.1,303.8,28.2,304.1,29.1z"/>
			<path fill="#121212" d="M304.7,29c0.4,4.7,1.7,9.3,4,13.5c1.2,1.8,2.6,3.4,4.3,4.7l5.7,5.9c1.9,2.2,5.3-1.1,3.3-3.3l-4.8-5.1
				l-4.3-3.9c-2.1-3.7-3.3-7.8-3.6-12c-0.3-1.3-1.6-2.1-2.9-1.8C305.6,27.2,304.9,28,304.7,29z"/>
			<path fill="#121212" d="M312.8,83.1c-3.7,6.6-6.2,13.9-7.4,21.4c-0.9,5.8-0.8,12.8,4.3,16.9s5.7-1.6,3.3-3.3
				c-2.3-1.7-3.6-9.8-2.5-15c1.2-6.2,3.3-12.2,6.2-17.8c0.6-1.1,0.2-2.4-0.9-3C314.7,81.6,313.3,82,312.8,83.1L312.8,83.1z"/>
			<path fill="#121212" d="M314.8,88.3c-2.7,5.4-4.3,11.3-4.7,17.3c-0.1,2.5,4,2.9,4.6,0.3l1.9-7.3l-4.4-1.1l-1.9,7.3
				c-0.1,1.3,1,2.5,2.3,2.5c0.8,0,1.5-0.3,2-0.9c2.3-3.6,2.4-9.3,6.4-11.9s0-5.5-2.3-3.9s-5.3,8.9-8.2,13.7l4.3,1.6l1.9-7.3
				c-0.1-1.3-1.3-2.3-2.6-2.2c-0.7,0.1-1.4,0.5-1.8,1.1l-1.9,7.3l4.5,0.6c0.5-5.2,1.8-10.3,3.8-15.1C319.9,87.7,316,85.6,314.8,88.3
				L314.8,88.3z"/>
			<path fill="#121212" d="M316.2,78.1l-4.8,6.8c-1.8,2.6,2.4,4.8,4.1,2.4l4.8-7.1C322.1,78,318,75.6,316.2,78.1z"/>
			<path fill="#121212" d="M314.5,79.6c-2.7,3.9-4.6,8.3-5.5,13c-0.5,2.9,3.9,4.1,4.4,1.1c1-4.3,2.8-8.3,5.3-11.9
				C320.3,79.5,316.2,77,314.5,79.6z"/>
			<path fill="#121212" d="M318.9,75.2c-5.1,3.7-8.8,9-10.5,15c-1.4,5.5-2.5,12.1,1.5,16.7c4.1,4.6,5.3-1.1,3.3-3.3
				c-1.9-2.2-1.3-9.2-0.1-12.7c1.3-4.7,4.1-8.8,8-11.8C323.6,77.5,321.3,73.4,318.9,75.2L318.9,75.2z"/>
			<path fill="#121212" d="M336.5,70.3c-0.4,13.5,10.9,22.2,19.9,30.3c5.2,4.1,9.3,9.5,11.8,15.7c1.3,2.9,2,6,2.1,9.1
				c0.1,1.7,0.9,7.2-1.1,7.7c-2.1,0.6-1.8,5.1,1.1,4.4c2.9-0.6,5.1-11.2,4.3-15.8c-1.2-6.8-4.2-13.2-8.6-18.5
				c-8.5-9.9-25.3-17.8-24.7-33.2C341.2,67.1,336.7,67.3,336.5,70.3z"/>
			<path fill="#121212" d="M316.7,77.4c-2.2,1.6-3.9,3.7-4.9,6.2c-1.6,2.4-2.8,5.1-3.7,7.9c-0.9,2.6-1.4,5.4-1.5,8.2
				c-0.3,2.4,0.4,4.7,1.9,6.6c0.8,0.4,1.8,0.3,2.5-0.2l0,0c2.9-1.5,0.3-5.5-2.3-3.9l-0.3-0.1l2.5,0.1c0.7,0.5,0.3-2.4,0.4-2.7
				c-0.1-0.8-0.1-1.7,0.1-2.5c0.2-2,0.7-3.9,1.5-5.7c0.7-1.8,1.8-3.7,2.8-5.6c1.1-1.9,1.8-3.7,3.3-4.4c1.1-0.6,1.4-2,0.8-3.1
				C319.2,77.1,317.8,76.8,316.7,77.4L316.7,77.4z"/>
			<g>
				<path fill="#121212" d="M357.7,105.7c2.9,3.7,6,7.4,7.5,11.9c0.9-0.4,1.8-0.8,2.7-1.2c-1.3-2.3-1.9-4.9-1.9-7.6
					c-0.9,0.3-1.9,0.5-2.8,0.8c1.2,2.3,2.1,4.7,2.7,7.2c0.8-0.5,1.7-1,2.5-1.5c-1.4-1.6-2.7-3.2-3.9-4.9c-0.6-0.9-1.2-1.7-1.8-2.6
					c-0.3-0.4-0.5-0.8-0.8-1.2c-0.1-0.2-0.3-0.5-0.4-0.7c0-0.1-0.1-0.1-0.1-0.2c-0.1-0.2-0.1-0.2,0,0c-0.1,0.2-0.3,0.4-0.4,0.7
					c-0.2,0.1-0.4,0.1-0.6,0.1c-0.1,0,0,0.1,0.2,0.1l0.4,0.4c0.4,0.5,0.8,1.1,1.1,1.6c0.8,1.2,1.5,2.4,2.1,3.7
					c1.1,2.4,1.8,5,1.2,7.6c0.9-0.1,1.8-0.2,2.7-0.4c-1-1.9-1.8-3.9-2.4-6c-0.4-1.5-2.4-1.3-2.9,0c-0.5,1.4-0.7,2.8-0.5,4.3
					c1-0.1,2-0.3,2.9-0.4c-0.5-3.3-0.9-6.7-1.4-10c-0.2-1.7-3-1.3-2.9,0.4c0,2.6-0.2,5.3-0.8,7.8c1,0.1,2,0.3,2.9,0.4
					c0.3-3.5,0.5-7,0.8-10.5c0.1-0.8-0.7-1.5-1.5-1.5c-0.9,0-1.4,0.7-1.5,1.5c-0.3,3.5-0.5,7-0.8,10.5c-0.1,1.7,2.6,2.1,2.9,0.4
					c0.6-2.8,0.9-5.7,0.9-8.6c-1,0.1-2,0.3-2.9,0.4c0.5,3.3,0.9,6.7,1.4,10c0.2,1.7,3.2,1.3,2.9-0.4c-0.1-1.2,0-2.3,0.4-3.5
					c-1,0-1.9,0-2.9,0c0.6,2.3,1.5,4.6,2.7,6.7c0.6,1.1,2.4,0.9,2.7-0.4c1.2-5-1-9.8-3.7-13.9c-1-1.6-2.9-4.5-5.2-3
					c-1.3,0.9-1,2.5-0.3,3.7c0.6,1.1,1.3,2.1,2,3.2c1.6,2.4,3.4,4.6,5.3,6.8c1,1.2,2.8-0.1,2.5-1.5c-0.7-2.7-1.7-5.4-3-7.9
					c-0.7-1.4-2.8-0.7-2.8,0.8c0,3.2,0.8,6.3,2.3,9.1c0.8,1.5,3.3,0.5,2.7-1.2c-1.7-5-5-9.2-8.3-13.3c-0.5-0.6-1.6-0.5-2.1,0
					C357.1,104.2,357.2,105.1,357.7,105.7L357.7,105.7z"/>
			</g>
		</g>
		<path fill="#E3E3FF" d="M198.8,47.1c-3.8-11.5,2.4-24,13.9-27.8l0,0c11.6-3.8,24,2.5,27.8,14.1c2.6,8.1,0.4,16.9-5.7,22.8l1.7,5.3
			L218,67.3c0,0-1-2.8-1.9-5.5C208.1,60.4,201.5,54.8,198.8,47.1z"/>
		<path fill="#1A2E35" d="M224.7,65.1l-0.3-1c-0.4-0.9-0.8-1.9-1.3-2.7c-0.7-1.5-1.4-2.9-2.3-4.3c-1.1-1.9-2.4-3.6-3.9-5.2
			c-0.8-0.9-1.7-1.7-2.7-2.5c-0.5-0.4-1.2-0.7-1.8-0.8c-0.7-0.1-1.5,0.1-2,0.6l-0.4,1.1c0.1,0.4,0.3,0.8,0.5,1.1
			c0.6,0.5,1.4,0.7,2.1,0.7c1.6,0.1,3.1-0.5,4.2-1.6c1.2-1.2,1.8-2.8,1.7-4.5c0.1-0.9-0.1-1.7-0.6-2.5c-0.5-0.7-1.4-1.1-2.3-0.8
			c-0.4,0.1-0.7,0.7-0.9,1.1c0,0.5,0.1,0.9,0.3,1.3c0.5,0.8,1.3,1.4,2.3,1.6c2.9,1.4,6.4,0.2,7.8-2.8c0.3-0.6,0.4-1.2,0.5-1.8
			c0.2-0.9-0.1-1.9-0.7-2.6c-0.4-0.3-0.8-0.5-1.3-0.5s-0.9,0.2-1.2,0.6l-0.6,1.1c0,0.5,0,0.9,0.1,1.4c0.3,0.8,0.7,1.6,1.2,2.3
			c1,1.3,2.4,2.2,3.9,2.5c1.6,0.2,3.2,0,4.6-0.8c0.7-0.3,1.2-0.9,1.5-1.6c0.3-0.8,0.1-1.6-0.5-2.2l-1.1-0.1l-0.9,0.6
			c-0.5,0.5-0.8,1.2-0.8,1.8l-0.2,3.7c-0.4,4.8-0.4,8.6-0.4,11.3c0,1,0,2.1,0,3.1c-0.1,0.3,0,0.6-0.1,0.8l0,0c0-0.3,0-0.5-0.1-0.8
			l0.1-3.2c0-2.5,0-6.4,0.4-11.1l0.2-3.7c0.1-0.7,0.4-1.3,0.8-1.8c0.5-0.5,1.1-0.6,1.8-0.4c0.5,0.5,0.7,1.2,0.4,1.9
			c-0.4,0.6-0.9,1.1-1.4,1.4c-1.4,0.8-2.9,1-4.5,0.8c-1.6-0.3-2.9-1.1-3.9-2.4c-0.5-0.7-0.8-1.4-1-2.2c-0.3-0.8-0.2-1.7,0.4-2.3
			l1.1-0.4c0.3-0.1,0.7,0.2,0.9,0.5c0.5,0.6,0.8,1.5,0.6,2.3c-0.2,1.8-1.2,3.3-2.8,4.2c-1.6,0.8-3.5,0.9-5.1,0.2
			c-0.8-0.3-1.6-0.8-2.1-1.5c-0.2-0.4-0.3-0.8-0.2-1.2s0.3-0.7,0.7-0.8h1.1c0.4,0.1,0.7,0.4,0.9,0.8c0.5,0.7,0.7,1.5,0.7,2.3
			c0,1.6-0.7,3.1-1.8,4.2c-1,1.1-2.5,1.7-4,1.7c-0.7-0.1-1.3-0.4-1.8-0.8c-0.5-0.3-0.6-1-0.3-1.5c0.1-0.1,0.1-0.2,0.2-0.3
			c0.4-0.5,1-0.8,1.7-0.7c0.6,0.1,1.2,0.4,1.8,0.7c1,0.8,1.9,1.6,2.7,2.6c1.5,1.5,2.7,3.2,3.8,5.1l2.4,4.3c0.4,0.9,0.8,1.8,1.3,2.7
			c0.1,0.3,0.2,0.6,0.4,0.8L224.7,65.1z"/>
		<path fill="#1A2E35" d="M220.7,70.3l15.7-5c0.6-0.2,1-0.9,0.8-1.5l0,0l0,0c-0.2-0.7-0.9-1.1-1.6-0.9l-15.8,5.3
			c-0.6,0.2-1,0.9-0.8,1.5l0,0l0,0C219.5,70.3,220.1,70.5,220.7,70.3z"/>
		<path fill="#1A2E35" d="M221.1,71.3l15.7-5c0.6-0.2,1.3,0.1,1.5,0.8l0,0c0.3,0.6,0,1.3-0.6,1.6c0,0-0.1,0-0.1,0.1l-1.7,0.5
			l-0.9,5.2c-0.1,0.6-0.5,1-1.1,1.1l-5.6,1.8c-0.6,0.2-1.3,0-1.7-0.4l-3.6-3.6l-1.1,0.4c-0.6,0.2-1.3-0.1-1.5-0.8l0,0
			c-0.3-0.6,0-1.3,0.6-1.6C221,71.4,221,71.3,221.1,71.3z"/>
		<path fill="#375A64" d="M227,77.3l1-0.8l2.5-1.1c0.9-0.3,1.9-0.5,2.8-0.4l1.1,0.1l-1.2-0.3c-1-0.1-2,0-2.9,0.3s-1.8,0.7-2.6,1.3
			L227,77.3z"/>
		<path fill="#375A64" d="M223,73.4c2.1-0.5,4.3-1.1,6.3-1.9l6.3-2.3l-12.7,4L223,73.4z"/>
	</g>
	<g>
		<path fill="#FFFFFF" d="M311.5,222.4c0-0.4,0-0.8,0-1.2c0-0.1,0-0.2,0-0.2c0-0.4,0,0.2,0,0s0.1-0.4,0.1-0.6c0-0.1,0-0.2,0.1-0.2
			c0-0.1,0.1-0.4,0-0.1c0-0.2,0.2-0.3,0.3-0.5c0-0.1,0.1-0.2,0.2-0.2c0,0-0.2,0.3,0,0.1c0.1-0.1,0.3-0.4,0.5-0.4c0,0-0.3,0.2,0,0
			c0.1,0,0.1-0.1,0.2-0.1c0,0,0.2-0.2,0.3-0.1c0,0-0.4,0.1-0.1,0c0,0,0.5-0.2,0.5-0.1c0,0-0.3,0-0.1,0c0.1,0,0.2,0,0.3,0
			c0.3,0-0.3-0.1,0,0c0.1,0,0.1,0,0.2,0.1c0.3,0.1-0.2-0.1,0,0c0.1,0,0.2,0.1,0.2,0.1l0.2,0.1c-0.1,0-0.2-0.2,0,0
			c0.1,0.1,0.3,0.3,0.4,0.4c0.2,0.3-0.1-0.2,0,0c0.1,0.1,0.1,0.2,0.2,0.2c0.1,0.1,0.2,0.3,0.3,0.4c0.2,0.4,0.5,0.7,0.6,1.1
			c0-0.1-0.1-0.3,0,0c0,0,0.1,0.4,0,0.2c0-0.2,0,0.1,0,0.1s0.1-0.4,0-0.1c0,0.1,0,0.1-0.1,0.2c0,0.2,0.2-0.3,0-0.1l-0.1,0.1
			c0.2-0.2,0.2-0.2,0.1-0.1l-0.1,0.1c0,0-0.1,0.1-0.2,0.1c0,0,0.3-0.2,0.1-0.1c-0.1,0.1-0.3,0.2-0.4,0.2s-0.1,0.1-0.2,0.1
			c-0.3,0.1,0.3-0.1,0.1,0c-0.2,0-0.3,0.1-0.5,0.2c-0.3,0.1-0.6,0.1-0.9,0.2c-0.1,0-0.3,0,0.1,0c-0.1,0-0.2,0-0.2,0
			c-0.2,0-0.5,0.1-0.7,0.1s-0.4,0-0.5,0s-0.2,0-0.3,0c-0.3,0,0,0,0,0c-0.1,0-0.5-0.1-0.6-0.2c0.3,0.2,0.1,0,0,0s-0.1-0.1-0.2-0.1
			c0.2,0.1,0.2,0.2,0.1,0.1c0-0.1-0.1-0.1-0.2-0.1c-0.2-0.2,0.1,0.1,0.1,0.1c0-0.1-0.2-0.3-0.2-0.4c0.1,0.1,0.1,0.3,0.1,0.1
			c0-0.1-0.1-0.2-0.1-0.2s0-0.1,0-0.2c0.1,0.2,0,0.3,0,0.1c0-0.1,0-0.3,0-0.4c0,0.3-0.1,0.3,0,0.1c0-0.1,0-0.2,0.1-0.2
			c0,0,0.1-0.1,0.1-0.2c0,0.3-0.1,0.2,0,0.1l0.1-0.2c0,0.1-0.2,0.3,0,0l0.1-0.1c0,0.2-0.3,0.2-0.1,0.1l0.2-0.1
			c-0.1,0.1-0.3,0.1-0.1,0.1c0.1,0,0.2,0,0.2-0.1c0.1,0,0.1,0.1-0.1,0c0.1,0,0.3,0,0.5,0s-0.4-0.1-0.1,0c0.1,0,0.1,0,0.2,0
			s0.2,0.1,0.2,0.1s-0.3-0.2-0.1,0c0.1,0.1,0.3,0.2,0.4,0.2c0,0-0.3-0.2-0.1-0.1c0.1,0.1,0.1,0.1,0.2,0.2c0.2,0.2-0.1-0.2-0.1-0.1
			c0,0.1,0.1,0.1,0.1,0.2c0.1,0.2,0-0.1,0-0.1c0,0.1,0.1,0.2,0.1,0.2c0.1,0.2,0,0,0-0.1c0,0,0,0.4,0,0.1v-0.1c0,0.2,0,0.1,0,0
			c-0.1,0.3,0.2-0.2,0,0c0.2-0.2,0.2-0.2,0.1-0.1c0.1,0,0.2-0.1,0.2-0.1c-0.2,0-0.1,0,0.2,0c-0.2,0,0.4,0.1,0,0
			c-0.3,0,0.3,0.2,0.1,0l-0.1-0.1c0.2,0.1,0.2,0.2,0.1,0.1c-0.1-0.1,0,0,0.1,0.2l-0.1-0.1c0,0,0.1,0.4,0.1,0.2c0.1,0.4,0,0.3,0,0.2
			c0,0.1,0,0.2,0,0.3c0-0.1,0-0.1-0.1,0.1c0.1-0.1,0.2-0.2-0.1,0.1c0.2-0.2-0.3,0.2-0.1,0.1c0.2-0.1-0.4,0.1-0.1,0.1
			c0.2,0,0,0.1-0.2,0h0.2c-0.1,0.1-0.4-0.1-0.1,0s-0.1,0.1-0.1-0.1l0.1,0.1c0.2,0.1-0.3-0.2-0.1-0.1c0.2,0.2-0.2-0.3-0.1-0.1
			c0-0.1-0.1-0.2-0.1-0.2c0,0.1,0,0.1,0-0.2v0.1c0-0.3,0.2-0.6,0.4-0.7c0.2-0.1,0.4-0.1,0.6-0.1c-0.2-0.1,0.2,0.1,0.3,0.2
			c0.2,0.2,0.1,0.2,0.1,0.1c0,0.1,0.1,0.5,0.1,0.2s-0.1,0.3,0,0c-0.1,0.2-0.1,0.2,0,0s0,0.1-0.1,0.1l0.1-0.1
			c-0.2,0.1-0.2,0.2-0.1,0.1l0.2-0.1c0,0.1-0.3,0.2,0,0c0.2-0.1-0.1,0-0.2,0c0,0,0.4,0,0.1,0s0,0,0,0c-0.1,0-0.1-0.1-0.2-0.1
			c0.1,0.1,0.1,0-0.1-0.1c0.2,0.2-0.1-0.1-0.1-0.1c0.1,0.1,0.1,0.1-0.1-0.2c0,0.1,0,0.1,0-0.1v-0.1c0,0.2,0,0.1,0-0.2c0,0,0,0,0,0.1
			s0,0.1,0.1-0.1l-0.1,0.1c-0.1,0.2,0.3-0.2,0,0c-0.1,0.1,0.3-0.2,0.1-0.1c-0.2,0.1,0.4-0.1,0.1,0c0.4-0.1,0.3,0,0.2,0
			c0.2,0,0.3,0,0.5,0.1c0,0-0.1,0-0.1-0.1c-0.6-0.5-1.7-0.1-2.1,0.5c-0.4,0.8-0.1,1.6,0.5,2.1c1.2,0.8,2.8,0.1,3.4-1.1
			c0.3-0.6,0.4-1.3,0.2-1.9c-0.3-0.8-0.9-1.4-1.7-1.6c-1.3-0.4-2.7,0.2-3.4,1.4c-0.9,1.4-0.3,3.6,1.5,3.9c1,0.2,1.9-0.2,2.4-1.1
			c0.4-0.7,0.4-1.6,0-2.3c-0.6-1-2-1.5-3.1-1.2c-1.4,0.4-2.2,2.1-1.4,3.4c0.7,1.2,2.3,1.7,3.5,1.1c1.5-0.7,1.6-2.7,0.9-4
			c-0.5-1-1.6-1.7-2.6-2c-1.2-0.3-2.5,0-3.4,0.9c-0.8,0.7-1.2,1.9-1.2,3c0.1,1.3,0.7,2.4,1.7,3.1c1.1,0.7,2.5,0.7,3.8,0.5
			c2.2-0.3,5-1.2,5-3.9c0-1.3-0.8-2.6-1.6-3.6c-0.9-1.2-2-2-3.5-2.2c-1.3-0.1-2.6,0.5-3.5,1.4c-1,1-1.5,2.4-1.7,3.8
			c-0.1,0.6-0.1,1.1-0.1,1.7c0,0.8,0.7,1.5,1.5,1.5C310.7,223.8,311.5,223.2,311.5,222.4L311.5,222.4z"/>
	</g>
</g>
</svg>
