<svg xmlns="http://www.w3.org/2000/svg" viewBox="0 0 430.8 359"><defs><style>.cls-1,.cls-6{fill:none;stroke-miterlimit:10;}.cls-1{stroke:#000;}.cls-2{fill:#212121;}.cls-3,.cls-7{font-size:12px;font-family:Jost-Medium, Jost;font-weight:500;}.cls-3{fill:#f2f2f2;}.cls-4{letter-spacing:0em;}.cls-5{letter-spacing:-0.02em;}.cls-6{stroke:#212121;}.cls-8{letter-spacing:-0.03em;}.cls-9{letter-spacing:-0.1em;}</style></defs><g id="Layer_2" data-name="Layer 2"><g id="Layer_1-2" data-name="Layer 1"><line class="cls-1" x1="337" y1="163" x2="337" y2="317"/><line class="cls-1" x1="75" y1="163" x2="75" y2="317"/><rect class="cls-2" x="262" y="119.5" width="149" height="43" rx="7.9"/><text class="cls-3" transform="translate(316.1 144)">Sign up</text><rect class="cls-2" x="263.5" y="219" width="149" height="43" rx="7.9"/><text class="cls-3" transform="translate(298.5 243.5)">Fill information</text><rect class="cls-2" y="119.5" width="149" height="43" rx="7.9"/><text class="cls-3" transform="translate(55.1 144)">Log in</text><rect class="cls-2" x="1.5" y="219" width="149" height="43" rx="7.9"/><text class="cls-3" transform="translate(34.3 236.3)">Fill in username<tspan x="5.2" y="14.4">and pas</tspan><tspan class="cls-4" x="46.6" y="14.4">s</tspan><tspan class="cls-5" x="51.6" y="14.4">w</tspan><tspan x="60" y="14.4">ord</tspan></text><rect class="cls-2" x="1.5" y="316" width="149" height="43" rx="7.9"/><text class="cls-3" transform="translate(27.4 340.5)">See member page</text><rect class="cls-2" x="263.5" y="316" width="149" height="43" rx="7.9"/><text class="cls-3" transform="translate(289.4 340.5)">See member page</text><polyline class="cls-6" points="204.5 43 204.5 82 75.5 82 75.5 132"/><polyline class="cls-6" points="204.5 43 204.5 82 337.5 82 337.5 132"/><rect class="cls-2" x="131.5" width="149" height="43" rx="7.9"/><text class="cls-3" transform="translate(150.6 25.4)">Lands on homepage</text><text class="cls-7" transform="translate(92.4 292.7) rotate(0.3)">clicks on <tspan class="cls-8" x="49.3" y="0">C</tspan><tspan class="cls-9" x="57.2" y="0">T</tspan><tspan x="62" y="0">A</tspan></text><text class="cls-7" transform="translate(360.4 292.7) rotate(0.3)">clicks on <tspan class="cls-8" x="49.3" y="0">C</tspan><tspan class="cls-9" x="57.2" y="0">T</tspan><tspan x="62" y="0">A</tspan></text><text class="cls-7" transform="translate(92.4 195.7) rotate(0.3)">clicks on <tspan class="cls-8" x="49.3" y="0">C</tspan><tspan class="cls-9" x="57.2" y="0">T</tspan><tspan x="62" y="0">A</tspan></text><text class="cls-7" transform="translate(360.4 195.7) rotate(0.3)">clicks on <tspan class="cls-8" x="49.3" y="0">C</tspan><tspan class="cls-9" x="57.2" y="0">T</tspan><tspan x="62" y="0">A</tspan></text><text class="cls-7" transform="translate(215.6 66.3) rotate(0.3)">clicks on <tspan class="cls-8" x="49.3" y="0">C</tspan><tspan class="cls-9" x="57.2" y="0">T</tspan><tspan x="62" y="0">A</tspan></text></g></g></svg>