<svg xmlns="http://www.w3.org/2000/svg" viewBox="0 0 159.2 418"><defs><style>.cls-1,.cls-2{fill:none;stroke:#000;}.cls-1{stroke-miterlimit:10;}.cls-2{stroke-linecap:round;stroke-linejoin:round;}.cls-3{fill:#212121;}.cls-4,.cls-6{font-size:12px;font-family:Jost-Medium, Jost;font-weight:500;}.cls-4{fill:#f2f2f2;}.cls-5{letter-spacing:-0.02em;}.cls-7{letter-spacing:-0.03em;}.cls-8{letter-spacing:-0.1em;}</style></defs><g id="Layer_2" data-name="Layer 2"><g id="Layer_1-2" data-name="Layer 1"><line class="cls-1" x1="74.5" y1="43" x2="74.5" y2="379"/><polyline class="cls-2" points="68.8 88.7 74.5 95.7 80.2 88.7"/><rect class="cls-3" width="149" height="43" rx="7.9"/><text class="cls-4" transform="translate(19.1 25.4)">Lands on homepage</text><rect class="cls-3" y="192" width="149" height="43" rx="7.9"/><text class="cls-4" transform="translate(14.1 211.5)">See li<tspan class="cls-5" x="29.6" y="0">v</tspan><tspan x="35.1" y="0">e session button</tspan><tspan x="18.2" y="14.4">on He</tspan><tspan class="cls-5" x="50.5" y="14.4">r</tspan><tspan x="54.7" y="14.4">o section</tspan></text><rect class="cls-3" y="96" width="149" height="43" rx="7.9"/><text class="cls-4" transform="translate(58 120.5)">Log in</text><rect class="cls-3" y="288" width="149" height="43" rx="7.9"/><text class="cls-4" transform="translate(38.7 312.4)">Session ends</text><rect class="cls-3" y="375" width="149" height="43" rx="7.9"/><text class="cls-4" transform="translate(36.3 399.4)">Close wind<tspan class="cls-5" x="58.5" y="0">o</tspan><tspan x="65.1" y="0">w</tspan></text><polyline class="cls-2" points="68.9 185.4 74.7 192.4 80.4 185.4"/><polyline class="cls-2" points="68.9 281.4 74.7 288.4 80.4 281.4"/><polyline class="cls-2" points="68.8 368 74.5 375 80.2 368"/><text class="cls-6" transform="translate(88.8 72.6) rotate(0.3)">clicks on <tspan class="cls-7" x="49.3" y="0">C</tspan><tspan class="cls-8" x="57.2" y="0">T</tspan><tspan x="62" y="0">A</tspan></text><text class="cls-6" transform="translate(88.8 168.6) rotate(0.3)">clicks on <tspan class="cls-7" x="49.3" y="0">C</tspan><tspan class="cls-8" x="57.2" y="0">T</tspan><tspan x="62" y="0">A</tspan></text><text class="cls-6" transform="translate(88.8 263.6) rotate(0.3)">clicks on <tspan class="cls-7" x="49.3" y="0">C</tspan><tspan class="cls-8" x="57.2" y="0">T</tspan><tspan x="62" y="0">A</tspan></text></g></g></svg>