<?xml version="1.0" encoding="utf-8"?>
<!-- Generator: Adobe Illustrator 21.0.0, SVG Export Plug-In . SVG Version: 6.00 Build 0)  -->
<svg version="1.1" id="_x2014_лой_1" xmlns="http://www.w3.org/2000/svg" xmlns:xlink="http://www.w3.org/1999/xlink" x="0px"
	 y="0px" viewBox="0 0 1861.5 774.2" style="enable-background:new 0 0 1861.5 774.2;" xml:space="preserve">
<style type="text/css">
	.st0{fill-rule:evenodd;clip-rule:evenodd;fill:#9D9D9D;}
	.st1{fill-rule:evenodd;clip-rule:evenodd;fill:#FFFFFF;}
	.st2{fill:#FFFFFF;}
	.st3{fill:#9D9D9D;}
	.st4{fill:#AEAEAF;}
</style>
<path class="st4" d="M883.3,411.5c0,55.8-34.1,82.2-76.7,82.2h-26.1v-33.5h24c25.7,0,42.9-13.9,42.9-48.7
	c0-34.5-16.2-51.8-43.6-51.8c-26.4,0-45.3,16.2-45.3,51.1v140.1H723V330.6h35.5v19h5.1c11.8-15.9,29.4-23,47.6-23
	C850.5,326.5,883.3,355,883.3,411.5z M649.7,396.9l-23.7-2.4c-18.6-1.7-28.4-6.8-28.4-17.6c0-12.9,12.5-20.3,30.5-20.3
	c18.6,0,30.5,8.8,31.5,21.3h34.2c-1.4-31.8-26.1-51.4-65.3-51.4c-39.6,0-66.3,21-66.3,51.8c0,25.7,16.2,42.3,53.1,46l24,2.4
	c14.6,1.4,24.4,4.4,24.4,18.3c0,12.5-9.1,21.7-33.2,21.7c-22.1,0-33-10-36.9-23.5h-37c3.7,30.8,29.5,54.6,73.8,54.6
	c41.6,0,68.7-22,68.7-54.5C699.1,414.5,680.2,400,649.7,396.9z M1020.9,443.2c-5.6,12.8-18.9,22.5-37.8,22.5
	c-26.1,0-45.4-16.9-45.4-53.5c0-34.9,17.9-54.2,45.7-54.2c24.7,0,38.9,14.9,40.3,37.2h-64V421h98.8v-16.9c0-47-31.1-77.5-75.5-77.5
	c-41.3,0-80.9,28.1-80.9,85.6s39.6,85.6,80.9,85.6c37.8,0,64.7-23.3,73.1-54.6H1020.9z M462.2,326.5c-38.9,0-68,20.3-71.4,51.4H429
	c2.7-11.5,13.2-20,33.2-20c25.7,0,34.2,13.5,34.2,30.1V444c-14.6,16.6-31.5,24.4-48.4,24.4c-17.6,0-29.8-8.5-29.8-23.7
	c0-14.6,9.5-23.7,27.8-23.7h28.4v-25.7h-29.4c-40.6,0-63.3,20.3-63.3,51.4c0,29.1,22,51.1,58.2,51.1c20.3,0,38.2-8.1,51.4-17.9h5.1
	v13.9h35.5v-109C531.9,344.5,504.5,326.5,462.2,326.5z M221.1,493.7h35.5V270.4h-35.5V493.7z M370.3,330.6H327l-51.8,68V420
	l53.1,73.8h44l-62.3-84.6L370.3,330.6z M1653.5,330.6l-29.1,64.6c-7.1,15.6-13.9,30.8-15.9,41h-5.1c-2-10.2-9.1-25-16.2-40.6
	l-29.1-65h-39.3l68.4,146.6l-33.8,73.8h37.9l101.5-220.3H1653.5z M1510.9,330.6h-43.3l-51.8,68V420l53.1,73.8h44l-62.3-84.6
	L1510.9,330.6z M1288.4,396.9l-23.7-2.4c-18.6-1.7-28.4-6.8-28.4-17.6c0-12.9,12.5-20.3,30.5-20.3c18.6,0,30.5,8.8,31.5,21.3h34.2
	c-1.4-31.8-26.1-51.4-65.3-51.4c-39.6,0-66.3,21-66.3,51.8c0,25.7,16.2,42.3,53.1,46l24,2.4c14.6,1.4,24.4,4.4,24.4,18.3
	c0,12.5-9.1,21.7-33.2,21.7c-22.1,0-33-10-36.9-23.5h-37c3.7,30.8,29.5,54.6,73.8,54.6c41.6,0,68.7-22,68.7-54.5
	C1337.9,414.5,1318.9,400,1288.4,396.9z M1361.7,493.7h35.5V270.4h-35.5V493.7z M1127.3,349.6h-5.1v-19h-35.5v163.1h35.5v-85.3
	c0-29.1,13.4-46,39.9-46h22.5v-35.9h-13C1147.1,326.5,1136.7,335.8,1127.3,349.6z"/>
</svg>
