<svg width="34" height="37" viewBox="0 0 34 37" fill="none" xmlns="http://www.w3.org/2000/svg">
<path fill-rule="evenodd" clip-rule="evenodd" d="M1.88534 2.05012L3.77068 1.02472L1.88534 0L0 1.02472L1.88534 2.05012Z" transform="translate(3.77344 26.6446)" fill="black"/>
<path fill-rule="evenodd" clip-rule="evenodd" d="M1.88534 0L0 1.0254L1.88534 2.04944L3.77068 1.0254L1.88534 0Z" transform="translate(5.65918 23.5702)" fill="black"/>
<path fill-rule="evenodd" clip-rule="evenodd" d="M0 1.02472L1.88603 2.05012L3.77126 1.02472L1.88603 0L0 1.02472Z" transform="translate(22.6333 20.4956)" fill="black"/>
<path fill-rule="evenodd" clip-rule="evenodd" d="M3.77183 1.02551L3.77251 3.07472L5.65785 2.05068V0L3.77183 1.02528V1.0254L1.88591 0.000112805L0 1.02551L1.88591 2.04955L3.77183 1.02551Z" transform="translate(24.519 23.5701)" fill="black"/>
<path fill-rule="evenodd" clip-rule="evenodd" d="M3.77125 4.09854L1.88591 3.07382L1.88545 3.07405L1.88614 1.02404L0.000228956 0V2.04876L1.88534 3.07416L0 4.09854L0.628599 4.44023L0 4.09877V6.14809L1.88591 7.17349V5.12394L1.88626 5.12371V7.17293L3.77159 8.19832V6.14821L1.88637 5.1236L3.77125 4.09854Z" transform="translate(7.54443 25.6206)" fill="black"/>
<path fill-rule="evenodd" clip-rule="evenodd" d="M1.88534 0L0 1.02472L1.88534 2.04944L3.77137 1.02472L1.88534 0Z" transform="translate(9.43115 25.6198)" fill="black"/>
<path fill-rule="evenodd" clip-rule="evenodd" d="M3.77125 1.0254L1.88591 0L0 1.0254L1.88591 2.05012L3.77125 1.0254Z" transform="translate(16.9751 27.6692)" fill="black"/>
<path fill-rule="evenodd" clip-rule="evenodd" d="M3.77182 1.02393L1.88591 2.04854V0L0 1.02393L0.000686868 3.07405L1.88591 2.04865L3.77182 3.07405L4.32407 2.77376L3.77182 3.07416V5.1236L5.65716 4.09888V2.04899H5.65739V4.09865L7.5433 3.07393V1.02393L5.65739 2.04854L3.77182 1.02393Z" transform="translate(24.519 25.6207)" fill="black"/>
<path fill-rule="evenodd" clip-rule="evenodd" d="M3.77193 10.2475H3.77181V8.19776L1.88591 7.17315V5.12405L3.77181 6.14922V4.09922L1.88591 3.07461V1.02461L0.000686867 0V2.04933L1.88579 3.07461V5.12315L0 4.09933V6.14866L1.88579 7.17326V9.22248L3.77158 10.2476L1.88591 11.2721V13.3223L3.77193 12.2975V10.2475Z" transform="translate(24.519 10.2479)" fill="black"/>
<path fill-rule="evenodd" clip-rule="evenodd" d="M0 3.07472L1.88535 2.04933V0L0 1.02461V3.07472Z" transform="translate(9.43115 7.17351)" fill="black"/>
<path fill-rule="evenodd" clip-rule="evenodd" d="M0 3.07472L1.88534 2.04932V0L0 1.02461V3.07472Z" transform="translate(5.65918 13.3225)" fill="black"/>
<path fill-rule="evenodd" clip-rule="evenodd" d="M0 3.07472L1.88603 2.04932V0L0 1.02461V3.07472Z" transform="translate(7.54492 10.2479)" fill="black"/>
<path fill-rule="evenodd" clip-rule="evenodd" d="M1.88534 0L0 1.02528V3.0754L1.88534 2.05V0Z" transform="translate(5.65869 9.22241)" fill="black"/>
<path fill-rule="evenodd" clip-rule="evenodd" d="M0 3.07474L1.88603 2.04934V0L0 1.02461V3.07474Z" transform="translate(1.88721 19.471)" fill="black"/>
<path fill-rule="evenodd" clip-rule="evenodd" d="M1.88603 0L0 1.02529V3.0754L1.88603 2.05001V0Z" transform="translate(1.88672 15.3714)" fill="black"/>
<path fill-rule="evenodd" clip-rule="evenodd" d="M3.77228 5.12427L5.65808 4.0991L3.77205 3.07438L1.88603 4.0991L3.77205 5.12438L3.77217 5.12427V7.17416L5.65774 8.19865L3.77194 9.22326L1.88614 8.19865L3.7716 7.1736L1.88568 6.14888V4.09876L0.000686869 3.07438L1.88534 2.04933V0L0 1.02461V3.07472L0.000343434 3.07461V5.12348L1.88557 6.14888L0.000343434 7.1736L1.88568 8.19888L1.88603 8.19865V10.248L3.77148 11.273L1.88603 12.2981L3.77205 13.3221L5.65808 12.2981L3.77205 11.2727V9.22326L5.65808 10.248L7.54399 9.22326L5.65819 8.19854V6.14899V6.14888L3.77228 5.12427Z" transform="translate(9.43115 11.2724)" fill="black"/>
<path fill-rule="evenodd" clip-rule="evenodd" d="M0 0V2.04933L1.88591 3.07393L0 4.09944L1.88603 5.12416L3.77194 4.09944L1.88603 3.07393V1.02472V1.02461L0 0Z" transform="translate(13.2031 24.5952)" fill="black"/>
<path fill-rule="evenodd" clip-rule="evenodd" d="M0.000343435 3.0745L1.88534 2.04989V0L0 1.02461V3.07461H0.000114478V5.12382L1.88603 6.14911L0.000114478 7.17371L1.88614 8.19911L1.88649 8.199V10.2483L3.77171 11.273V9.2236L1.88694 8.19866L3.77137 7.17371L1.88614 6.14899V4.0991L0.000343435 3.0745Z" transform="translate(7.54492 14.3466)" fill="black"/>
<path fill-rule="evenodd" clip-rule="evenodd" d="M0.000801345 3.07438L1.88602 2.05V0L0 1.02472V3.07472L0.000457912 3.0745V5.12416L1.88648 6.14899V4.09888L0.000801345 3.07438Z" transform="translate(11.3164 8.19774)" fill="black"/>
<path fill-rule="evenodd" clip-rule="evenodd" d="M0 0V2.04933L1.88534 3.07404L1.88614 1.02461L0 0Z" transform="translate(28.291 12.2975)" fill="black"/>
<path fill-rule="evenodd" clip-rule="evenodd" d="M1.88603 0L0 1.02461V3.07472L1.88603 2.04932V0Z" transform="translate(1.88672 11.2728)" fill="black"/>
<path fill-rule="evenodd" clip-rule="evenodd" d="M1.88568 5.12383L3.7716 6.14843V4.09899L1.88671 3.07506L3.77137 2.05V0L1.88603 1.02461V3.07472L1.88568 3.0745V3.07439H1.88557V3.0745L0.000343434 4.09899V6.149L0 6.14877V8.1981L1.88534 9.22349L1.88603 7.17338L0.000457913 6.149L1.88568 5.12439V5.12383Z" transform="translate(3.77295 17.4211)" fill="black"/>
<path fill-rule="evenodd" clip-rule="evenodd" d="M0 3.07472L1.88534 2.05V0L0 1.02461V3.07472Z" transform="translate(3.77344 16.3966)" fill="black"/>
<path fill-rule="evenodd" clip-rule="evenodd" d="M1.88534 0L0 1.02461V3.07404L1.88534 2.04933V0Z" transform="translate(3.77344 12.2975)" fill="black"/>
<path fill-rule="evenodd" clip-rule="evenodd" d="M0 3.07348L1.88602 2.04944V0L0 1.02404V3.07348Z" transform="translate(7.54443 6.14877)" fill="black"/>
<path fill-rule="evenodd" clip-rule="evenodd" d="M0.000228956 1.02449L0 1.02438V3.07405V3.07438V5.12416L1.88534 6.14888V4.09978V4.09944V2.05034L1.88465 2.05L3.77137 1.02472L1.88454 0L0.000228956 1.02449Z" transform="translate(0 8.19772)" fill="black"/>
<path fill-rule="evenodd" clip-rule="evenodd" d="M3.77125 3.07427L2.57805 2.42542L3.77183 3.07427L1.8866 4.09854V6.14854L3.77263 5.12382V3.07416L5.65751 2.0491L5.26428 1.83545L5.65717 2.04876L7.54239 1.02472L5.65717 0L3.77114 1.02472L3.77125 1.02495L1.88626 2.0491L1.88591 2.04888L0 3.07427L1.88591 4.09832L3.77125 3.07427Z" transform="translate(1.88574 5.12392)" fill="black"/>
<path fill-rule="evenodd" clip-rule="evenodd" d="M3.77068 3.07427L3.77159 3.07472L4.68845 2.57646L3.77251 3.07438V5.12315L5.65842 4.0991V2.04921L7.54353 1.02472L5.65819 0L3.77262 1.02449L3.77159 1.02404L1.88625 2.04944L1.93491 2.07584L1.88591 2.04921L0 3.07393L1.88591 4.09933L3.77068 3.07427Z" transform="translate(7.54346 2.0495)" fill="black"/>
<path fill-rule="evenodd" clip-rule="evenodd" d="M0 2.04932L1.88602 3.07472V1.02461L0 0V2.04932Z" transform="translate(5.65869 28.6946)" fill="black"/>
<path fill-rule="evenodd" clip-rule="evenodd" d="M1.88603 4.099L0.000457912 3.07461L1.88626 2.05001V0L0.000228956 1.02529V3.07439H0V5.1244L1.8858 6.149V6.14934L3.77182 7.17406V5.12462L1.88603 4.09956V4.099Z" transform="translate(1.88623 23.5702)" fill="black"/>
<path fill-rule="evenodd" clip-rule="evenodd" d="M1.88568 1.02528V3.07393L0 2.04944V4.09888L1.88568 5.12405V5.12427V5.12439V7.17428L3.77159 6.14888V0L1.88568 1.02528ZM1.88623 3.07459L2.69411 2.63568L1.88623 3.07493V3.07459Z" transform="translate(30.1768 21.5204)" fill="black"/>
<path fill-rule="evenodd" clip-rule="evenodd" d="M3.77068 1.02461L3.77091 1.02472L1.8858 2.04933L3.77125 3.07393L3.77228 3.07348V5.12427L3.77217 5.12416V5.1236L3.77159 5.12382L3.77125 5.1236V5.12416L1.88614 6.1482V8.19843H1.88626V10.2478L3.77228 11.2725V9.22281V9.22236L1.88683 8.19798L3.77159 7.17326L5.65716 8.19843V6.1482L3.77228 5.12427L5.65819 4.09888V2.04989L5.65854 2.05012V4.09888L7.54422 5.12405L5.65819 6.1482V8.19798L3.77228 9.22281L5.65819 10.2482L7.54319 9.22326V11.2725L9.42933 10.2481L11.3154 11.2724L9.42956 12.297V14.347L7.54456 15.3715L9.42979 16.3967L7.54411 17.4212V17.4214V19.4709L5.65808 20.4955L7.54411 21.5203L9.4299 20.4956V22.5451L7.54456 23.5705L9.4299 24.5945L11.3158 23.5706V25.6198L9.43002 26.6444V24.5951L7.54411 25.6198V27.6692L9.4299 26.6446L11.3157 27.6691L9.4299 28.6944V30.7439L7.54422 31.7687V29.7193L5.65819 30.7439L3.77228 29.7193V31.7687L5.65785 32.7939L3.77228 33.8191L3.77148 33.8187V33.8188L1.88637 32.7939L3.77217 31.7687L1.88614 30.7439V28.6944L0.000228956 27.6691V29.719L1.88568 30.7443L0.000228956 31.7687L1.22125 32.4326L0 31.7691V33.8191L1.88603 34.8432V32.7941V32.7942V34.8431L3.77217 35.8684V35.8683L5.65751 36.8935L7.54319 35.8682V35.8684L9.4291 34.8431V32.7937L7.54365 33.8188H7.54353V33.8187L7.5433 33.8188L5.65842 32.7939L7.54411 31.7687L9.42956 32.7938V34.8432L11.3156 33.8191V33.8186L13.201 32.7935V30.7442L11.3152 31.7687L9.43036 30.7443L11.3159 29.719L13.2014 30.7443V32.7942L15.0872 31.7687V31.7692L16.9725 30.7438V28.6945L15.0875 29.7189L13.2017 28.6944L11.3159 29.7189V27.6691L13.2017 26.6445L11.317 25.6204L13.2017 24.5955V22.5455L11.3158 23.5702V23.5703L9.4307 22.5453L11.3159 21.5203V19.4711L13.2014 18.4468V20.4957L15.0873 19.4703V17.421L13.2014 18.4456V18.4463L11.3158 17.4212L9.43002 18.4464V16.3967L11.3154 15.3716V17.4212L13.2014 16.3965V14.3471L11.3155 15.3711L9.43013 14.3467L11.3155 13.3217L13.2014 14.3471V12.297L11.3156 11.2724V11.2723L11.3155 11.2724H11.3154V9.22236L9.42979 8.19843V8.19775L9.42933 8.19798H9.4291V6.1482L7.54491 5.12382V5.1236L7.54479 5.12371L7.54445 5.1236V3.07506L9.42864 4.09888L9.42979 4.09944V6.14865L11.3158 7.17405V9.22214L13.2017 10.2482V8.19832L15.0876 9.2236V11.2724L16.9736 12.2978V10.2476L15.0878 9.22247V7.1736L16.9727 8.19843L16.9729 8.19832L16.974 8.19888V10.2478L18.8592 11.2725L18.86 9.22326L20.745 10.2482L20.7455 10.2479V12.2969L18.8599 11.2723V13.3217L20.7455 14.347V14.3471V14.3475V16.3962L18.8599 15.3711V17.4211L16.974 16.3965V18.4466L18.8592 19.4712L18.86 17.4212L20.7455 18.4456V18.4465V18.4466V20.4954L18.8599 19.4702V21.5199L16.974 20.4954V22.5454L18.8592 23.5702L18.86 21.5205L20.7455 22.5448V22.5451L20.7457 22.545L20.7458 22.5451V22.5448L22.6315 21.5203V15.3718L20.9551 16.2832L22.6315 15.3711V13.3225L21.7933 13.7778L22.6315 13.3221V11.2728L20.7458 12.2973V12.297L22.6315 11.2724V9.22371L20.9823 10.1192L22.6304 9.22281L20.745 8.19798L18.8599 9.22225L18.8591 9.22202L20.7446 8.19809L18.8587 7.17281H18.8585L16.9736 6.14877L16.9737 6.14865L15.0878 5.12382L13.2017 6.14865L15.0876 7.17247L15.0866 7.17304L13.2017 6.14899V8.19798L11.3158 7.17281V5.12394L11.3162 5.12382L13.2014 6.14877L15.0866 5.12348L13.2014 4.09865L12.8834 4.27136L13.2006 4.09888L11.3154 3.07348L11.3143 3.07393L9.42864 2.04944L7.54422 3.07326L7.54399 3.07314L9.4283 2.04933L7.54227 1.02461L5.65705 2.04933L5.65682 2.0491L7.54193 1.02461L5.65671 0L3.77068 1.02461ZM5.65718 2.04944L4.49512 2.68081L5.65718 2.04944ZM5.65869 8.1982L7.54506 7.17314L9.42891 8.19809V8.19843L7.54346 9.22225L5.65869 8.1982ZM7.54395 19.471L9.4294 18.4466L11.3151 19.4711L9.42951 20.4955L7.54395 19.471ZM11.3151 31.7688V31.7693L10.3799 32.2774L11.3151 31.7688ZM3.93115 33.9053L5.65816 34.8431L5.65771 34.8434L3.93115 33.9053ZM5.65855 12.2972L3.77275 11.2725L1.88672 12.2972L3.77263 13.3226V15.3718L5.65809 16.3969L3.77263 17.4214L5.65855 18.4468L7.54446 17.4214L5.659 16.3969L7.54458 15.3718V13.3226L9.4298 12.2972L7.54446 11.2725L5.65855 12.2972ZM3.77246 13.3226L5.65826 12.2973L7.54407 13.3226L5.65826 14.3471L3.77246 13.3226ZM5.65788 22.5456L3.77197 21.5203V23.5705L5.65662 24.5951L3.77197 25.6198L5.65788 26.6446L7.54379 25.6198L5.65914 24.5951L7.54391 23.5705V21.5203L5.65788 22.5456Z" transform="translate(11.3169)" fill="black"/>
<path fill-rule="evenodd" clip-rule="evenodd" d="M0 2.05012L0.707017 2.43444L0 2.05034V4.09967V6.149L1.88534 7.17451V5.12439V3.0754V3.07506V1.0254L0 0V2.05012Z" transform="translate(0 21.5201)" fill="black"/>
<path fill-rule="evenodd" clip-rule="evenodd" d="M0 2.04842V2.04921V4.09808V4.09853V6.14741V6.1482V8.1973L1.88534 9.22269V7.17359V7.1728V5.12393V5.12348V3.07438L1.17832 2.6896L1.88534 3.07404V1.02461L0 0V2.04842Z" transform="translate(0 13.3227)" fill="black"/>
</svg>
