<?xml version="1.0" encoding="utf-8"?>
<!-- Generator: Adobe Illustrator 21.0.0, SVG Export Plug-In . SVG Version: 6.00 Build 0)  -->
<svg version="1.1" id="_x2014_лой_1" xmlns="http://www.w3.org/2000/svg" xmlns:xlink="http://www.w3.org/1999/xlink" x="0px"
	 y="0px" viewBox="0 0 1576 774.2" style="enable-background:new 0 0 1576 774.2;" xml:space="preserve">
<style type="text/css">
	.st0{fill-rule:evenodd;clip-rule:evenodd;fill:#9D9D9D;}
	.st1{fill-rule:evenodd;clip-rule:evenodd;fill:#FFFFFF;}
	.st2{fill:#FFFFFF;}
	.st3{fill:#9D9D9D;}
</style>
<g>
	<path class="st3" d="M1442.3,445.5c-18.6,0-35.6-14.3-35.6-43.1c0-28.8,16.9-43.1,35.6-43.1c18.6,0,35.5,14.3,35.5,43.1
		C1477.9,431.2,1460.9,445.5,1442.3,445.5 M1442.3,481.4c52.3,0,76.8-39,76.8-78.9c0-39.9-24.5-78.9-76.8-78.9
		c-52.3,0-76.7,39-76.7,78.9C1365.6,442.3,1390,481.4,1442.3,481.4"/>
	<path class="st3" d="M1576,343.2c0,6.6-2.2,12.1-6.7,16.8c-4.4,4.6-9.7,7-16,7c-6.2,0-11.6-2.4-16.1-7c-4.4-4.6-6.6-10.2-6.6-16.8
		c0-6.5,2.2-12.1,6.6-16.8c4.4-4.6,9.9-6.9,16.1-6.9c6.3,0,11.6,2.3,16,6.9C1573.7,331.1,1576,336.7,1576,343.2 M1572.9,343.2
		c0-5.7-2-10.5-5.8-14.6c-3.8-4-8.5-6.1-13.9-6.1c-5.4,0-10,2.1-13.9,6.1c-3.8,4.1-5.8,8.9-5.8,14.6c0,5.6,2,10.6,5.8,14.6
		c3.9,4.1,8.5,6.1,13.9,6.1c5.4,0,10.1-2,13.9-6.1C1570.9,353.7,1572.9,348.8,1572.9,343.2 M1567.9,355.2h-5.9l-8.7-9.6h-4.2v9.6
		h-4.3v-25h8.2c1.6,0,3,0.1,4.1,0.3c1,0.1,2,0.4,3.1,1c1.1,0.6,1.9,1.4,2.5,2.3c0.5,0.9,0.8,2,0.8,3.3c0,1.8-0.5,3.3-1.5,4.4
		c-1,1.2-2.3,2.2-4.1,2.8L1567.9,355.2z M1558.6,337.3c0-0.7-0.1-1.2-0.4-1.7c-0.2-0.6-0.6-1-1.2-1.3c-0.6-0.3-1.1-0.5-1.8-0.6
		c-0.6-0.1-1.4-0.2-2.3-0.2h-3.9v8.5h3.3c1.1,0,2-0.1,2.8-0.3c0.8-0.2,1.5-0.4,2-0.9c0.5-0.5,0.9-1,1.1-1.5
		C1558.5,338.9,1558.6,338.2,1558.6,337.3"/>
	<path class="st3" d="M400.3,361.2h11.5c17.2,0,19.7,9.6,19.7,17.1c0,6.4-1.8,17.3-19.7,17.3h-11.5V361.2z M360.1,478h40.1v-49.4
		h20.3c40.6,0,52.2-29.5,52.2-50.3c0-20.5-11.5-50.1-52.2-50.1h-60.4V478z"/>
	<polygon class="st3" points="491.4,478 531.6,478 531.6,418.1 580.3,418.1 580.3,478 620.5,478 620.5,328.2 580.3,328.2 
		580.3,382.2 531.6,382.2 531.6,328.2 491.4,328.2 	"/>
	<path class="st3" d="M716.9,446.4c-18.6,0-35.6-14.4-35.6-43.3c0-28.9,17-43.2,35.6-43.2c18.6,0,35.7,14.3,35.7,43.2
		C752.6,432,735.6,446.4,716.9,446.4 M716.9,482.3c52.5,0,77-39.2,77-79.2c0-40-24.6-79.2-77-79.2c-52.4,0-77,39.1-77,79.2
		C639.9,443.2,664.5,482.3,716.9,482.3"/>
	<path class="st3" d="M903.1,338.8c-5.7-4.3-21.1-14.8-43.6-14.8c-33.6,0-50.4,21-50.4,45.2c0,29.7,19.5,40.2,34.2,44.7
		c12.5,3.9,27.4,5.2,27.4,19.9c0,9-6.7,12.7-14.1,12.7c-11.9,0-24.4-8.6-35.7-19.9l-19.1,31.9c20.7,17.5,35.2,24,53.7,24
		c33.6,0,53.9-19.5,53.9-49.2c0-14.5-2.5-35.7-31.4-46.2c-13.7-5.1-30.3-4.7-30.3-17.1c0-5.4,2.9-12.8,14.9-12.8
		c10.2,0,19.3,6.8,26,13.3L903.1,338.8z"/>
	<path class="st3" d="M989.2,364l16.4,55.2h-32.8L989.2,364z M913.8,478h43l8-25.9h48.7l8,25.9h43l-51-149.8h-48.7L913.8,478z"/>
	<path class="st3" d="M1142.7,391.2v33h37.3c-3.3,15.4-15.8,25.2-32,25.2c-20.5,0-38.3-16-38.3-46c0-29.5,18-43.4,36.9-43.4
		c13.7,0,24.8,6.9,30.1,17.8l35.4-17.3c-5.1-9.8-21.7-36.4-66.6-36.4c-45.9,0-76,31.3-76,80.3c0,50.5,35.2,78.1,78.8,78.1
		c64.5,0,74.1-55.9,71.3-91.2H1142.7z"/>
	<path class="st3" d="M1279.7,395.6v-34.4h9.8c14.3,0,18.8,8.7,18.8,17.1c0,8.8-4.5,17.3-18.8,17.3H1279.7z M1239.6,478h40.1v-49.4
		l30.3,49.4h48.5l-40.1-59.9c13.5-5,30.1-16.7,30.1-45c0-6.8-1.6-44.9-49.5-44.9h-59.4V478z"/>
	<path class="st3" d="M0,383.9c0,0,51.7,0.6,75.1,5c74.5,14.2,77.4,88.4,77.4,88.4s-12.1,0.7-44.2,0.7C33.6,478.1,0,383.9,0,383.9"
		/>
	<path class="st3" d="M315.4,383.9c0,0-51.7,0.6-75.1,5c-74.5,14.2-77.4,88.4-77.4,88.4s12.1,0.7,44.2,0.7
		C281.8,478.1,315.4,383.9,315.4,383.9"/>
	<path class="st3" d="M157.9,343.5c14.9,0,27,12.6,27,28.2c0,15.6-12.1,28.2-27,28.2c-14.9,0-27-12.6-27-28.2
		C130.8,356.2,143,343.5,157.9,343.5"/>
	<path class="st3" d="M120.7,323.1c11.4,10,12.9,27.8,3.2,39.8c-9.6,11.9-26.7,13.4-38.1,3.4c-11.4-10.1-12.8-27.8-3.2-39.8
		C92.3,314.5,109.3,313,120.7,323.1"/>
	<path class="st3" d="M115.6,282.4c-0.5,15.5-13,27.7-28,27.2c-14.9-0.5-26.6-13.6-26-29.2c0.5-15.6,13-27.7,27.9-27.2
		C104.6,253.7,116.2,266.8,115.6,282.4"/>
	<path class="st3" d="M176,257.2c-13.5-6.6-19.4-23.4-13.1-37.5c6.3-14.2,22.4-20.3,35.9-13.7c13.6,6.5,19.4,23.3,13.1,37.4
		C205.6,257.7,189.6,263.8,176,257.2"/>
	<path class="st3" d="M141.6,254.7c-12.5,8.5-29.2,4.8-37.3-8.3c-8.2-13-4.6-30.5,7.9-39c12.5-8.5,29.2-4.8,37.4,8.2
		C157.7,228.7,154.1,246.2,141.6,254.7"/>
	<path class="st3" d="M201.4,292.1c-6.3-14.2-0.4-30.9,13.1-37.5c13.5-6.6,29.6-0.4,35.9,13.8c6.3,14.1,0.4,30.9-13.1,37.5
		C223.8,312.4,207.7,306.2,201.4,292.1"/>
	<path class="st3" d="M189.6,331.2c6.7-13.9,23-19.4,36.3-12.3c13.3,7.1,18.6,24.1,11.8,38c-6.8,13.9-23,19.4-36.4,12.3
		C188.1,362.1,182.8,345.1,189.6,331.2"/>
</g>
</svg>
