<?xml version="1.0" encoding="utf-8"?>
<!-- Generator: Adobe Illustrator 21.0.0, SVG Export Plug-In . SVG Version: 6.00 Build 0)  -->
<svg version="1.1" id="_x2014_лой_1" xmlns="http://www.w3.org/2000/svg" xmlns:xlink="http://www.w3.org/1999/xlink" x="0px"
	 y="0px" viewBox="0 0 1576 774.2" style="enable-background:new 0 0 1576 774.2;" xml:space="preserve">
<style type="text/css">
	.st0{fill-rule:evenodd;clip-rule:evenodd;fill:#9D9D9D;}
	.st1{fill-rule:evenodd;clip-rule:evenodd;fill:#FFFFFF;}
	.st2{fill:#FFFFFF;}
	.st3{fill:#9D9D9D;}
</style>
<path class="st3" d="M618.9,501.2V522h-6.7v-6.4c-1.7,4.1-6.5,7.1-12.9,7.1c-10.7,0-19-8.3-19-19.8c0-11.5,8.4-19.9,19.8-19.9
	c9.2,0,16.3,5.5,18.5,13.4h-8.4c-1.8-3.7-5.5-5.9-10.2-5.9c-7.1,0-11.9,5.2-11.9,12.5c0,7,4.3,12.5,11.8,12.5
	c5.2,0,9.6-2.8,10.9-7.7h-12.9v-6.6H618.9z"/>
<polygon class="st3" points="651.7,514.6 651.7,522 627.5,522 627.5,483.7 635.3,483.7 635.3,514.6 "/>
<path class="st3" d="M694.6,502.8c0,11.3-8.7,19.8-20,19.8c-11.3,0-19.9-8.6-19.9-19.8c0-11.3,8.7-19.8,19.9-19.8
	C685.9,483,694.6,491.6,694.6,502.8 M662.5,502.8c0,7.2,5.2,12.4,12,12.4c6.9,0,12.1-5.2,12.1-12.4c0-7.2-5.2-12.4-12.1-12.4
	C667.7,490.5,662.5,495.7,662.5,502.8"/>
<path class="st3" d="M731.5,510.9c0,7-5,11.1-12.9,11.1h-16.9v-38.3h16.8c7.1,0,11.7,3.4,11.7,10c0,3.8-1.7,6.1-4.8,7.7
	C729.5,502.7,731.5,506.4,731.5,510.9 M717.4,491.1h-7.9v7.7h8.2c3.2,0,4.7-1.3,4.7-3.9C722.3,492.2,720.7,491.1,717.4,491.1
	 M723.5,510.3c0-2.8-1.2-4.2-5.2-4.2h-8.9v8.5h8.9C722.4,514.6,723.5,512.9,723.5,510.3"/>
<path class="st3" d="M761.4,513h-15.5l-3.3,9h-8.3l14.3-38.3h9.9l14.3,38.3h-8.3L761.4,513z M758.6,505.5l-5-13.9l-5,13.9H758.6z"/>
<polygon class="st3" points="802.6,514.6 802.6,522 778.3,522 778.3,483.7 786.1,483.7 786.1,514.6 "/>
<rect x="824.7" y="483.7" class="st3" width="7.8" height="38.3"/>
<polygon class="st3" points="874,483.7 874,522 865,522 848.3,495.2 849.1,506 849.1,522 841.2,522 841.2,483.7 850.2,483.7 
	866.9,510.5 866.2,499.7 866.2,483.7 "/>
<polygon class="st3" points="914.3,483.7 901.6,522 891.8,522 879.2,483.7 887.5,483.7 896.7,512.8 906,483.7 "/>
<polygon class="st3" points="927.4,491.1 927.4,498.9 943.9,498.9 943.9,506.3 927.4,506.3 927.4,514.6 945.3,514.6 945.3,522 
	919.6,522 919.6,483.7 945.3,483.7 945.3,491.1 "/>
<path class="st3" d="M981.6,510.7c0,8.9-8.1,12-14.6,12c-11.2,0-15.8-6.4-16.7-13h7.9c1.1,3.8,3.3,5.7,8.8,5.7
	c4.4,0,6.7-1.7,6.7-4.4c0-2.8-2.7-3.2-9.4-4.7c-6.9-1.4-13-3.7-13-11.2c0-8,7.2-12,14.5-12c10.3,0,14.6,5.5,15.4,11.9h-7.9
	c-0.8-2.7-2.8-4.6-7.5-4.6c-4.7,0-6.6,2-6.6,4.4c0,2.2,1.9,2.8,6.9,3.9C976.4,500.8,981.6,503.1,981.6,510.7"/>
<polygon class="st3" points="1015.3,491.1 1004.2,491.1 1004.2,522 996.4,522 996.4,491.1 985.4,491.1 985.4,483.7 1015.3,483.7 "/>
<polygon class="st3" points="1058.2,483.7 1058.2,522 1050.3,522 1050.3,494.5 1039.7,510.7 1038.9,510.7 1028.3,494.5 1028.3,522 
	1020.5,522 1020.5,483.7 1029.5,483.7 1039.3,498.4 1049.1,483.7 "/>
<polygon class="st3" points="1074.9,491.1 1074.9,498.9 1091.4,498.9 1091.4,506.3 1074.9,506.3 1074.9,514.6 1092.8,514.6 
	1092.8,522 1067.1,522 1067.1,483.7 1092.8,483.7 1092.8,491.1 "/>
<polygon class="st3" points="1133.1,483.7 1133.1,522 1124.1,522 1107.4,495.2 1108.1,506 1108.1,522 1100.3,522 1100.3,483.7 
	1109.3,483.7 1126,510.5 1125.3,499.7 1125.3,483.7 "/>
<polygon class="st3" points="1168.2,491.1 1157.1,491.1 1157.1,522 1149.3,522 1149.3,491.1 1138.3,491.1 1138.3,483.7 
	1168.2,483.7 "/>
<path class="st3" d="M1215,522l-2.4-2.4c-3,1.9-6.6,3.1-10.8,3.1c-7.2,0-13.6-3.3-13.6-10.9c0-5,2.7-7.6,7.6-10.5
	c-2.7-3.4-3.6-5.7-3.6-8.2c0-6.9,5.7-10,11.3-10c5.8,0,11.1,3.4,11.1,9.9c0,5.1-3.6,8-7.7,10.4c1.4,1.6,3.2,3.4,5.3,5.6
	c0.5-1.3,1.1-2.8,1.4-4.6h7.9c-0.3,3.7-1.7,7.3-3.7,10.2c2.1,2.2,4.5,4.7,7.1,7.4H1215z M1207.6,514.3c-2.8-2.9-5.1-5.4-7-7.4
	c-3.2,1.7-4.5,2.8-4.5,4.6c0,2.4,2.2,4.1,6.2,4.1C1204.1,515.6,1205.9,515.2,1207.6,514.3 M1200.3,493.5c0,1.2,0.5,2.4,1.8,4.3
	c3.4-1.8,4.7-2.9,4.7-4.8c0-1.7-1.1-2.8-3.2-2.8C1201.6,490.1,1200.3,491.2,1200.3,493.5"/>
<polygon class="st3" points="609.1,568 598,568 598,598.9 590.2,598.9 590.2,568 579.2,568 579.2,560.6 609.1,560.6 "/>
<polygon class="st3" points="622.3,568 622.3,575.8 638.7,575.8 638.7,583.2 622.3,583.2 622.3,591.5 640.2,591.5 640.2,598.9 
	614.4,598.9 614.4,560.6 640.2,560.6 640.2,568 "/>
<path class="st3" d="M645.4,579.7c0-11.3,8.4-19.8,19.8-19.8c9.1,0,16.3,5.6,18.5,13.8h-8.4c-1.8-4-5.5-6.4-10.2-6.4
	c-7.1,0-11.9,5.2-11.9,12.4c0,7.2,4.8,12.4,11.9,12.4c4.7,0,8.4-2.4,10.2-6.4h8.4c-2.2,8.2-9.4,13.8-18.5,13.8
	C653.7,599.6,645.4,591,645.4,579.7"/>
<polygon class="st3" points="723,560.6 723,598.9 715.2,598.9 715.2,583 698.1,583 698.1,598.9 690.3,598.9 690.3,560.6 
	698.1,560.6 698.1,575.6 715.2,575.6 715.2,560.6 "/>
<polygon class="st3" points="775.1,568 764,568 764,598.9 756.2,598.9 756.2,568 745.2,568 745.2,560.6 775.1,560.6 "/>
<path class="st3" d="M792.6,585.1h-4.3v13.8h-7.8v-38.4h16.5c8.2,0,13.1,4.9,13.1,12.5c0,6.3-3.2,10.1-8.6,11.5l10.7,14.4h-9.6
	L792.6,585.1z M788.2,578.3h7.8c4.1,0,6-2,6-5.1c0-3.2-2-5.1-6-5.1h-7.8V578.3z"/>
<path class="st3" d="M843.2,589.9h-15.5l-3.3,9h-8.3l14.3-38.4h9.9l14.3,38.4h-8.3L843.2,589.9z M840.4,582.4l-5-13.9l-5,13.9H840.4
	z"/>
<polygon class="st3" points="892.8,560.6 892.8,598.9 883.7,598.9 867.1,572.1 867.8,582.9 867.8,598.9 859.9,598.9 859.9,560.6 
	868.9,560.6 885.6,587.4 884.9,576.6 884.9,560.6 "/>
<path class="st3" d="M930.7,587.6c0,8.9-8.1,12-14.6,12c-11.2,0-15.8-6.4-16.7-13h7.9c1.1,3.8,3.4,5.7,8.8,5.7
	c4.4,0,6.7-1.7,6.7-4.4c0-2.9-2.7-3.2-9.4-4.7c-6.9-1.4-13-3.7-13-11.2c0-8,7.2-12,14.5-12c10.3,0,14.6,5.5,15.5,11.9h-7.9
	c-0.8-2.7-2.8-4.6-7.5-4.6c-4.7,0-6.6,2-6.6,4.4c0,2.2,1.9,2.8,7,3.9C925.5,577.7,930.7,580,930.7,587.6"/>
<polygon class="st3" points="945.6,568 945.6,576.1 962.1,576.1 962.1,583.5 945.6,583.5 945.6,598.9 937.8,598.9 937.8,560.6 
	963.5,560.6 963.5,568 "/>
<polygon class="st3" points="977.8,568 977.8,575.8 994.2,575.8 994.2,583.2 977.8,583.2 977.8,591.5 995.7,591.5 995.7,598.9 
	970,598.9 970,560.6 995.7,560.6 995.7,568 "/>
<path class="st3" d="M1015.4,585.1h-4.3v13.8h-7.8v-38.4h16.5c8.2,0,13.1,4.9,13.1,12.5c0,6.3-3.2,10.1-8.6,11.5l10.8,14.4h-9.6
	L1015.4,585.1z M1011.1,578.3h7.8c4.1,0,6-2,6-5.1c0-3.2-2-5.1-6-5.1h-7.8V578.3z"/>
<path class="st3" d="M1086.8,573.5c0,8-5.4,13.1-13.6,13.1h-8.3v12.4h-7.8v-38.4h16.1C1081.4,560.6,1086.8,565.4,1086.8,573.5
	 M1078.9,573.6c0-3.4-2-5.5-6-5.5h-7.9v11h7.9C1076.9,579.1,1078.9,576.9,1078.9,573.6"/>
<polygon class="st3" points="1117.3,591.5 1117.3,598.9 1093.1,598.9 1093.1,560.6 1100.9,560.6 1100.9,591.5 "/>
<path class="st3" d="M1148.4,589.9h-15.5l-3.3,9h-8.3l14.3-38.4h9.9l14.3,38.4h-8.3L1148.4,589.9z M1145.7,582.4l-5-13.9l-5,13.9
	H1145.7z"/>
<polygon class="st3" points="1188.5,568 1177.5,568 1177.5,598.9 1169.6,598.9 1169.6,568 1158.6,568 1158.6,560.6 1188.5,560.6 "/>
<polygon class="st3" points="1201.7,568 1201.7,576.1 1218.1,576.1 1218.1,583.5 1201.7,583.5 1201.7,598.9 1193.8,598.9 
	1193.8,560.6 1219.6,560.6 1219.6,568 "/>
<path class="st3" d="M1263.5,579.7c0,11.3-8.7,19.8-20,19.8c-11.3,0-19.9-8.6-19.9-19.8c0-11.3,8.7-19.8,19.9-19.8
	C1254.8,559.9,1263.5,568.5,1263.5,579.7 M1231.5,579.7c0,7.2,5.2,12.4,12,12.4c6.9,0,12.1-5.2,12.1-12.4c0-7.2-5.2-12.4-12.1-12.4
	C1236.6,567.4,1231.5,572.6,1231.5,579.7"/>
<path class="st3" d="M1282.7,585.1h-4.3v13.8h-7.8v-38.4h16.5c8.2,0,13.1,4.9,13.1,12.5c0,6.3-3.2,10.1-8.6,11.5l10.7,14.4h-9.6
	L1282.7,585.1z M1278.4,578.3h7.8c4.1,0,6-2,6-5.1c0-3.2-2-5.1-6-5.1h-7.8V578.3z"/>
<polygon class="st3" points="1345.6,560.6 1345.6,598.9 1337.8,598.9 1337.8,571.4 1327.1,587.6 1326.4,587.6 1315.7,571.4 
	1315.7,598.9 1307.9,598.9 1307.9,560.6 1316.9,560.6 1326.7,575.3 1336.6,560.6 "/>
<path class="st3" d="M349.9,252v-77.4H157.2v193.1h77V484h231.6V252H349.9z M195.8,329.1V213.2h115.5V252h-77.2v77.1H195.8z
	 M311.3,329.1h-38.6v-38.5h38.6V329.1z M427.1,445.5H272.7v-77.7h77.1v-77.1h77.3V445.5z"/>
<path class="st3" d="M620.2,358v48.2h-37.3V252.8h117.7V358H620.2z M620.2,322.5h43.1v-34.2h-43.1V322.5z"/>
<path class="st3" d="M778.8,352.9h-11.6v53.3H730V252.8h68.4c32.4,0,52.6,19.3,52.6,51.3c0,24.6-11.8,39.2-30.7,45.4l40.3,56.8H815
	L778.8,352.9z M794.2,288.3h-27v32h27c12.9,0,19.1-5.3,19.1-15.8C813.3,293.8,806.7,288.3,794.2,288.3"/>
<polygon class="st3" points="949.3,357.1 949.3,406.2 912,406.2 912,357.6 858.8,252.8 900.6,252.8 930.7,315.2 960.7,252.8 
	1002.3,252.8 "/>
<polygon class="st3" points="1135.1,288.3 1093.2,288.3 1093.2,406.2 1056,406.2 1056,288.3 1014.3,288.3 1014.3,252.8 
	1135.1,252.8 "/>
<polygon class="st3" points="1189,288.3 1189,311.1 1251.3,311.1 1251.3,346.6 1189,346.6 1189,370.7 1257.4,370.7 1257.4,406.2 
	1151.7,406.2 1151.7,252.8 1257.4,252.8 1257.4,288.3 "/>
<polygon class="st3" points="1372.3,406.2 1321,336.7 1321,406.2 1283.8,406.2 1283.8,252.8 1321,252.8 1321,318.1 1369,252.8 
	1414.9,252.8 1359.6,326.9 1418.8,406.2 "/>
</svg>
