<?xml version="1.0" encoding="utf-8"?>
<!-- Generator: Adobe Illustrator 23.0.4, SVG Export Plug-In . SVG Version: 6.00 Build 0)  -->
<svg version="1.1" id="_x2014_лой_1" xmlns="http://www.w3.org/2000/svg" xmlns:xlink="http://www.w3.org/1999/xlink" x="0px"
	 y="0px" viewBox="0 0 1861.5 774.2" style="enable-background:new 0 0 1861.5 774.2;" xml:space="preserve">
<style type="text/css">
	.st0{fill-rule:evenodd;clip-rule:evenodd;fill:#9D9D9D;}
	.st1{fill-rule:evenodd;clip-rule:evenodd;fill:#FFFFFF;}
	.st2{fill:#FFFFFF;}
	.st3{fill:#9D9D9D;}
	.st4{fill:#AEAEAF;}
</style>
<g>
	<g>
		<path class="st3" d="M548.8,256.6v236.6h-48.3V256.6H548.8z"/>
		<path class="st3" d="M745.6,333.7v160c0,49.7-38.6,80.2-86,80.2c-45.7,0-79.7-28.3-83-68.3l48.1,0.3c2,17,16.9,24.3,36.6,24.3
			c18.6,0,36-9.9,36-35.9v-20.3c-12.3,8-28,12.7-45.7,12.7c-44,0-79.3-35.7-79.3-76.7c0-47.7,35.3-79.7,79.3-79.7
			c17.7,0,33.3,4.7,45.7,12.7v-8.7L745.6,333.7z M697.3,427.9v-39c-9.8-14.3-23.4-19-37-19c-23.7,0-40.2,15.8-40.2,39.9
			c0,17.8,16.4,37.1,40.2,37.1C673.9,446.9,687.5,442.2,697.3,427.9z"/>
		<path class="st3" d="M938,411.5c0,49.3-36.4,84.4-85.4,84.4c-49.3,0-85.7-35.1-85.7-84.4c0-48.9,36.4-84.7,85.7-84.7
			C901.6,326.9,938,362.6,938,411.5z M891.4,411.5c0-23.2-15.3-42-38.8-42c-23.8,0-39.1,18.8-39.1,42c0,23.8,15.3,41.6,39.1,41.6
			C876.2,453.2,891.4,435.4,891.4,411.5z"/>
		<path class="st3" d="M1237.5,334v159l-47.4,0.2v-9c-12.3,8-28,13-45.7,13c-44,0-79.3-37.3-79.3-83.3c0-46.3,35.3-83.7,79.3-83.7
			c17.7,0,33.3,5,45.7,13v-9L1237.5,334z M1190.2,438.1v-48.7c-10-14.2-23.9-18.1-37.8-18.1c-24.2,0-41,19.4-41,42.6
			c0,22.9,16.8,42.3,41,42.3C1166.3,456.2,1180.2,452.3,1190.2,438.1z"/>
		<path class="st3" d="M1432.1,406.9v86.3h-46.5v-80.8c0-26-13-39.7-36-39.7c-12,0-25.3,7-36.7,20.3v100.1h-47.6v-159h47.6v12
			c13-10.3,28-16,46-16C1401.2,330.2,1432.1,360.2,1432.1,406.9z"/>
		<g id="lINT7W_1_">
			<g>
				<polygon class="st3" points="478.5,493.1 429.3,493.1 397.3,374.2 328.5,493.1 273.6,493.1 379.8,309 362.7,245.1 219.5,493.2 
					164.5,493.2 346,178.7 394.2,178.7 415.3,256.8 464.9,256.8 431,315.8 				"/>
			</g>
		</g>
		<path class="st3" d="M1624.1,256.6v236.6h-48.3v-9c-12.3,8-28,13-45.7,13c-44,0-79.3-37.3-79.3-83.7c0-46,35.3-83.3,79.3-83.3
			c17.7,0,33.3,5,45.7,13v-86.7H1624.1z M1575.9,438.3v-49.1c-10.1-14.3-24.1-18.2-38-18.2c-24.4,0-41.3,19.5-41.3,42.6
			c0,23.4,16.9,42.9,41.3,42.9C1551.8,456.5,1565.8,452.6,1575.9,438.3z"/>
		<path class="st3" d="M1056.6,374.3c-10.5,1.3-35.2,2.5-49.6,22.4v96.6h-47.6V334.5h47.6v11.9c10.8-9.4,27.2-14.8,49.6-12.6"/>
	</g>
	<g>
		<path class="st3" d="M1665.5,261.2h-9.2v22h-5.4v-22h-9.2v-5h23.7V261.2z"/>
		<path class="st3" d="M1697,283.2h-5.4v-15.1l-7,11.1h-3.3v0l-7.1-11.2l0.1,15.2h-5.4v-27h3.8l10.2,16.3l10.2-16.3h3.8V283.2z"/>
	</g>
</g>
</svg>
