<svg id="Layer_1" enable-background="new 0 0 512 512" height="512" viewBox="0 0 512 512" width="512" xmlns="http://www.w3.org/2000/svg"><path d="m392 512h-272c-66.168 0-120-53.832-120-120v-169c0-66.168 53.832-120 120-120h80c11.046 0 20 8.954 20 20s-8.954 20-20 20h-80c-44.112 0-80 35.888-80 80v169c0 44.112 35.888 80 80 80h272c44.112 0 80-35.888 80-80v-115c0-11.046 8.954-20 20-20s20 8.954 20 20v115c0 66.168-53.832 120-120 120zm-63.204-164.602 33.355-25.512c8.773-6.71 10.446-19.263 3.735-28.036-6.71-8.773-19.263-10.445-28.037-3.735l-33.333 25.496c-28.565 21.787-68.467 21.788-97.055-.018l-95.355-72.512c-8.792-6.687-21.339-4.979-28.026 3.814-6.686 8.792-4.979 21.34 3.814 28.026l95.332 72.495c21.421 16.338 47.092 24.508 72.767 24.508 25.681-.001 51.365-8.175 72.803-24.526zm183.204-221.398c0-69.477-56.523-126-126-126s-126 56.523-126 126 56.523 126 126 126 126-56.523 126-126zm-40 0c0 47.42-38.58 86-86 86s-86-38.58-86-86 38.58-86 86-86 86 38.58 86 86zm-66 31v-62c0-11.046-8.954-20-20-20h-20c-11.046 0-20 8.954-20 20s8.954 20 20 20v42c0 11.046 8.954 20 20 20s20-8.954 20-20z"/></svg>