<?xml version="1.0" encoding="utf-8"?>
<!-- Generator: Adobe Illustrator 24.1.2, SVG Export Plug-In . SVG Version: 6.00 Build 0)  -->
<svg version="1.2" baseProfile="tiny" id="Layer_1" xmlns="http://www.w3.org/2000/svg" xmlns:xlink="http://www.w3.org/1999/xlink"
	 x="0px" y="0px" viewBox="0 0 436 300" overflow="visible" xml:space="preserve">
<g id="Layer_1_1_">
</g>
<g id="Background_Complete">
	<g>
		<g>
			<rect x="383.1" y="21.1" fill="#E1E1E1" width="35.9" height="37.4"/>
		</g>
		<g>
			<rect x="380.6" y="21.1" fill="#FAFAFA" width="35.9" height="37.4"/>
			<path fill="#E1E1E1" d="M416.5,58.5h-35.9V21.1h35.9V58.5z M380.6,58.5h35.9V21.2h-35.9V58.5z"/>
		</g>
		<g>
			<rect x="385.5" y="26.2" fill="#FAFAFA" width="26.2" height="27.3"/>
		</g>
		<g>
			<g>
				<path fill="#E1E1E1" d="M385.5,53.7c0,0-0.2,0.3-0.6,0.8c-0.4,0.4-1,1-1.7,1.7s-1.3,1.2-1.7,1.6c-0.4,0.4-0.7,0.7-0.8,0.6
					c0,0,0.2-0.3,0.6-0.7s1-1,1.7-1.7s1.3-1.2,1.7-1.6C385.1,53.9,385.4,53.7,385.5,53.7z"/>
			</g>
		</g>
		<g>
			<g>
				<path fill="#E1E1E1" d="M411.7,53.6c0,0,0.3,0.2,0.8,0.6c0.4,0.4,1,1,1.7,1.7s1.2,1.3,1.6,1.7s0.7,0.7,0.6,0.8
					c0,0-0.3-0.2-0.7-0.6c-0.4-0.4-1-1-1.7-1.7s-1.2-1.3-1.6-1.7C411.9,53.9,411.7,53.6,411.7,53.6z"/>
			</g>
		</g>
		<g>
			<g>
				<path fill="#E1E1E1" d="M411.6,26.2c0,0,0.2-0.3,0.6-0.8c0.4-0.4,1-1,1.7-1.7s1.3-1.2,1.7-1.6c0.4-0.4,0.7-0.7,0.8-0.6
					c0,0-0.2,0.3-0.6,0.7c-0.4,0.4-1,1-1.7,1.7s-1.3,1.2-1.7,1.6C411.9,26,411.6,26.3,411.6,26.2z"/>
			</g>
		</g>
		<g>
			<g>
				<path fill="#E1E1E1" d="M385.4,26.3c0,0-0.3-0.2-0.8-0.6c-0.4-0.4-1-1-1.7-1.7s-1.2-1.3-1.6-1.7c-0.4-0.4-0.7-0.7-0.6-0.8
					c0,0,0.3,0.2,0.7,0.6c0.4,0.4,1,1,1.7,1.7s1.2,1.3,1.6,1.7C385.2,26,385.4,26.3,385.4,26.3z"/>
			</g>
		</g>
		<g>
			<g>
				<path fill="#E1E1E1" d="M411.6,53.5C411.6,53.5,411.6,53.5,411.6,53.5c0-0.2,0-0.3,0-0.5c0-0.3,0-0.8,0-1.5c0-1.3,0-3.2,0-5.6
					c0-4.8,0-11.6-0.1-19.8l0.1,0.1c-7.6,0-16.6,0-26.2,0l0,0l0.1-0.1c0,10,0,19.4,0,27.3l-0.1-0.1c7.8,0,14.4,0,18.9,0.1
					c2.3,0,4.1,0,5.3,0c0.6,0,1.1,0,1.4,0c0.2,0,0.3,0,0.4,0C411.6,53.5,411.6,53.5,411.6,53.5s0,0-0.1,0s-0.2,0-0.4,0
					c-0.3,0-0.8,0-1.4,0c-1.2,0-3,0-5.3,0c-4.6,0-11.1,0-19,0.1h-0.1v-0.1c0-7.9,0-17.3,0-27.3v-0.1h0.1l0,0c9.6,0,18.5,0,26.2,0
					h0.1v0.1c0,8.2,0,15-0.1,19.8c0,2.4,0,4.3,0,5.5c0,0.6,0,1.1,0,1.5C411.6,53.2,411.6,53.3,411.6,53.5
					C411.6,53.5,411.6,53.5,411.6,53.5z"/>
			</g>
		</g>
		<g>
			<rect x="394.2" y="35.5" fill="#ECECEC" width="8.8" height="8.8"/>
		</g>
	</g>
	<g>
		<g>
			<g>
				<path fill="#ECECEC" d="M385.1,126.8c0,0-5.3-0.4-4.8,11.6s1.7,18.3,1.7,18.3s-0.2,2.6-2.2,2.1c-2.1-0.5-5.9-3.1-7.8-1.2
					c-2,2-1.3,5.1,1.3,8.7c2.6,3.6,8.1,11.7,8.6,12.5c0.5,0.7,0.7,2.1-0.8,1.9c-1.5-0.1-11.3-3.5-12.6,1.3
					c-1.3,4.8,7.7,13.6,8.6,14.6c1,1,1,1.6,0.6,2.2c-0.4,0.6-3.6-0.8-6.4-1.7c-2.8-0.8-6.3-1.3-6.8,1.5s3.4,11,18.2,19.6l7.1,3.5
					l6.7-4.3c13.8-10.1,16.9-18.6,16.1-21.4c-0.8-2.7-4.2-1.9-6.9-0.8c-2.7,1.1-5.8,2.9-6.2,2.3c-0.4-0.6-0.5-1.2,0.4-2.3
					s8.9-10.8,7.1-15.4c-1.8-4.6-11.2-0.3-12.6,0s-1.4-1.1-1-1.9c0.4-0.8,5-9.4,7.3-13.3c2.2-3.9,2.6-7,0.5-8.8
					c-2.1-1.7-5.7,1.2-7.7,1.9s-2.4-1.9-2.4-1.9s0.6-6.5-0.1-18.4s-6.1-11-6.1-11"/>
			</g>
			<g>
				<g>
					<path fill="#E1E1E1" d="M385.6,137.5c0,0,0,0.1,0,0.2c0,0.2,0,0.4,0.1,0.7c0,0.7,0.1,1.6,0.2,2.8c0.2,2.5,0.4,6,0.6,10.4
						c0.5,8.8,1.1,20.9,1.6,34.3c0.6,13.4,1.1,25.5,1.6,34.3c0.2,4.4,0.4,7.9,0.5,10.4c0.1,1.2,0.1,2.2,0.1,2.8c0,0.3,0,0.6,0,0.7
						c0,0.2,0,0.3,0,0.3s0-0.1,0-0.2c0-0.2,0-0.4-0.1-0.7c0-0.7-0.1-1.6-0.2-2.8c-0.2-2.5-0.4-6-0.6-10.4
						c-0.5-8.8-1.1-20.9-1.6-34.3c-0.6-13.4-1.1-25.5-1.6-34.3c-0.2-4.4-0.4-7.9-0.5-10.4c-0.1-1.2-0.1-2.2-0.1-2.8
						c0-0.3,0-0.6,0-0.7C385.6,137.5,385.6,137.5,385.6,137.5z"/>
				</g>
			</g>
			<g>
				<g>
					<path fill="#E1E1E1" d="M377.2,161.4c0,0,0.2,0.1,0.4,0.4c0.3,0.2,0.7,0.6,1.1,1.1c0.9,0.9,2.2,2.2,3.6,3.7
						c1.3,1.5,2.5,2.8,3.5,3.8c0.4,0.5,0.8,0.8,1.1,1.1c0.3,0.3,0.4,0.4,0.4,0.4s-0.2-0.1-0.4-0.4c-0.3-0.2-0.7-0.6-1.1-1.1
						c-0.9-0.9-2.2-2.3-3.5-3.8s-2.6-2.8-3.5-3.8c-0.4-0.4-0.8-0.8-1.1-1.1C377.4,161.6,377.2,161.4,377.2,161.4z"/>
				</g>
			</g>
			<g>
				<g>
					<path fill="#E1E1E1" d="M388,171.8c-0.1-0.1,2.5-2.8,5.8-6.1s5.9-5.9,6-5.9c0.1,0.1-2.5,2.8-5.8,6.1
						C390.7,169.2,388,171.8,388,171.8z"/>
				</g>
			</g>
			<g>
				<g>
					<path fill="#E1E1E1" d="M388,192.4c0,0,0.2-0.1,0.5-0.3c0.4-0.2,0.8-0.5,1.4-0.8c1.2-0.7,2.8-1.6,4.5-2.7
						c1.8-1.1,3.3-2.1,4.4-2.8c0.5-0.3,1-0.6,1.3-0.9c0.3-0.2,0.5-0.3,0.5-0.3s-0.1,0.2-0.4,0.4s-0.7,0.6-1.3,1
						c-1.1,0.8-2.6,1.8-4.4,2.9c-1.8,1.1-3.4,2-4.6,2.6c-0.6,0.3-1.1,0.5-1.4,0.7C388.2,192.3,388,192.4,388,192.4z"/>
				</g>
			</g>
			<g>
				<g>
					<path fill="#E1E1E1" d="M376.2,185.2c0,0,0.2,0.1,0.5,0.2c0.3,0.2,0.7,0.4,1.3,0.7c1.1,0.6,2.6,1.5,4.2,2.5s3.1,1.9,4.2,2.5
						c0.5,0.3,1,0.6,1.2,0.8c0.3,0.2,0.4,0.3,0.4,0.3s-0.2-0.1-0.5-0.2c-0.3-0.2-0.7-0.4-1.3-0.7c-1.1-0.6-2.6-1.5-4.2-2.5
						s-3.1-1.9-4.2-2.5c-0.5-0.3-1-0.6-1.2-0.8C376.3,185.3,376.2,185.2,376.2,185.2z"/>
				</g>
			</g>
			<g>
				<g>
					<path fill="#E1E1E1" d="M373.9,203.3c0,0,0.2,0.1,0.6,0.3s1,0.5,1.7,0.9c1.4,0.8,3.3,1.9,5.4,3.1c2.1,1.2,4,2.3,5.4,3.2
						c0.6,0.4,1.2,0.7,1.6,1c0.4,0.2,0.6,0.4,0.6,0.4s-0.2-0.1-0.6-0.3s-1-0.5-1.7-0.9c-1.4-0.8-3.3-1.9-5.4-3.1
						c-2.1-1.2-4-2.3-5.4-3.2c-0.6-0.4-1.2-0.7-1.6-1C374,203.5,373.8,203.4,373.9,203.3z"/>
				</g>
			</g>
			<g>
				<g>
					<path fill="#E1E1E1" d="M388.8,211.9c0,0,0.2-0.2,0.6-0.4c0.5-0.3,1-0.6,1.7-1.1c1.5-0.9,3.5-2.1,5.7-3.5s4.1-2.8,5.5-3.7
						c0.7-0.5,1.2-0.9,1.7-1.2c0.4-0.3,0.6-0.4,0.6-0.4s-0.2,0.2-0.6,0.5s-0.9,0.7-1.6,1.2c-1.4,1-3.3,2.4-5.5,3.8
						c-2.2,1.4-4.2,2.6-5.7,3.5c-0.7,0.4-1.3,0.8-1.8,1C389,211.8,388.8,211.9,388.8,211.9z"/>
				</g>
			</g>
		</g>
		<g>
			<g>
				<g>
					<polygon fill="#E1E1E1" points="399.5,224.2 379.8,224.2 386.2,272.8 393.1,272.8 					"/>
				</g>
			</g>
			<g>
				<g>
					<g>
						<path fill="#F5F5F5" d="M380.8,230.1c0,0,0,0.1,0.1,0.2c0.1,0.1,0.2,0.2,0.5,0.3c0.5,0.2,1.3,0.2,2.1-0.3
							c0.8-0.4,1.5-1.3,2.6-1.7s2.4-0.3,3.6,0.1c1.3,0.4,2.4,1,3.4,1.6s1.9,1.1,2.7,1.5c0.8,0.4,1.5,0.5,2,0.6c0.2,0,0.4,0,0.6,0
							c0.1,0,0.2,0,0.2,0c0-0.1-1.1-0.1-2.7-0.8c-0.8-0.4-1.7-0.9-2.7-1.5s-2.1-1.3-3.4-1.7s-2.7-0.5-3.8,0c-0.6,0.2-1,0.6-1.4,0.9
							c-0.4,0.3-0.8,0.6-1.1,0.9c-0.7,0.5-1.5,0.5-1.9,0.3C381,230.4,380.8,230.1,380.8,230.1z"/>
					</g>
				</g>
			</g>
			<g>
				<g>
					<g>
						<path fill="#F5F5F5" d="M381.5,239.1c0,0,0.2-0.2,0.5-0.5s0.8-0.7,1.6-1c0.7-0.3,1.7-0.5,2.7-0.4c1.1,0,2.2,0.3,3.4,0.5
							c1.2,0.2,2.4,0.3,3.5,0.1c1.1-0.1,2-0.4,2.8-0.8c0.7-0.3,1.3-0.7,1.7-1c0.4-0.3,0.5-0.5,0.5-0.5c0-0.1-0.8,0.6-2.3,1.3
							c-0.7,0.3-1.7,0.6-2.7,0.7c-1,0.1-2.2,0-3.4-0.2c-1.2-0.2-2.4-0.4-3.5-0.4s-2.1,0.2-2.8,0.5c-0.8,0.3-1.3,0.8-1.6,1.1
							c-0.1,0.2-0.2,0.3-0.3,0.4C381.6,239,381.5,239.1,381.5,239.1z"/>
					</g>
				</g>
			</g>
			<g>
				<g>
					<g>
						<path fill="#F5F5F5" d="M397.2,243.9c0,0-0.2-0.1-0.5-0.3c-0.4-0.1-0.9-0.3-1.6-0.3c-0.7-0.1-1.5,0-2.5,0.1
							c-0.9,0.1-1.9,0.4-2.9,0.6c-1,0.2-2,0.4-2.9,0.3c-0.9,0-1.7-0.2-2.3-0.5c-1.3-0.6-1.7-1.4-1.8-1.3c0,0,0.1,0.2,0.3,0.5
							c0.3,0.3,0.7,0.7,1.3,1c0.6,0.3,1.5,0.5,2.4,0.6s2-0.1,3-0.3s2-0.5,2.9-0.6c0.9-0.2,1.7-0.2,2.4-0.2
							C396.4,243.5,397.2,243.9,397.2,243.9z"/>
					</g>
				</g>
			</g>
			<g>
				<g>
					<g>
						<path fill="#F5F5F5" d="M383.3,250.6c0,0.1,0.7-0.4,1.9-0.2c0.6,0.1,1.3,0.4,2,0.7s1.6,0.6,2.6,0.7c1.9,0.2,3.7-0.4,4.7-1.1
							c0.5-0.3,0.9-0.7,1.2-0.9c0.2-0.3,0.4-0.4,0.3-0.4c0,0-0.6,0.5-1.6,1.1c-1.1,0.6-2.7,1.1-4.6,1s-3.3-1.2-4.6-1.4
							c-0.6-0.1-1.2,0-1.5,0.1C383.4,250.5,383.3,250.6,383.3,250.6z"/>
					</g>
				</g>
			</g>
			<g>
				<g>
					<g>
						<path fill="#F5F5F5" d="M384.4,259.9c0,0,0.7,0,1.6-0.3c1-0.3,2.2-1.1,3.6-1.7c0.7-0.3,1.4-0.4,2.1-0.4s1.2,0.2,1.7,0.4
							c0.9,0.4,1.2,1.1,1.2,1c0,0,0-0.2-0.2-0.4c-0.2-0.2-0.5-0.6-0.9-0.8c-0.5-0.3-1.1-0.5-1.8-0.5c-0.7,0-1.5,0.2-2.2,0.4
							c-1.5,0.6-2.7,1.4-3.6,1.7C385,259.8,384.4,259.9,384.4,259.9z"/>
					</g>
				</g>
			</g>
			<g>
				<g>
					<g>
						<path fill="#F5F5F5" d="M385.3,264.3c0,0,0.5,0.2,1.2,0.4c0.8,0.2,1.9,0.4,3.1,0.5s2.3,0.1,3.2,0.1c0.8,0,1.3-0.1,1.3-0.2
							s-2,0-4.4-0.3C387.3,264.7,385.4,264.2,385.3,264.3z"/>
					</g>
				</g>
			</g>
		</g>
	</g>
	<g>
		<g>
			<g>
				<g>
					
						<rect x="88.4" y="39.3" transform="matrix(1 -5.351795e-03 5.351795e-03 1 -0.2767 0.4875)" fill="#E1E1E1" width="5.1" height="25.3"/>
				</g>
			</g>
		</g>
		<g>
			<g>
				<g>
					<g>
						
							<rect x="44.3" y="39.4" transform="matrix(1 -5.355354e-03 5.355354e-03 1 -0.2478 0.2733)" fill="#ECECEC" width="13.2" height="14"/>
					</g>
				</g>
			</g>
			<g>
				<g>
					<g>
						
							<rect x="57.4" y="39.3" transform="matrix(1 -5.355392e-03 5.355392e-03 1 -0.247 0.3434)" fill="#F5F5F5" width="13.2" height="14"/>
					</g>
				</g>
			</g>
			<g>
				<g>
					<g>
						<g>
							<path fill="#E1E1E1" d="M44.3,43.3c8.8,0.1,17.5,0,26.3-0.1c0.2,0,0.2-0.3,0-0.3c-8.8,0-17.5,0-26.3,0.2
								C44.2,43.1,44.2,43.3,44.3,43.3L44.3,43.3z"/>
						</g>
					</g>
				</g>
			</g>
		</g>
		<g>
			<g>
				<g>
					<g>
						
							<rect x="36.1" y="53.2" transform="matrix(1 -5.358655e-03 5.358655e-03 1 -0.3149 0.2583)" fill="#ECECEC" width="23.9" height="11.4"/>
					</g>
				</g>
			</g>
			<g>
				<g>
					<g>
						
							<rect x="59.9" y="53" transform="matrix(1 -5.356181e-03 5.356181e-03 1 -0.3134 0.3857)" fill="#F5F5F5" width="23.9" height="11.4"/>
					</g>
				</g>
			</g>
			<g>
				<g>
					<g>
						<g>
							<path fill="#E1E1E1" d="M36.1,56.4c15.9,0.2,31.8,0,47.7-0.2c0.2,0,0.2-0.3,0-0.3c-15.9-0.1-31.8-0.1-47.7,0.3
								C36,56.2,36,56.4,36.1,56.4L36.1,56.4z"/>
						</g>
					</g>
				</g>
			</g>
		</g>
		<g>
			<g>
				<g>
					<rect x="27.2" y="64.6" fill="#E1E1E1" width="92.7" height="4.1"/>
				</g>
			</g>
			<g>
				<g>
					<rect x="42.3" y="66.6" fill="#E1E1E1" width="3.8" height="13.9"/>
				</g>
			</g>
			<g>
				<g>
					<rect x="98.5" y="66.6" fill="#E1E1E1" width="3.8" height="13.9"/>
				</g>
			</g>
		</g>
		<g>
			<g>
				<g>
					
						<rect x="93.4" y="29.9" transform="matrix(1 -5.351858e-03 5.351858e-03 1 -0.2518 0.5142)" fill="#ECECEC" width="5.1" height="34.8"/>
				</g>
			</g>
		</g>
		<g>
			<g>
				<g>
					<g>
						
							<rect x="98.5" y="36.4" transform="matrix(1 -5.361175e-03 5.361175e-03 1 -0.2693 0.55)" fill="#F5F5F5" width="7.9" height="28.2"/>
					</g>
				</g>
			</g>
			<g>
				<g>
					<g>
						<path fill="#E1E1E1" d="M106.3,41.8c0,0.1-1.8,0.1-4,0.1s-4-0.1-4-0.1c0-0.1,1.8-0.1,4-0.1S106.3,41.7,106.3,41.8z"/>
					</g>
				</g>
			</g>
			<g>
				<g>
					<g>
						<path fill="#E1E1E1" d="M106.3,40.6c0,0.1-1.8,0.1-4,0.1s-4-0.1-4-0.1c0-0.1,1.8-0.1,4-0.1S106.3,40.5,106.3,40.6z"/>
					</g>
				</g>
			</g>
			<g>
				<g>
					<g>
						<path fill="#E1E1E1" d="M106.3,60.3c0,0.1-1.8,0.1-4,0.1s-4-0.1-4-0.1c0-0.1,1.8-0.1,4-0.1S106.3,60.2,106.3,60.3z"/>
					</g>
				</g>
			</g>
			<g>
				<g>
					<g>
						<path fill="#E1E1E1" d="M106.3,59.1c0,0.1-1.8,0.1-4,0.1s-4-0.1-4-0.1c0-0.1,1.8-0.1,4-0.1S106.3,59.1,106.3,59.1z"/>
					</g>
				</g>
			</g>
			<g>
				<g>
					<g>
						<path fill="#E1E1E1" d="M102.5,56.5c-0.1,0-0.1-2.8-0.1-6.4c0-3.5,0.1-6.4,0.1-6.4c0.1,0,0.1,2.8,0.1,6.4
							S102.5,56.5,102.5,56.5z"/>
					</g>
				</g>
			</g>
		</g>
		<g>
			<g>
				<g>
					<rect x="106.4" y="43.3" fill="#ECECEC" width="8.6" height="21.3"/>
				</g>
			</g>
		</g>
		<g>
			<g>
				<circle fill="#E1E1E1" cx="95.8" cy="35.8" r="1.5"/>
			</g>
		</g>
		<g>
			<g>
				<rect x="95.3" y="39.8" fill="#E1E1E1" width="0.9" height="20.7"/>
			</g>
		</g>
	</g>
	<g>
		<g>
			<rect x="30.5" y="104" fill="#E1E1E1" width="35.9" height="37.4"/>
		</g>
		<g>
			<rect x="28.1" y="104" fill="#FAFAFA" width="35.9" height="37.4"/>
			<path fill="#E1E1E1" d="M64,141.4H28.1V104H64V141.4z M28.1,141.3H64V104H28.1V141.3z"/>
		</g>
		<g>
			<rect x="32.9" y="109" fill="#FAFAFA" width="26.2" height="27.3"/>
		</g>
		<g>
			<g>
				<path fill="#E1E1E1" d="M32.9,136.5c0,0-0.2,0.3-0.6,0.8c-0.4,0.4-1,1-1.7,1.7s-1.3,1.2-1.7,1.6c-0.4,0.4-0.7,0.7-0.8,0.6
					c0,0,0.2-0.3,0.6-0.7s1-1,1.7-1.7s1.3-1.2,1.7-1.6C32.6,136.7,32.9,136.5,32.9,136.5z"/>
			</g>
		</g>
		<g>
			<g>
				<path fill="#E1E1E1" d="M59.2,136.4c0,0,0.3,0.2,0.8,0.6c0.4,0.4,1,1,1.7,1.7s1.2,1.3,1.6,1.7c0.4,0.4,0.7,0.7,0.6,0.8
					c0,0-0.3-0.2-0.7-0.6c-0.4-0.4-1-1-1.7-1.7s-1.2-1.3-1.6-1.7C59.4,136.7,59.1,136.5,59.2,136.4z"/>
			</g>
		</g>
		<g>
			<g>
				<path fill="#E1E1E1" d="M59.1,109.1c0,0,0.2-0.3,0.6-0.8c0.4-0.4,1-1,1.7-1.7s1.3-1.2,1.7-1.6s0.7-0.7,0.8-0.6
					c0,0-0.2,0.3-0.6,0.7c-0.4,0.4-1,1-1.7,1.7s-1.3,1.2-1.7,1.6C59.4,108.8,59.1,109.1,59.1,109.1z"/>
			</g>
		</g>
		<g>
			<g>
				<path fill="#E1E1E1" d="M32.9,109.1c0,0-0.3-0.2-0.8-0.6c-0.4-0.4-1-1-1.7-1.7s-1.2-1.3-1.6-1.7c-0.4-0.4-0.7-0.7-0.6-0.8
					c0,0,0.3,0.2,0.7,0.6c0.4,0.4,1,1,1.7,1.7s1.2,1.3,1.6,1.7C32.7,108.8,32.9,109.1,32.9,109.1z"/>
			</g>
		</g>
		<g>
			<g>
				<path fill="#E1E1E1" d="M59.1,136.3c0,0,0,0,0-0.1s0-0.2,0-0.4c0-0.3,0-0.8,0-1.5c0-1.3,0-3.2,0-5.6c0-4.8,0-11.6-0.1-19.8
					l0.1,0.1c-7.6,0-16.6,0-26.2,0l0,0l0.1-0.1c0,10,0,19.4,0,27.3l-0.1-0.1c7.8,0,14.4,0,18.9,0.1c2.3,0,4.1,0,5.3,0
					c0.6,0,1.1,0,1.4,0c0.2,0,0.3,0,0.4,0C59.1,136.3,59.1,136.3,59.1,136.3S59.1,136.3,59.1,136.3c-0.2,0-0.3,0-0.5,0
					c-0.3,0-0.8,0-1.4,0c-1.2,0-3,0-5.3,0c-4.6,0-11.1,0-19,0.1h-0.1v-0.1c0-7.9,0-17.3,0-27.3v-0.1h0.1l0,0c9.6,0,18.5,0,26.2,0
					h0.1v0.1c0,8.2,0,15-0.1,19.8c0,2.4,0,4.3,0,5.5c0,0.6,0,1.1,0,1.5c0,0.2,0,0.3,0,0.4C59.1,136.3,59.1,136.3,59.1,136.3z"/>
			</g>
		</g>
		<g>
			<rect x="41.7" y="118.3" fill="#ECECEC" width="8.8" height="8.8"/>
		</g>
	</g>
</g>
<g id="Floor">
	<g>
		<path fill="#1A2E35" d="M416.1,273.1c0,0.1-88.8,0.2-198.3,0.2s-198.3-0.1-198.3-0.2s88.8-0.2,198.3-0.2S416.1,273,416.1,273.1z"
			/>
	</g>
</g>
<g id="Character_2">
	<g>
		<g>
			<g>
				<g>
					<polygon fill="#1A2E35" points="352,232.4 352,272.8 356.8,272.8 358.5,232.3 					"/>
					<polygon fill="#1A2E35" points="273.4,232.3 275.6,272.8 280.2,272.8 280.2,232.4 					"/>
					<path fill="#375A64" d="M348.9,235.4h-76.5c-3.6,0-6.5-2.9-6.5-6.5v-16.1c0-3.6,2.9-6.5,6.5-6.5h76.5c3.6,0,6.5,2.9,6.5,6.5
						v16.1C355.4,232.5,352.5,235.4,348.9,235.4z"/>
				</g>
				<path fill="#375A64" d="M359.5,193.2c1.1-8.1,1.9-16.8-1.9-23.9c-4-7.4-12.9-11.7-21.4-10.9c-8.4,0.8-16.1,6.1-20.6,13.3
					c-4.4,7.2-5.8,16.1-4.6,24.5"/>
			</g>
			<g>
				<path fill="#1A2E35" d="M318.6,225.1c0,0.1-10.2,0.2-22.8,0.2c-12.6,0-22.8-0.1-22.8-0.2c0-0.1,10.2-0.2,22.8-0.2
					C308.4,225,318.6,225,318.6,225.1z"/>
			</g>
			<g>
				<path fill="#FAFAFA" d="M318.9,225c0,0-1.9,1.7-4.4,3.7c-2.4,2-4.4,3.6-4.5,3.6c0,0,1.9-1.7,4.4-3.7
					C316.9,226.5,318.9,224.9,318.9,225z"/>
			</g>
			<g>
				<path fill="#FAFAFA" d="M310.2,215.5c0,0-6.1,4.4-13.6,9.7s-13.7,9.6-13.7,9.6s6.1-4.4,13.6-9.7S310.2,215.5,310.2,215.5z"/>
			</g>
			<g>
				<path fill="#FAFAFA" d="M289.4,215.1c0,0-4,3-8.9,6.5c-5,3.6-9,6.5-9,6.4c0,0,4-3,8.9-6.5C285.4,218,289.4,215.1,289.4,215.1z"
					/>
			</g>
			<g>
				<path fill="#FAFAFA" d="M280.1,208.8L280.1,208.8c-0.2,0.1-0.3,0.2-0.4,0.2c-0.3,0.2-0.7,0.4-1,0.6c-0.9,0.5-2.1,1.2-3.4,2.1
					c-1.3,0.9-2.4,1.7-3.2,2.4c-0.3,0.3-0.7,0.5-0.9,0.8c-0.1,0.1-0.2,0.1-0.3,0.2c-0.1,0-0.1,0.1-0.1,0.1s0,0,0.1-0.1
					s0.2-0.1,0.2-0.2c0.2-0.2,0.5-0.5,0.9-0.8c0.8-0.7,1.9-1.5,3.2-2.4c1.3-0.9,2.5-1.6,3.4-2.1c0.4-0.2,0.8-0.4,1.1-0.6
					C279.8,208.9,279.9,208.9,280.1,208.8C280.1,208.8,280.1,208.8,280.1,208.8z"/>
			</g>
		</g>
		<g>
			<path fill="#FAFAFA" d="M359,172c0,0-0.1,0.1-0.2,0.2c-0.1,0.1-0.3,0.3-0.5,0.4c-0.5,0.4-1.1,0.9-2,1.6c-1.7,1.3-4.1,3.1-6.8,4.9
				c-2.7,1.8-5.2,3.4-7.1,4.4c-0.9,0.5-1.7,1-2.2,1.2c-0.2,0.1-0.4,0.2-0.6,0.3c-0.1,0.1-0.2,0.1-0.2,0.1s0.1,0,0.2-0.1
				c0.2-0.1,0.4-0.2,0.6-0.3c0.6-0.3,1.3-0.8,2.2-1.3c1.8-1.1,4.4-2.6,7.1-4.5c2.7-1.8,5.1-3.6,6.8-4.9c0.8-0.6,1.5-1.2,2-1.6
				c0.2-0.2,0.4-0.3,0.5-0.4C358.9,172.1,359,172,359,172z"/>
		</g>
		<g>
			<path fill="#1A2E35" d="M345,162.9c0,0,0.1,0,0.2,0.1c0.2,0.1,0.4,0.2,0.7,0.4c0.6,0.4,1.4,1,2.2,1.9c1.7,1.8,3.5,4.8,4.2,8.6
				c0.8,3.7,0.6,7.1,0.4,9.6c-0.1,1.2-0.2,2.2-0.3,2.9c0,0.3-0.1,0.6-0.1,0.8s0,0.3-0.1,0.3c0,0,0-0.4,0.1-1.1
				c0.1-0.7,0.1-1.7,0.2-2.9c0.1-2.4,0.3-5.9-0.5-9.5c-0.8-3.7-2.5-6.7-4.1-8.5C346.3,163.6,344.9,162.9,345,162.9z"/>
		</g>
		<g>
			<path fill="#FAFAFA" d="M353.6,163.9C353.7,163.9,353.6,163.9,353.6,163.9c-0.2,0.1-0.2,0.2-0.3,0.3c-0.2,0.2-0.5,0.4-1,0.8
				c-0.8,0.6-2,1.5-3.3,2.3c-1.3,0.9-2.6,1.6-3.5,2c-0.5,0.2-0.8,0.4-1.1,0.6c-0.1,0.1-0.2,0.1-0.3,0.1c-0.1,0-0.1,0-0.1,0
				s0,0,0.1-0.1s0.2-0.1,0.3-0.2c0.3-0.2,0.7-0.4,1.1-0.6c0.9-0.5,2.1-1.2,3.4-2.1c1.3-0.8,2.5-1.7,3.3-2.3c0.4-0.3,0.7-0.5,1-0.7
				C353.4,164,353.5,164,353.6,163.9L353.6,163.9z"/>
		</g>
		<g>
			<g>
				<g>
					<g>
						<g>
							<g>
								<path fill="#D03652" d="M256,250l0.6,14.6c0,0-14.7,5.5-14.8,8.2l28.4-0.1v-22.9L256,250z"/>
							</g>
						</g>
					</g>
					<g>
						<g>
							<g>
								<g>
									<path fill="#1A2E35" d="M256.2,264.5c0,0.1,0.7,0.2,1.4,0.6c0.7,0.4,1.1,1,1.2,1s-0.1-0.9-0.9-1.4
										C257,264.2,256.1,264.4,256.2,264.5z"/>
								</g>
							</g>
						</g>
					</g>
					<g>
						<g>
							<g>
								<g>
									<path fill="#1A2E35" d="M253.2,265.7c0,0.1,0.6,0.4,1,1c0.5,0.6,0.6,1.2,0.8,1.2c0.1,0,0.2-0.8-0.4-1.5
										C254,265.7,253.2,265.6,253.2,265.7z"/>
								</g>
							</g>
						</g>
					</g>
					<g>
						<g>
							<g>
								<g>
									<path fill="#1A2E35" d="M251.5,269.3c0.1,0,0.3-0.7,0-1.4c-0.4-0.8-1-1.1-1.1-0.9c-0.1,0.1,0.3,0.5,0.6,1.1
										S251.4,269.3,251.5,269.3z"/>
								</g>
							</g>
						</g>
					</g>
					<g>
						<g>
							<g>
								<g>
									<path fill="#1A2E35" d="M256.4,261.1c0.1,0.1,0.7-0.1,1.5,0c0.8,0,1.4,0.3,1.5,0.2c0.1-0.1-0.5-0.6-1.4-0.7
										C257,260.6,256.3,261,256.4,261.1z"/>
								</g>
							</g>
						</g>
					</g>
				</g>
				<g>
					<g>
						<g>
							<g>
								<path fill="#1A2E35" d="M256.3,258.2c0,0.1,0.5,0.1,1.4,0c0.4-0.1,0.9-0.2,1.5-0.5c0.3-0.1,0.5-0.3,0.8-0.4
									c0.1-0.1,0.3-0.2,0.4-0.3c0.2-0.1,0.2-0.5,0.1-0.7s-0.4-0.3-0.6-0.3s-0.4,0-0.5,0.1c-0.3,0.1-0.6,0.2-0.9,0.3
									c-0.5,0.2-1,0.6-1.3,0.9c-0.7,0.6-0.9,1.1-0.8,1.2c0.1,0,0.4-0.4,1.1-0.9c0.3-0.3,0.8-0.5,1.3-0.7c0.3-0.1,0.5-0.2,0.8-0.3
									c0.3-0.1,0.6-0.1,0.6,0s0,0.1,0,0.2c-0.1,0.1-0.2,0.2-0.3,0.2c-0.3,0.2-0.5,0.3-0.8,0.4c-0.5,0.2-1,0.4-1.4,0.5
									C256.9,258.1,256.3,258.1,256.3,258.2z"/>
							</g>
						</g>
					</g>
				</g>
				<g>
					<g>
						<g>
							<g>
								<path fill="#1A2E35" d="M256.5,258.4c0,0,0.3-0.5,0.4-1.4c0-0.4,0-1-0.2-1.6c-0.1-0.3-0.2-0.6-0.4-0.9
									c-0.2-0.3-0.4-0.7-0.9-0.7c-0.3,0-0.5,0.2-0.6,0.4s-0.1,0.4-0.1,0.5c-0.1,0.3,0,0.7,0,1c0.1,0.6,0.3,1.1,0.6,1.5
									c0.6,0.7,1.1,0.9,1.2,0.9c0-0.1-0.4-0.3-0.9-1c-0.2-0.3-0.4-0.8-0.5-1.3c0-0.3,0-0.5,0-0.8s0.2-0.5,0.3-0.5s0.4,0.2,0.5,0.5
									c0.1,0.3,0.3,0.5,0.4,0.8c0.2,0.5,0.3,1,0.3,1.4C256.6,257.8,256.4,258.4,256.5,258.4z"/>
							</g>
						</g>
					</g>
				</g>
			</g>
			<path fill="#131819" d="M296.3,186.9l-32.9-5.2c-3.2-0.5-6.5,0.4-9.1,2.5l0,0c-2.7,2.3-4.3,5.7-4.1,9.2l2.3,59.8h20.3v-46.5
				l19.5,0.4l15.4-13.6l11.1-2l8.3-5.1L296.3,186.9z"/>
			<g>
				<path fill="#375A64" d="M272.8,195.1v0.1c0,0.1,0,0.3,0,0.4c0,0.4,0,1,0.1,1.7c0,1.5,0.1,3.6,0.1,6.2c0.1,5.3,0.1,12.5,0.1,20.6
					c0,8,0,15.3-0.1,20.6c0,2.6-0.1,4.8-0.1,6.2c0,0.7-0.1,1.3-0.1,1.7c0,0.2,0,0.3,0,0.4c0,0.1,0,0.1,0,0.1s0-0.1,0-0.2
					c0-0.1,0-0.3,0-0.4c0-0.4,0-1,0-1.7c0-1.5,0-3.6,0-6.2c0-5.3,0-12.6,0-20.6C272.9,208.4,272.8,196.8,272.8,195.1z"/>
			</g>
		</g>
		<g>
			<g>
				<g>
					<g>
						<g>
							<path fill="#D03652" d="M303,255.4l7.9,12.4c0,0-9.9,12.2-8.7,14.6l24.5-14.4l-11.5-19.8L303,255.4z"/>
						</g>
					</g>
				</g>
				<g>
					<g>
						<g>
							<g>
								<path fill="#1A2E35" d="M310.4,267.8c0.1,0.1,0.7-0.2,1.5-0.1c0.8,0,1.4,0.4,1.5,0.2c0.1-0.1-0.5-0.7-1.5-0.7
									C310.9,267.2,310.3,267.7,310.4,267.8z"/>
							</g>
						</g>
					</g>
				</g>
				<g>
					<g>
						<g>
							<g>
								<path fill="#1A2E35" d="M308.4,270.4c0,0.1,0.7,0,1.4,0.3c0.7,0.2,1.1,0.7,1.3,0.7c0.1,0-0.2-0.8-1.1-1.1
									C309.1,269.9,308.4,270.3,308.4,270.4z"/>
							</g>
						</g>
					</g>
				</g>
				<g>
					<g>
						<g>
							<g>
								<path fill="#1A2E35" d="M308.8,274.3c0.1,0-0.1-0.7-0.8-1.2c-0.7-0.5-1.4-0.4-1.4-0.3s0.6,0.3,1.1,0.7
									C308.3,273.9,308.7,274.4,308.8,274.3z"/>
							</g>
						</g>
					</g>
				</g>
				<g>
					<g>
						<g>
							<g>
								<path fill="#1A2E35" d="M308.9,264.8c0.1,0.1,0.6-0.4,1.3-0.8c0.7-0.4,1.4-0.4,1.4-0.6c0-0.1-0.8-0.3-1.6,0.2
									C309.1,264,308.8,264.8,308.9,264.8z"/>
							</g>
						</g>
					</g>
				</g>
			</g>
			<g>
				<g>
					<g>
						<g>
							<path fill="#1A2E35" d="M307.4,262.3c0,0.1,0.5-0.2,1.2-0.7c0.3-0.3,0.7-0.7,1.1-1.2c0.2-0.2,0.3-0.5,0.5-0.8
								c0.1-0.1,0.2-0.3,0.2-0.5c0.1-0.2-0.1-0.6-0.3-0.7c-0.2-0.1-0.5-0.1-0.7,0s-0.3,0.2-0.4,0.3c-0.2,0.2-0.4,0.5-0.6,0.7
								c-0.3,0.5-0.6,1-0.7,1.4C307.3,261.8,307.4,262.4,307.4,262.3c0.2,0.1,0.2-0.5,0.6-1.2c0.2-0.4,0.4-0.8,0.7-1.3
								c0.2-0.2,0.4-0.4,0.6-0.6s0.4-0.4,0.6-0.3c0.1,0,0.1,0,0.1,0.2c0,0.1-0.1,0.2-0.1,0.4c-0.1,0.3-0.3,0.5-0.4,0.8
								c-0.3,0.5-0.6,0.8-0.9,1.2C307.8,261.9,307.3,262.2,307.4,262.3z"/>
						</g>
					</g>
				</g>
			</g>
			<g>
				<g>
					<g>
						<g>
							<path fill="#1A2E35" d="M307.6,262.4c0.1,0,0-0.6-0.4-1.4c-0.2-0.4-0.5-0.8-1-1.2c-0.2-0.2-0.5-0.4-0.8-0.6s-0.7-0.4-1.1-0.2
								c-0.2,0.1-0.3,0.4-0.3,0.6s0.1,0.4,0.1,0.5c0.1,0.3,0.3,0.6,0.5,0.8c0.4,0.5,0.9,0.8,1.3,1c0.9,0.4,1.4,0.2,1.4,0.2
								c0-0.1-0.5-0.1-1.3-0.5c-0.4-0.2-0.8-0.5-1.1-0.9c-0.2-0.2-0.3-0.5-0.4-0.7c-0.1-0.3-0.1-0.6,0-0.6c0.1-0.1,0.4,0,0.7,0.1
								c0.3,0.1,0.5,0.3,0.7,0.5c0.4,0.4,0.7,0.7,1,1.1C307.4,261.9,307.5,262.4,307.6,262.4z"/>
						</g>
					</g>
				</g>
			</g>
		</g>
		<g>
			<g>
				<g>
					<g>
						<g>
							<path fill="#FFBF9D" d="M257.5,152.6l-9.5-4.8c-2.5-1.1-3.4-1.7-3.2-2.1c0.3-0.6,0.2-0.4,4.9,0.9c0,0-6.8-1.9-5-2.7
								c0.3-0.1,1.4,0,2.6,0.3c-1.7-0.6-2.4-1.2-2.3-1.6c0.2-0.8,4.3,0.2,6.1,0.7c-1.6-0.4-4.5-1.3-5.2-1.6c-0.8-0.5,0.3-0.9,1.3-1
								c1.2-0.1,8,0.6,9.9,0.7c1.4,0.1,1.3-1.1,1.3-1.1c-0.4-2.8,0.8-5.3,1.4-5.8s1.5,0.2,1.3,1.1c-0.2,0.7-0.2,2-0.1,2.9
								c0,0.8,0.2,1.5,0.5,2.3s0.7,1.5,1,2.1l7.8,7.7l-6.3,7.9L257.5,152.6z"/>
						</g>
					</g>
				</g>
			</g>
			<g>
				<g>
					<g>
						<g>
							<g>
								<g>
									<g>
										<path fill="#FF9A6C" d="M252.2,147.5c0,0.1-1.5-0.2-3.3-0.8c-1.8-0.5-3.2-1.1-3.2-1.2c0-0.1,1.5,0.2,3.3,0.8
											C250.8,146.9,252.2,147.4,252.2,147.5z"/>
									</g>
								</g>
							</g>
						</g>
					</g>
				</g>
			</g>
			<g>
				<g>
					<g>
						<g>
							<g>
								<g>
									<g>
										<path fill="#FF9A6C" d="M253.4,145.5c0,0.1-1.6-0.2-3.6-0.6c-1.9-0.5-3.5-0.9-3.5-1.1c0-0.1,1.6,0.2,3.6,0.6
											C251.9,144.9,253.5,145.4,253.4,145.5z"/>
									</g>
								</g>
							</g>
						</g>
					</g>
				</g>
			</g>
			<g>
				<g>
					<g>
						<g>
							<g>
								<g>
									<g>
										<path fill="#FF9A6C" d="M254.4,143.8c0,0.1-1.5-0.1-3.4-0.5c-1.8-0.4-3.3-0.8-3.3-1c0-0.1,1.5,0.1,3.4,0.5
											C253,143.3,254.4,143.7,254.4,143.8z"/>
									</g>
								</g>
							</g>
						</g>
					</g>
				</g>
			</g>
		</g>
		<g>
			<g>
				<g>
					<path fill="#191919" d="M299.5,86.9c2.4-0.7,4.9,1.4,7.4,0.9c1.5-0.3,2.6-1.5,4-2.3c2-1.1,4.8-1.3,6.9-0.3c2,1,3.4,2.2,3.7,4.4
						c1.9-1.1,5,1.3,6,3.5c1.1,2.3,0.8,4.6,0.2,7c-1,4.2-2.9,8.2-5.5,11.6c-0.2,0.3-0.6,0.6-0.9,0.5c-0.2-0.1-0.3-0.4-0.4-0.7
						c-0.4-2.2-0.1-4.5,0.1-6.7s0.3-4.6-0.4-6.7c-0.7-2.1-2.4-4.1-4.6-4.5c-1.6-0.3-3.3,0.2-4.8,1c-1.4,0.8-2.7,1.9-4.1,2.8
						s-2.9,1.7-4.6,1.8c-1.7,0.1-3.4-0.7-4.1-2.2s0.1-3.6,1.7-4c-1.5-0.1-2.8-1.4-2.9-2.9C297.1,88.9,298.1,87.3,299.5,86.9z"/>
				</g>
				<g>
					<g>
						<g>
							<g>
								<g>
									<g>
										<g>
											<g>
												<g>
													<g>
														<g>
															<g>
																<g>
																	<g>
																		<g>
																			<path fill="#FFBF9D" d="M324.2,101l-2.4,25.1c-0.4,4.3-4.9,10.6-9.1,10l0,0c-4-0.6-6.2-7.4-5.8-11.4
																				c0.2-1.9,0.3-3.5,0.3-3.7c0,0-6.3-1.2-6.2-7.6c0.1-3.1,0.7-9.4,1.4-15.1c0.7-6.1,6-10.7,12.2-10.5h0.6
																				C321.9,88.5,325,94.4,324.2,101z"/>
																		</g>
																	</g>
																</g>
															</g>
														</g>
													</g>
												</g>
											</g>
										</g>
										<g>
											<g>
												<g>
													<g>
														<g>
															<g>
																<g>
																	<g>
																		<g>
																			<path fill="#FF9A6C" d="M307.2,120.9c0,0,4,0.5,8.4-2.1c0,0-2.1,4.5-8.5,3.7L307.2,120.9z"/>
																		</g>
																	</g>
																</g>
															</g>
														</g>
													</g>
												</g>
											</g>
										</g>
									</g>
								</g>
							</g>
							<g>
								<g>
									<g>
										<g>
											<g>
												<g>
													<g>
														<g>
															<g>
																<g>
																	<g>
																		<g>
																			<g>
																				<g>
																					<g>
																						<path fill="#1A2E35" d="M304.1,102.7c0,0.5,0.3,0.9,0.8,0.9s0.9-0.3,1-0.8c0-0.5-0.3-0.9-0.8-0.9
																							C304.6,101.8,304.2,102.2,304.1,102.7z"/>
																					</g>
																				</g>
																			</g>
																		</g>
																	</g>
																</g>
															</g>
														</g>
													</g>
													<g>
														<g>
															<g>
																<g>
																	<g>
																		<g>
																			<g>
																				<g>
																					<g>
																						<g>
																							<path fill="#1A2E35" d="M303.7,101.5c0.1,0.1,0.8-0.4,1.8-0.3c1,0,1.7,0.6,1.8,0.4c0.1-0.1-0.1-0.3-0.4-0.5
																								s-0.8-0.5-1.4-0.5s-1.1,0.2-1.4,0.4C303.7,101.2,303.6,101.4,303.7,101.5z"/>
																						</g>
																					</g>
																				</g>
																			</g>
																		</g>
																	</g>
																</g>
															</g>
														</g>
													</g>
												</g>
												<g>
													<g>
														<g>
															<g>
																<g>
																	<g>
																		<g>
																			<g>
																				<g>
																					<g>
																						<path fill="#1A2E35" d="M313.7,103.3c0,0.5,0.3,0.9,0.8,0.9s0.9-0.3,1-0.8c0-0.5-0.3-0.9-0.8-0.9
																							S313.8,102.8,313.7,103.3z"/>
																					</g>
																				</g>
																			</g>
																		</g>
																	</g>
																</g>
															</g>
														</g>
													</g>
													<g>
														<g>
															<g>
																<g>
																	<g>
																		<g>
																			<g>
																				<g>
																					<g>
																						<g>
																							<path fill="#1A2E35" d="M313.3,102c0.1,0.1,0.8-0.4,1.8-0.3c1,0,1.7,0.6,1.8,0.4c0.1-0.1-0.1-0.3-0.4-0.5
																								s-0.8-0.5-1.4-0.5s-1.1,0.2-1.4,0.4C313.4,101.7,313.2,102,313.3,102z"/>
																						</g>
																					</g>
																				</g>
																			</g>
																		</g>
																	</g>
																</g>
															</g>
														</g>
													</g>
												</g>
												<g>
													<g>
														<g>
															<g>
																<g>
																	<g>
																		<g>
																			<g>
																				<g>
																					<g>
																						<path fill="#1A2E35" d="M309.5,109.1c0-0.1-0.6-0.2-1.6-0.3c-0.2,0-0.5-0.1-0.5-0.3c-0.1-0.2,0.1-0.4,0.2-0.7
																							c0.3-0.6,0.5-1.2,0.8-1.9c1.1-2.7,1.9-4.9,1.8-4.9s-1.1,2.1-2.2,4.8c-0.3,0.7-0.5,1.3-0.8,1.9
																							c-0.1,0.3-0.3,0.6-0.2,1c0.1,0.2,0.2,0.3,0.4,0.4c0.2,0.1,0.3,0.1,0.4,0.1
																							C308.9,109.2,309.5,109.2,309.5,109.1z"/>
																					</g>
																				</g>
																			</g>
																		</g>
																	</g>
																</g>
															</g>
														</g>
													</g>
												</g>
												<g>
													<g>
														<g>
															<g>
																<g>
																	<g>
																		<g>
																			<g>
																				<g>
																					<g>
																						<path fill="#1A2E35" d="M312.3,109.9c-0.2,0-0.2,1-1.1,1.8c-0.9,0.7-2.1,0.6-2.1,0.7s0.2,0.2,0.7,0.2
																							s1.2-0.1,1.7-0.5c0.6-0.4,0.8-1.1,0.9-1.5S312.4,109.9,312.3,109.9z"/>
																					</g>
																				</g>
																			</g>
																		</g>
																	</g>
																</g>
															</g>
														</g>
													</g>
												</g>
											</g>
										</g>
									</g>
									<g>
										<g>
											<g>
												<g>
													<g>
														<g>
															<g>
																<g>
																	<g>
																		<path fill="#1A2E35" d="M313.2,98.2c0.1,0.3,1.1,0.2,2.2,0.4c1.1,0.2,2.1,0.5,2.2,0.3c0.1-0.1-0.1-0.4-0.4-0.6
																			c-0.4-0.3-0.9-0.5-1.6-0.6s-1.3,0-1.7,0.1C313.4,97.8,313.1,98,313.2,98.2z"/>
																	</g>
																</g>
															</g>
														</g>
													</g>
												</g>
											</g>
										</g>
									</g>
									<g>
										<g>
											<g>
												<g>
													<g>
														<g>
															<g>
																<g>
																	<g>
																		<path fill="#1A2E35" d="M304.1,98.7c0.2,0.2,0.8,0,1.7,0c0.8,0,1.5,0.2,1.7,0c0.1-0.1,0-0.3-0.3-0.6
																			c-0.3-0.2-0.8-0.4-1.3-0.4c-0.6,0-1,0.2-1.3,0.4C304.2,98.3,304.1,98.6,304.1,98.7z"/>
																	</g>
																</g>
															</g>
														</g>
													</g>
												</g>
											</g>
										</g>
									</g>
								</g>
							</g>
						</g>
					</g>
				</g>
				<g>
					<g>
						<g>
							<g>
								<g>
									<g>
										<g>
											<g>
												<g>
													<g>
														<path fill="#FFBF9D" d="M323.5,105.7c0.1,0,4.4-1.1,4.1,3.2c-0.3,4.3-4.6,3.2-4.6,3
															C323.1,111.8,323.5,105.7,323.5,105.7z"/>
													</g>
												</g>
											</g>
										</g>
									</g>
								</g>
							</g>
						</g>
					</g>
					<g>
						<g>
							<g>
								<g>
									<g>
										<g>
											<g>
												<g>
													<g>
														<g>
															<path fill="#FF9A6C" d="M324.5,110.4c0,0,0.1,0.1,0.2,0.1c0.1,0.1,0.3,0.1,0.6,0c0.5-0.1,0.9-0.8,1-1.6
																c0-0.4,0-0.8-0.1-1.1c-0.1-0.3-0.3-0.6-0.5-0.6c-0.2-0.1-0.4,0.1-0.5,0.2s0,0.2-0.1,0.2c0,0-0.1-0.1,0-0.3
																c0-0.1,0.1-0.2,0.2-0.3c0.1-0.1,0.3-0.1,0.4-0.1c0.3,0,0.6,0.4,0.7,0.7c0.1,0.4,0.2,0.8,0.2,1.2
																c-0.1,0.9-0.6,1.7-1.2,1.8c-0.3,0.1-0.6-0.1-0.7-0.2C324.5,110.5,324.5,110.4,324.5,110.4z"/>
														</g>
													</g>
												</g>
											</g>
										</g>
									</g>
								</g>
							</g>
						</g>
					</g>
				</g>
				<g>
					<g>
						<path fill="#191919" d="M301.1,97c2.8,0.8,6,0.2,8.2-1.6c1.6-1.3,2.9-3.1,4.8-3.6c1.3-0.4,2.8,0,3.9,0.7
							c1.2,0.7,2.1,1.7,2.9,2.9c-1.3,3.2-0.6,6.8,0.1,10.2c0.1,0.4,0.2,0.8,0.5,1c0.5,0.4,1.3,0.1,1.7-0.3c0.7-0.7,1.1-1.8,1.3-2.8
							c0.5-2.3,0.6-4.7,0.2-7.1c-0.4-2.3-1.5-4.6-3.1-6.3c-2.1-2.1-5-3.3-8-3.3c-3-0.1-5.9,1-8.3,2.7c-1.1,0.8-2.2,1.8-2.8,3"/>
					</g>
				</g>
			</g>
			<g>
				<g>
					<path fill="#FF9A6C" d="M316.4,106.3c0.1,0,0.1,0,0.1-0.1s0-0.1-0.1-0.1s-0.1,0-0.1,0.1C316.3,106.2,316.3,106.3,316.4,106.3z"
						/>
				</g>
			</g>
			<g>
				<g>
					<path fill="#FF9A6C" d="M314.5,105.8c0.1,0,0.1,0,0.1-0.1s0-0.1-0.1-0.2c-0.1,0-0.1,0-0.1,0.1
						C314.5,105.7,314.5,105.8,314.5,105.8z"/>
				</g>
			</g>
			<g>
				<g>
					<path fill="#FF9A6C" d="M313.3,105.7c0.1,0,0.1-0.1,0.1-0.2s0-0.2-0.1-0.2s-0.1,0.1-0.1,0.2
						C313.2,105.6,313.2,105.7,313.3,105.7z"/>
				</g>
			</g>
			<g>
				<g>
					<path fill="#FF9A6C" d="M315.4,107.4c0.1,0,0.1,0,0.1-0.1c0,0,0-0.1-0.1-0.1s-0.1,0-0.1,0.1S315.4,107.4,315.4,107.4z"/>
				</g>
			</g>
			<g>
				<g>
					<path fill="#FF9A6C" d="M313.7,107c0.1,0,0.1,0,0.1-0.1s0-0.1-0.1-0.1s-0.1,0-0.1,0.1L313.7,107z"/>
				</g>
			</g>
			<g>
				<g>
					<path fill="#FF9A6C" d="M304.9,105.6c0.1,0,0.1,0,0.1-0.1s0-0.1-0.1-0.1s-0.1,0-0.1,0.1C304.8,105.5,304.8,105.6,304.9,105.6z"
						/>
				</g>
			</g>
			<g>
				<g>
					<path fill="#FF9A6C" d="M303.6,105.4c0.1,0,0.1,0,0.1-0.1s0-0.1-0.1-0.1s-0.1,0-0.1,0.1S303.5,105.4,303.6,105.4z"/>
				</g>
			</g>
			<g>
				<g>
					<path fill="#FF9A6C" d="M306,105.7c0.1,0,0.1,0,0.1-0.1s0-0.1-0.1-0.1s-0.1,0-0.1,0.1C305.9,105.6,305.9,105.6,306,105.7z"/>
				</g>
			</g>
			<g>
				<g>
					<path fill="#FF9A6C" d="M305,106.9c0.1,0,0.1,0,0.2-0.1c0-0.1,0-0.1,0-0.2c-0.1,0-0.1,0-0.2,0.1S304.9,106.9,305,106.9z"/>
				</g>
			</g>
			<g>
				<g>
					<path fill="#FF9A6C" d="M303.9,106.6c0.1,0,0.1-0.1,0.1-0.1l-0.1-0.1c-0.1,0-0.1,0.1-0.1,0.1
						C303.8,106.6,303.9,106.7,303.9,106.6z"/>
				</g>
			</g>
		</g>
		<g>
			<path fill="#131819" d="M318.7,191.1c-0.5,0-34.3,4-39.6,7c-2.9,1.6-2.7,4.5-3.1,5.7c-1.8,4.8-0.3,9.7,2.2,14.1l24.8,43.2
				l15.7-10.6L302.9,216l24.2-2.4c5.5-0.8,9.9-4.9,11-10.2l2.9-13.3L318.7,191.1z"/>
			<g>
				<path fill="#375A64" d="M318.7,250.7c-0.1,0-4.6-9.7-10.1-21.7s-9.9-21.8-9.8-21.8s4.6,9.7,10.1,21.7
					C314.4,240.9,318.7,250.6,318.7,250.7z"/>
			</g>
			<g>
				<path fill="#375A64" d="M318.7,193.2c0,0-0.1,0-0.2,0s-0.3,0-0.5,0c-0.4,0-1,0.1-1.8,0.1c-1.6,0.1-3.8,0.3-6.5,0.5
					c-5.5,0.5-13.1,1-21.5,1.8c-1.1,0.1-2.1,0.2-3.1,0.3c-0.5,0.1-1,0.1-1.5,0.2c-0.5,0.1-1,0.3-1.4,0.4c-1.8,0.7-3.5,1.8-4.6,3.2
					c-0.6,0.7-1,1.5-1.4,2.2c-0.3,0.8-0.6,1.6-0.7,2.4c-0.3,1.6-0.3,3.1-0.1,4.5c0.3,2.7,1,4.9,1.6,6.3c0.3,0.7,0.5,1.3,0.7,1.6
					c0.1,0.2,0.1,0.3,0.2,0.4c0,0.1,0.1,0.1,0.1,0.1s0,0-0.1-0.1s-0.1-0.2-0.2-0.4c-0.2-0.4-0.5-0.9-0.8-1.6
					c-0.6-1.4-1.3-3.6-1.7-6.3c-0.2-1.4-0.2-2.9,0.1-4.5c0.1-0.8,0.4-1.6,0.7-2.4c0.4-0.8,0.8-1.6,1.4-2.3c1.2-1.5,2.8-2.6,4.7-3.3
					c0.5-0.2,0.9-0.4,1.5-0.4c0.5-0.1,1-0.1,1.5-0.2c1-0.1,2.1-0.2,3.1-0.3c8.4-0.8,16-1.3,21.6-1.7c2.7-0.2,5-0.3,6.5-0.4
					c0.8,0,1.4-0.1,1.8-0.1C318.3,193.2,318.4,193.2,318.7,193.2C318.6,193.2,318.7,193.2,318.7,193.2z"/>
			</g>
		</g>
		<g>
			<path fill="#D03652" d="M335.3,169.1l1.3-40.7l-12.8-2.7l-1.4-2.3l-8.6,5.5l-1.7,3.9l-2.1-4.4l-3.1-2.4l-1.4,2.8l-9.6,4
				c-0.9,0.4-1.6,1-2.1,1.9L283,156.3L263.7,143l-5.9,10.5l22.2,18.9c4.1,2.6,9.6,1.6,12.5-2.5l5.7-8.1l2.4,13.6l0.4,13.8l16.7,3.1
				l23.4-2.2L335.3,169.1z"/>
			<path fill="#D03652" d="M336.6,128.4c0,0-8,2.4-8.6,10.5s-0.9,31.2-0.9,31.2s-1.2,0.9-0.9,1.9c0.3,0.9-23,14-23,14l4.7,8.1
				c0,0,14.8-1.8,31.5-10.5c8.5-4.5,5.2-39.4,5-39.8C344.1,143.3,342,128.4,336.6,128.4z"/>
			<g>
				<path fill="#1A2E35" d="M300.5,175.5c0,0,0-0.1-0.1-0.3c-0.1-0.3-0.1-0.6-0.2-1c-0.2-0.9-0.4-2.1-0.7-3.7
					c-0.3-1.6-0.6-3.4-1-5.4c-0.2-1-0.4-2.1-0.6-3.2c-0.1-1.1-0.3-2.3-0.5-3.5c-0.6-4.7-1.2-9-1.6-12.2c-0.2-1.5-0.3-2.8-0.4-3.7
					c0-0.4-0.1-0.7-0.1-1c0-0.2,0-0.4,0-0.4s0,0.1,0.1,0.3c0,0.3,0.1,0.6,0.2,1c0.1,0.9,0.3,2.2,0.5,3.7c0.4,3.2,1,7.4,1.7,12.2
					c0.2,1.2,0.3,2.4,0.5,3.5s0.4,2.2,0.6,3.2c0.3,2,0.7,3.9,0.9,5.5c0.2,1.5,0.4,2.8,0.6,3.7c0.1,0.4,0.1,0.7,0.1,1
					C300.5,175.4,300.5,175.5,300.5,175.5z"/>
			</g>
			<g>
				<path fill="#1A2E35" d="M307.8,194.1c0,0,0,0-0.1-0.1s-0.1-0.2-0.2-0.4c-0.2-0.4-0.5-0.9-0.9-1.6c-0.8-1.4-2-3.4-3.5-6H303h0.1
					c3-1.2,6.5-3.1,10.3-5.6s8-5.6,12.8-8.1l-0.1,0.2c-0.6-1.1,0.1-2.8,1.5-2.9l-0.1,0.1c0.1-0.6,0.2-1.2,0.2-1.9
					c0.7-5.7,0.9-11.2,0.6-16.2c-0.1-2.5-0.3-4.9-0.5-7.1c-0.1-2.2-0.1-4.3,0.1-6.2c0.3-1.9,0.8-3.5,1.5-4.9
					c0.7-1.3,1.5-2.4,2.3-3.1c0.8-0.7,1.5-1.2,2-1.4c0.2-0.1,0.4-0.2,0.6-0.3c0.1-0.1,0.2-0.1,0.2-0.1c0,0.1-1.1,0.4-2.7,1.9
					c-0.8,0.7-1.5,1.8-2.2,3.1s-1.2,3-1.4,4.8c-0.3,1.9-0.2,3.9-0.1,6.2c0.2,2.2,0.4,4.6,0.5,7.1c0.2,5,0.1,10.5-0.6,16.3
					c-0.1,0.6-0.2,1.3-0.2,1.9v0.1h-0.1c-1.1,0.1-1.8,1.6-1.3,2.5l0.1,0.1l-0.1,0.1c-4.8,2.5-9,5.6-12.8,8.1s-7.4,4.5-10.4,5.6v-0.1
					c1.4,2.6,2.6,4.6,3.4,6c0.4,0.7,0.7,1.2,0.9,1.6c0.1,0.2,0.2,0.3,0.2,0.4C307.8,194.1,307.8,194.1,307.8,194.1z"/>
			</g>
			<g>
				<path fill="#1A2E35" d="M330.4,176.3c-0.1,0-0.5-1.4-1.7-2.6c-1.2-1.2-2.6-1.7-2.6-1.7s0.4,0,0.9,0.2s1.2,0.7,1.9,1.3
					c0.6,0.6,1,1.4,1.2,1.9C330.4,176,330.5,176.3,330.4,176.3z"/>
			</g>
			<g>
				<path fill="#1A2E35" d="M331.6,174.3c-0.1,0-0.5-1.4-1.7-2.6c-1.1-1.3-2.5-1.9-2.4-1.9c0-0.1,1.5,0.4,2.7,1.7
					C331.4,172.8,331.7,174.3,331.6,174.3z"/>
			</g>
			<g>
				<path fill="#1A2E35" d="M339.3,183.6c0,0-0.1,0.1-0.3,0.2c-0.2,0.1-0.5,0.3-0.9,0.4c-0.7,0.4-1.8,0.9-3.2,1.5
					c-2.7,1.2-6.5,2.8-10.8,4.3s-8.2,2.7-11.1,3.3c-1.5,0.3-2.6,0.5-3.5,0.6c-0.4,0-0.7,0.1-1,0.1c-0.2,0-0.3,0-0.3,0s0.1,0,0.3-0.1
					c0.2,0,0.6-0.1,0.9-0.2c0.8-0.1,2-0.4,3.4-0.7c2.9-0.7,6.8-1.9,11.1-3.4c4.3-1.5,8-3.1,10.8-4.2c1.3-0.6,2.4-1,3.2-1.4
					c0.4-0.1,0.6-0.3,0.9-0.4C339.1,183.7,339.3,183.6,339.3,183.6z"/>
			</g>
			<g>
				<path fill="#1A2E35" d="M309.3,128.5c0,0-0.1,0.1-0.2,0.3s-0.2,0.5-0.3,0.9c-0.2,0.8-0.5,1.8-0.6,3.1v0.4l-0.2-0.4
					c0,0,0-0.1-0.1-0.1c-0.7-1.1-1.2-2.1-1.6-2.8c-0.5-0.7-0.8-1-0.8-1.1c0,0,0.4,0.3,1,1c0.5,0.7,1.1,1.7,1.7,2.8
					c0,0,0,0.1,0.1,0.1l-0.3,0.1c0.1-1.3,0.4-2.3,0.7-3.1c0.1-0.4,0.3-0.7,0.4-0.9S309.3,128.5,309.3,128.5z"/>
			</g>
			<g>
				<path fill="#1A2E35" d="M322.5,126.9c0,0-0.7,0.5-1.8,1.4c-1.1,0.9-2.4,2.2-3.7,3.9c-0.5,0.7-1,1.4-1.4,2l-0.2,0.3l-0.1-0.3
					c-0.5-1.4-0.9-2.7-1.2-3.5c-0.3-0.9-0.4-1.4-0.4-1.4s0.2,0.5,0.6,1.3c0.3,0.9,0.8,2.1,1.3,3.5h-0.3c0.4-0.7,0.9-1.4,1.4-2.1
					c1.3-1.7,2.7-3,3.8-3.9c0.6-0.4,1-0.7,1.4-0.9C322.3,127,322.5,126.9,322.5,126.9z"/>
			</g>
			<g>
				<path fill="#1A2E35" d="M313.7,171.3c0,0,0-0.1-0.1-0.4c0-0.3-0.1-0.6-0.1-1.1c-0.1-0.9-0.2-2.3-0.4-3.9c-0.3-3.3-0.7-7.9-1-13
					s-0.5-9.7-0.6-13c0-1.7-0.1-3-0.1-3.9c0-0.4,0-0.8,0-1.1c0-0.2,0-0.4,0-0.4s0,0.1,0,0.4c0,0.3,0,0.6,0.1,1.1
					c0,1,0.1,2.3,0.2,3.9c0.1,3.3,0.4,7.9,0.7,13c0.3,5.1,0.6,9.6,0.9,13c0.1,1.6,0.2,3,0.3,3.9c0,0.4,0.1,0.8,0.1,1.1
					C313.7,171.2,313.7,171.3,313.7,171.3z"/>
			</g>
			<g>
				<path fill="#1A2E35" d="M325.5,161.3c0,0-0.2,0.3-0.5,0.7c-0.4,0.4-0.9,1-1.6,1.7c-1.4,1.4-3.3,3.4-5.6,5.3
					c-2.3,2-4.5,3.6-6.2,4.6c-0.8,0.5-1.5,1-2,1.3s-0.7,0.4-0.8,0.4c0,0,0.2-0.2,0.7-0.5s1.2-0.8,1.9-1.3c1.6-1.1,3.8-2.8,6.1-4.7
					c2.3-1.9,4.3-3.8,5.7-5.2c0.7-0.7,1.2-1.2,1.6-1.7C325.3,161.5,325.5,161.3,325.5,161.3z"/>
			</g>
			<g>
				<path fill="#1A2E35" d="M311.8,181c-0.1,0-0.1-1.7-0.1-3.8s0.1-3.8,0.2-3.8s0.1,1.7,0.1,3.8S311.9,181,311.8,181z"/>
			</g>
			<g>
				<path fill="#1A2E35" d="M283.8,165c-0.1,0,0.5-2,0.1-4.5c-0.3-2.5-1.3-4.3-1.2-4.4c0,0,0.3,0.4,0.7,1.2c0.3,0.8,0.7,1.9,0.9,3.2
					c0.2,1.3,0.1,2.4-0.1,3.3C284.1,164.5,283.9,165,283.8,165z"/>
			</g>
		</g>
		<g>
			<path fill="#375A64" d="M319.4,235.4c-2.5-11.1,1.8-30.1,9.6-38.2c7.9-8.2,20-12,31.1-9.9V236L319.4,235.4z"/>
			<g>
				<path fill="#FAFAFA" d="M360,214.9c0,0-7.7,4.6-17.3,10.3c-9.6,5.7-17.4,10.2-17.4,10.2s7.7-4.6,17.3-10.3
					C352.2,219.4,359.9,214.9,360,214.9z"/>
			</g>
			<g>
				<path fill="#FAFAFA" d="M360,198.3c0,0-0.1,0.1-0.4,0.3s-0.7,0.4-1.2,0.7c-1.1,0.6-2.5,1.5-4.4,2.7c-3.7,2.2-8.8,5.3-14.4,8.7
					c-5.7,3.4-10.8,6.4-14.6,8.5c-1.9,1.1-3.4,1.9-4.5,2.5c-0.5,0.3-0.9,0.5-1.2,0.7c-0.3,0.2-0.4,0.2-0.4,0.2s0.1-0.1,0.4-0.2
					c0.3-0.2,0.7-0.4,1.2-0.7c1.1-0.6,2.6-1.5,4.4-2.5c3.7-2.1,8.9-5.2,14.5-8.5c5.6-3.4,10.7-6.4,14.5-8.6c1.8-1.1,3.3-2,4.4-2.6
					c0.5-0.3,0.9-0.5,1.2-0.7C359.8,198.4,360,198.3,360,198.3z"/>
			</g>
			<g>
				<path fill="#FAFAFA" d="M354.7,187.5c0,0-0.1,0.1-0.3,0.2c-0.2,0.1-0.5,0.3-0.8,0.5c-0.8,0.4-1.8,1-3.1,1.7
					c-2.7,1.4-6.3,3.4-10.4,5.5c-7.8,4.1-13.3,7-14.7,7.8c0,0,0.1-0.1,0.3-0.2c0.2-0.1,0.5-0.3,0.8-0.5c0.8-0.4,1.8-1,3.1-1.7
					c2.7-1.4,6.3-3.4,10.4-5.5C347.8,191.2,353.3,188.3,354.7,187.5z"/>
			</g>
			<g>
				<path fill="#1A2E35" d="M359.1,187.6c0,0-0.1,0-0.2,0s-0.3,0-0.6,0c-0.5,0-1.2-0.1-2.1-0.2c-1.8-0.1-4.5-0.2-7.8,0.3
					c-0.4,0.1-0.8,0.1-1.3,0.2c-0.4,0.1-0.9,0.2-1.3,0.3c-0.9,0.2-1.8,0.4-2.7,0.7c-1.9,0.6-3.8,1.3-5.8,2.3c-1.9,1-3.9,2.2-5.7,3.8
					c-1.8,1.5-3.5,3.4-5,5.4c-1.5,2.1-2.6,4.2-3.6,6.4s-1.8,4.3-2.4,6.4c-0.6,2.1-1,4.1-1.4,6.1c-0.3,1.9-0.5,3.7-0.6,5.4
					c-0.2,3.3-0.1,6,0.1,7.8c0.1,0.9,0.2,1.6,0.2,2.1c0,0.2,0,0.4,0.1,0.6c0,0.1,0,0.2,0,0.2s0-0.1,0-0.2c0-0.1-0.1-0.3-0.1-0.5
					c-0.1-0.5-0.2-1.2-0.3-2.1c-0.2-1.8-0.4-4.5-0.2-7.9c0.1-1.7,0.3-3.5,0.6-5.4c0.4-1.9,0.7-4,1.4-6.1c0.6-2.1,1.4-4.3,2.4-6.5
					s2.2-4.4,3.7-6.4c1.5-2.1,3.2-3.9,5-5.5s3.8-2.8,5.8-3.8s3.9-1.7,5.8-2.3c1-0.2,1.9-0.5,2.8-0.7c0.4-0.1,0.9-0.2,1.3-0.3
					s0.9-0.1,1.3-0.2c3.3-0.4,6-0.3,7.9-0.2c0.9,0.1,1.6,0.2,2.1,0.2C358.7,187.5,358.9,187.6,359.1,187.6
					C359.1,187.6,359.1,187.6,359.1,187.6z"/>
			</g>
		</g>
		<path fill="#FFBF9D" d="M303.6,186.8c0,0-2.6-0.1-3.9-0.5s-3.6-0.8-4.7-0.6s-3.9,1.3-5.7,1.8c-1.8,0.5-3.3,0.1-3.3,0.9
			c-0.1,0.9,0.9,1.9,2.7,1.9c0,0-2,0.6-1.6,1.1c0.3,0.4,0.9,1.5,1.8,1.5c0,0,0.1,1.5,1.5,1.7c0,0,0.5,1.3,3,1.9c0,0-0.2,1.1,1.7,1.5
			c1.9,0.3,12.5-4.5,12.5-4.5L303.6,186.8z"/>
	</g>
</g>
<g id="Character_1">
	<g>
		<g>
			<g>
				<path fill="#191919" d="M120.5,94.3c4.4,2.8,6.2,8.3,7.1,13.1c1,5.4,0.3,11.5-3.2,15.9c-1.2,1.5,0.9,3.6,2.1,2.1
					c4.2-5.2,5.2-11.9,4.1-18.3c-1-5.9-3.4-12-8.6-15.4C120.4,90.7,118.9,93.3,120.5,94.3L120.5,94.3z"/>
			</g>
			<g>
				<g>
					<path fill="#191919" d="M105,126.2c-1.4-1.4-3.9-0.2-5.1,1.4s-2.1,3.6-3.9,4.4s-4.2,0.1-5.7,1.4c-2.1,1.8-0.9,5.8-3.2,7.3
						c-0.9,0.6-2.1,0.6-3.1,1.1c-2.3,1.2-2.3,4.4-1.9,6.9c0.5,3.6,1,7.3,3,10.3s5.8,5.1,9.2,4c3.3-1.1,5-4.7,6.3-7.9
						c1.8-4.4,3.7-8.8,5.5-13.3c1.1-2.6,2.1-5.2,2.5-7.9c0.3-2.8-0.1-5.7-1.9-7.9"/>
				</g>
				<g>
					<g>
						<path fill="#191919" d="M101.1,100.1c0-1.5,1.3-2.6,2.7-3.1c1.4-0.5,2.9-0.7,4.1-1.6c1.1-0.7,1.8-1.9,2.7-2.8
							c2.2-2.3,5.7-3.2,8.8-2.4c3.1,0.8,5.6,3.4,6.4,6.5c0.5,2.1,0.2,4.6-1.5,5.9c-1.9,1.6-4.7,1.3-7.2,0.8c-2.4-0.5-5.2-1-7.3,0.4
							c-1.2,0.9-1.9,2.3-2.7,3.6c-0.8,1.3-1.7,2.6-3.1,3.1s-3.4-0.4-3.4-1.9"/>
					</g>
				</g>
				<g>
					<path fill="#191919" d="M101.2,100.9c0.2,1.2-0.7,2.3-1.6,3.2c-0.9,0.9-1.9,1.8-2,3c-0.2,1.4,0.9,2.8,0.6,4.3
						c-0.2,0.9-0.9,1.6-1.3,2.4c-0.6,1.1-0.6,2.5-0.3,3.8c0.4,1.2,0.9,4,1.8,5c2.4,2.7,6.2,5,9.6,5.7c3.5,0.8,7.1,0.8,10.6,0.6
						c2.9-0.2,6.3,0,8.7-4.1c1.3-2.1,1.9-4.8,2.5-7.2c0.6-2,1.1-4.2,0.5-6.2c-0.3-1.2-1.1-2.2-1.4-3.4c-0.4-1.5-0.3-3-0.4-4.5
						c-0.4-3.3-2.4-6.3-5.3-7.9s-6.5-1.7-9.5-0.3"/>
				</g>
			</g>
			<g>
				<g>
					<path fill="#FFBF9D" d="M127.1,105.9c-0.3-4.2-3.1-9.3-7.2-8.9l-13,3.3c-1.3,0.1-2.2,1.2-2.2,2.5l1.5,31.4h-0.1
						c0,0,3,8.8,11.6,6.1c1.7-0.5,2.5-2.4,2.8-4.3h0.1c0-0.2,0-0.4,0-0.7c0.3-2.2,0.1-4.3,0.1-4.3l0,0c0-2.5,0-3.6,0-3.5
						c0,0,5.3-0.9,6.4-7.9C127.6,116.2,127.4,110.5,127.1,105.9z"/>
				</g>
				<g>
					<g>
						<g>
							<g>
								<g>
									<g>
										<g>
											<g>
												<g>
													<g>
														<g>
															<g>
																<g>
																	<g>
																		<g>
																			<g>
																				<g>
																					<path fill="#1A2E35" d="M126.4,110.1c0,0.5-0.4,0.9-0.9,0.9s-0.9-0.3-0.9-0.8s0.4-0.9,0.9-0.9
																						C126,109.2,126.4,109.6,126.4,110.1z"/>
																				</g>
																			</g>
																		</g>
																	</g>
																</g>
															</g>
														</g>
													</g>
													<g>
														<g>
															<g>
																<g>
																	<g>
																		<g>
																			<g>
																				<g>
																					<g>
																						<path fill="#1A2E35" d="M125.8,108.9c-0.1,0.1-0.8-0.4-1.8-0.4s-1.7,0.5-1.8,0.4c-0.1-0.1,0.1-0.3,0.4-0.5
																							s0.8-0.4,1.4-0.4s1.1,0.2,1.4,0.4C125.8,108.6,125.9,108.8,125.8,108.9z"/>
																					</g>
																				</g>
																			</g>
																		</g>
																	</g>
																</g>
															</g>
														</g>
													</g>
												</g>
												<g>
													<g>
														<g>
															<g>
																<g>
																	<g>
																		<g>
																			<g>
																				<g>
																					<path fill="#1A2E35" d="M116.7,110.4c0,0.5-0.4,0.9-0.9,0.9s-0.9-0.3-0.9-0.8s0.4-0.9,0.9-0.9
																						C116.2,109.6,116.6,109.9,116.7,110.4z"/>
																				</g>
																			</g>
																		</g>
																	</g>
																</g>
															</g>
														</g>
													</g>
													<g>
														<g>
															<g>
																<g>
																	<g>
																		<g>
																			<g>
																				<g>
																					<g>
																						<path fill="#1A2E35" d="M116.4,109.1c-0.1,0.1-0.8-0.4-1.8-0.4s-1.7,0.5-1.8,0.4c-0.1-0.1,0.1-0.3,0.4-0.5
																							s0.8-0.4,1.4-0.4s1.1,0.2,1.4,0.4S116.4,109,116.4,109.1z"/>
																					</g>
																				</g>
																			</g>
																		</g>
																	</g>
																</g>
															</g>
														</g>
													</g>
												</g>
												<g>
													<g>
														<g>
															<g>
																<g>
																	<g>
																		<g>
																			<g>
																				<g>
																					<path fill="#1A2E35" d="M119.9,116.2c0-0.1,0.6-0.2,1.6-0.3c0.2,0,0.5-0.1,0.5-0.2c0.1-0.2,0-0.4-0.2-0.7
																						c-0.2-0.6-0.5-1.2-0.7-1.9c-1-2.7-1.7-4.8-1.6-4.9c0.1,0,1,2.1,2,4.7c0.2,0.7,0.5,1.3,0.7,1.9
																						c0.1,0.3,0.3,0.6,0.1,1c-0.1,0.2-0.2,0.3-0.4,0.4c-0.2,0-0.3,0.1-0.4,0.1C120.5,116.2,119.9,116.2,119.9,116.2
																						z"/>
																				</g>
																			</g>
																		</g>
																	</g>
																</g>
															</g>
														</g>
													</g>
												</g>
												<g>
													<g>
														<g>
															<g>
																<g>
																	<g>
																		<g>
																			<g>
																				<path fill="#FF9A6C" d="M120.6,127.6c0,0-4.7,0.3-9.3-2.5c0,0,2.3,4.8,9.2,4.1L120.6,127.6z"/>
																			</g>
																		</g>
																	</g>
																</g>
															</g>
														</g>
													</g>
												</g>
												<g>
													<g>
														<g>
															<g>
																<g>
																	<g>
																		<g>
																			<g>
																				<path fill="#FF9A6C" d="M119.5,118.5c-0.3-0.5-1-0.7-1.6-0.6c-0.4,0-0.8,0.2-1.1,0.6c-0.3,0.3-0.3,0.8-0.1,1.1
																					c0.3,0.4,0.8,0.4,1.3,0.3s0.9-0.4,1.2-0.7c0.1-0.1,0.2-0.2,0.3-0.3C119.6,118.8,119.6,118.6,119.5,118.5"/>
																			</g>
																		</g>
																	</g>
																</g>
															</g>
														</g>
													</g>
												</g>
												<g>
													<g>
														<g>
															<g>
																<g>
																	<g>
																		<g>
																			<g>
																				<g>
																					<path fill="#1A2E35" d="M117.1,116.9c0.2,0,0.2,1,1.1,1.8c0.9,0.7,2,0.6,2,0.8c0,0.1-0.2,0.2-0.7,0.2
																						s-1.1-0.1-1.7-0.6c-0.5-0.5-0.8-1.1-0.8-1.5C116.9,117.1,117,116.8,117.1,116.9z"/>
																				</g>
																			</g>
																		</g>
																	</g>
																</g>
															</g>
														</g>
													</g>
												</g>
											</g>
										</g>
									</g>
									<g>
										<g>
											<g>
												<g>
													<g>
														<g>
															<g>
																<g>
																	<path fill="#1A2E35" d="M116.8,107.4c-0.1,0.3-1.1,0.1-2.2,0.3c-1.1,0.1-2,0.4-2.2,0.2c-0.1-0.1,0.1-0.4,0.5-0.6
																		c0.4-0.3,0.9-0.5,1.6-0.6s1.3,0,1.7,0.2C116.7,107,116.9,107.2,116.8,107.4z"/>
																</g>
															</g>
														</g>
													</g>
												</g>
											</g>
										</g>
									</g>
									<g>
										<g>
											<g>
												<g>
													<g>
														<g>
															<g>
																<g>
																	<path fill="#1A2E35" d="M125.5,106.1c-0.2,0.2-0.8,0-1.6,0c-0.8,0-1.5,0.2-1.6-0.1c-0.1-0.1,0-0.3,0.3-0.5
																		s0.8-0.4,1.3-0.4s1,0.2,1.3,0.4C125.5,105.7,125.6,106,125.5,106.1z"/>
																</g>
															</g>
														</g>
													</g>
												</g>
											</g>
										</g>
									</g>
								</g>
							</g>
						</g>
					</g>
					<g>
						<g>
							<path fill="#191919" d="M102,123.3c1.9,0.4,4-0.2,5.4-1.5s2.2-3.4,1.9-5.3c-0.2-1.7-1.1-3.5-0.5-5.1c0.8-2.1,3.8-2.8,4.6-4.9
								c0.5-1.2,0-2.7,0.6-3.9c0.5-1.1,1.7-1.8,2.9-2.2c1.2-0.4,2.4-0.7,3.4-1.5s1.6-2.2,1-3.3c-5.2,0.6-10.3,1.9-15.2,3.7
								c-1.1,0.4-2.3,0.9-3,1.9c-0.7,1.1-0.7,2.5-0.6,3.7c0.3,6.3,0.6,12.5,0.9,18.8"/>
						</g>
					</g>
				</g>
			</g>
			<g>
				<path fill="#191919" d="M114.7,90.6c-0.4,0.4-1,0.4-1.5,0.5c-0.7,0.1-1.4,0.3-2.1,0.6c-1.6,0.7-3.1,1.5-4.6,2.3
					c-1.3,0.7-2.6,1.5-3.7,2.5c-1.2,1.1-2.1,2.4-3.2,3.6c-0.9,1.1-1.9,2.2-2.5,3.5c-0.7,1.5-1,3-1.2,4.6c-0.4,3.3,0.1,6.7,1.3,9.8
					c0.7,1.8,3.6,1,2.9-0.8c-1.1-2.9-1.5-6-1.2-9c0.2-1.4,0.5-2.8,1.3-4c0.7-1.2,1.7-2.2,2.6-3.3c0.9-1.1,1.8-2.2,3-3.1
					s2.6-1.5,3.9-2.1c1.3-0.7,2.6-1.5,4.1-1.7c1.1-0.2,2.2-0.4,3-1.3C118.1,91.4,116,89.2,114.7,90.6L114.7,90.6z"/>
			</g>
			<g>
				<path fill="#191919" d="M117,90c-4,0.2-7.4,1.5-10.7,3.7c-3.1,2.2-6.3,4.8-8.5,7.8c-2.5,3.3-3.2,7.4-2.7,11.5
					c0.3,2.2,0.9,4.2,1.7,6.3c0.6,1.5,1.2,4,3.3,3.8c1.9-0.2,1.9-3.2,0-3c0.3,0.2,0.3,0.2,0.2-0.1c-0.1-0.2-0.2-0.4-0.3-0.6
					c-0.1-0.4-0.3-0.7-0.4-1.1c-0.3-0.8-0.6-1.6-0.8-2.4c-0.5-1.6-0.8-3.3-0.9-5c-0.1-3.4,1.2-6.5,3.5-8.9c4.1-4.4,9.4-8.6,15.6-8.9
					C118.9,92.9,119,89.9,117,90L117,90z"/>
			</g>
			<g>
				<path fill="#191919" d="M118.6,94.7c-0.5,2.9-2,5.4-4.1,7.5c-1,1-2.1,2-3.3,2.8c-1.2,0.9-2.4,1.8-3.8,2.2
					c-1.9,0.5-1.1,3.4,0.8,2.9c1.6-0.5,3-1.4,4.4-2.4s2.8-2.1,4-3.4c2.4-2.4,4.3-5.4,4.8-8.8c0.1-0.8-0.2-1.6-1-1.8
					C119.8,93.5,118.8,93.9,118.6,94.7L118.6,94.7z"/>
			</g>
			<g>
				<path fill="#191919" d="M115.1,98.6c-0.2,0.2-0.3,0.5-0.5,0.7c-0.1,0.1-0.2,0.2-0.3,0.4c0.1-0.1,0.2-0.2,0-0.1
					c-0.1,0.1-0.1,0.1-0.2,0.2c-0.4,0.5-0.8,0.9-1.1,1.4c-0.8,0.9-1.6,1.8-2.4,2.6c-0.6,0.6-0.6,1.6,0,2.1s1.5,0.6,2.1,0
					c1.8-1.8,3.4-3.8,4.9-5.8c0.2-0.3,0.2-0.8,0.2-1.2c-0.1-0.3-0.4-0.7-0.7-0.9c-0.3-0.2-0.8-0.3-1.2-0.2
					C115.6,98,115.4,98.2,115.1,98.6L115.1,98.6z"/>
			</g>
			<g>
				<path fill="#191919" d="M105.4,112.1c0.8,2,1.8,4.2,1.3,6.4c-0.5,2.1-2.1,3.8-3.2,5.5c-0.5,0.7-0.1,1.7,0.5,2.1
					c0.7,0.4,1.6,0.1,2.1-0.5c1.4-2,3.1-4,3.6-6.5c0.5-2.7-0.3-5.3-1.3-7.7c-0.3-0.8-1-1.3-1.8-1
					C105.7,110.5,105.1,111.4,105.4,112.1L105.4,112.1z"/>
			</g>
			<g>
				<path fill="#191919" d="M102.1,126.2c-1.5,2.2-3.2,5.3-6,5.9c-1.5,0.4-3.2,0.1-4.8,0.1c-1.5,0-3,0.3-4.4,0.9
					c-2.8,1.3-4.1,3.8-4.7,6.7c-0.7,3-0.7,6.2,0.9,8.9c0.6,1,2,1,2.6,0c1.2-2,1.2-4.2,1.7-6.4c0.2-1.1,0.5-2.3,1-3.4
					c0.2-0.5,0.4-1,0.7-1.5c0.1-0.1,0.2-0.3,0.3-0.4c0.5-0.6,0.3,0-0.3-0.6c-0.1-0.5-0.3-1-0.4-1.5c0,0.1,0,0.1,0,0.2
					c-0.3,1.9,2.5,2.7,2.9,0.8c0.3-1.9-1.5-2.8-3.1-1.9c-1.4,0.7-2.1,2.1-2.7,3.5c-0.7,1.7-1.2,3.4-1.4,5.1
					c-0.2,1.6-0.4,3.2-1.2,4.6c0.9,0,1.7,0,2.6,0c-1.4-2.4-1-5.2-0.3-7.8c0.3-1.2,0.8-2.3,1.9-3.1c1-0.7,2.3-1.1,3.5-1.2
					c2.9-0.2,5.8,0.5,8.4-1.3c2.3-1.5,3.8-4.1,5.4-6.3C105.8,126.1,103.2,124.6,102.1,126.2L102.1,126.2z"/>
			</g>
			<g>
				<path fill="#191919" d="M82.1,140.9c-0.4,2.1-0.6,4.3-0.2,6.5c0.2,1,0.5,2,1,2.9c0.9,1.4,2.6,0.9,3.9,0.6c0.8-0.2,1.3-1.1,1-1.8
					c-0.3-0.8-1-1.3-1.8-1c-0.4,0.1-0.8,0.2-1.2,0.3c0.2,0,0,0-0.1,0c-0.3,0-0.2,0.1,0.3,0.2c0.4,0.3,0.5,0.4,0.4,0.2
					c0-0.1-0.1-0.2-0.1-0.2c-0.1-0.2,0.1,0.2,0,0c-0.1-0.4-0.3-0.7-0.3-1.1c0-0.2-0.1-0.4-0.1-0.6c0-0.1,0-0.2-0.1-0.3
					c0-0.1,0-0.4,0-0.1c-0.1-0.8-0.1-1.5-0.1-2.3c0-0.2,0-0.4,0-0.6c0-0.1,0-0.2,0-0.4c0,0,0-0.3,0-0.2s0-0.1,0-0.2
					c0-0.1,0-0.2,0-0.3c0-0.2,0.1-0.4,0.1-0.6c0.1-0.8-0.2-1.7-1-1.8C83.2,139.7,82.2,140.1,82.1,140.9L82.1,140.9z"/>
			</g>
			<g>
				<path fill="#191919" d="M102.7,125.8c-1.6,0.5-2.7,1.5-4,2.5s-2.9,1.5-4.5,1.9c-3.1,0.8-6.8,1.3-8.6,4.3c-1,1.7,1.6,3.2,2.6,1.5
					c0.6-1.1,1.8-1.6,3-2c1.5-0.5,3-0.8,4.5-1.2s3-1,4.2-1.8c1.1-0.8,2.2-1.9,3.5-2.3C105.4,128.1,104.6,125.2,102.7,125.8
					L102.7,125.8z"/>
			</g>
			<g>
				<path fill="#191919" d="M97.3,130.2c-2.8,0.5-5.8,0.3-8.5,1.4c-2.4,1-4.7,2.9-5.2,5.6c-0.1,0.8,0.2,1.6,1,1.8
					c0.7,0.2,1.7-0.2,1.8-1c0.8-4.9,7.9-4.3,11.6-4.9c0.8-0.1,1.2-1.1,1-1.8C98.9,130.4,98.1,130.1,97.3,130.2L97.3,130.2z"/>
			</g>
		</g>
		<g>
			<polygon fill="#D03652" points="145.6,174.2 155.9,154.6 150.9,149.2 137.9,161.7 141.5,171.7 			"/>
			<path fill="#D03652" d="M122,136.6L122,136.6c4.3,1.5,7.8,4.7,9.7,8.8l13.2,28.2l11.4,4.6l-10,2.9l-8.9-6.6L122,136.6z"/>
			<path fill="#FAFAFA" d="M146.3,181.2l-4.8,3.7l-24-24.7l-13.7-24.8l1.6-4.6l10.6,4.4l3.1,3.9l1.6-5.4l0.7,1l1.1,3
				c0,0,10.4,8.7,12.6,15.5c1.9,5.7,1.3,17.6,2.4,20.8L146.3,181.2z"/>
			<path fill="#D03652" d="M101.3,135.2c-0.2,0.5-10.2,4.5-10.7,8.1s7.2,30.8,7.2,30.8l12.3,10.8h31.5l-10-18.7
				c-2.2-4-4.9-7.7-8.1-11c-3-3-6.5-6.7-8.4-8.9c-2-2.4-10.5-13.6-10.5-13.6L101.3,135.2z"/>
			<g>
				<path fill="#1A2E35" d="M107.6,136.3c0,0,0.7,0.3,1.8,0.8c1.1,0.5,2.6,1.3,4.2,2.1c0.6,0.3,1.3,0.7,1.9,1l-0.2,0.1
					c-0.1-1.3,0-2.5,0.2-3.3s0.3-1.3,0.3-1.2c0,0-0.1,0.5-0.2,1.3s-0.2,1.9-0.1,3.2v0.3l-0.2-0.1c-0.6-0.3-1.2-0.6-1.9-1
					c-1.6-0.8-3.1-1.6-4.2-2.2C108.2,136.7,107.6,136.3,107.6,136.3z"/>
			</g>
			<g>
				<path fill="#1A2E35" d="M122.2,137.8c0,0-0.2,0.4-0.6,1l-0.1,0.2l-0.1-0.2c-0.2-0.7-0.5-1.6-0.7-2.7c0-0.1,0-0.2-0.1-0.2h0.3
					c-0.9,1.8-1.5,3.3-1.6,3.3s0.4-1.6,1.3-3.4l0.2-0.4l0.1,0.4c0,0.1,0,0.2,0.1,0.2c0.3,1,0.5,2,0.6,2.7h-0.2
					C121.8,138,122.1,137.7,122.2,137.8z"/>
			</g>
			<g>
				<path fill="#1A2E35" d="M131.9,161.2c0,0-0.2-0.3-0.5-0.8c-0.3-0.6-0.8-1.3-1.3-2.2c-1.1-1.9-2.6-4.5-4.3-7.3
					c-1.7-2.8-3.3-5.4-4.4-7.2c-0.5-0.9-1-1.6-1.4-2.2c-0.3-0.5-0.5-0.8-0.5-0.8s0.2,0.3,0.6,0.8c0.3,0.5,0.8,1.2,1.4,2.1
					c1.2,1.8,2.8,4.4,4.5,7.2s3.2,5.5,4.2,7.4c0.5,1,0.9,1.7,1.2,2.3C131.7,160.9,131.9,161.2,131.9,161.2z"/>
			</g>
		</g>
		<g>
			<g>
				<g>
					<g>
						<g>
							<path fill="#375A64" d="M208.4,217.8l9.1,11.5c0,0,14.7-5.4,16.6-3.5l-21.6,18.5l-15-17.3L208.4,217.8z"/>
						</g>
					</g>
				</g>
				<g>
					<g>
						<g>
							<g>
								<path fill="#1A2E35" d="M217.8,228.9c0.1,0.1-0.4,0.6-0.6,1.4c-0.2,0.8-0.1,1.5-0.3,1.5c-0.1,0.1-0.5-0.7-0.2-1.6
									C217,229.2,217.8,228.8,217.8,228.9z"/>
							</g>
						</g>
					</g>
				</g>
				<g>
					<g>
						<g>
							<g>
								<path fill="#1A2E35" d="M220.9,227.9c0.1,0.1-0.2,0.7-0.2,1.4c0,0.8,0.3,1.3,0.2,1.4c-0.1,0.1-0.7-0.5-0.7-1.4
									S220.8,227.8,220.9,227.9z"/>
							</g>
						</g>
					</g>
				</g>
				<g>
					<g>
						<g>
							<g>
								<path fill="#1A2E35" d="M224.5,229.5c-0.1,0.1-0.7-0.3-0.9-1.1s0.1-1.5,0.2-1.4c0.1,0,0.1,0.6,0.3,1.3
									C224.3,228.9,224.6,229.4,224.5,229.5z"/>
							</g>
						</g>
					</g>
				</g>
				<g>
					<g>
						<g>
							<g>
								<path fill="#1A2E35" d="M215.5,226.5c0,0.1-0.6,0.4-1.1,1c-0.6,0.5-0.9,1.1-1,1.1s0-0.8,0.7-1.4
									C214.7,226.5,215.4,226.4,215.5,226.5z"/>
							</g>
						</g>
					</g>
				</g>
			</g>
			<g>
				<g>
					<g>
						<g>
							<path fill="#1A2E35" d="M213.6,224.2c0,0-0.3,0.5-1.1,0.9c-0.4,0.2-0.9,0.5-1.4,0.6c-0.3,0.1-0.6,0.2-0.9,0.2
								c-0.2,0-0.3,0.1-0.5,0c-0.2,0-0.5-0.2-0.5-0.5s0.1-0.5,0.3-0.6s0.3-0.2,0.5-0.3c0.3-0.1,0.6-0.3,0.9-0.3
								c0.6-0.2,1.1-0.2,1.6-0.2c0.9,0,1.4,0.3,1.4,0.3c0,0.1-0.5,0-1.4,0c-0.4,0-0.9,0.1-1.4,0.3c-0.3,0.1-0.5,0.2-0.8,0.3
								s-0.5,0.3-0.4,0.5c0,0.1,0,0.1,0.1,0.1s0.2,0,0.4,0c0.3,0,0.6-0.1,0.9-0.2c0.5-0.1,1-0.3,1.4-0.5
								C213.1,224.5,213.5,224.2,213.6,224.2z"/>
						</g>
					</g>
				</g>
			</g>
			<g>
				<g>
					<g>
						<g>
							<path fill="#1A2E35" d="M213.6,224.5c0,0-0.6-0.1-1.2-0.8c-0.3-0.3-0.6-0.8-0.9-1.3c-0.1-0.3-0.2-0.6-0.3-0.9
								c-0.1-0.3-0.1-0.7,0.2-1.1c0.2-0.2,0.5-0.2,0.7-0.1c0.2,0.1,0.3,0.2,0.5,0.3c0.3,0.2,0.5,0.5,0.6,0.7
								c0.3,0.5,0.5,1.1,0.5,1.5c0.1,0.9-0.3,1.4-0.3,1.4c-0.1,0,0.1-0.5,0-1.4c-0.1-0.4-0.2-0.9-0.5-1.3c-0.2-0.2-0.3-0.4-0.6-0.6
								c-0.2-0.2-0.5-0.3-0.5-0.2c-0.1,0.1-0.1,0.4-0.1,0.7c0.1,0.3,0.1,0.6,0.2,0.8c0.2,0.5,0.5,0.9,0.7,1.3
								C213.2,224.1,213.6,224.4,213.6,224.5z"/>
						</g>
					</g>
				</g>
			</g>
		</g>
		<g>
			<g>
				<g>
					<g>
						<g>
							<path fill="#375A64" d="M198.4,250.6l-0.6,14.6c0,0,14.7,5.5,14.9,8.2l-28.4-0.1l-0.1-22.9L198.4,250.6z"/>
						</g>
					</g>
				</g>
				<g>
					<g>
						<g>
							<g>
								<path fill="#1A2E35" d="M198.3,265.1c0,0.1-0.7,0.2-1.4,0.6s-1,1-1.2,1c-0.1,0,0.1-0.9,0.9-1.4
									C197.5,264.8,198.4,265,198.3,265.1z"/>
							</g>
						</g>
					</g>
				</g>
				<g>
					<g>
						<g>
							<g>
								<path fill="#1A2E35" d="M201.3,266.3c0,0.1-0.6,0.4-1,1c-0.5,0.6-0.6,1.2-0.7,1.2c-0.1,0-0.2-0.8,0.4-1.5
									C200.5,266.3,201.3,266.2,201.3,266.3z"/>
							</g>
						</g>
					</g>
				</g>
				<g>
					<g>
						<g>
							<g>
								<path fill="#1A2E35" d="M203,269.9c-0.1,0-0.3-0.7,0-1.4c0.4-0.8,1-1.1,1.1-0.9c0.1,0.1-0.3,0.5-0.6,1.1
									C203.2,269.3,203.1,269.9,203,269.9z"/>
							</g>
						</g>
					</g>
				</g>
				<g>
					<g>
						<g>
							<g>
								<path fill="#1A2E35" d="M198.1,261.7c-0.1,0.1-0.7-0.1-1.5,0c-0.8,0-1.4,0.3-1.5,0.2c-0.1-0.1,0.5-0.6,1.4-0.7
									C197.5,261.2,198.2,261.6,198.1,261.7z"/>
							</g>
						</g>
					</g>
				</g>
			</g>
			<g>
				<g>
					<g>
						<g>
							<path fill="#1A2E35" d="M198.2,258.8c0,0.1-0.5,0.1-1.4,0c-0.4-0.1-1-0.2-1.5-0.5c-0.3-0.1-0.5-0.3-0.8-0.4
								c-0.1-0.1-0.3-0.2-0.4-0.3c-0.2-0.1-0.2-0.5-0.1-0.7c0.1-0.2,0.4-0.3,0.6-0.3c0.2,0,0.4,0,0.5,0.1c0.3,0.1,0.6,0.2,0.9,0.3
								c0.5,0.2,1,0.6,1.3,0.9c0.7,0.6,0.9,1.1,0.8,1.2c-0.1,0-0.4-0.4-1.1-0.9c-0.3-0.3-0.8-0.5-1.3-0.7c-0.3-0.1-0.5-0.2-0.8-0.3
								c-0.3-0.1-0.6-0.1-0.6,0.1c0,0.1,0,0.1,0,0.2c0.1,0.1,0.2,0.2,0.3,0.2c0.3,0.2,0.5,0.3,0.8,0.4c0.5,0.2,1,0.4,1.4,0.5
								C197.6,258.7,198.2,258.7,198.2,258.8z"/>
						</g>
					</g>
				</g>
			</g>
			<g>
				<g>
					<g>
						<g>
							<path fill="#1A2E35" d="M198,259c0,0-0.3-0.5-0.4-1.4c0-0.4,0-1,0.2-1.6c0.1-0.3,0.2-0.6,0.4-0.9c0.2-0.3,0.4-0.7,0.9-0.7
								c0.3,0,0.5,0.2,0.6,0.4s0.1,0.4,0.1,0.5c0.1,0.3,0,0.7,0,1c-0.1,0.6-0.3,1.1-0.6,1.5c-0.6,0.7-1.1,0.9-1.1,0.9
								c0-0.1,0.4-0.3,0.9-1c0.2-0.3,0.4-0.8,0.5-1.3c0-0.3,0-0.5,0-0.8s-0.2-0.5-0.3-0.5s-0.4,0.2-0.5,0.5s-0.3,0.5-0.4,0.8
								c-0.2,0.5-0.3,1-0.3,1.4C197.9,258.4,198,259,198,259z"/>
						</g>
					</g>
				</g>
			</g>
		</g>
		<g>
			<path fill="#FFFFFF" d="M151.8,165l15.2-35.1c0,0-8.8,11-13.4,10.9c0,0-5.1,11.2-8.4,20.2l-5,12.9L151.8,165z"/>
			<g>
				<path fill="#1A2E35" d="M151.8,165c0,0-0.1,0.1-0.2,0.2c-0.1,0.1-0.3,0.3-0.6,0.5c-0.5,0.4-1.3,1-2.3,1.8
					c-2,1.6-4.9,3.8-8.5,6.6l-0.3,0.2l0.1-0.4c1.6-4.2,3.6-9.3,5.7-14.9c2.2-5.6,4.8-11.8,7.6-18.2v-0.1h0.1c0.8,0,1.8-0.3,2.6-0.8
					c2.2-1.3,4.1-3,5.9-4.7c1.8-1.8,3.4-3.6,4.8-5.3l0.7-0.8l-0.4,1c-4.4,10.2-8.2,18.9-11,25.2c-1.4,3.1-2.4,5.6-3.2,7.3
					c-0.4,0.8-0.7,1.5-0.9,1.9C151.8,164.7,151.7,164.9,151.8,165C151.9,164.9,151.8,165,151.8,165s0-0.1,0.1-0.2
					c0.1-0.1,0.1-0.3,0.2-0.5c0.2-0.5,0.5-1.1,0.8-2c0.7-1.7,1.8-4.2,3.1-7.3c2.7-6.3,6.5-15,10.8-25.2l0.3,0.2
					c-1.5,1.8-3.1,3.6-4.8,5.4c-1.8,1.7-3.7,3.5-6,4.8c-0.9,0.5-1.8,0.8-2.7,0.8l0.1-0.1c-2.9,6.4-5.5,12.5-7.6,18.2
					c-2.2,5.6-4.1,10.7-5.8,14.9l-0.2-0.1c3.6-2.7,6.5-4.9,8.5-6.5c1-0.8,1.8-1.3,2.3-1.7c0.3-0.2,0.5-0.3,0.6-0.4
					C151.8,165,151.8,165,151.8,165z"/>
			</g>
		</g>
		<polygon fill="#1A2E35" points="91.5,243.6 96.1,273.4 100.6,273.4 98.4,243.7 		"/>
		<polygon fill="#1A2E35" points="171.8,243.7 171.8,273.4 176.6,273.4 178.4,243.6 		"/>
		<g>
			<path fill="#FFBF9D" d="M139.1,158.7c0,0,1.9-4.4,3-5c1-0.6,7.3-3.5,7.3-3.5l-0.6,1.4l6.3-3.7c0,0,0.5,1.3-0.5,2.6
				s-0.7,1.2-0.7,1.2s1.1,0.6,0.5,1.6c-0.5,0.9-1.4,2.1-1.4,2.1s1,1.2,0.6,2.3c0,0,0.4,1,0.1,2.3c-0.2,1.3-2.7,3.9-2.7,3.9
				l-12.2,5.8l-4.9-8.3L139.1,158.7z"/>
			<path fill="#D03652" d="M112.3,151.6l7.3,15.6l16.2-7c0,0,6.7,3.9,5.8,8.2l-14.6,12c-2.8,2.3-6.3,3.3-9.9,2.9l0,0
				c-3.8-0.5-7.2-2.6-9.3-5.8l-10.6-16.1L91,152c-1.9-3.1-2-8,0.5-10.3c0.7-0.7,1.3-1.5,2.1-2C96.3,138.1,104.1,137.4,112.3,151.6z"
				/>
			<g>
				<path fill="#FF9A6C" d="M141.8,168.4c0,0,0.1,0,0.2-0.1c0.1-0.1,0.3-0.1,0.5-0.3c0.4-0.2,1.1-0.5,1.8-0.9
					c1.6-0.8,3.9-1.9,6.7-3.3l0,0c0.7-0.8,1.4-1.6,2.1-2.6c0.3-0.5,0.6-1,0.6-1.6s0-1.2-0.2-1.8v-0.1l0,0c0.2-0.7-0.1-1.5-0.6-2.2
					l-0.1-0.1l0.1-0.1c0.4-0.6,0.8-1.1,1.2-1.8c0.2-0.3,0.4-0.6,0.3-0.9c-0.1-0.3-0.3-0.6-0.6-0.8h0.1c-0.1,0-0.2,0-0.2-0.1
					s0-0.1,0-0.1c0-0.1,0-0.1,0-0.1c0-0.1,0.1-0.1,0.1-0.2c0.1-0.1,0.1-0.2,0.2-0.4c0.2-0.2,0.3-0.5,0.5-0.7c0.3-0.5,0.5-1,0.5-1.6
					c0-0.3,0-0.5-0.1-0.7l0.2,0.1c-2.2,1.3-4.3,2.6-6.3,3.7l-0.4,0.2l0.2-0.4c0.2-0.5,0.4-0.9,0.6-1.4l0.2,0.2
					c-2.7,1.2-5.2,2.3-7.3,3.4c-0.5,0.3-0.8,0.8-1.1,1.3s-0.5,0.9-0.8,1.4c-0.5,0.9-0.9,1.7-1.2,2.4l0,0l0,0c-1.1,0.6-2,1-2.7,1.3
					c-0.3,0.1-0.5,0.3-0.7,0.3c-0.2,0.1-0.2,0.1-0.2,0.1s0.1-0.1,0.2-0.1c0.2-0.1,0.4-0.2,0.7-0.4c0.6-0.3,1.5-0.8,2.6-1.4l0,0
					c0.3-0.7,0.7-1.5,1.1-2.4c0.2-0.4,0.5-0.9,0.8-1.4c0.1-0.2,0.3-0.5,0.5-0.7s0.4-0.5,0.6-0.6c2.1-1.1,4.6-2.2,7.3-3.5l0.4-0.2
					l-0.2,0.4c-0.2,0.5-0.4,0.9-0.6,1.4l-0.2-0.2c2-1.2,4.1-2.4,6.3-3.7l0.2-0.1l0.1,0.2c0.1,0.3,0.1,0.6,0.1,0.8
					c0,0.6-0.2,1.2-0.5,1.7c-0.2,0.3-0.3,0.5-0.5,0.7c-0.1,0.1-0.2,0.2-0.2,0.3s-0.1,0.1-0.1,0.2v0.1l0,0l0,0c0,0,0,0-0.1,0l0,0l0,0
					l0,0l0,0l0,0c0,0.1,0-0.1,0-0.1l0,0h0.1c0.3,0.2,0.6,0.5,0.7,1c0,0.2,0,0.4-0.1,0.6c-0.1,0.2-0.2,0.3-0.3,0.5
					c-0.4,0.6-0.8,1.2-1.2,1.8v-0.2c0.3,0.4,0.5,0.8,0.6,1.2s0.1,0.9,0,1.3v-0.1c0.2,0.7,0.3,1.3,0.2,2c0,0.3-0.1,0.6-0.2,0.9
					c-0.1,0.3-0.3,0.6-0.4,0.8c-0.7,1-1.4,1.9-2.1,2.7l0,0l0,0c-2.8,1.3-5.1,2.4-6.7,3.2c-0.8,0.4-1.4,0.7-1.9,0.9
					c-0.2,0.1-0.4,0.2-0.5,0.2C141.9,168.3,141.8,168.4,141.8,168.4z"/>
			</g>
			<g>
				<path fill="#FF9A6C" d="M149.2,151.3c0,0.1-1.1,0.9-2.5,1.7c-1.4,0.9-2.7,1.6-2.7,1.5s1.1-0.9,2.5-1.7
					C147.9,151.9,149.1,151.2,149.2,151.3z"/>
			</g>
			<g>
				<path fill="#FF9A6C" d="M154,151.1c0.1,0.1-1,1.2-2.3,2.5s-2.4,2.3-2.5,2.2s1-1.2,2.3-2.5C152.9,152.1,154,151.1,154,151.1z"/>
			</g>
			<g>
				<path fill="#FF9A6C" d="M153.4,154.9c0.1,0.1-0.4,0.7-1.1,1.5c-0.7,0.8-1.2,1.3-1.3,1.3c-0.1-0.1,0.4-0.7,1.1-1.5
					C152.7,155.4,153.3,154.8,153.4,154.9z"/>
			</g>
			<g>
				<path fill="#FF9A6C" d="M153.6,157.4c0.1,0.1-0.2,0.5-0.5,1s-0.6,0.9-0.7,0.8c-0.1,0,0.1-0.5,0.5-1
					C153.2,157.7,153.5,157.4,153.6,157.4z"/>
			</g>
			<g>
				<path fill="#1A2E35" d="M124.5,181.9C124.5,181.9,124.5,181.8,124.5,181.9c0.1-0.1,0.2-0.2,0.3-0.3c0.2-0.2,0.5-0.4,0.9-0.7
					c0.8-0.7,2-1.6,3.5-2.8c3-2.4,7.3-5.8,12.5-9.8l-0.1,0.1c0-0.8-0.1-1.6-0.5-2.4c-0.3-0.8-0.8-1.5-1.3-2.2
					c-1.1-1.4-2.5-2.6-4.1-3.6h0.1c-2.7,1.2-5.5,2.4-8.4,3.6c-2.7,1.2-5.3,2.3-7.8,3.4l-0.1,0.1l-0.1-0.1c-2.1-4.2-4.1-8.2-6.1-11.7
					c-1-1.7-2-3.3-2.9-4.8s-1.8-2.9-2.7-4.1c-1.7-2.4-3.6-3.9-5-4.7c-0.4-0.2-0.7-0.4-1-0.5s-0.5-0.2-0.7-0.3s-0.3-0.1-0.4-0.2
					c-0.1,0-0.1-0.1-0.1-0.1s0.9,0.2,2.3,1c0.7,0.4,1.6,0.9,2.5,1.7s1.8,1.8,2.7,3c0.9,1.2,1.8,2.6,2.7,4.1c0.9,1.5,1.9,3.1,3,4.8
					c2,3.5,4,7.4,6.2,11.7l-0.2-0.1c2.5-1.1,5.1-2.2,7.8-3.4c2.9-1.3,5.7-2.5,8.4-3.6h0.1h0.1c1.6,1,3.1,2.2,4.2,3.6
					c0.6,0.7,1,1.5,1.4,2.3c0.3,0.8,0.5,1.7,0.5,2.5v0.1h-0.1c-5.2,4-9.5,7.3-12.5,9.7c-1.5,1.2-2.7,2.1-3.5,2.7
					c-0.4,0.3-0.7,0.5-0.9,0.7C124.7,181.7,124.6,181.8,124.5,181.9L124.5,181.9z"/>
			</g>
			<g>
				<path fill="#1A2E35" d="M118.6,172.1c-0.1,0,0.4-1.1,0.6-2.6c0.3-1.4,0.2-2.6,0.3-2.6c0.1,0,0.2,1.2,0,2.7
					C119.2,171,118.7,172.1,118.6,172.1z"/>
			</g>
		</g>
		<g>
			<polygon fill="#D03652" points="184.7,184.9 211.4,220.4 199,231.1 186.1,214.3 			"/>
			<path fill="#D03652" d="M128.2,186.6c0,0,42.9-13.1,46.9-12.9c3.9,0.2,11.4,14.4,11.4,14.4l-12.1-0.4L159.2,211l-24.7-1.1
				L128.2,186.6z"/>
			<g>
				<path fill="#1A2E35" d="M163.3,176.2c0,0.1-4.4,1.5-9.9,3.1s-9.9,2.9-9.9,2.8c0-0.1,4.4-1.5,9.9-3.1
					C158.9,177.4,163.3,176.2,163.3,176.2z"/>
			</g>
			<path fill="#D03652" d="M173.3,187.4h12.1l0,0c6,0,11.4,3.8,13.4,9.5l0,0c0.9,2.7,1.4,5.5,1.2,8.3l-0.9,49.1h-16.2l-0.3-15.7
				l-2.1-29.8l-14.1,0.6l-8-0.5L173.3,187.4z"/>
			<g>
				<path fill="#1A2E35" d="M173.7,187.1c0,0-0.1,0.4-0.2,1c-0.2,0.7-0.4,1.6-0.9,2.8c-0.4,1.1-1,2.5-1.8,3.9s-1.8,2.9-2.9,4.4
					c-2.4,2.9-4.8,5.2-6.6,6.9c-0.9,0.8-1.6,1.5-2.1,2s-0.8,0.7-0.8,0.7s0.2-0.3,0.7-0.8s1.2-1.2,2-2.1c1.7-1.7,4.1-4.1,6.5-7
					c2.3-2.9,3.9-5.9,4.8-8.2c0.4-1.1,0.8-2.1,0.9-2.7C173.5,187.5,173.7,187.1,173.7,187.1z"/>
			</g>
			<g>
				<path fill="#1A2E35" d="M188.4,187.7c0,0-0.8,0-2.2-0.1s-3.2-0.1-5.3-0.1s-3.9,0.2-5.3,0.3c-1.4,0.1-2.2,0.2-2.2,0.1
					c0,0,0.2-0.1,0.6-0.1c0.4-0.1,0.9-0.1,1.6-0.2c1.3-0.1,3.2-0.3,5.3-0.3s4,0,5.3,0.2c0.7,0.1,1.2,0.1,1.6,0.2
					C188.2,187.6,188.4,187.7,188.4,187.7z"/>
			</g>
			<g>
				<path fill="#1A2E35" d="M182.7,245.3c0,0,0-0.1,0-0.4c0-0.3,0-0.7-0.1-1.2c0-1.1-0.1-2.5-0.2-4.3c-0.2-3.6-0.4-8.7-0.7-14.2
					c-0.4-5.6-0.8-10.6-1.1-14.2c-0.1-1.8-0.3-3.3-0.4-4.3c0-0.5-0.1-0.9-0.1-1.2s0-0.4,0-0.4s0,0.1,0.1,0.4c0,0.3,0.1,0.7,0.1,1.2
					c0.1,1.1,0.3,2.5,0.4,4.3c0.4,3.6,0.8,8.7,1.2,14.2c0.3,5.6,0.5,10.6,0.6,14.2c0,1.8,0.1,3.3,0.1,4.3c0,0.5,0,0.9,0,1.2
					C182.7,245.1,182.7,245.3,182.7,245.3z"/>
			</g>
			<g>
				<path fill="#1A2E35" d="M200,203.3c0.1,0,0,11.2-0.1,25.1c-0.2,13.9-0.4,25.1-0.4,25.1c-0.1,0,0-11.2,0.1-25.1
					C199.7,214.5,199.9,203.3,200,203.3z"/>
			</g>
			<g>
				<path fill="#1A2E35" d="M186.7,201.4c0,0.1-1.7,0.5-3.5,1.6s-3,2.4-3,2.3c0,0,0.2-0.4,0.7-0.9s1.2-1.1,2.2-1.7
					c0.9-0.6,1.8-0.9,2.5-1.1C186.3,201.5,186.7,201.4,186.7,201.4z"/>
			</g>
		</g>
		<g>
			<path fill="#375A64" d="M90.7,151.3c0,0-6.4,0.3-8.4,2.9c-3.5,4.7-1.5,8.8-1.7,10.2s10.9,79.1,10.9,79.1h4.6l82.3,0.8l4-9.6
				l-1.9-26l-22,0.1c0,0-9-25.9-16.9-27.6c-5.3-1.2-17.9-0.8-25.4-0.4c-3.8,0.2-7.3-1.6-9.4-4.8L90.7,151.3z"/>
			<g>
				<path fill="#1A2E35" d="M163.7,240.5c0,0-0.5,0.1-1.3,0.1c-0.9,0-2.2,0.1-3.8,0.1c-3.3,0-8.2,0.1-14.2,0.1
					c-12.1,0-28.9-0.1-47.9-0.3h-0.1v-0.1c-0.3-1.6-0.7-3.3-1.1-5c-0.3-1.7-0.7-3.4-1-5.2c-4.1-21.1-6.6-40.4-7.9-54.4
					c-0.7-7-1-12.7-1.3-16.6c-0.1-2-0.2-3.5-0.2-4.5c0-0.5,0-0.9-0.1-1.2c0-0.3,0-0.4,0-0.4s0,0.1,0,0.4c0,0.3,0,0.7,0.1,1.2
					c0.1,1,0.2,2.6,0.3,4.5c0.3,3.9,0.7,9.6,1.4,16.6c1.4,14,3.8,33.3,7.9,54.3c0.3,1.7,0.7,3.5,1,5.2c0.4,1.7,0.7,3.4,1,5l-0.1-0.1
					c19,0.1,35.8,0.3,47.9,0.4c6,0,10.9,0,14.2,0c1.7,0,2.9,0,3.8,0c0.4,0,0.8,0,1,0C163.6,240.5,163.7,240.5,163.7,240.5z"/>
			</g>
			<g>
				<path fill="#1A2E35" d="M162.8,244.2c0,0,0-0.1,0-0.4c0-0.3,0.1-0.6,0.2-1c0.1-0.5,0.2-1,0.2-1.7c0.1-0.6,0.2-1.4,0.2-2.2
					c0.1-0.8,0.2-1.7,0.2-2.7c0.1-1,0.1-2,0.1-3.1c0-2.2-0.1-4.6-0.4-7.1c-0.3-2.5-0.7-4.8-1.2-7c-0.5-2.1-1-4-1.5-5.6
					c-0.2-0.8-0.5-1.5-0.7-2.1s-0.4-1.1-0.6-1.6c-0.2-0.4-0.3-0.7-0.4-1c-0.1-0.2-0.1-0.4-0.1-0.4s0.1,0.1,0.2,0.3
					c0.1,0.3,0.2,0.6,0.4,1s0.4,0.9,0.6,1.6c0.2,0.6,0.5,1.3,0.8,2.1c0.5,1.6,1.1,3.4,1.6,5.6c0.5,2.1,0.9,4.5,1.2,7
					s0.4,4.9,0.4,7.1c0,1.1,0,2.1-0.1,3.1c0,1-0.1,1.9-0.2,2.7c-0.1,0.8-0.2,1.6-0.3,2.2c-0.1,0.6-0.2,1.2-0.3,1.7
					c-0.1,0.4-0.2,0.8-0.2,1C162.9,244.1,162.8,244.2,162.8,244.2z"/>
			</g>
			<g>
				<path fill="#1A2E35" d="M102.5,188.5c0,0,0.1-0.1,0.3-0.3c0.3-0.2,0.6-0.4,1-0.8c0.2-0.2,0.5-0.3,0.7-0.5
					c0.3-0.2,0.6-0.4,0.9-0.6c0.7-0.4,1.4-0.9,2.3-1.3c0.4-0.2,0.9-0.4,1.4-0.7c0.5-0.2,1-0.4,1.5-0.6c0.5-0.2,1.1-0.4,1.7-0.6
					c0.6-0.2,1.2-0.4,1.8-0.6c2.5-0.7,5.2-1.4,8.2-1.7c2.9-0.4,5.8-0.5,8.3-0.5c1.3,0,2.5,0.1,3.6,0.1c1.1,0.1,2.2,0.2,3.2,0.3
					c1.9,0.2,3.5,0.6,4.5,0.8c0.5,0.1,0.9,0.2,1.2,0.3s0.4,0.1,0.4,0.1s-0.2,0-0.4-0.1c-0.3-0.1-0.7-0.2-1.2-0.3
					c-1.1-0.2-2.6-0.5-4.5-0.7c-1-0.1-2-0.2-3.2-0.3c-1.1,0-2.3-0.1-3.6-0.1c-2.6,0-5.4,0.2-8.3,0.5s-5.7,1-8.1,1.7
					c-0.6,0.2-1.2,0.4-1.8,0.5c-0.6,0.2-1.1,0.4-1.7,0.6c-0.5,0.2-1.1,0.4-1.5,0.6c-0.5,0.2-0.9,0.4-1.4,0.6
					c-0.9,0.4-1.6,0.9-2.3,1.2c-0.3,0.2-0.6,0.4-0.9,0.5c-0.3,0.2-0.5,0.4-0.7,0.5c-0.4,0.3-0.8,0.5-1,0.7
					C102.6,188.4,102.5,188.5,102.5,188.5z"/>
			</g>
		</g>
	</g>
</g>
<g id="Speech_Bubble">
	<g>
		<g>
			<g>
				<g>
					<path fill="#1A2E35" d="M262,89.4c0,1,0.8,1.8,1.8,1.8s1.8-0.8,1.8-1.8s-0.8-1.8-1.8-1.8C262.8,87.5,262,88.3,262,89.4z"/>
				</g>
			</g>
			<g>
				<g>
					
						<ellipse transform="matrix(0.1602 -0.9871 0.9871 0.1602 127.0836 328.1689)" fill="#1A2E35" cx="256.4" cy="89.4" rx="1.8" ry="1.8"/>
				</g>
			</g>
			<g>
				<g>
					<path fill="#1A2E35" d="M247.3,88.4c-0.5,0.9-0.2,2,0.7,2.5s2,0.2,2.5-0.7c0.5-0.9,0.2-2-0.7-2.5
						C248.9,87.2,247.8,87.5,247.3,88.4z"/>
				</g>
			</g>
		</g>
		<g>
			<g>
				<g>
					<path fill="#1A2E35" d="M256.3,67.8c0,0-0.1,0-0.4,0c-0.3,0-0.6,0-1.1,0c-0.2,0-0.5,0-0.8,0s-0.6,0.1-1,0.1
						c-0.4,0.1-0.7,0.1-1.1,0.2c-0.4,0.1-0.8,0.2-1.3,0.3c-1.8,0.5-3.9,1.2-6.1,2.7c-2.2,1.4-4.5,3.4-6.3,6.1s-3.2,6.2-3.6,10
						c0,1-0.2,1.9-0.1,2.9c0,0.5,0,1,0.1,1.5s0.2,1,0.2,1.5c0.4,2,1,4.1,2,6s2.3,3.8,3.9,5.4c1.6,1.6,3.5,3,5.6,4.1s4.4,1.8,6.9,2.1
						c0.6,0.1,1.2,0.1,1.8,0.2c0.6,0,1.2,0.1,1.9,0c1.2-0.1,2.5-0.2,3.7-0.5c2.7-0.6,5.2-1.7,7.4-3.1h-0.2c2.6,1,5.1,2,7.5,3
						l0.4,0.2l-0.1-0.5c-0.8-2.8-1.5-5.5-2.2-8.1v0.2c2.1-2.8,3.5-6,4-9.2c0.3-1.6,0.4-3.2,0.3-4.7c0-0.8-0.1-1.5-0.2-2.3
						c-0.1-0.4-0.1-0.7-0.2-1.1s-0.2-0.7-0.3-1.1c-1.5-5.7-5-9.9-8.4-12.3c-1.7-1.2-3.4-2.1-5-2.6c-0.4-0.1-0.8-0.3-1.1-0.4
						c-0.4-0.1-0.7-0.2-1.1-0.3c-0.3-0.1-0.7-0.2-1-0.2c-0.3-0.1-0.6-0.1-0.9-0.1c-0.6-0.1-1.1-0.2-1.5-0.2s-0.8,0-1.1,0
						c-0.3,0-0.5,0-0.7,0C256.4,67.8,256.3,67.8,256.3,67.8s0.1,0,0.2,0c0.2,0,0.4,0,0.7,0.1c0.3,0,0.7,0,1.1,0.1
						c0.4,0,0.9,0.1,1.5,0.2c2.2,0.4,5.5,1.3,8.9,3.8c3.4,2.4,6.8,6.5,8.2,12.1c0.1,0.3,0.2,0.7,0.3,1c0.1,0.4,0.1,0.7,0.2,1.1
						c0.1,0.7,0.2,1.5,0.2,2.2c0.1,1.5,0,3.1-0.3,4.6c-0.6,3.1-1.9,6.3-4,9l-0.1,0.1v0.1c0.7,2.6,1.4,5.3,2.2,8.1l0.3-0.3
						c-2.5-1-5-2-7.5-3h-0.1l-0.1,0.1c-2.2,1.4-4.6,2.5-7.2,3c-1.2,0.3-2.4,0.4-3.6,0.5c-0.6,0-1.2,0-1.8,0c-0.6,0-1.2,0-1.8-0.2
						c-2.4-0.3-4.7-1-6.7-2.1c-2.1-1-3.9-2.4-5.5-4s-2.9-3.4-3.9-5.3s-1.6-3.9-2-5.9c-0.1-0.5-0.2-1-0.2-1.5c-0.1-0.5-0.1-1-0.1-1.5
						c-0.1-1,0-1.9,0-2.9c0.3-3.8,1.7-7.2,3.5-9.9c1.8-2.7,4-4.7,6.2-6.1c2.1-1.4,4.3-2.2,6-2.7c0.4-0.1,0.9-0.2,1.2-0.3
						c0.4-0.1,0.8-0.1,1.1-0.2s0.7-0.1,1-0.2c0.3,0,0.6,0,0.8-0.1c0.5,0,0.8-0.1,1.1-0.1C256.2,67.9,256.3,67.9,256.3,67.8z"/>
				</g>
			</g>
		</g>
	</g>
</g>
<g id="Plants">
	<g>
		<g>
			<g>
				<g>
					<rect x="36" y="239.2" fill="#1A2E35" width="39.7" height="5.5"/>
				</g>
			</g>
			<g>
				<g>
					<path fill="#1A2E35" d="M75.8,244.8H36v-5.6h39.9L75.8,244.8L75.8,244.8z M36.1,244.6h39.6v-5.3H36.1V244.6z"/>
				</g>
			</g>
		</g>
		<g>
			<g>
				<g>
					<polygon fill="#1A2E35" points="39.7,242.9 45.4,271.1 66.6,271.1 72.1,244.7 					"/>
				</g>
			</g>
		</g>
		<g>
			<g>
				<g>
					<polygon fill="#375A64" points="39.7,268.4 42.8,272.6 68.5,272.6 72.1,268.4 					"/>
				</g>
			</g>
		</g>
		<g>
			<g>
				<g>
					<g>
						<path fill="#1A2E35" d="M54.4,243.7c-0.1,0-0.2-13.1-0.2-29.2s0-29.2,0.1-29.2s0.2,13.1,0.2,29.2S54.5,243.7,54.4,243.7z"/>
					</g>
				</g>
			</g>
		</g>
		<g>
			<g>
				<g>
					<g>
						<path fill="#1A2E35" d="M63.3,211c0,0,0,0.1-0.1,0.3s-0.2,0.5-0.4,0.8c-0.1,0.2-0.2,0.4-0.3,0.6c-0.1,0.2-0.2,0.5-0.3,0.7
							c-0.1,0.3-0.2,0.6-0.3,0.9c-0.1,0.3-0.2,0.6-0.3,1c-0.4,1.4-0.8,3-1.1,4.9s-0.5,3.9-0.6,6.1c-0.2,4.3,0.1,8.3,0.3,11.1
							c0.1,1.4,0.3,2.6,0.4,3.4c0,0.4,0.1,0.7,0.1,0.9s0,0.3,0,0.3s0-0.1-0.1-0.3c0-0.2-0.1-0.5-0.2-0.9c-0.1-0.8-0.3-1.9-0.4-3.4
							c-0.3-2.8-0.6-6.8-0.4-11.2c0.1-2.2,0.3-4.2,0.6-6.1c0.3-1.9,0.7-3.5,1.2-4.9c0.1-0.3,0.2-0.7,0.3-1s0.2-0.6,0.3-0.8
							c0.1-0.3,0.2-0.5,0.3-0.7s0.2-0.4,0.3-0.6c0.2-0.3,0.3-0.6,0.4-0.8C63.2,211.1,63.3,211,63.3,211z"/>
					</g>
				</g>
			</g>
		</g>
		<g>
			<g>
				<g>
					<g>
						<path fill="#1A2E35" d="M62.2,200.4c0,0,0,0.2-0.1,0.4c-0.1,0.3-0.2,0.7-0.4,1.2c-0.1,0.3-0.2,0.6-0.3,0.9
							c-0.1,0.3-0.2,0.7-0.3,1.1c-0.2,0.8-0.5,1.6-0.7,2.6c-0.1,0.5-0.3,1-0.4,1.5c-0.1,0.5-0.2,1.1-0.4,1.7
							c-0.3,1.1-0.5,2.4-0.7,3.7c-0.4,2.6-0.8,5.5-1.1,8.5s-0.4,5.9-0.4,8.6c0,2.6,0,5,0.1,7c0,1,0.1,1.9,0.2,2.7
							c0,0.8,0.1,1.5,0.1,2s0.1,1,0.1,1.3s0,0.4,0,0.4s0-0.2-0.1-0.4c0-0.3-0.1-0.7-0.2-1.3c-0.1-0.6-0.1-1.2-0.2-2
							c-0.1-0.8-0.1-1.7-0.2-2.7c-0.1-2-0.2-4.4-0.2-7s0.1-5.5,0.4-8.6c0.3-3,0.7-5.9,1.1-8.5c0.3-1.3,0.5-2.5,0.8-3.7
							c0.1-0.6,0.3-1.1,0.4-1.7c0.1-0.5,0.3-1,0.4-1.5c0.3-1,0.5-1.8,0.8-2.6c0.1-0.4,0.2-0.7,0.3-1.1c0.1-0.3,0.2-0.6,0.3-0.9
							c0.2-0.5,0.3-0.9,0.5-1.2C62.2,200.5,62.2,200.4,62.2,200.4z"/>
					</g>
				</g>
			</g>
		</g>
		<g>
			<g>
				<g>
					<g>
						<path fill="#1A2E35" d="M51.9,246c0,0,0-0.1,0-0.2c0-0.1,0-0.3,0-0.4c0-0.4-0.1-1-0.1-1.7c-0.1-1.5-0.2-3.7-0.4-6.4
							c-0.3-5.4-0.8-12.8-1.7-21c-0.5-4.1-1-8-1.6-11.5c-0.3-1.8-0.6-3.4-0.9-5c-0.3-1.6-0.6-3-0.9-4.3c-0.3-1.3-0.6-2.5-0.8-3.5
							s-0.5-1.9-0.6-2.7c-0.2-0.7-0.3-1.3-0.4-1.7c0-0.2-0.1-0.3-0.1-0.4c0-0.1,0-0.2,0-0.2s0,0,0.1,0.1c0,0.1,0.1,0.3,0.1,0.4
							c0.1,0.4,0.3,1,0.5,1.7s0.4,1.6,0.7,2.7c0.2,1,0.6,2.2,0.8,3.5c0.3,1.3,0.6,2.8,0.9,4.3c0.3,1.6,0.6,3.2,0.9,5
							c0.6,3.5,1.1,7.4,1.6,11.5c0.9,8.2,1.4,15.6,1.7,21c0.1,2.7,0.2,4.9,0.3,6.4c0,0.7,0,1.3,0.1,1.7c0,0.2,0,0.3,0,0.5
							C51.9,246,51.9,246,51.9,246z"/>
					</g>
				</g>
			</g>
		</g>
		<g>
			<g>
				<g>
					<path fill="#D03652" d="M54.1,191.6c-0.2-1.9-2-3.3-3.9-3.3s-3.6,1.1-4.7,2.6c-1.1,1.5-1.8,3.3-2.3,5.1
						c-1.3,4.4-1.9,8.9-1.4,13.5c0.5,4.5,2.4,8.9,5.6,12.1c0.5,0.5,1.2,1,1.9,0.9c0.4-0.1,0.7-0.4,1-0.6c6.4-5.7,10-14.3,9.8-22.9
						c-0.1-1.7-0.3-3.5-1.2-4.9C57.9,192.5,55.7,191,54.1,191.6"/>
				</g>
			</g>
		</g>
		<g>
			<g>
				<g>
					<g>
						<path fill="#FF4F5B" d="M40.2,176.7c-0.9,1.6-1.7,3.2-2.6,4.7c-0.1,0.1-0.1,0.2-0.3,0.2c-0.1,0-0.2-0.1-0.3-0.2
							c-2.3-3.5-4.6-7.1-6.9-10.6l1.6-0.9L40.2,176.7z"/>
					</g>
				</g>
			</g>
			<g>
				<g>
					<g>
						<g>
							<path fill="#991635" d="M40.2,176.7c-0.9,1.6-1.7,3.2-2.6,4.7c-0.1,0.1-0.1,0.2-0.3,0.2c-0.1,0-0.2-0.1-0.3-0.2
								c-2.3-3.5-4.6-7.1-6.9-10.6l1.6-0.9L40.2,176.7z"/>
						</g>
					</g>
				</g>
			</g>
			<g>
				<g>
					<g>
						<path fill="#D03652" d="M54.2,185.3c-7.9-4.6-15.8-9.3-23.6-13.9c-0.2-0.1-0.5-0.3-0.6-0.6s0.2-0.7,0.4-0.9
							c3.3-3.4,8-5.3,12.6-5c4.7,0.3,9.1,3,11.4,7.1C56.8,176,56.9,181.4,54.2,185.3"/>
					</g>
				</g>
			</g>
			<g>
				<g>
					<g>
						<g>
							<path fill="#1A2E35" d="M34,166.9c0,0,0.1,0,0.3,0s0.5,0,0.9,0c0.8,0,1.9,0,3.3,0.3c1.4,0.2,3,0.7,4.7,1.4s3.4,1.8,5,3.3
								c1.6,1.4,2.8,3.1,3.7,4.7c0.9,1.6,1.5,3.2,1.9,4.5s0.5,2.5,0.6,3.2c0,0.4,0,0.5,0,0.7s-0.2,0.5-0.2,0.5s0.1-0.4,0-1.2
								s-0.3-1.9-0.7-3.2c-0.7-2.6-2.5-6.2-5.6-9s-6.8-4.2-9.5-4.7c-1.4-0.3-2.5-0.3-3.2-0.3C34.4,166.9,34,166.9,34,166.9z"/>
						</g>
					</g>
				</g>
			</g>
			<g>
				<g>
					<g>
						<g>
							<path fill="#1A2E35" d="M51,175.7c0,0-0.4,0.2-1.2,0.5s-1.8,0.7-3,1.1c-1.2,0.4-2.3,0.7-3,0.9c-0.8,0.2-1.3,0.3-1.3,0.2
								c0,0,0.5-0.2,1.2-0.4c0.9-0.3,1.9-0.6,3-0.9c1.1-0.4,2.1-0.7,3-1C50.5,175.8,51,175.6,51,175.7z"/>
						</g>
					</g>
				</g>
			</g>
			<g>
				<g>
					<g>
						<g>
							<path fill="#1A2E35" d="M47.3,165.7c0.1,0,0.2,1.2,0.3,2.6c0,1.5-0.1,2.7-0.1,2.6c-0.1,0-0.1-1.2-0.1-2.6
								C47.3,166.9,47.2,165.7,47.3,165.7z"/>
						</g>
					</g>
				</g>
			</g>
			<g>
				<g>
					<g>
						<g>
							<path fill="#1A2E35" d="M30.4,171.1c0,0,0.6-0.3,1.7-0.6s2.6-0.8,4.2-1.2c1.7-0.4,3.2-0.7,4.3-0.9s1.8-0.3,1.8-0.2
								c0,0-0.7,0.2-1.8,0.4s-2.6,0.6-4.3,1s-3.2,0.8-4.2,1.1C31.1,170.9,30.4,171.1,30.4,171.1z"/>
						</g>
					</g>
				</g>
			</g>
		</g>
		<g>
			<g>
				<g>
					<g>
						<path fill="#D03652" d="M44.3,187.6c-2-1.5-4.2-1.8-6.7-1.7s-5,0.9-7.4,1.9c-4,1.7-7.7,4.3-10.1,8c-2.4,3.6-3.2,8.5-1.4,12.4
							c0.2,0.4,0.4,0.8,0.8,1s0.9,0,1.3-0.1c4.5-1.5,9.1-3,13.3-5.3s8-5.5,10.2-9.7c0.5-1,1-2.1,1.1-3.2
							C45.4,189.6,45.1,188.4,44.3,187.6"/>
					</g>
				</g>
			</g>
			<g>
				<g>
					<g>
						<g>
							<path fill="#1A2E35" d="M44.3,187.1c0,0-0.1,0.1-0.3,0.1c-0.2,0.1-0.6,0.2-0.9,0.3c-0.2,0.1-0.4,0.1-0.7,0.2
								c-0.2,0.1-0.5,0.2-0.8,0.3c-0.6,0.2-1.2,0.5-1.9,0.8c-0.4,0.2-0.7,0.3-1.1,0.5c-0.4,0.2-0.8,0.4-1.2,0.6
								c-0.8,0.4-1.7,0.9-2.5,1.4c-1.7,1.1-3.6,2.4-5.4,4s-3.3,3.2-4.6,4.8c-0.6,0.8-1.2,1.6-1.8,2.3c-0.3,0.4-0.5,0.7-0.7,1.1
								c-0.2,0.4-0.4,0.7-0.6,1c-0.4,0.7-0.7,1.3-1,1.8c-0.1,0.3-0.3,0.5-0.4,0.8c-0.1,0.2-0.2,0.5-0.3,0.7
								c-0.2,0.4-0.3,0.7-0.4,0.9s-0.2,0.3-0.2,0.3s0-0.1,0.1-0.3s0.2-0.5,0.4-0.9c0.1-0.2,0.2-0.4,0.3-0.7c0.1-0.2,0.3-0.5,0.4-0.8
								c0.3-0.5,0.6-1.2,1-1.9c0.2-0.3,0.4-0.7,0.6-1.1c0.2-0.4,0.5-0.7,0.7-1.1c0.5-0.8,1.1-1.5,1.7-2.4c1.3-1.6,2.9-3.3,4.6-4.9
								c1.8-1.6,3.7-2.9,5.4-4c0.9-0.5,1.7-1,2.6-1.4c0.4-0.2,0.8-0.4,1.2-0.6c0.4-0.2,0.8-0.3,1.1-0.5c0.7-0.3,1.4-0.6,2-0.8
								c0.3-0.1,0.6-0.2,0.8-0.3c0.3-0.1,0.5-0.1,0.7-0.2c0.4-0.1,0.7-0.2,1-0.3C44.2,187.1,44.3,187.1,44.3,187.1z"/>
						</g>
					</g>
				</g>
			</g>
			<g>
				<g>
					<g>
						<g>
							<path fill="#1A2E35" d="M28.4,195.7c0,0.1-2.2,0.8-4.9,1.6c-2.8,0.8-5,1.4-5,1.3c0-0.1,2.2-0.8,4.9-1.6
								C26.2,196.2,28.4,195.6,28.4,195.7z"/>
						</g>
					</g>
				</g>
			</g>
			<g>
				<g>
					<g>
						<g>
							<path fill="#1A2E35" d="M28.2,206.6c0,0-0.1-0.6-0.1-1.5c0-1,0-2.3,0-3.7c0-1.5,0.1-2.8,0.2-3.7s0.2-1.5,0.2-1.5s0,0.6,0,1.5
								c0,1-0.1,2.3-0.1,3.7s-0.1,2.7-0.1,3.7C28.3,206,28.3,206.6,28.2,206.6z"/>
						</g>
					</g>
				</g>
			</g>
			<g>
				<g>
					<g>
						<g>
							<path fill="#1A2E35" d="M37.6,201.8c-0.1,0-0.3-2.7-0.6-6c-0.2-3.3-0.4-6-0.3-6c0.1,0,0.3,2.7,0.6,6
								C37.5,199.1,37.7,201.8,37.6,201.8z"/>
						</g>
					</g>
				</g>
			</g>
			<g>
				<g>
					<g>
						<g>
							<path fill="#1A2E35" d="M25.9,189.6c0,0,0.6-0.1,1.6,0c1,0,2.3,0,3.8,0.1c1.5,0,2.8,0.1,3.8,0.2c1,0.1,1.6,0.1,1.6,0.2
								c0,0-0.6,0.1-1.6,0c-1,0-2.3,0-3.8-0.1c-1.5,0-2.8-0.1-3.8-0.2C26.5,189.7,25.9,189.6,25.9,189.6z"/>
						</g>
					</g>
				</g>
			</g>
		</g>
		<g>
			<g>
				<g>
					<g>
						<path fill="#1A2E35" d="M48.4,222.1c0,0,0-0.1,0-0.3s0-0.5,0-0.9c0-0.8,0-1.9,0-3.3c0-1.4,0.1-3.1,0.3-5s0.5-3.9,0.8-6
							c0.4-2.1,0.9-4.1,1.3-5.9c0.5-1.8,1-3.4,1.5-4.8c0.5-1.3,0.9-2.4,1.2-3.1c0.1-0.3,0.3-0.6,0.4-0.8c0.1-0.2,0.1-0.3,0.1-0.3
							s0,0.1-0.1,0.3s-0.2,0.5-0.3,0.9c-0.3,0.7-0.7,1.8-1.1,3.2c-0.4,1.3-0.9,3-1.4,4.8s-0.9,3.8-1.3,5.9c-0.4,2.1-0.7,4.1-0.9,6
							s-0.3,3.5-0.4,4.9c-0.1,1.4-0.1,2.6-0.1,3.3c0,0.4,0,0.7,0,0.9C48.4,222,48.4,222.1,48.4,222.1z"/>
					</g>
				</g>
			</g>
		</g>
		<g>
			<g>
				<g>
					<g>
						<path fill="#1A2E35" d="M49.6,206.7c0,0-0.3,0.4-0.9,1c-0.6,0.6-1.5,1.4-2.5,2.3c-1,0.9-1.9,1.6-2.6,2.1
							c-0.7,0.5-1.1,0.8-1.1,0.8s0.4-0.4,1-1c0.7-0.6,1.6-1.4,2.5-2.2s1.8-1.6,2.5-2.2C49.2,207,49.6,206.6,49.6,206.7z"/>
					</g>
				</g>
			</g>
		</g>
		<g>
			<g>
				<g>
					<g>
						<path fill="#1A2E35" d="M57.1,212.7c0,0-0.4-0.5-1-1.4s-1.4-2.1-2.3-3.4c-0.9-1.3-1.7-2.4-2.4-3.4c-0.6-0.9-1-1.4-1-1.4
							s0.5,0.5,1.1,1.3c0.7,0.8,1.5,2,2.5,3.3c0.9,1.3,1.7,2.6,2.3,3.5C56.8,212.1,57.1,212.7,57.1,212.7z"/>
					</g>
				</g>
			</g>
		</g>
		<g>
			<g>
				<g>
					<g>
						<path fill="#1A2E35" d="M53.2,193.7c0,0.1-2.4,1.7-5.5,3.7S42,201,42,200.9s2.4-1.7,5.5-3.7S53.1,193.7,53.2,193.7z"/>
					</g>
				</g>
			</g>
		</g>
		<g>
			<g>
				<g>
					<g>
						<path fill="#1A2E35" d="M60.2,201.3c-0.1,0.1-1.7-1.5-3.8-3.5c-2-2-3.6-3.6-3.6-3.7c0.1-0.1,1.7,1.5,3.8,3.5
							S60.2,201.3,60.2,201.3z"/>
					</g>
				</g>
			</g>
		</g>
		<g>
			<g>
				<g>
					<g>
						<path fill="#D03652" d="M62,201.2l2.1-0.2c1.5-0.1,3-0.6,4.3-1.3c0.7-0.4,1.3-0.7,2-1c2.6-1.1,5.6-0.9,8.4-1
							c4.6-0.2,9.2-1.4,13.4-3.4c0.2-0.1,0.5-0.3,0.6-0.5c0.4-0.8-0.4-1.5-1.1-1.9c-3.6-2.2-7.3-4.5-11.3-5.6
							c-4.1-1.1-8.7-0.9-12.2,1.5C64.1,190.5,62.6,196.2,62,201.2"/>
					</g>
				</g>
			</g>
			<g>
				<g>
					<g>
						<g>
							<path fill="#1A2E35" d="M92.8,193.4c0,0-0.1,0-0.4-0.2c-0.3-0.1-0.6-0.3-1-0.5c-0.9-0.5-2.1-1.1-3.7-1.9
								c-1.6-0.8-3.5-1.6-5.8-2.2c-2.2-0.6-4.8-0.9-7.5-0.6c-2.7,0.3-5.1,1.4-6.8,2.9c-1.7,1.5-2.8,3.4-3.6,5
								c-0.7,1.6-1.2,3-1.5,3.9c-0.2,0.4-0.3,0.8-0.4,1.1c-0.1,0.2-0.1,0.4-0.1,0.4s0-0.1,0.1-0.4c0.1-0.3,0.2-0.6,0.3-1.1
								c0.3-0.9,0.7-2.3,1.5-3.9c0.7-1.6,1.8-3.5,3.6-5.1s4.3-2.7,7-3s5.3,0,7.6,0.6c2.3,0.6,4.2,1.5,5.8,2.3c1.6,0.8,2.8,1.5,3.7,2
								c0.4,0.2,0.7,0.4,1,0.6C92.7,193.3,92.8,193.4,92.8,193.4z"/>
						</g>
					</g>
				</g>
			</g>
			<g>
				<g>
					<g>
						<g>
							<path fill="#1A2E35" d="M87.7,196.2c0,0.1-2.8-1.7-6.2-4c-3.4-2.3-6.1-4.2-6.1-4.3s2.8,1.7,6.2,4
								C85,194.2,87.8,196.1,87.7,196.2z"/>
						</g>
					</g>
				</g>
			</g>
			<g>
				<g>
					<g>
						<g>
							<path fill="#1A2E35" d="M84.7,187.7c0,0.1-0.9,0.3-2,0.4c-1.1,0.1-2.1,0-2.1,0c0-0.1,0.9-0.1,2-0.2
								C83.8,187.8,84.7,187.7,84.7,187.7z"/>
						</g>
					</g>
				</g>
			</g>
			<g>
				<g>
					<g>
						<g>
							<path fill="#1A2E35" d="M72.5,186.1c0.1,0-0.3,0.7-0.9,1.4c-0.6,0.8-1.1,1.3-1.2,1.3s0.3-0.7,0.9-1.4
								C71.9,186.7,72.5,186.1,72.5,186.1z"/>
						</g>
					</g>
				</g>
			</g>
			<g>
				<g>
					<g>
						<g>
							<path fill="#1A2E35" d="M75,197.8c0,0-0.5-0.2-1.3-0.7s-1.9-1.2-3.1-2.1c-1.2-0.8-2.2-1.6-2.9-2.2c-0.7-0.6-1.2-1-1.2-1
								s0.5,0.3,1.3,0.8c0.8,0.6,1.9,1.3,3,2.2c1.2,0.8,2.2,1.6,3,2.1C74.6,197.5,75.1,197.8,75,197.8z"/>
						</g>
					</g>
				</g>
			</g>
		</g>
		<g>
			<g>
				<g>
					<g>
						<path fill="#D03652" d="M65.1,210.2c-2-0.5-4.5,1.4-4.9,3.5s0.4,4.2,1.3,6.1c2,4.2,4.8,8.1,8.4,11s8.2,4.8,12.9,4.7
							c-0.9-4,0.2-8.2-0.3-12.2c-0.4-3.5-2.1-6.9-4.6-9.4s-5.9-4.1-9.5-4.5C67.1,209.2,65.6,209,65.1,210.2"/>
					</g>
				</g>
			</g>
			<g>
				<g>
					<g>
						<g>
							<path fill="#1A2E35" d="M82.8,235.5c0,0-0.1,0-0.3-0.1c-0.2-0.1-0.4-0.3-0.8-0.5c-0.6-0.5-1.4-1.4-2-2.7
								c-0.3-0.6-0.7-1.3-1-2.1s-0.7-1.6-1.1-2.4c-0.4-0.8-0.8-1.7-1.3-2.6c-0.5-0.9-1.2-1.7-1.9-2.5c-1.4-1.6-2.9-3.1-4.2-4.4
								c-1.3-1.3-2.4-2.6-3.2-3.8c-0.8-1.2-1.3-2.2-1.6-3c-0.1-0.4-0.2-0.7-0.3-0.9c-0.1-0.2-0.1-0.3-0.1-0.3s0.1,0.4,0.4,1.1
								c0.3,0.7,0.8,1.8,1.6,2.9c0.8,1.2,1.9,2.4,3.2,3.8c1.3,1.3,2.8,2.7,4.2,4.4c0.7,0.8,1.3,1.7,1.9,2.6c0.5,0.9,1,1.8,1.3,2.6
								c0.4,0.9,0.7,1.7,1.1,2.4c0.3,0.8,0.7,1.4,1,2.1c0.6,1.3,1.3,2.2,1.9,2.7C82.4,235.3,82.8,235.5,82.8,235.5z"/>
						</g>
					</g>
				</g>
			</g>
			<g>
				<g>
					<g>
						<g>
							<path fill="#1A2E35" d="M72.2,232.2c0,0,0-0.5,0.2-1.4c0.2-0.8,0.4-2,0.8-3.2c0.4-1.3,0.7-2.4,1-3.2s0.5-1.3,0.6-1.3
								c0,0-0.1,0.5-0.4,1.3s-0.6,1.9-0.9,3.2c-0.4,1.2-0.6,2.4-0.9,3.2C72.4,231.7,72.3,232.2,72.2,232.2z"/>
						</g>
					</g>
				</g>
			</g>
			<g>
				<g>
					<g>
						<g>
							<path fill="#1A2E35" d="M82.4,222.4c0,0-0.6-0.1-1.4-0.3c-0.9-0.2-2.1-0.5-3.4-0.8s-2.6-0.5-3.5-0.7s-1.4-0.3-1.4-0.3
								s0.6,0,1.5,0.1s2.1,0.3,3.5,0.6s2.6,0.7,3.4,0.9C81.9,222.2,82.4,222.4,82.4,222.4z"/>
						</g>
					</g>
				</g>
			</g>
			<g>
				<g>
					<g>
						<g>
							<path fill="#1A2E35" d="M64.7,225.3c0,0,0-0.6,0.2-1.6s0.5-2.3,0.8-3.8c0.4-1.5,0.8-2.8,1.1-3.7c0.3-0.9,0.5-1.5,0.6-1.5
								c0,0-0.1,0.6-0.4,1.5s-0.6,2.3-1,3.7c-0.4,1.5-0.7,2.8-0.9,3.7C64.9,224.7,64.7,225.3,64.7,225.3z"/>
						</g>
					</g>
				</g>
			</g>
			<g>
				<g>
					<g>
						<g>
							<path fill="#1A2E35" d="M77.7,213.9c0,0.1-2.5-0.1-5.7-0.5c-3.1-0.3-5.7-0.7-5.6-0.7c0-0.1,2.5,0.1,5.7,0.5
								C75.2,213.5,77.7,213.8,77.7,213.9z"/>
						</g>
					</g>
				</g>
			</g>
		</g>
		<g>
			<g>
				<g>
					<g>
						<path fill="#375A64" d="M75.8,244.7c0,0.1-8.9,0.1-19.9,0.1S36,244.7,36,244.7c0-0.1,8.9-0.1,19.9-0.1
							C66.9,244.5,75.8,244.6,75.8,244.7z"/>
					</g>
				</g>
			</g>
		</g>
		<g>
			<g>
				<g>
					<g>
						<path fill="#375A64" d="M69.6,256.2c0,0.1-6,0.1-13.4,0.1s-13.4-0.1-13.4-0.1c0-0.1,6-0.1,13.4-0.1
							C63.6,256,69.6,256.1,69.6,256.2z"/>
					</g>
				</g>
			</g>
		</g>
		<g>
			<g>
				<g>
					<g>
						<path fill="#375A64" d="M69.4,257.8c0,0.1-5.9,0.1-13.2,0.1S43,257.8,43,257.8c0-0.1,5.9-0.1,13.2-0.1
							C63.5,257.7,69.4,257.7,69.4,257.8z"/>
					</g>
				</g>
			</g>
		</g>
		<g>
			<g>
				<g>
					<g>
						<path fill="#375A64" d="M69.9,254.8c0,0.1-6.2,0.1-13.9,0.1s-13.9-0.1-13.9-0.1c0-0.1,6.2-0.1,13.9-0.1
							C63.6,254.7,69.9,254.7,69.9,254.8z"/>
					</g>
				</g>
			</g>
		</g>
	</g>
	<g>
		<rect x="345" y="96.4" fill="#375A64" width="68.4" height="3.5"/>
		<g>
			<g>
				<g>
					<g>
						<path fill="#E1E1E1" d="M400.8,60.8C400.8,60.8,400.8,60.8,400.8,60.8c0-0.2-0.1-0.3-0.2-0.4c-0.2-0.3-0.4-0.7-0.7-1.1
							c-0.7-0.9-1.8-2.3-3.6-3.4c-0.9-0.5-2-1-3.2-1.2s-2.6-0.1-3.9,0.4s-2.6,1.4-3.3,2.7c-0.8,1.3-1,2.9-1.5,4.4
							c-0.2,0.7-0.5,1.5-0.9,2.1s-1,1.1-1.6,1.6c-0.6,0.4-1.2,0.8-1.8,1.3c-0.6,0.5-1.1,1-1.4,1.6c-0.8,1.1-1.2,2.4-1.5,3.6
							c-0.2,1.2-0.3,2.4-0.2,3.4c0.1,2.1,0.6,3.7,0.9,4.8c0.1,0.6,0.3,1,0.4,1.3s0.1,0.4,0.1,0.4s0-0.2-0.1-0.5s-0.2-0.8-0.3-1.3
							c-0.3-1.1-0.7-2.8-0.8-4.8c-0.1-1,0-2.2,0.2-3.3c0.2-1.2,0.7-2.4,1.5-3.5c0.4-0.6,0.9-1.1,1.4-1.5s1.2-0.8,1.8-1.3
							c0.6-0.4,1.2-1,1.6-1.6c0.4-0.7,0.7-1.4,1-2.2c0.5-1.5,0.7-3.1,1.4-4.3c0.7-1.3,1.9-2.2,3.2-2.6c1.3-0.5,2.6-0.6,3.8-0.4
							c1.2,0.2,2.2,0.6,3.1,1.1c1.8,1,2.9,2.4,3.6,3.3c0.3,0.5,0.6,0.8,0.8,1.1C400.7,60.7,400.8,60.8,400.8,60.8z"/>
					</g>
					<path fill="#E1E1E1" d="M381.3,66.3c0.4-0.4,0.6-0.1,1.2,0s1.1,0.4,1.5,0.7c1.9,1.5,2.8,4.3,2,6.6c-1.8,0.1-3.5-0.8-4.5-2.3
						c-0.9-1.5-0.9-3.5-0.1-5"/>
					<path fill="#E1E1E1" d="M398.2,58.6c0.2-0.5,0.5-0.4,1-0.5s1.1-0.1,1.7,0c2.4,0.6,4.3,2.7,4.7,5.1c-1.5,0.8-3.6,0.8-5-0.2
						c-1.5-1-2.4-2.8-2.2-4.5"/>
					<path fill="#E1E1E1" d="M377.5,76.7c1.1-1.3,2.9-2,4.6-2c1.7,0.1,3.4,1,4.4,2.4c-1.3,1.1-2.9,1.8-4.6,1.8s-3.4-0.8-4.7-1.9"/>
					<path fill="#E1E1E1" d="M378.9,68.9c-1.7,0-3.4-0.7-4.6-2c-1.1-1.3-1.6-3.1-1.3-4.8c1.8-0.4,3.8,0.2,5,1.6s1.6,3.5,1,5.2"/>
					<path fill="#E1E1E1" d="M384.9,59.8c-1.6,0.6-3.5,0.5-5-0.4s-2.5-2.4-2.8-4.1c1.6-1,3.7-1,5.3-0.1c1.6,0.9,2.7,2.7,2.6,4.6"/>
					<path fill="#E1E1E1" d="M386.9,56.8c1.6-0.6,3.5-0.5,5,0.4s2.5,2.4,2.8,4.1c-1.6,1-3.7,1-5.3,0.1c-1.6-0.9-2.7-2.7-2.6-4.6"/>
					<path fill="#E1E1E1" d="M389.3,55.2c-1.6-0.6-3-1.9-3.6-3.5s-0.4-3.5,0.5-5c1.8,0.2,3.5,1.5,4.2,3.3c0.7,1.7,0.3,3.8-0.9,5.2"
						/>
					<path fill="#E1E1E1" d="M395.4,55.5c-0.6-1.6-0.4-3.5,0.5-5s2.5-2.5,4.2-2.7c1,1.6,1,3.7,0,5.3c-0.9,1.6-2.8,2.6-4.6,2.6"/>
				</g>
				<polyline fill="#1A2E35" points="370.8,96.7 367.5,76.3 392.4,76.6 390,96.5 				"/>
				<g>
					<g>
						<g>
							<path fill="#FF4F5B" d="M381.5,72.6c1.3,0.8,2.9,1,4.1,0.4s2.1-2,2.3-3.6c-1.4-0.7-2.9-0.7-4.1-0.2c-1.3,0.5-2.3,1.6-2.7,3.1
								"/>
							<path fill="#FF4F5B" d="M392.9,77c1.3,0.8,2.9,1,4.1,0.4s2.1-2,2.3-3.6c-1.4-0.7-2.9-0.7-4.1-0.2c-1.3,0.5-2.3,1.6-2.7,3.1"
								/>
							<path fill="#FF4F5B" d="M386.5,67.2c0.7,1.4,1.9,2.4,3.3,2.6s2.8-0.5,3.9-1.7c-0.8-1.3-2-2.2-3.3-2.4c-1.3-0.3-2.8,0.1-4,1.1
								"/>
							<path fill="#FF4F5B" d="M390.7,72.3c-1.6,0-3,0.7-3.7,1.8c-0.7,1.2-0.8,2.8-0.1,4.2c1.5-0.1,2.8-0.9,3.6-2
								c0.8-1.1,1.1-2.6,0.8-4"/>
							<path fill="#FF4F5B" d="M394.7,80.3c-0.7,1.4-0.6,3,0.1,4.1c0.7,1.2,2.2,1.9,3.8,1.9c0.5-1.4,0.4-2.9-0.2-4.1
								c-0.7-1.2-1.8-1.8-3.3-2.1"/>
						</g>
						<g>
							<path fill="#FF4F5B" d="M401.3,81.2c0,0-0.3-0.4-1-0.6c-0.4-0.1-0.8-0.2-1.4-0.2c-0.5,0-1.2,0.1-1.8,0.1
								c-0.7,0-1.5,0.1-2.3-0.2c-0.8-0.3-1.5-1-1.9-1.8s-0.6-1.8-0.8-2.8c-0.2-1-0.4-2-1-2.8c-0.6-0.9-1.4-1.5-2.1-2.1
								c-0.8-0.6-1.5-1.3-2-2c-1-1.6-1.2-3.3-1-4.7c0.2-1.4,0.8-2.4,1.2-3c0.2-0.3,0.4-0.5,0.6-0.7c0.1-0.1,0.2-0.2,0.2-0.2
								s-0.1,0.1-0.2,0.2c-0.1,0.1-0.3,0.4-0.6,0.7c-0.4,0.6-0.9,1.6-1.1,3c-0.2,1.3,0,3,1,4.5c0.5,0.7,1.2,1.4,2,2s1.6,1.3,2.2,2.2
								c0.6,0.9,0.8,2,1,2.9c0.2,1,0.4,1.9,0.8,2.7c0.4,0.8,1,1.4,1.7,1.7c0.7,0.3,1.5,0.2,2.2,0.2s1.3-0.1,1.9-0.1s1,0.1,1.4,0.3
								c0.4,0.2,0.6,0.3,0.7,0.5C401.2,81.1,401.2,81.1,401.3,81.2L401.3,81.2z"/>
						</g>
						<g>
							<path fill="#FF4F5B" d="M401.3,81.2c0,0-0.3-0.4-1-0.6c-0.4-0.1-0.8-0.2-1.4-0.2c-0.5,0-1.2,0.1-1.8,0.1
								c-0.7,0-1.5,0.1-2.3-0.2c-0.8-0.3-1.5-1-1.9-1.8s-0.6-1.8-0.8-2.8c-0.2-1-0.4-2-1-2.8c-0.6-0.9-1.4-1.5-2.1-2.1
								c-0.8-0.6-1.5-1.3-2-2c-1-1.6-1.2-3.3-1-4.7c0.2-1.4,0.8-2.4,1.2-3c0.2-0.3,0.4-0.5,0.6-0.7c0.1-0.1,0.2-0.2,0.2-0.2
								s-0.1,0.1-0.2,0.2c-0.1,0.1-0.3,0.4-0.6,0.7c-0.4,0.6-0.9,1.6-1.1,3c-0.2,1.3,0,3,1,4.5c0.5,0.7,1.2,1.4,2,2s1.6,1.3,2.2,2.2
								c0.6,0.9,0.8,2,1,2.9c0.2,1,0.4,1.9,0.8,2.7c0.4,0.8,1,1.4,1.7,1.7c0.7,0.3,1.5,0.2,2.2,0.2s1.3-0.1,1.9-0.1s1,0.1,1.4,0.3
								c0.4,0.2,0.6,0.3,0.7,0.5C401.2,81.1,401.2,81.1,401.3,81.2L401.3,81.2z"/>
						</g>
					</g>
					<g>
						<g>
							<path fill="#FF4F5B" d="M353.7,83.3c0.1-2.1-0.9-4.2-2.6-5.4c-1.7-1.2-4-1.5-5.9-0.8c1.4,3.3,4.7,5.7,8.3,6.1"/>
							<path fill="#FF4F5B" d="M352.1,84.2c-1.2,1.3-1.1,3.5-0.3,5.1c0.9,1.6,2.4,2.7,3.9,3.7c0.5-1.7,0.4-3.6-0.2-5.2
								c-0.6-1.7-1.8-3.1-3.3-4"/>
							<path fill="#FF4F5B" d="M358,77.9c0.2,1.9,1.2,3.8,2.8,5s3.6,1.8,5.5,1.5c-0.5-2-1.3-3.9-2.8-5.3c-1.5-1.3-3.9-1.8-5.6-0.7"
								/>
							<path fill="#FF4F5B" d="M358,75.9c-0.3-1.8-2.1-3.1-3.9-3.2c-1.8-0.2-3.6,0.6-5,1.7c1.1,1.2,2.6,2,4.3,2.2
								c1.6,0.2,3.3-0.3,4.6-1.3"/>
							<path fill="#FF4F5B" d="M348.7,91.1c-1.7,1.5-2.1,4.1-1.4,6.2s2.4,3.8,4.2,5.1c0.7-2.1,1.2-4.4,0.8-6.6
								c-0.4-2.2-1.7-4.3-3.8-5.2"/>
							<path fill="#FF4F5B" d="M357.7,70.9c0.9-1.3,2.4-2.2,4-2.3c1.6-0.1,3.2,0.6,4.3,1.8c-0.7,1.6-2.3,2.6-4,2.7
								c-1.7,0-3.4-1-4.2-2.5"/>
							<path fill="#FF4F5B" d="M359.8,65.8c-1.8,0.6-3.9,0.3-5.6-0.7c-1.6-1-2.8-2.7-3.2-4.6c1.4-0.1,2.8-0.2,4.1,0.1
								c1.4,0.2,2.7,0.8,3.6,1.8C359.8,63.3,360.1,64.4,359.8,65.8"/>
							<path fill="#FF4F5B" d="M363.7,64.4c-1.3-1-2-2.7-2.1-4.3c0-1.6,0.8-3.3,2-4.3c1.2,1.5,2.1,3.3,2.4,5.2
								c0.1,0.7,0.2,1.5,0,2.2s-0.8,1.3-1.5,1.4"/>
						</g>
						<g>
							<g>
							</g>
							<g>
								<g>
									<path fill="#FF4F5B" d="M370.6,77C370.6,77,370.6,77,370.6,77c0-0.2,0-0.3,0-0.5c0-0.4,0.1-0.9,0.1-1.6
										c0-1.4,0-3.4-0.9-5.7c-0.5-1.1-1.2-2.3-2.3-3.2c-1.1-0.9-2.5-1.6-4.1-1.5c-0.8,0-1.6,0.2-2.3,0.6c-0.7,0.4-1.4,1-1.8,1.7
										c-0.9,1.5-1.1,3.4-1,5.2c0.1,1.9,0.3,3.7,0.1,5.5c-0.1,0.9-0.3,1.8-0.7,2.5c-0.4,0.8-0.9,1.5-1.5,2
										c-0.7,0.5-1.4,0.8-2.1,1.1c-0.7,0.3-1.4,0.5-2,0.9c-1.2,0.7-2.1,1.8-2.6,2.9c-0.6,1.1-0.8,2.2-0.8,3.2s0.2,1.8,0.4,2.4
										c0.5,1.3,1,1.9,0.9,1.9c0,0,0,0-0.1-0.1s-0.1-0.2-0.2-0.3c-0.2-0.3-0.5-0.8-0.7-1.4s-0.4-1.5-0.5-2.5c0-1,0.2-2.1,0.7-3.2
										c0.6-1.1,1.4-2.2,2.7-3c1.2-0.8,2.9-1,4.1-2c1.3-1,1.9-2.7,2.1-4.4c0.2-1.7-0.1-3.6-0.1-5.4c-0.1-1.9,0.1-3.8,1.1-5.4
										c0.5-0.8,1.1-1.4,1.9-1.8s1.6-0.6,2.5-0.6c1.7,0,3.2,0.6,4.3,1.6c1.1,1,1.8,2.2,2.3,3.3c0.5,1.1,0.7,2.3,0.8,3.2
										c0.1,1,0.1,1.8,0.1,2.5s-0.1,1.2-0.1,1.6c0,0.2,0,0.3-0.1,0.4C370.6,76.9,370.6,77,370.6,77z"/>
								</g>
							</g>
						</g>
					</g>
					<g>
						<path fill="#FF4F5B" d="M406.9,72.5c0,0,0.3-0.6,0.4-1.8c0-0.6-0.1-1.3-0.5-2.1c-0.4-0.8-1.1-1.5-2-2c-0.5-0.2-1-0.4-1.6-0.4
							s-1.2,0-1.8,0.2c-1.2,0.3-2.4,1-3.9,1.3c-0.7,0.1-1.5,0.2-2.2-0.1c-0.8-0.2-1.4-0.8-1.8-1.5c-0.9-1.3-1.1-3-2.2-4.3
							c-0.5-0.6-1.2-1-2-1.3c-0.7-0.3-1.5-0.3-2.3-0.2c-1.5,0.1-2.9,0.9-3.8,2c-1,1.1-1.5,2.3-1.9,3.5c-0.4,1.2-0.5,2.4-0.4,3.5
							c0.1,2.2,0.5,3.9,0.6,5.1c0.1,0.6,0.2,1,0.2,1.4c0,0.1,0,0.3,0.1,0.4c0,0.1,0,0.1,0,0.1s0,0,0-0.1s0-0.2-0.1-0.4
							c-0.1-0.3-0.2-0.8-0.3-1.4c-0.2-1.2-0.6-2.9-0.7-5.1c-0.1-1.1,0-2.3,0.4-3.5s1-2.5,1.9-3.6c0.5-0.5,1.1-1,1.7-1.4
							c0.7-0.4,1.4-0.6,2.2-0.7c0.8-0.1,1.6,0,2.4,0.2c0.8,0.3,1.5,0.7,2.1,1.4c1.1,1.3,1.4,3,2.2,4.3c0.4,0.6,1,1.1,1.7,1.4
							c0.7,0.2,1.4,0.2,2.1,0.1c1.4-0.3,2.6-1,3.9-1.3c0.6-0.2,1.3-0.3,1.9-0.2c0.6,0,1.2,0.2,1.7,0.5c1,0.5,1.7,1.3,2.1,2.1
							c0.4,0.8,0.5,1.6,0.5,2.2s-0.2,1.1-0.3,1.4C406.9,72.4,406.9,72.5,406.9,72.5z"/>
					</g>
					<path fill="#FF4F5B" d="M392.3,63.5c1.3,0.8,3.2,0.9,4.4,0.3c1.2-0.6,2.1-2,2.3-3.6c-1.4-0.7-2.9-0.7-4.1-0.2
						c-1.3,0.5-2.3,1.6-2.7,3.1"/>
					<path fill="#FF4F5B" d="M397,67.8c0,1.6,0.9,3.2,2.1,3.9c1.2,0.7,2.8,0.8,4.2,0.1c-0.2-1.5-0.9-2.8-2-3.6
						c-1.1-0.8-2.6-1.1-4.1-0.7"/>
					<path fill="#FF4F5B" d="M405.2,66.8c1.4,0.7,3.3,0.6,4.4-0.2c1.2-0.7,1.9-2.2,1.9-3.8c-1.4-0.5-2.9-0.4-4.1,0.2
						c-1.2,0.7-2.1,1.9-2.4,3.3"/>
					<path fill="#FF4F5B" d="M385.4,60.6c-1.2-1-2-2.8-1.8-4.2s1.3-2.6,2.7-3.2c1,1.1,1.6,2.5,1.4,3.9c-0.1,1.4-0.9,2.6-2.1,3.5"/>
					<g>
						<g>
							<path fill="#FF4F5B" d="M353.4,54.8C353.4,54.8,353.4,54.8,353.4,54.8c0-0.2,0.1-0.3,0.2-0.4c0.2-0.3,0.4-0.7,0.7-1.1
								c0.7-0.9,1.8-2.3,3.6-3.4c0.9-0.5,2-1,3.2-1.2s2.6-0.1,3.9,0.4s2.6,1.4,3.3,2.7c0.8,1.3,1,2.9,1.5,4.4
								c0.2,0.7,0.5,1.5,0.9,2.1s1,1.1,1.6,1.6c0.6,0.4,1.2,0.8,1.8,1.3c0.6,0.5,1.1,1,1.4,1.6c0.8,1.1,1.2,2.4,1.5,3.6
								c0.2,1.2,0.3,2.4,0.2,3.4c-0.1,2.1-0.6,3.7-0.9,4.8c-0.1,0.6-0.3,1-0.4,1.3s-0.1,0.4-0.1,0.4s0-0.2,0.1-0.5s0.2-0.8,0.3-1.3
								c0.3-1.1,0.7-2.8,0.8-4.8c0.1-1,0-2.2-0.2-3.3c-0.2-1.2-0.7-2.4-1.5-3.5c-0.4-0.6-0.9-1.1-1.4-1.5s-1.2-0.8-1.8-1.3
								c-0.6-0.4-1.2-1-1.6-1.6c-0.4-0.7-0.7-1.4-1-2.2c-0.5-1.5-0.7-3.1-1.4-4.3c-0.7-1.3-1.9-2.2-3.2-2.6
								c-1.3-0.5-2.6-0.6-3.8-0.4c-1.2,0.2-2.2,0.6-3.1,1.1c-1.8,1-2.9,2.4-3.6,3.3c-0.3,0.5-0.6,0.8-0.8,1.1
								C353.5,54.6,353.4,54.8,353.4,54.8z"/>
						</g>
						<path fill="#FF4F5B" d="M373,60.3c-0.4-0.4-0.6-0.1-1.2,0s-1.1,0.4-1.5,0.7c-1.9,1.5-2.8,4.3-2,6.6c1.8,0.1,3.5-0.8,4.5-2.3
							c0.9-1.5,0.9-3.5,0.1-5"/>
						<path fill="#FF4F5B" d="M356,52.6c-0.2-0.5-0.5-0.4-1-0.5s-1.1-0.1-1.7,0c-2.4,0.6-4.3,2.7-4.7,5.1c1.5,0.8,3.6,0.8,5-0.2
							c1.5-1,2.4-2.8,2.2-4.5"/>
						<path fill="#FF4F5B" d="M376.7,70.7c-1.1-1.3-2.9-2-4.6-2c-1.7,0.1-3.4,1-4.4,2.4c1.3,1.1,2.9,1.8,4.6,1.8s3.4-0.8,4.7-1.9"/>
						<path fill="#FF4F5B" d="M375.3,62.9c1.7,0,3.4-0.7,4.6-2c1.1-1.3,1.6-3.1,1.3-4.8c-1.8-0.4-3.8,0.2-5,1.6
							c-1.2,1.4-1.6,3.5-1,5.2"/>
						<path fill="#FF4F5B" d="M369.3,53.7c1.6,0.6,3.5,0.5,5-0.4s2.5-2.4,2.8-4.1c-1.6-1-3.7-1-5.3-0.1c-1.6,0.9-2.7,2.7-2.6,4.6"/>
						<path fill="#FF4F5B" d="M367.4,50.8c-1.6-0.6-3.5-0.5-5,0.4s-2.5,2.4-2.8,4.1c1.6,1,3.7,1,5.3,0.1c1.6-0.9,2.7-2.7,2.6-4.6"/>
						<path fill="#FF4F5B" d="M365,49.1c1.6-0.6,3-1.9,3.6-3.5s0.4-3.5-0.5-5c-1.8,0.2-3.5,1.5-4.2,3.3c-0.7,1.7-0.3,3.8,0.9,5.2"/>
						<path fill="#FF4F5B" d="M358.9,49.4c0.6-1.6,0.4-3.5-0.5-5s-2.5-2.5-4.2-2.7c-1,1.6-1,3.7,0,5.3c0.9,1.6,2.8,2.6,4.6,2.6"/>
					</g>
				</g>
			</g>
			<polygon fill="#1A2E35" points="367.2,94.4 369.1,96.7 392.6,96.7 394.2,94.4 			"/>
			<g>
				<path fill="#375A64" d="M393.6,94.3c0,0.1-5.8,0.1-12.9,0.1s-12.9-0.1-12.9-0.1c0-0.1,5.8-0.1,12.9-0.1
					C387.9,94.2,393.6,94.3,393.6,94.3z"/>
			</g>
			<g>
				<path fill="#375A64" d="M391,85.4c0,0,0,0.1-0.1,0.2s-0.3,0.3-0.5,0.5c-0.4,0.4-1.1,1-2.1,1.5s-2.2,0.9-3.7,0.9
					c-0.7,0-1.5,0-2.2-0.2c-0.8-0.2-1.5-0.4-2.3-0.8c-1.5-0.6-2.9-1.4-4.2-1.8c-1.3-0.4-2.6-0.6-3.6-0.4s-1.8,0.7-2.2,1
					c-0.4,0.4-0.6,0.7-0.6,0.7s0-0.1,0.1-0.2s0.2-0.3,0.4-0.5c0.4-0.4,1.2-0.9,2.3-1.1c1.1-0.2,2.4-0.1,3.8,0.3s2.8,1.2,4.3,1.8
					c0.7,0.3,1.5,0.6,2.2,0.7c0.7,0.2,1.5,0.2,2.2,0.2c1.4,0,2.6-0.4,3.6-0.9C390.1,86.5,391,85.4,391,85.4z"/>
			</g>
			<g>
				<path fill="#375A64" d="M391.2,83.6c0,0,0,0.1-0.2,0.2c-0.1,0.1-0.3,0.3-0.5,0.5c-0.5,0.4-1.2,0.9-2.2,1.3s-2.2,0.8-3.7,0.9
					c-0.7,0-1.5,0-2.2-0.2c-0.8-0.1-1.5-0.4-2.3-0.7c-1.5-0.6-3-1.2-4.3-1.6c-1.4-0.4-2.6-0.5-3.7-0.3s-1.8,0.6-2.3,0.9
					s-0.7,0.6-0.7,0.6s0-0.1,0.1-0.2s0.3-0.3,0.5-0.5c0.5-0.4,1.3-0.8,2.4-1s2.4-0.1,3.8,0.3s2.8,1,4.4,1.6c0.8,0.3,1.5,0.5,2.3,0.6
					c0.7,0.1,1.5,0.2,2.2,0.2c1.4,0,2.6-0.4,3.6-0.8C390.3,84.6,391.2,83.5,391.2,83.6z"/>
			</g>
		</g>
		<g>
			<rect x="363.6" y="99" fill="#375A64" width="2.1" height="5.7"/>
			<rect x="392.9" y="99" fill="#375A64" width="2.1" height="5.7"/>
		</g>
	</g>
</g>
</svg>
