<?xml version="1.0" encoding="utf-8"?>
<!-- Generator: Adobe Illustrator 24.1.2, SVG Export Plug-In . SVG Version: 6.00 Build 0)  -->
<svg version="1.2" baseProfile="tiny" xmlns="http://www.w3.org/2000/svg" xmlns:xlink="http://www.w3.org/1999/xlink" x="0px"
	 y="0px" viewBox="0 0 200 300" overflow="visible" xml:space="preserve">
<g id="Layer_1">
</g>
<g id="Layer_2">
	<g>
		<path fill="#35282B" d="M165.1,129.8c0,36.2-29.3,65.5-65.5,65.5s-65.5-29.3-65.5-65.5c0-11.6,3-22.5,8.3-31.9
			c11.2-20,32.6-33.6,57.2-33.6C135.8,64.3,165.1,93.6,165.1,129.8z"/>
		<path fill="#D13653" d="M99.6,64.3c36.2,0,65.5,29.3,65.5,65.5s-29.3,65.5-65.5,65.5s-65.5-29.3-65.5-65.5c0-11.6,3-22.5,8.3-31.9
			l57.4,32.1L99.6,64.3z"/>
		<g>
			<path fill="#FFFFFF" d="M92.6,153.8c0.2-0.3,0.4-0.6,0.7-0.8c0.3-0.2,0.6-0.4,1-0.5c0.4-0.1,0.7-0.2,1.1-0.2
				c0.4,0,0.7,0.1,1.1,0.2c0.4,0.1,0.7,0.3,1,0.5c0.3,0.2,0.5,0.5,0.7,0.8c0.2,0.3,0.3,0.7,0.3,1.1c0,0.4-0.1,0.7-0.2,1
				c-0.2,0.3-0.4,0.6-0.6,0.8s-0.6,0.4-0.9,0.5s-0.7,0.2-1.2,0.2s-0.8-0.1-1.2-0.2s-0.7-0.3-0.9-0.5s-0.5-0.5-0.6-0.8
				c-0.2-0.3-0.2-0.7-0.2-1C92.4,154.5,92.5,154.1,92.6,153.8z M93,149.5c0.2-0.3,0.6-0.6,1-0.8c0.4-0.2,0.8-0.3,1.3-0.3
				c0.4,0,0.7,0.1,1,0.2c0.3,0.1,0.6,0.3,0.9,0.5c0.2,0.2,0.4,0.4,0.6,0.7c0.1,0.3,0.2,0.6,0.2,0.9c0,0.4-0.1,0.7-0.2,1
				s-0.3,0.5-0.6,0.7c-0.2,0.2-0.5,0.3-0.9,0.4c-0.3,0.1-0.7,0.2-1,0.2c-0.4,0-0.7-0.1-1-0.2c-0.3-0.1-0.6-0.2-0.8-0.4
				c-0.2-0.2-0.4-0.4-0.6-0.7c-0.1-0.3-0.2-0.6-0.2-1C92.7,150.2,92.8,149.8,93,149.5z M94,155.5c0.1,0.2,0.3,0.4,0.6,0.5
				c0.2,0.1,0.5,0.2,0.7,0.2s0.5-0.1,0.7-0.2c0.2-0.1,0.4-0.3,0.6-0.5c0.1-0.2,0.2-0.5,0.2-0.8c0-0.3-0.1-0.5-0.2-0.8
				c-0.1-0.2-0.3-0.4-0.6-0.5s-0.5-0.2-0.7-0.2s-0.5,0.1-0.7,0.2s-0.4,0.3-0.6,0.5c-0.1,0.2-0.2,0.5-0.2,0.8
				C93.8,155.1,93.9,155.3,94,155.5z M94.3,151.4c0.1,0.2,0.3,0.3,0.4,0.4c0.2,0.1,0.4,0.2,0.6,0.2c0.2,0,0.4-0.1,0.6-0.2
				c0.2-0.1,0.3-0.3,0.4-0.4c0.1-0.2,0.2-0.4,0.2-0.6c0-0.2-0.1-0.5-0.2-0.6s-0.2-0.3-0.4-0.4c-0.2-0.1-0.4-0.2-0.6-0.2
				c-0.2,0-0.4,0.1-0.6,0.2c-0.2,0.1-0.3,0.3-0.4,0.4c-0.1,0.2-0.2,0.4-0.2,0.6C94.1,151,94.1,151.3,94.3,151.4z"/>
			<path fill="#FFFFFF" d="M104.2,148.5h0.9v8.8h-1.5v-2.2l0.1-0.1v-3.8l-2.3,3.3h3.1l0.2-0.1h1.8v1.3h-7.3L104.2,148.5z"/>
			<path fill="#FFFFFF" d="M107.5,149.4c0.2-0.3,0.4-0.6,0.8-0.8c0.3-0.2,0.7-0.3,1.1-0.3s0.8,0.1,1.1,0.3c0.3,0.2,0.6,0.5,0.8,0.8
				s0.3,0.7,0.3,1.1c0,0.4-0.1,0.8-0.3,1.1s-0.4,0.6-0.8,0.8c-0.3,0.2-0.7,0.3-1.1,0.3s-0.8-0.1-1.1-0.3c-0.3-0.2-0.6-0.5-0.8-0.8
				s-0.3-0.7-0.3-1.1C107.3,150.1,107.4,149.7,107.5,149.4z M115.8,148.5l-6.1,8.8h-1.3l6.1-8.8H115.8z M108.6,151
				c0.1,0.2,0.2,0.3,0.3,0.4c0.1,0.1,0.3,0.1,0.5,0.1c0.2,0,0.4,0,0.5-0.1s0.3-0.2,0.3-0.4c0.1-0.2,0.1-0.3,0.1-0.5
				c0-0.2,0-0.4-0.1-0.5s-0.2-0.3-0.3-0.4s-0.3-0.1-0.5-0.1c-0.2,0-0.4,0-0.5,0.1c-0.1,0.1-0.3,0.2-0.3,0.4s-0.1,0.3-0.1,0.5
				C108.4,150.7,108.5,150.8,108.6,151z M112.8,154.3c0.2-0.3,0.4-0.6,0.8-0.8s0.7-0.3,1.1-0.3s0.8,0.1,1.1,0.3s0.6,0.5,0.8,0.8
				s0.3,0.7,0.3,1.1s-0.1,0.8-0.3,1.1s-0.4,0.6-0.8,0.8s-0.7,0.3-1.1,0.3s-0.8-0.1-1.1-0.3s-0.6-0.5-0.8-0.8s-0.3-0.7-0.3-1.1
				S112.6,154.6,112.8,154.3z M113.8,155.9c0.1,0.2,0.2,0.3,0.3,0.4c0.1,0.1,0.3,0.1,0.5,0.1c0.2,0,0.4,0,0.5-0.1
				c0.1-0.1,0.3-0.2,0.3-0.4s0.1-0.3,0.1-0.5c0-0.2,0-0.4-0.1-0.5c-0.1-0.2-0.2-0.3-0.3-0.4c-0.1-0.1-0.3-0.1-0.5-0.1
				c-0.2,0-0.4,0-0.5,0.1c-0.1,0.1-0.3,0.2-0.3,0.4c-0.1,0.2-0.1,0.3-0.1,0.5C113.7,155.6,113.7,155.7,113.8,155.9z"/>
		</g>
		<g>
			<path fill="#FFFFFF" d="M65.6,91.3l3.5-0.8v9h-1.5v-7.3l-2,0.6V91.3z"/>
			<path fill="#FFFFFF" d="M76.6,90.7l-2.8,3.5l-0.2,0c0.2-0.2,0.4-0.4,0.6-0.4c0.2-0.1,0.5-0.1,0.8-0.1c0.3,0,0.7,0.1,1,0.2
				c0.3,0.1,0.6,0.3,0.9,0.6c0.2,0.3,0.4,0.6,0.6,0.9c0.1,0.3,0.2,0.7,0.2,1.2c0,0.6-0.1,1.2-0.4,1.7c-0.3,0.5-0.7,0.8-1.2,1.1
				c-0.5,0.2-1,0.4-1.6,0.4c-0.6,0-1.2-0.1-1.6-0.4c-0.5-0.2-0.9-0.6-1.2-1.1c-0.3-0.5-0.4-1-0.4-1.7c0-0.4,0.1-0.8,0.2-1.1
				c0.1-0.3,0.3-0.7,0.5-0.9l2.8-3.8H76.6z M72.9,97.5c0.2,0.3,0.4,0.5,0.6,0.6c0.3,0.2,0.6,0.2,0.9,0.2c0.3,0,0.6-0.1,0.9-0.2
				c0.3-0.2,0.5-0.4,0.6-0.6c0.2-0.3,0.2-0.6,0.2-1c0-0.4-0.1-0.7-0.2-1c-0.2-0.3-0.4-0.5-0.6-0.7s-0.6-0.2-0.9-0.2
				c-0.3,0-0.6,0.1-0.9,0.2s-0.5,0.4-0.6,0.7c-0.2,0.3-0.2,0.6-0.2,1C72.7,96.9,72.7,97.2,72.9,97.5z"/>
			<path fill="#FFFFFF" d="M78.9,91.6c0.2-0.3,0.4-0.6,0.8-0.8c0.3-0.2,0.7-0.3,1.1-0.3s0.8,0.1,1.1,0.3c0.3,0.2,0.6,0.5,0.8,0.8
				s0.3,0.7,0.3,1.1c0,0.4-0.1,0.8-0.3,1.1s-0.4,0.6-0.8,0.8c-0.3,0.2-0.7,0.3-1.1,0.3s-0.8-0.1-1.1-0.3c-0.3-0.2-0.6-0.5-0.8-0.8
				c-0.2-0.3-0.3-0.7-0.3-1.1C78.7,92.3,78.8,91.9,78.9,91.6z M87.2,90.7l-6.1,8.8h-1.3l6.1-8.8H87.2z M80,93.2
				c0.1,0.2,0.2,0.3,0.3,0.4c0.1,0.1,0.3,0.1,0.5,0.1s0.4,0,0.5-0.1c0.1-0.1,0.3-0.2,0.3-0.4c0.1-0.2,0.1-0.3,0.1-0.5
				c0-0.2,0-0.4-0.1-0.5c-0.1-0.2-0.2-0.3-0.3-0.4c-0.1-0.1-0.3-0.1-0.5-0.1s-0.4,0-0.5,0.1C80.2,91.9,80,92,80,92.1
				s-0.1,0.3-0.1,0.5C79.8,92.8,79.9,93,80,93.2z M84.2,96.5c0.2-0.3,0.4-0.6,0.8-0.8c0.3-0.2,0.7-0.3,1.1-0.3s0.8,0.1,1.1,0.3
				c0.3,0.2,0.6,0.5,0.8,0.8s0.3,0.7,0.3,1.1s-0.1,0.8-0.3,1.1c-0.2,0.3-0.4,0.6-0.8,0.8c-0.3,0.2-0.7,0.3-1.1,0.3s-0.8-0.1-1.1-0.3
				c-0.3-0.2-0.6-0.5-0.8-0.8c-0.2-0.3-0.3-0.7-0.3-1.1S84,96.8,84.2,96.5z M85.2,98.1c0.1,0.2,0.2,0.3,0.3,0.4
				c0.1,0.1,0.3,0.1,0.5,0.1c0.2,0,0.4,0,0.5-0.1c0.1-0.1,0.3-0.2,0.3-0.4c0.1-0.2,0.1-0.3,0.1-0.5c0-0.2,0-0.4-0.1-0.5
				c-0.1-0.2-0.2-0.3-0.3-0.4c-0.1-0.1-0.3-0.1-0.5-0.1c-0.2,0-0.4,0-0.5,0.1c-0.1,0.1-0.3,0.2-0.3,0.4c-0.1,0.2-0.1,0.3-0.1,0.5
				C85.1,97.7,85.1,97.9,85.2,98.1z"/>
		</g>
	</g>
	<g>
		<circle fill="#D13653" cx="43.9" cy="214.3" r="5"/>
		<circle fill="#35282B" cx="43.9" cy="227.3" r="5"/>
		<g>
			<path d="M53.9,210.3v7h-1.2v-7H53.9z M53.5,210.3h3.1v1.1h-3.1V210.3z M53.5,213.1h3v1h-3V213.1z"/>
			<path d="M57.6,213.8c0.2-0.4,0.5-0.6,0.9-0.8c0.4-0.2,0.8-0.3,1.3-0.3c0.5,0,0.9,0.1,1.3,0.3c0.4,0.2,0.7,0.5,0.9,0.8
				c0.2,0.4,0.3,0.8,0.3,1.2c0,0.5-0.1,0.9-0.3,1.2c-0.2,0.4-0.5,0.6-0.9,0.9c-0.4,0.2-0.8,0.3-1.3,0.3c-0.5,0-0.9-0.1-1.3-0.3
				c-0.4-0.2-0.7-0.5-0.9-0.9c-0.2-0.4-0.3-0.8-0.3-1.2C57.2,214.5,57.3,214.1,57.6,213.8z M58.5,215.8c0.1,0.2,0.3,0.4,0.5,0.5
				c0.2,0.1,0.4,0.2,0.7,0.2c0.3,0,0.5-0.1,0.7-0.2s0.4-0.3,0.5-0.5c0.1-0.2,0.2-0.5,0.2-0.8c0-0.3-0.1-0.5-0.2-0.8
				c-0.1-0.2-0.3-0.4-0.5-0.5c-0.2-0.1-0.4-0.2-0.7-0.2c-0.3,0-0.5,0.1-0.7,0.2c-0.2,0.1-0.4,0.3-0.5,0.5c-0.1,0.2-0.2,0.5-0.2,0.8
				C58.3,215.3,58.4,215.6,58.5,215.8z"/>
			<path d="M63.2,213.8c0.2-0.4,0.5-0.6,0.9-0.8c0.4-0.2,0.8-0.3,1.3-0.3c0.5,0,0.9,0.1,1.3,0.3c0.4,0.2,0.7,0.5,0.9,0.8
				c0.2,0.4,0.3,0.8,0.3,1.2c0,0.5-0.1,0.9-0.3,1.2c-0.2,0.4-0.5,0.6-0.9,0.9c-0.4,0.2-0.8,0.3-1.3,0.3c-0.5,0-0.9-0.1-1.3-0.3
				c-0.4-0.2-0.7-0.5-0.9-0.9c-0.2-0.4-0.3-0.8-0.3-1.2C62.9,214.5,63,214.1,63.2,213.8z M64.2,215.8c0.1,0.2,0.3,0.4,0.5,0.5
				c0.2,0.1,0.4,0.2,0.7,0.2c0.3,0,0.5-0.1,0.7-0.2s0.4-0.3,0.5-0.5c0.1-0.2,0.2-0.5,0.2-0.8c0-0.3-0.1-0.5-0.2-0.8
				c-0.1-0.2-0.3-0.4-0.5-0.5c-0.2-0.1-0.4-0.2-0.7-0.2c-0.3,0-0.5,0.1-0.7,0.2c-0.2,0.1-0.4,0.3-0.5,0.5c-0.1,0.2-0.2,0.5-0.2,0.8
				C64,215.3,64,215.6,64.2,215.8z"/>
			<path d="M68.8,213.7c0.2-0.4,0.5-0.6,0.8-0.8c0.3-0.2,0.7-0.3,1.1-0.3c0.3,0,0.5,0.1,0.8,0.2c0.2,0.1,0.4,0.3,0.6,0.5
				c0.2,0.2,0.3,0.5,0.4,0.8c0.1,0.3,0.1,0.6,0.1,1c0,0.4,0,0.7-0.1,1s-0.2,0.5-0.4,0.8c-0.2,0.2-0.4,0.4-0.6,0.5
				c-0.2,0.1-0.5,0.2-0.8,0.2c-0.4,0-0.8-0.1-1.1-0.3c-0.3-0.2-0.6-0.5-0.8-0.8c-0.2-0.4-0.3-0.8-0.3-1.3
				C68.5,214.5,68.6,214.1,68.8,213.7z M69.8,215.8c0.1,0.2,0.3,0.4,0.5,0.5c0.2,0.1,0.4,0.2,0.7,0.2c0.2,0,0.3,0,0.5-0.1
				c0.2-0.1,0.3-0.2,0.4-0.3c0.1-0.1,0.2-0.3,0.3-0.5c0.1-0.2,0.1-0.4,0.1-0.6s0-0.4-0.1-0.6c-0.1-0.2-0.2-0.3-0.3-0.5
				c-0.1-0.1-0.3-0.2-0.4-0.3c-0.2-0.1-0.3-0.1-0.5-0.1c-0.2,0-0.5,0.1-0.7,0.2c-0.2,0.1-0.4,0.3-0.5,0.5s-0.2,0.5-0.2,0.8
				S69.7,215.6,69.8,215.8z M73.4,209.5v7.8h-1.1v-7.8H73.4z"/>
			<path d="M77.7,213.7c0.2-0.4,0.5-0.6,0.8-0.8c0.3-0.2,0.7-0.3,1.1-0.3c0.3,0,0.5,0.1,0.8,0.2c0.2,0.1,0.4,0.3,0.6,0.5
				c0.2,0.2,0.3,0.5,0.4,0.8c0.1,0.3,0.1,0.6,0.1,1c0,0.4,0,0.7-0.1,1s-0.2,0.5-0.4,0.8c-0.2,0.2-0.4,0.4-0.6,0.5
				c-0.2,0.1-0.5,0.2-0.8,0.2c-0.4,0-0.8-0.1-1.1-0.3c-0.3-0.2-0.6-0.5-0.8-0.8c-0.2-0.4-0.3-0.8-0.3-1.3
				C77.4,214.5,77.5,214.1,77.7,213.7z M78.7,215.8c0.1,0.2,0.3,0.4,0.5,0.5c0.2,0.1,0.4,0.2,0.7,0.2c0.2,0,0.3,0,0.5-0.1
				c0.2-0.1,0.3-0.2,0.4-0.3c0.1-0.1,0.2-0.3,0.3-0.5c0.1-0.2,0.1-0.4,0.1-0.6s0-0.4-0.1-0.6c-0.1-0.2-0.2-0.3-0.3-0.5
				c-0.1-0.1-0.3-0.2-0.4-0.3c-0.2-0.1-0.3-0.1-0.5-0.1c-0.2,0-0.5,0.1-0.7,0.2c-0.2,0.1-0.4,0.3-0.5,0.5s-0.2,0.5-0.2,0.8
				S78.6,215.6,78.7,215.8z M82.3,209.5v7.8h-1.1v-7.8H82.3z"/>
			<path d="M84.4,217.1c-0.4-0.2-0.6-0.5-0.8-0.8c-0.2-0.4-0.3-0.8-0.3-1.3c0-0.4,0.1-0.7,0.2-1s0.3-0.5,0.5-0.8s0.5-0.4,0.8-0.5
				s0.6-0.2,1-0.2c0.5,0,0.9,0.1,1.2,0.3s0.6,0.5,0.8,0.8c0.2,0.3,0.3,0.8,0.3,1.3c0,0.1,0,0.1,0,0.2c0,0.1,0,0.1,0,0.1h-4v-0.8H87
				l-0.3,0.5c0,0,0.1-0.1,0.1-0.2s0-0.1,0-0.2c0-0.2,0-0.5-0.1-0.6c-0.1-0.2-0.2-0.3-0.4-0.4c-0.2-0.1-0.4-0.1-0.6-0.1
				c-0.2,0-0.4,0-0.5,0.1s-0.3,0.2-0.4,0.3c-0.1,0.1-0.2,0.3-0.3,0.5c-0.1,0.2-0.1,0.4-0.1,0.7c0,0.3,0.1,0.6,0.1,0.8
				c0.1,0.2,0.2,0.4,0.4,0.5c0.2,0.1,0.4,0.2,0.7,0.2c0.3,0,0.5-0.1,0.8-0.2c0.2-0.1,0.4-0.3,0.6-0.5l0.9,0.4
				c-0.2,0.4-0.6,0.7-0.9,0.9s-0.8,0.3-1.4,0.3C85.1,217.4,84.7,217.3,84.4,217.1z"/>
			<path d="M90.1,209.5v7.8H89v-7.8H90.1z"/>
			<path d="M91.6,210.4c0.1-0.1,0.3-0.2,0.5-0.2c0.2,0,0.4,0.1,0.5,0.2c0.1,0.1,0.2,0.3,0.2,0.5c0,0.2-0.1,0.3-0.2,0.5
				c-0.1,0.1-0.3,0.2-0.5,0.2c-0.2,0-0.3-0.1-0.5-0.2c-0.1-0.1-0.2-0.3-0.2-0.5C91.4,210.7,91.5,210.5,91.6,210.4z M92.6,212.7v4.6
				h-1.1v-4.6H92.6z"/>
			<path d="M94.6,212.7l1.2,3l1.2-3h1.2l-2.4,5l-2.4-5H94.6z"/>
			<path d="M99.5,217.1c-0.4-0.2-0.6-0.5-0.8-0.8c-0.2-0.4-0.3-0.8-0.3-1.3c0-0.4,0.1-0.7,0.2-1s0.3-0.5,0.5-0.8s0.5-0.4,0.8-0.5
				s0.6-0.2,1-0.2c0.5,0,0.9,0.1,1.2,0.3s0.6,0.5,0.8,0.8s0.3,0.8,0.3,1.3c0,0.1,0,0.1,0,0.2s0,0.1,0,0.1H99v-0.8h3.1l-0.3,0.5
				c0,0,0.1-0.1,0.1-0.2s0-0.1,0-0.2c0-0.2,0-0.5-0.1-0.6c-0.1-0.2-0.2-0.3-0.4-0.4c-0.2-0.1-0.4-0.1-0.6-0.1c-0.2,0-0.4,0-0.5,0.1
				s-0.3,0.2-0.4,0.3c-0.1,0.1-0.2,0.3-0.3,0.5c-0.1,0.2-0.1,0.4-0.1,0.7c0,0.3,0.1,0.6,0.1,0.8c0.1,0.2,0.2,0.4,0.4,0.5
				c0.2,0.1,0.4,0.2,0.7,0.2c0.3,0,0.5-0.1,0.8-0.2c0.2-0.1,0.4-0.3,0.5-0.5l0.9,0.4c-0.2,0.4-0.6,0.7-0.9,0.9
				c-0.4,0.2-0.8,0.3-1.4,0.3C100.2,217.4,99.8,217.3,99.5,217.1z"/>
			<path d="M105.1,217.3h-1.1v-4.6h1.1V217.3z M106.2,213.7c-0.1,0-0.2-0.1-0.3-0.1c-0.2,0-0.3,0-0.4,0.1c-0.1,0.1-0.2,0.2-0.2,0.4
				c-0.1,0.2-0.1,0.4-0.1,0.6l-0.4-0.2c0-0.4,0.1-0.7,0.2-1s0.3-0.5,0.5-0.7c0.2-0.2,0.4-0.2,0.7-0.2c0.2,0,0.3,0,0.5,0.1
				c0.1,0.1,0.3,0.1,0.4,0.3l-0.5,0.9C106.4,213.8,106.3,213.7,106.2,213.7z"/>
			<path d="M108.4,217.1c-0.4-0.2-0.6-0.5-0.8-0.8c-0.2-0.4-0.3-0.8-0.3-1.3c0-0.4,0.1-0.7,0.2-1s0.3-0.5,0.5-0.8
				c0.2-0.2,0.5-0.4,0.8-0.5c0.3-0.1,0.6-0.2,1-0.2c0.5,0,0.9,0.1,1.2,0.3s0.6,0.5,0.8,0.8c0.2,0.3,0.3,0.8,0.3,1.3
				c0,0.1,0,0.1,0,0.2c0,0.1,0,0.1,0,0.1h-4v-0.8h3.1l-0.3,0.5c0,0,0.1-0.1,0.1-0.2s0-0.1,0-0.2c0-0.2,0-0.5-0.1-0.6
				c-0.1-0.2-0.2-0.3-0.4-0.4c-0.2-0.1-0.4-0.1-0.6-0.1c-0.2,0-0.4,0-0.5,0.1s-0.3,0.2-0.4,0.3c-0.1,0.1-0.2,0.3-0.3,0.5
				c-0.1,0.2-0.1,0.4-0.1,0.7c0,0.3,0.1,0.6,0.2,0.8c0.1,0.2,0.2,0.4,0.4,0.5c0.2,0.1,0.4,0.2,0.7,0.2c0.3,0,0.5-0.1,0.8-0.2
				c0.2-0.1,0.4-0.3,0.5-0.5l0.9,0.4c-0.2,0.4-0.6,0.7-0.9,0.9s-0.8,0.3-1.4,0.3C109.2,217.4,108.7,217.3,108.4,217.1z"/>
			<path d="M113,213.7c0.2-0.4,0.5-0.6,0.8-0.8c0.3-0.2,0.7-0.3,1.1-0.3c0.3,0,0.6,0.1,0.8,0.2c0.2,0.1,0.4,0.3,0.6,0.5
				c0.2,0.2,0.3,0.5,0.4,0.8c0.1,0.3,0.1,0.6,0.1,1c0,0.4,0,0.7-0.1,1s-0.2,0.5-0.4,0.8c-0.2,0.2-0.4,0.4-0.6,0.5
				c-0.2,0.1-0.5,0.2-0.8,0.2c-0.4,0-0.8-0.1-1.1-0.3c-0.3-0.2-0.6-0.5-0.8-0.8c-0.2-0.4-0.3-0.8-0.3-1.3
				C112.7,214.5,112.8,214.1,113,213.7z M114,215.8c0.1,0.2,0.3,0.4,0.5,0.5c0.2,0.1,0.4,0.2,0.7,0.2c0.2,0,0.3,0,0.5-0.1
				c0.2-0.1,0.3-0.2,0.4-0.3c0.1-0.1,0.2-0.3,0.3-0.5c0.1-0.2,0.1-0.4,0.1-0.6s0-0.4-0.1-0.6c-0.1-0.2-0.2-0.3-0.3-0.5
				c-0.1-0.1-0.3-0.2-0.4-0.3c-0.2-0.1-0.3-0.1-0.5-0.1c-0.2,0-0.5,0.1-0.7,0.2c-0.2,0.1-0.4,0.3-0.5,0.5s-0.2,0.5-0.2,0.8
				S113.8,215.6,114,215.8z M117.6,209.5v7.8h-1.1v-7.8H117.6z"/>
			<path d="M122,210.4c0.1-0.1,0.3-0.2,0.5-0.2c0.2,0,0.4,0.1,0.5,0.2c0.1,0.1,0.2,0.3,0.2,0.5c0,0.2-0.1,0.3-0.2,0.5
				c-0.1,0.1-0.3,0.2-0.5,0.2c-0.2,0-0.3-0.1-0.5-0.2c-0.1-0.1-0.2-0.3-0.2-0.5C121.8,210.7,121.9,210.5,122,210.4z M123.1,212.7
				v4.6H122v-4.6H123.1z"/>
			<path d="M127.4,214c-0.1-0.2-0.2-0.3-0.3-0.3s-0.3-0.1-0.5-0.1c-0.2,0-0.4,0-0.5,0.1s-0.3,0.2-0.4,0.4c-0.1,0.2-0.1,0.3-0.1,0.5
				v2.8h-1.1v-4.6h1.1v0.7c0.1-0.3,0.3-0.5,0.6-0.6c0.2-0.1,0.5-0.2,0.8-0.2c0.3,0,0.6,0.1,0.9,0.2c0.2,0.1,0.4,0.3,0.5,0.6
				s0.2,0.6,0.2,1v2.9h-1.1v-2.8C127.5,214.3,127.5,214.1,127.4,214z"/>
			<path d="M133.1,210.8l2.8-0.6v7.1h-1.2v-5.8l-1.6,0.5V210.8z"/>
			<path d="M141.8,217.3h-1.1v-7.8h1.1V217.3z M143.6,214c-0.1-0.2-0.2-0.3-0.3-0.3c-0.1-0.1-0.3-0.1-0.5-0.1c-0.2,0-0.4,0-0.5,0.1
				s-0.3,0.2-0.4,0.4c-0.1,0.2-0.1,0.3-0.1,0.5h-0.3c0-0.4,0.1-0.7,0.2-1s0.3-0.5,0.6-0.7c0.2-0.2,0.5-0.3,0.9-0.3
				c0.3,0,0.6,0.1,0.9,0.2c0.2,0.1,0.4,0.3,0.5,0.6c0.1,0.3,0.2,0.6,0.2,1v3h-1.1v-2.8C143.7,214.3,143.7,214.1,143.6,214z"/>
			<path d="M146.1,213.8c0.2-0.4,0.5-0.6,0.9-0.8c0.4-0.2,0.8-0.3,1.3-0.3c0.5,0,0.9,0.1,1.3,0.3c0.4,0.2,0.7,0.5,0.9,0.8
				c0.2,0.4,0.3,0.8,0.3,1.2c0,0.5-0.1,0.9-0.3,1.2c-0.2,0.4-0.5,0.6-0.9,0.9c-0.4,0.2-0.8,0.3-1.3,0.3c-0.5,0-0.9-0.1-1.3-0.3
				c-0.4-0.2-0.7-0.5-0.9-0.9c-0.2-0.4-0.3-0.8-0.3-1.2C145.8,214.5,145.9,214.1,146.1,213.8z M147.1,215.8c0.1,0.2,0.3,0.4,0.5,0.5
				s0.4,0.2,0.7,0.2c0.3,0,0.5-0.1,0.7-0.2c0.2-0.1,0.4-0.3,0.5-0.5s0.2-0.5,0.2-0.8c0-0.3-0.1-0.5-0.2-0.8
				c-0.1-0.2-0.3-0.4-0.5-0.5c-0.2-0.1-0.4-0.2-0.7-0.2c-0.3,0-0.5,0.1-0.7,0.2c-0.2,0.1-0.4,0.3-0.5,0.5c-0.1,0.2-0.2,0.5-0.2,0.8
				C146.9,215.3,147,215.6,147.1,215.8z"/>
			<path d="M153,216.1c0.1,0.2,0.2,0.3,0.3,0.4s0.3,0.1,0.5,0.1c0.2,0,0.4,0,0.5-0.1c0.2-0.1,0.3-0.2,0.4-0.4s0.1-0.3,0.1-0.5v-2.8
				h1.1v4.6h-1.1v-0.7c-0.1,0.3-0.3,0.5-0.6,0.6s-0.5,0.2-0.8,0.2c-0.3,0-0.6-0.1-0.9-0.2s-0.4-0.3-0.5-0.6s-0.2-0.6-0.2-1v-2.9h1.1
				v2.8C152.9,215.7,152.9,215.9,153,216.1z"/>
			<path d="M158.3,217.3h-1.1v-4.6h1.1V217.3z M159.4,213.7c-0.1,0-0.2-0.1-0.3-0.1c-0.2,0-0.3,0-0.4,0.1c-0.1,0.1-0.2,0.2-0.2,0.4
				c-0.1,0.2-0.1,0.4-0.1,0.6l-0.4-0.2c0-0.4,0.1-0.7,0.2-1s0.3-0.5,0.5-0.7c0.2-0.2,0.4-0.2,0.7-0.2c0.2,0,0.3,0,0.5,0.1
				s0.3,0.1,0.4,0.3l-0.5,0.9C159.6,213.8,159.5,213.7,159.4,213.7z"/>
			<path d="M56.1,227.7h3.4c0,0.5-0.1,1-0.2,1.5c-0.1,0.5-0.4,0.9-0.7,1.2c-0.3,0.4-0.7,0.6-1.1,0.8c-0.4,0.2-0.9,0.3-1.5,0.3
				c-0.5,0-1-0.1-1.5-0.3c-0.4-0.2-0.8-0.4-1.2-0.8c-0.3-0.3-0.6-0.7-0.8-1.2c-0.2-0.4-0.3-0.9-0.3-1.5s0.1-1,0.3-1.5
				c0.2-0.4,0.4-0.8,0.8-1.1c0.3-0.3,0.7-0.6,1.2-0.7c0.4-0.2,0.9-0.3,1.5-0.3c0.5,0,0.9,0.1,1.3,0.2c0.4,0.1,0.7,0.3,1,0.5
				c0.3,0.2,0.5,0.5,0.8,0.8l-1,0.7c-0.2-0.3-0.5-0.6-0.8-0.8c-0.3-0.2-0.8-0.3-1.2-0.3c-0.3,0-0.7,0.1-1,0.2
				c-0.3,0.1-0.6,0.3-0.8,0.5c-0.2,0.2-0.4,0.5-0.5,0.8c-0.1,0.3-0.2,0.7-0.2,1s0.1,0.7,0.2,1c0.1,0.3,0.3,0.6,0.5,0.8
				c0.2,0.2,0.5,0.4,0.8,0.5c0.3,0.1,0.6,0.2,1,0.2c0.3,0,0.6,0,0.8-0.1s0.5-0.2,0.6-0.4c0.2-0.2,0.3-0.3,0.5-0.5
				c0.1-0.2,0.2-0.4,0.3-0.7h-2.1V227.7z"/>
			<path d="M61.3,231.1c-0.4-0.2-0.6-0.5-0.8-0.8c-0.2-0.4-0.3-0.8-0.3-1.3c0-0.4,0.1-0.7,0.2-1s0.3-0.5,0.5-0.8s0.5-0.4,0.8-0.5
				s0.6-0.2,1-0.2c0.5,0,0.9,0.1,1.2,0.3s0.6,0.5,0.8,0.8c0.2,0.3,0.3,0.8,0.3,1.3c0,0.1,0,0.1,0,0.2c0,0.1,0,0.1,0,0.1h-4v-0.8H64
				l-0.3,0.5c0,0,0.1-0.1,0.1-0.2s0-0.1,0-0.2c0-0.2,0-0.5-0.1-0.6c-0.1-0.2-0.2-0.3-0.4-0.4c-0.2-0.1-0.4-0.1-0.6-0.1
				c-0.2,0-0.4,0-0.5,0.1s-0.3,0.2-0.4,0.3c-0.1,0.1-0.2,0.3-0.3,0.5c-0.1,0.2-0.1,0.4-0.1,0.7c0,0.3,0.1,0.6,0.1,0.8
				c0.1,0.2,0.2,0.4,0.4,0.5c0.2,0.1,0.4,0.2,0.7,0.2c0.3,0,0.5-0.1,0.8-0.2c0.2-0.1,0.4-0.3,0.6-0.5l0.9,0.4
				c-0.2,0.4-0.6,0.7-0.9,0.9s-0.8,0.3-1.4,0.3C62.1,231.4,61.7,231.3,61.3,231.1z"/>
			<path d="M68.8,228c-0.1-0.2-0.2-0.3-0.3-0.3c-0.1-0.1-0.3-0.1-0.5-0.1c-0.2,0-0.4,0-0.5,0.1c-0.2,0.1-0.3,0.2-0.4,0.4
				s-0.1,0.3-0.1,0.5v2.8H66v-4.6H67v0.7c0.1-0.3,0.3-0.5,0.6-0.6c0.2-0.1,0.5-0.2,0.8-0.2c0.3,0,0.6,0.1,0.9,0.2
				c0.2,0.1,0.4,0.3,0.5,0.6c0.1,0.3,0.2,0.6,0.2,1v2.9h-1.1v-2.8C68.9,228.3,68.9,228.1,68.8,228z"/>
			<path d="M72.2,231.1c-0.4-0.2-0.6-0.5-0.8-0.8c-0.2-0.4-0.3-0.8-0.3-1.3c0-0.4,0.1-0.7,0.2-1s0.3-0.5,0.5-0.8s0.5-0.4,0.8-0.5
				s0.6-0.2,1-0.2c0.5,0,0.9,0.1,1.2,0.3s0.6,0.5,0.8,0.8c0.2,0.3,0.3,0.8,0.3,1.3c0,0.1,0,0.1,0,0.2c0,0.1,0,0.1,0,0.1h-4v-0.8h3.1
				l-0.3,0.5c0,0,0.1-0.1,0.1-0.2s0-0.1,0-0.2c0-0.2,0-0.5-0.1-0.6c-0.1-0.2-0.2-0.3-0.4-0.4c-0.2-0.1-0.4-0.1-0.6-0.1
				c-0.2,0-0.4,0-0.5,0.1s-0.3,0.2-0.4,0.3c-0.1,0.1-0.2,0.3-0.3,0.5c-0.1,0.2-0.1,0.4-0.1,0.7c0,0.3,0.1,0.6,0.1,0.8
				c0.1,0.2,0.2,0.4,0.4,0.5c0.2,0.1,0.4,0.2,0.7,0.2c0.3,0,0.5-0.1,0.8-0.2c0.2-0.1,0.4-0.3,0.6-0.5l0.9,0.4
				c-0.2,0.4-0.6,0.7-0.9,0.9s-0.8,0.3-1.4,0.3C72.9,231.4,72.5,231.3,72.2,231.1z"/>
			<path d="M77.9,231.3h-1.1v-4.6h1.1V231.3z M78.9,227.7c-0.1,0-0.2-0.1-0.3-0.1c-0.2,0-0.3,0-0.4,0.1c-0.1,0.1-0.2,0.2-0.2,0.4
				c-0.1,0.2-0.1,0.4-0.1,0.6l-0.4-0.2c0-0.4,0.1-0.7,0.2-1s0.3-0.5,0.5-0.7c0.2-0.2,0.4-0.2,0.7-0.2c0.2,0,0.3,0,0.5,0.1
				c0.1,0.1,0.3,0.1,0.4,0.3l-0.5,0.9C79.1,227.8,79,227.7,78.9,227.7z"/>
			<path d="M81.3,230.3c0.1,0.1,0.2,0.2,0.3,0.2c0.1,0.1,0.3,0.1,0.4,0.1c0.2,0,0.4,0,0.6-0.1c0.2-0.1,0.3-0.2,0.4-0.4
				c0.1-0.2,0.2-0.4,0.2-0.6l0.2,0.6c0,0.3-0.1,0.5-0.3,0.7c-0.2,0.2-0.4,0.3-0.6,0.4c-0.3,0.1-0.5,0.1-0.8,0.1
				c-0.3,0-0.6-0.1-0.8-0.2s-0.4-0.3-0.6-0.5s-0.2-0.5-0.2-0.8c0-0.3,0.1-0.6,0.2-0.8c0.1-0.2,0.3-0.4,0.6-0.5s0.6-0.2,1-0.2
				c0.3,0,0.6,0,0.8,0.1c0.2,0.1,0.4,0.1,0.6,0.2c0.1,0.1,0.2,0.2,0.3,0.2v0.5c-0.2-0.1-0.4-0.3-0.7-0.3c-0.2-0.1-0.5-0.1-0.7-0.1
				c-0.2,0-0.4,0-0.6,0.1c-0.1,0.1-0.2,0.1-0.3,0.2c-0.1,0.1-0.1,0.2-0.1,0.4C81.2,230,81.2,230.2,81.3,230.3z M80.4,227.2
				c0.2-0.1,0.5-0.2,0.8-0.4s0.7-0.2,1.1-0.2c0.4,0,0.7,0.1,1,0.2s0.5,0.3,0.7,0.5c0.2,0.2,0.2,0.5,0.2,0.8v3.3h-1.1v-3.1
				c0-0.1,0-0.3-0.1-0.4c0-0.1-0.1-0.2-0.2-0.2c-0.1-0.1-0.2-0.1-0.3-0.1c-0.1,0-0.2,0-0.4,0c-0.2,0-0.4,0-0.6,0.1
				c-0.2,0.1-0.3,0.1-0.5,0.2s-0.2,0.1-0.3,0.2L80.4,227.2z"/>
			<path d="M86.6,223.5v7.8h-1.1v-7.8H86.6z"/>
			<path d="M90.9,227.7c0.2-0.4,0.5-0.6,0.8-0.8c0.3-0.2,0.7-0.3,1.1-0.3c0.3,0,0.5,0.1,0.8,0.2c0.2,0.1,0.4,0.3,0.6,0.5
				c0.2,0.2,0.3,0.5,0.4,0.8c0.1,0.3,0.1,0.6,0.1,1c0,0.4,0,0.7-0.1,1s-0.2,0.5-0.4,0.8c-0.2,0.2-0.4,0.4-0.6,0.5
				c-0.2,0.1-0.5,0.2-0.8,0.2c-0.4,0-0.8-0.1-1.1-0.3c-0.3-0.2-0.6-0.5-0.8-0.8c-0.2-0.4-0.3-0.8-0.3-1.3
				C90.6,228.5,90.7,228.1,90.9,227.7z M91.9,229.8c0.1,0.2,0.3,0.4,0.5,0.5c0.2,0.1,0.4,0.2,0.7,0.2c0.2,0,0.3,0,0.5-0.1
				c0.2-0.1,0.3-0.2,0.4-0.3c0.1-0.1,0.2-0.3,0.3-0.5c0.1-0.2,0.1-0.4,0.1-0.6s0-0.4-0.1-0.6c-0.1-0.2-0.2-0.3-0.3-0.5
				c-0.1-0.1-0.3-0.2-0.4-0.3c-0.2-0.1-0.3-0.1-0.5-0.1c-0.2,0-0.5,0.1-0.7,0.2c-0.2,0.1-0.4,0.3-0.5,0.5s-0.2,0.5-0.2,0.8
				S91.8,229.6,91.9,229.8z M95.5,223.5v7.8h-1.1v-7.8H95.5z"/>
			<path d="M97.6,231.1c-0.4-0.2-0.6-0.5-0.8-0.8c-0.2-0.4-0.3-0.8-0.3-1.3c0-0.4,0.1-0.7,0.2-1s0.3-0.5,0.5-0.8s0.5-0.4,0.8-0.5
				s0.6-0.2,1-0.2c0.5,0,0.9,0.1,1.2,0.3s0.6,0.5,0.8,0.8c0.2,0.3,0.3,0.8,0.3,1.3c0,0.1,0,0.1,0,0.2c0,0.1,0,0.1,0,0.1h-4v-0.8h3.1
				l-0.3,0.5c0,0,0.1-0.1,0.1-0.2s0-0.1,0-0.2c0-0.2,0-0.5-0.1-0.6c-0.1-0.2-0.2-0.3-0.4-0.4c-0.2-0.1-0.4-0.1-0.6-0.1
				c-0.2,0-0.4,0-0.5,0.1s-0.3,0.2-0.4,0.3c-0.1,0.1-0.2,0.3-0.3,0.5c-0.1,0.2-0.1,0.4-0.1,0.7c0,0.3,0.1,0.6,0.1,0.8
				c0.1,0.2,0.2,0.4,0.4,0.5c0.2,0.1,0.4,0.2,0.7,0.2c0.3,0,0.5-0.1,0.8-0.2c0.2-0.1,0.4-0.3,0.6-0.5l0.9,0.4
				c-0.2,0.4-0.6,0.7-0.9,0.9s-0.8,0.3-1.4,0.3C98.4,231.4,98,231.3,97.6,231.1z"/>
			<path d="M103.3,223.5v7.8h-1.1v-7.8H103.3z"/>
			<path d="M105.5,230.3c0.1,0.1,0.2,0.2,0.3,0.2c0.1,0.1,0.3,0.1,0.4,0.1c0.2,0,0.4,0,0.6-0.1c0.2-0.1,0.3-0.2,0.4-0.4
				c0.1-0.2,0.2-0.4,0.2-0.6l0.2,0.6c0,0.3-0.1,0.5-0.3,0.7c-0.2,0.2-0.4,0.3-0.6,0.4c-0.3,0.1-0.5,0.1-0.8,0.1
				c-0.3,0-0.6-0.1-0.8-0.2c-0.2-0.1-0.4-0.3-0.6-0.5s-0.2-0.5-0.2-0.8c0-0.3,0.1-0.6,0.2-0.8c0.1-0.2,0.3-0.4,0.6-0.5
				s0.6-0.2,1-0.2c0.3,0,0.6,0,0.8,0.1c0.2,0.1,0.4,0.1,0.6,0.2s0.2,0.2,0.3,0.2v0.5c-0.2-0.1-0.4-0.3-0.7-0.3
				c-0.2-0.1-0.5-0.1-0.7-0.1c-0.2,0-0.4,0-0.6,0.1c-0.1,0.1-0.2,0.1-0.3,0.2c-0.1,0.1-0.1,0.2-0.1,0.4
				C105.4,230,105.4,230.2,105.5,230.3z M104.6,227.2c0.2-0.1,0.5-0.2,0.8-0.4s0.7-0.2,1.1-0.2c0.4,0,0.7,0.1,1,0.2
				c0.3,0.1,0.5,0.3,0.7,0.5s0.2,0.5,0.2,0.8v3.3h-1.1v-3.1c0-0.1,0-0.3-0.1-0.4s-0.1-0.2-0.2-0.2c-0.1-0.1-0.2-0.1-0.3-0.1
				s-0.2,0-0.4,0c-0.2,0-0.4,0-0.6,0.1c-0.2,0.1-0.3,0.1-0.5,0.2s-0.2,0.1-0.3,0.2L104.6,227.2z"/>
			<path d="M110.8,233.5h-1.2l1.2-2.7l-1.9-4.1h1.2l1.5,3.6l-0.5,0l1.4-3.6h1.2L110.8,233.5z"/>
			<path d="M115,231.1c-0.4-0.2-0.6-0.5-0.8-0.8c-0.2-0.4-0.3-0.8-0.3-1.3c0-0.4,0.1-0.7,0.2-1s0.3-0.5,0.5-0.8s0.5-0.4,0.8-0.5
				s0.6-0.2,1-0.2c0.5,0,0.9,0.1,1.2,0.3s0.6,0.5,0.8,0.8s0.3,0.8,0.3,1.3c0,0.1,0,0.1,0,0.2s0,0.1,0,0.1h-4.1v-0.8h3.1l-0.3,0.5
				c0,0,0.1-0.1,0.1-0.2s0-0.1,0-0.2c0-0.2,0-0.5-0.1-0.6c-0.1-0.2-0.2-0.3-0.4-0.4c-0.2-0.1-0.4-0.1-0.6-0.1c-0.2,0-0.4,0-0.5,0.1
				c-0.2,0.1-0.3,0.2-0.4,0.3s-0.2,0.3-0.3,0.5c-0.1,0.2-0.1,0.4-0.1,0.7c0,0.3,0,0.6,0.1,0.8c0.1,0.2,0.2,0.4,0.4,0.5
				c0.2,0.1,0.4,0.2,0.7,0.2c0.3,0,0.5-0.1,0.8-0.2c0.2-0.1,0.4-0.3,0.5-0.5l0.9,0.4c-0.2,0.4-0.6,0.7-0.9,0.9
				c-0.4,0.2-0.8,0.3-1.4,0.3C115.8,231.4,115.4,231.3,115,231.1z"/>
			<path d="M119.6,227.7c0.2-0.4,0.5-0.6,0.8-0.8c0.3-0.2,0.7-0.3,1.1-0.3c0.3,0,0.5,0.1,0.8,0.2c0.2,0.1,0.4,0.3,0.6,0.5
				c0.2,0.2,0.3,0.5,0.4,0.8c0.1,0.3,0.1,0.6,0.1,1c0,0.4,0,0.7-0.1,1c-0.1,0.3-0.2,0.5-0.4,0.8c-0.2,0.2-0.4,0.4-0.6,0.5
				c-0.2,0.1-0.5,0.2-0.8,0.2c-0.4,0-0.8-0.1-1.1-0.3c-0.3-0.2-0.6-0.5-0.8-0.8c-0.2-0.4-0.3-0.8-0.3-1.3
				C119.3,228.5,119.4,228.1,119.6,227.7z M120.6,229.8c0.1,0.2,0.3,0.4,0.5,0.5c0.2,0.1,0.4,0.2,0.7,0.2c0.2,0,0.3,0,0.5-0.1
				c0.2-0.1,0.3-0.2,0.4-0.3c0.1-0.1,0.2-0.3,0.3-0.5c0.1-0.2,0.1-0.4,0.1-0.6s0-0.4-0.1-0.6c-0.1-0.2-0.2-0.3-0.3-0.5
				c-0.1-0.1-0.3-0.2-0.4-0.3s-0.3-0.1-0.5-0.1c-0.2,0-0.5,0.1-0.7,0.2c-0.2,0.1-0.4,0.3-0.5,0.5c-0.1,0.2-0.2,0.5-0.2,0.8
				S120.5,229.6,120.6,229.8z M124.2,223.5v7.8h-1.1v-7.8H124.2z"/>
		</g>
	</g>
</g>
</svg>
