<?xml version="1.0" encoding="utf-8"?>
<!-- Generator: Adobe Illustrator 24.1.2, SVG Export Plug-In . SVG Version: 6.00 Build 0)  -->
<svg version="1.1" id="Layer_1" xmlns="http://www.w3.org/2000/svg" xmlns:xlink="http://www.w3.org/1999/xlink" x="0px" y="0px"
	 viewBox="0 0 200 300" style="enable-background:new 0 0 200 300;" xml:space="preserve">
<style type="text/css">
	.st0{fill:#35282B;}
	.st1{fill:#D13653;}
	.st2{fill:#FFFFFF;}
</style>
<g id="Layer_1_1_">
</g>
<g>
	<circle class="st0" cx="97.6" cy="131.3" r="65.5"/>
	<path class="st1" d="M32.1,131.3l65.2,0.9l28.8,58.1c21.9-10.6,37.1-33,37.1-59c0-36.2-29.3-65.5-65.5-65.5S32.1,95.1,32.1,131.3"
		/>
	<g>
		<path class="st2" d="M99,101.8l-2.8,3.5H96c0.2-0.2,0.4-0.4,0.6-0.4c0.2-0.1,0.5-0.1,0.8-0.1s0.7,0.1,1,0.2s0.6,0.3,0.9,0.6
			c0.2,0.3,0.4,0.6,0.6,0.9c0.1,0.3,0.2,0.7,0.2,1.2c0,0.6-0.1,1.2-0.4,1.7s-0.7,0.8-1.2,1.1c-0.5,0.2-1,0.4-1.6,0.4
			s-1.2-0.1-1.6-0.4c-0.5-0.2-0.9-0.6-1.2-1.1c-0.3-0.5-0.4-1-0.4-1.7c0-0.4,0.1-0.8,0.2-1.1c0.1-0.3,0.3-0.7,0.5-0.9l2.8-3.8
			L99,101.8L99,101.8z M95.2,108.6c0.2,0.3,0.4,0.5,0.6,0.6c0.3,0.2,0.6,0.2,0.9,0.2s0.6-0.1,0.9-0.2c0.3-0.2,0.5-0.4,0.6-0.6
			c0.2-0.3,0.2-0.6,0.2-1s-0.1-0.7-0.2-1c-0.2-0.3-0.4-0.5-0.6-0.7s-0.6-0.2-0.9-0.2s-0.6,0.1-0.9,0.2s-0.5,0.4-0.6,0.7
			c-0.2,0.3-0.2,0.6-0.2,1S95.1,108.3,95.2,108.6z"/>
		<path class="st2" d="M101.6,107.1c0.2-0.3,0.4-0.6,0.7-0.8c0.3-0.2,0.6-0.4,1-0.5s0.7-0.2,1.1-0.2s0.7,0.1,1.1,0.2s0.7,0.3,1,0.5
			s0.5,0.5,0.7,0.8s0.3,0.7,0.3,1.1s-0.1,0.7-0.2,1c-0.2,0.3-0.4,0.6-0.6,0.8c-0.3,0.2-0.6,0.4-0.9,0.5c-0.4,0.1-0.7,0.2-1.2,0.2
			c-0.4,0-0.8-0.1-1.2-0.2c-0.4-0.1-0.7-0.3-0.9-0.5c-0.3-0.2-0.5-0.5-0.6-0.8c-0.2-0.3-0.2-0.7-0.2-1
			C101.3,107.8,101.4,107.4,101.6,107.1z M102,102.7c0.2-0.3,0.6-0.6,1-0.8c0.4-0.2,0.8-0.3,1.3-0.3c0.4,0,0.7,0.1,1,0.2
			s0.6,0.3,0.9,0.5c0.2,0.2,0.4,0.4,0.6,0.7s0.2,0.6,0.2,0.9c0,0.4-0.1,0.7-0.2,1s-0.3,0.5-0.6,0.7c-0.2,0.2-0.5,0.3-0.8,0.4
			s-0.7,0.2-1,0.2s-0.7-0.1-1-0.2s-0.6-0.2-0.8-0.4c-0.2-0.2-0.4-0.4-0.6-0.7s-0.2-0.6-0.2-1C101.6,103.5,101.8,103.1,102,102.7z
			 M103,108.8c0.1,0.2,0.3,0.4,0.6,0.5s0.5,0.2,0.7,0.2c0.3,0,0.5-0.1,0.7-0.2s0.4-0.3,0.6-0.5c0.1-0.2,0.2-0.5,0.2-0.8
			s-0.1-0.5-0.2-0.8c-0.1-0.2-0.3-0.4-0.6-0.5c-0.2-0.1-0.5-0.2-0.7-0.2c-0.3,0-0.5,0.1-0.7,0.2s-0.4,0.3-0.6,0.5s-0.2,0.5-0.2,0.8
			S102.8,108.6,103,108.8z M103.2,104.7c0.1,0.2,0.3,0.3,0.4,0.4s0.4,0.2,0.6,0.2s0.4-0.1,0.6-0.2s0.3-0.3,0.4-0.4s0.2-0.4,0.2-0.6
			s-0.1-0.5-0.2-0.6c-0.1-0.2-0.2-0.3-0.4-0.4c-0.2-0.1-0.4-0.2-0.6-0.2s-0.4,0.1-0.6,0.2s-0.3,0.3-0.4,0.4s-0.2,0.4-0.2,0.6
			C103,104.3,103.1,104.5,103.2,104.7z"/>
		<path class="st2" d="M108.6,102.7c0.2-0.3,0.4-0.6,0.8-0.8c0.3-0.2,0.7-0.3,1.1-0.3s0.8,0.1,1.1,0.3c0.3,0.2,0.6,0.5,0.8,0.8
			s0.3,0.7,0.3,1.1s-0.1,0.8-0.3,1.1s-0.4,0.6-0.8,0.8c-0.3,0.2-0.7,0.3-1.1,0.3s-0.8-0.1-1.1-0.3c-0.3-0.2-0.6-0.5-0.8-0.8
			c-0.2-0.3-0.3-0.7-0.3-1.1C108.3,103.4,108.4,103,108.6,102.7z M116.8,101.8l-6.1,8.8h-1.3l6.1-8.8H116.8z M109.6,104.3
			c0.1,0.2,0.2,0.3,0.3,0.4s0.3,0.1,0.5,0.1s0.4,0,0.5-0.1s0.3-0.2,0.3-0.4c0.1-0.2,0.1-0.3,0.1-0.5s0-0.4-0.1-0.5
			c-0.1-0.2-0.2-0.3-0.3-0.4c-0.1-0.1-0.3-0.1-0.5-0.1s-0.4,0-0.5,0.1s-0.3,0.2-0.3,0.4s-0.1,0.3-0.1,0.5
			C109.5,103.9,109.5,104.1,109.6,104.3z M113.8,107.6c0.2-0.3,0.4-0.6,0.8-0.8c0.3-0.2,0.7-0.3,1.1-0.3s0.8,0.1,1.1,0.3
			c0.3,0.2,0.6,0.5,0.8,0.8s0.3,0.7,0.3,1.1s-0.1,0.8-0.3,1.1c-0.2,0.3-0.4,0.6-0.8,0.8c-0.3,0.2-0.7,0.3-1.1,0.3s-0.8-0.1-1.1-0.3
			c-0.3-0.2-0.6-0.5-0.8-0.8c-0.2-0.3-0.3-0.7-0.3-1.1S113.7,107.9,113.8,107.6z M114.8,109.2c0.1,0.2,0.2,0.3,0.3,0.4
			c0.1,0.1,0.3,0.1,0.5,0.1s0.4,0,0.5-0.1s0.3-0.2,0.3-0.4c0.1-0.2,0.1-0.3,0.1-0.5s0-0.4-0.1-0.5c-0.1-0.2-0.2-0.3-0.3-0.4
			c-0.1-0.1-0.3-0.1-0.5-0.1s-0.4,0-0.5,0.1s-0.3,0.2-0.3,0.4c-0.1,0.2-0.1,0.3-0.1,0.5C114.7,108.8,114.8,109,114.8,109.2z"/>
	</g>
	<g>
		<path class="st2" d="M67.4,164.6c-0.4-0.1-0.7-0.3-1-0.6c-0.3-0.2-0.5-0.5-0.6-0.9c-0.1-0.3-0.2-0.7-0.2-1h1.5
			c0,0.3,0.1,0.5,0.2,0.7s0.3,0.4,0.6,0.5s0.5,0.2,0.8,0.2s0.6-0.1,0.8-0.2c0.2-0.1,0.4-0.3,0.5-0.5s0.2-0.5,0.2-0.8
			c0-0.2,0-0.4-0.1-0.6s-0.2-0.3-0.4-0.5c-0.2-0.1-0.4-0.2-0.6-0.3s-0.5-0.1-0.8-0.1v-0.9c0.5,0,0.9,0,1.4,0.1s0.8,0.2,1.1,0.4
			s0.6,0.5,0.7,0.8c0.2,0.3,0.3,0.7,0.3,1.1c0,0.5-0.1,0.9-0.4,1.3c-0.3,0.4-0.6,0.7-1.1,0.9s-1,0.3-1.6,0.3
			C68.2,164.8,67.8,164.7,67.4,164.6z M68.2,159.5c0.3,0,0.5,0,0.7-0.1s0.4-0.2,0.5-0.3s0.3-0.3,0.3-0.4c0.1-0.2,0.1-0.3,0.1-0.5
			s0-0.4-0.1-0.6c-0.1-0.2-0.2-0.3-0.4-0.4c-0.2-0.1-0.4-0.2-0.7-0.2c-0.3,0-0.5,0.1-0.7,0.2c-0.2,0.1-0.4,0.2-0.5,0.4
			s-0.2,0.4-0.2,0.6H66c0-0.5,0.1-0.9,0.3-1.3c0.2-0.4,0.6-0.7,1-0.9s0.9-0.3,1.4-0.3c0.6,0,1.1,0.1,1.5,0.3s0.7,0.5,0.9,0.9
			c0.2,0.4,0.3,0.8,0.3,1.2c0,0.3-0.1,0.6-0.2,0.9c-0.2,0.3-0.4,0.5-0.7,0.7c-0.3,0.2-0.6,0.4-1,0.5s-0.8,0.2-1.3,0.2L68.2,159.5
			L68.2,159.5z"/>
		<path class="st2" d="M76.5,160.3c0.2-0.2,0.4-0.4,0.5-0.6c0.2-0.2,0.3-0.4,0.3-0.6c0.1-0.2,0.1-0.4,0.1-0.7c0-0.2,0-0.3-0.1-0.5
			s-0.2-0.3-0.3-0.4c-0.1-0.1-0.3-0.2-0.5-0.3s-0.4-0.1-0.6-0.1c-0.3,0-0.6,0.1-0.9,0.2c-0.2,0.2-0.4,0.4-0.6,0.7
			c-0.1,0.3-0.2,0.6-0.2,1h-1.5c0-0.6,0.1-1.2,0.4-1.7c0.2-0.5,0.6-0.9,1.1-1.2s1-0.4,1.7-0.4c0.5,0,1,0.1,1.3,0.2
			c0.4,0.2,0.7,0.4,0.9,0.6c0.2,0.3,0.4,0.6,0.6,0.9c0.1,0.3,0.2,0.6,0.2,0.9c0,0.5-0.1,0.9-0.3,1.3c-0.2,0.4-0.5,0.8-0.9,1.2
			l-2.5,2.5H79v1.4h-6.7L76.5,160.3z"/>
		<path class="st2" d="M80.4,156.7c0.2-0.3,0.4-0.6,0.8-0.8s0.7-0.3,1.1-0.3s0.8,0.1,1.1,0.3s0.6,0.5,0.8,0.8s0.3,0.7,0.3,1.1
			s-0.1,0.8-0.3,1.1s-0.4,0.6-0.8,0.8s-0.7,0.3-1.1,0.3s-0.8-0.1-1.1-0.3s-0.6-0.5-0.8-0.8c-0.2-0.3-0.3-0.7-0.3-1.1
			S80.2,157,80.4,156.7z M88.7,155.8l-6.1,8.8h-1.3l6.1-8.8H88.7z M81.4,158.3c0.1,0.2,0.2,0.3,0.3,0.4c0.1,0.1,0.3,0.1,0.5,0.1
			s0.4,0,0.5-0.1s0.3-0.2,0.3-0.4c0.1-0.2,0.1-0.3,0.1-0.5s0-0.4-0.1-0.5c-0.1-0.2-0.2-0.3-0.3-0.4c-0.1-0.1-0.3-0.1-0.5-0.1
			s-0.4,0-0.5,0.1s-0.3,0.2-0.3,0.4s-0.1,0.3-0.1,0.5S81.4,158.1,81.4,158.3z M85.7,161.6c0.2-0.3,0.4-0.6,0.8-0.8
			c0.3-0.2,0.7-0.3,1.1-0.3s0.8,0.1,1.1,0.3c0.3,0.2,0.6,0.5,0.8,0.8s0.3,0.7,0.3,1.1s-0.1,0.8-0.3,1.1c-0.2,0.3-0.4,0.6-0.8,0.8
			c-0.3,0.2-0.7,0.3-1.1,0.3s-0.8-0.1-1.1-0.3c-0.3-0.2-0.6-0.5-0.8-0.8c-0.2-0.3-0.3-0.7-0.3-1.1S85.5,161.9,85.7,161.6z
			 M86.7,163.2c0.1,0.2,0.2,0.3,0.3,0.4s0.3,0.1,0.5,0.1s0.4,0,0.5-0.1s0.3-0.2,0.3-0.4c0.1-0.2,0.1-0.3,0.1-0.5s0-0.4-0.1-0.5
			c-0.1-0.2-0.2-0.3-0.3-0.4c-0.1-0.1-0.3-0.1-0.5-0.1s-0.4,0-0.5,0.1s-0.3,0.2-0.3,0.4c-0.1,0.2-0.1,0.3-0.1,0.5
			S86.6,163,86.7,163.2z"/>
	</g>
</g>
<g>
	<circle class="st1" cx="38.5" cy="215.4" r="5"/>
	<circle class="st0" cx="38.5" cy="228.4" r="5"/>
	<g>
		<path d="M48.5,211.4v7h-1.2v-7H48.5z M48,211.4h3.1v1.1H48V211.4z M48,214.2h3v1h-3V214.2z"/>
		<path d="M52.1,214.9c0.2-0.4,0.5-0.6,0.9-0.8s0.8-0.3,1.3-0.3s0.9,0.1,1.3,0.3c0.4,0.2,0.7,0.5,0.9,0.8c0.2,0.4,0.3,0.8,0.3,1.2
			c0,0.5-0.1,0.9-0.3,1.2c-0.2,0.4-0.5,0.6-0.9,0.9c-0.4,0.2-0.8,0.3-1.3,0.3s-0.9-0.1-1.3-0.3c-0.4-0.2-0.7-0.5-0.9-0.9
			s-0.3-0.8-0.3-1.2C51.8,215.6,51.9,215.2,52.1,214.9z M53.1,216.9c0.1,0.2,0.3,0.4,0.5,0.5s0.4,0.2,0.7,0.2s0.5-0.1,0.7-0.2
			s0.4-0.3,0.5-0.5s0.2-0.5,0.2-0.8s-0.1-0.5-0.2-0.8c-0.1-0.2-0.3-0.4-0.5-0.5s-0.4-0.2-0.7-0.2s-0.5,0.1-0.7,0.2
			c-0.2,0.1-0.4,0.3-0.5,0.5s-0.2,0.5-0.2,0.8C52.9,216.4,53,216.7,53.1,216.9z"/>
		<path d="M59,217.2c0.1,0.2,0.2,0.3,0.3,0.4s0.3,0.1,0.5,0.1s0.4,0,0.5-0.1c0.2-0.1,0.3-0.2,0.4-0.4c0.1-0.2,0.1-0.3,0.1-0.5v-2.8
			h1.1v4.6h-1.1v-0.7c-0.1,0.3-0.3,0.5-0.6,0.6c-0.2,0.1-0.5,0.2-0.8,0.2s-0.6-0.1-0.9-0.2c-0.2-0.1-0.4-0.3-0.5-0.6s-0.2-0.6-0.2-1
			v-2.9h1.1v2.8C58.9,216.8,58.9,217,59,217.2z"/>
		<path d="M66.1,215.1c-0.1-0.2-0.2-0.3-0.3-0.3c-0.1-0.1-0.3-0.1-0.5-0.1s-0.4,0-0.5,0.1c-0.2,0.1-0.3,0.2-0.4,0.4
			s-0.1,0.3-0.1,0.5v2.8h-1.1v-4.6h1.1v0.7c0.1-0.3,0.3-0.5,0.6-0.6c0.2-0.1,0.5-0.2,0.8-0.2s0.6,0.1,0.9,0.2
			c0.2,0.1,0.4,0.3,0.5,0.6s0.2,0.6,0.2,1v2.9h-1.1v-2.9C66.2,215.4,66.1,215.2,66.1,215.1z"/>
		<path d="M68.6,214.8c0.2-0.4,0.5-0.6,0.8-0.8s0.7-0.3,1.1-0.3c0.3,0,0.5,0.1,0.8,0.2c0.2,0.1,0.4,0.3,0.6,0.5s0.3,0.5,0.4,0.8
			s0.1,0.6,0.1,1s0,0.7-0.1,1s-0.2,0.5-0.4,0.8c-0.2,0.2-0.4,0.4-0.6,0.5s-0.5,0.2-0.8,0.2c-0.4,0-0.8-0.1-1.1-0.3
			c-0.3-0.2-0.6-0.5-0.8-0.8c-0.2-0.4-0.3-0.8-0.3-1.3C68.3,215.6,68.4,215.2,68.6,214.8z M69.6,216.9c0.1,0.2,0.3,0.4,0.5,0.5
			s0.4,0.2,0.7,0.2c0.2,0,0.3,0,0.5-0.1s0.3-0.2,0.4-0.3s0.2-0.3,0.3-0.5c0.1-0.2,0.1-0.4,0.1-0.6s0-0.4-0.1-0.6
			c-0.1-0.2-0.2-0.3-0.3-0.5c-0.1-0.1-0.3-0.2-0.4-0.3c-0.2-0.1-0.3-0.1-0.5-0.1s-0.5,0.1-0.7,0.2c-0.2,0.1-0.4,0.3-0.5,0.5
			s-0.2,0.5-0.2,0.8S69.5,216.7,69.6,216.9z M73.2,210.6v7.8h-1.1v-7.8H73.2z"/>
		<path d="M77.7,211.5c0.1-0.1,0.3-0.2,0.5-0.2s0.4,0.1,0.5,0.2c0.1,0.1,0.2,0.3,0.2,0.5s-0.1,0.3-0.2,0.5c-0.1,0.1-0.3,0.2-0.5,0.2
			s-0.3-0.1-0.5-0.2c-0.1-0.1-0.2-0.3-0.2-0.5S77.6,211.6,77.7,211.5z M78.7,213.8v4.6h-1.1v-4.6H78.7z"/>
		<path d="M82.2,213.8v1h-2.6v-1H82.2z M81.4,212.2v6.2h-1.1v-6.2H81.4z"/>
		<path d="M87.9,213.8v1h-2.6v-1H87.9z M87.1,212.2v6.2H86v-6.2H87.1z"/>
		<path d="M88.6,214.9c0.2-0.4,0.5-0.6,0.9-0.8s0.8-0.3,1.3-0.3s0.9,0.1,1.3,0.3s0.7,0.5,0.9,0.8c0.2,0.4,0.3,0.8,0.3,1.2
			c0,0.5-0.1,0.9-0.3,1.2c-0.2,0.4-0.5,0.6-0.9,0.9c-0.4,0.2-0.8,0.3-1.3,0.3s-0.9-0.1-1.3-0.3s-0.7-0.5-0.9-0.9
			c-0.2-0.4-0.3-0.8-0.3-1.2C88.3,215.6,88.4,215.2,88.6,214.9z M89.6,216.9c0.1,0.2,0.3,0.4,0.5,0.5s0.4,0.2,0.7,0.2
			c0.3,0,0.5-0.1,0.7-0.2s0.4-0.3,0.5-0.5s0.2-0.5,0.2-0.8s-0.1-0.5-0.2-0.8c-0.1-0.2-0.3-0.4-0.5-0.5s-0.4-0.2-0.7-0.2
			c-0.3,0-0.5,0.1-0.7,0.2c-0.2,0.1-0.4,0.3-0.5,0.5s-0.2,0.5-0.2,0.8S89.4,216.7,89.6,216.9z"/>
		<path d="M98.3,218.4h-1.1v-7.8h1.1V218.4z M101.8,217.4c-0.2,0.4-0.5,0.6-0.8,0.8s-0.7,0.3-1.1,0.3c-0.3,0-0.6-0.1-0.8-0.2
			c-0.2-0.1-0.4-0.3-0.6-0.5s-0.3-0.5-0.4-0.8s-0.1-0.6-0.1-1s0-0.7,0.1-1s0.2-0.5,0.4-0.8c0.2-0.2,0.4-0.4,0.6-0.5s0.5-0.2,0.8-0.2
			c0.4,0,0.8,0.1,1.1,0.3c0.3,0.2,0.6,0.5,0.8,0.8c0.2,0.4,0.3,0.8,0.3,1.3C102.1,216.6,102,217.1,101.8,217.4z M100.8,215.3
			c-0.1-0.2-0.3-0.4-0.5-0.5s-0.4-0.2-0.7-0.2c-0.2,0-0.3,0-0.5,0.1s-0.3,0.2-0.4,0.3s-0.2,0.3-0.3,0.5c-0.1,0.2-0.1,0.4-0.1,0.6
			s0,0.4,0.1,0.6c0.1,0.2,0.2,0.3,0.3,0.5c0.1,0.1,0.3,0.2,0.4,0.3c0.2,0.1,0.3,0.1,0.5,0.1c0.3,0,0.5-0.1,0.7-0.2
			c0.2-0.1,0.4-0.3,0.5-0.5s0.2-0.5,0.2-0.8S100.9,215.6,100.8,215.3z"/>
		<path d="M103.9,218.2c-0.4-0.2-0.6-0.5-0.8-0.8c-0.2-0.4-0.3-0.8-0.3-1.3c0-0.4,0.1-0.7,0.2-1s0.3-0.5,0.5-0.8s0.5-0.4,0.8-0.5
			s0.6-0.2,1-0.2c0.5,0,0.9,0.1,1.2,0.3s0.6,0.5,0.8,0.8c0.2,0.3,0.3,0.8,0.3,1.3c0,0.1,0,0.1,0,0.2s0,0.1,0,0.1h-4v-0.7h3.1
			l-0.3,0.5c0,0,0.1-0.1,0.1-0.2s0-0.1,0-0.2c0-0.2,0-0.5-0.1-0.6c-0.1-0.2-0.2-0.3-0.4-0.4c-0.2-0.1-0.4-0.1-0.6-0.1
			s-0.4,0-0.5,0.1c-0.2,0.1-0.3,0.2-0.4,0.3s-0.2,0.3-0.3,0.5c-0.1,0.2-0.1,0.4-0.1,0.7s0,0.6,0.1,0.8s0.2,0.4,0.4,0.5
			c0.2,0.1,0.4,0.2,0.7,0.2c0.3,0,0.5-0.1,0.8-0.2c0.2-0.1,0.4-0.3,0.6-0.5l0.9,0.4c-0.2,0.4-0.6,0.7-0.9,0.9
			c-0.4,0.2-0.8,0.3-1.4,0.3C104.7,218.5,104.3,218.4,103.9,218.2z"/>
		<path d="M112.3,217.4c0.1,0.1,0.2,0.2,0.3,0.2s0.3,0.1,0.4,0.1c0.2,0,0.4,0,0.6-0.1s0.3-0.2,0.4-0.4s0.2-0.4,0.2-0.6l0.2,0.6
			c0,0.3-0.1,0.5-0.3,0.7c-0.2,0.2-0.4,0.3-0.6,0.4c-0.3,0.1-0.5,0.1-0.8,0.1s-0.6-0.1-0.8-0.2c-0.2-0.1-0.4-0.3-0.6-0.5
			s-0.2-0.5-0.2-0.8s0.1-0.6,0.2-0.8s0.3-0.4,0.6-0.5s0.6-0.2,1-0.2c0.3,0,0.6,0,0.8,0.1c0.2,0.1,0.4,0.1,0.6,0.2
			c0.1,0.1,0.2,0.2,0.3,0.2v0.5c-0.2-0.1-0.4-0.3-0.7-0.3c-0.2-0.1-0.5-0.1-0.7-0.1s-0.4,0-0.6,0.1s-0.2,0.1-0.3,0.2
			c-0.1,0.1-0.1,0.2-0.1,0.4C112.2,217.1,112.2,217.3,112.3,217.4z M111.4,214.3c0.2-0.1,0.5-0.2,0.8-0.4c0.3-0.1,0.7-0.2,1.1-0.2
			s0.7,0.1,1,0.2s0.5,0.3,0.7,0.5s0.2,0.5,0.2,0.8v3.3h-1.1v-3.1c0-0.1,0-0.3-0.1-0.4c0-0.1-0.1-0.2-0.2-0.2
			c-0.1-0.1-0.2-0.1-0.3-0.1s-0.2,0-0.4,0c-0.2,0-0.4,0-0.6,0.1s-0.3,0.1-0.5,0.2s-0.2,0.1-0.3,0.2L111.4,214.3z"/>
		<path d="M117.5,216.9c0.1,0.2,0.3,0.4,0.5,0.5s0.5,0.2,0.7,0.2s0.4,0,0.6-0.1s0.4-0.2,0.5-0.3s0.3-0.3,0.3-0.4v1.2
			c-0.2,0.2-0.4,0.3-0.6,0.4s-0.6,0.1-0.9,0.1c-0.5,0-0.9-0.1-1.3-0.3s-0.7-0.5-0.9-0.9c-0.2-0.4-0.3-0.8-0.3-1.2
			c0-0.5,0.1-0.9,0.3-1.2c0.2-0.4,0.5-0.6,0.9-0.8s0.8-0.3,1.3-0.3c0.3,0,0.6,0,0.9,0.1s0.5,0.2,0.6,0.4v1.2
			c-0.1-0.2-0.2-0.3-0.3-0.4c-0.2-0.1-0.3-0.2-0.5-0.3s-0.4-0.1-0.6-0.1c-0.3,0-0.5,0.1-0.7,0.2s-0.4,0.3-0.5,0.5s-0.2,0.5-0.2,0.8
			C117.3,216.4,117.3,216.7,117.5,216.9z"/>
		<path d="M122.3,216.9c0.1,0.2,0.3,0.4,0.5,0.5s0.5,0.2,0.7,0.2s0.4,0,0.6-0.1s0.4-0.2,0.5-0.3s0.3-0.3,0.3-0.4v1.2
			c-0.2,0.2-0.4,0.3-0.6,0.4s-0.6,0.1-0.9,0.1c-0.5,0-0.9-0.1-1.3-0.3s-0.7-0.5-0.9-0.9c-0.2-0.4-0.3-0.8-0.3-1.2
			c0-0.5,0.1-0.9,0.3-1.2c0.2-0.4,0.5-0.6,0.9-0.8s0.8-0.3,1.3-0.3c0.3,0,0.6,0,0.9,0.1s0.5,0.2,0.6,0.4v1.2
			c-0.1-0.2-0.2-0.3-0.3-0.4c-0.2-0.1-0.3-0.2-0.5-0.3s-0.4-0.1-0.6-0.1c-0.3,0-0.5,0.1-0.7,0.2s-0.4,0.3-0.5,0.5s-0.2,0.5-0.2,0.8
			C122.1,216.4,122.2,216.7,122.3,216.9z"/>
		<path d="M127.4,217.2c0.1,0.2,0.2,0.3,0.3,0.4c0.1,0.1,0.3,0.1,0.5,0.1c0.2,0,0.4,0,0.5-0.1c0.2-0.1,0.3-0.2,0.4-0.4
			c0.1-0.2,0.1-0.3,0.1-0.5v-2.8h1.1v4.6h-1.1v-0.7c-0.1,0.3-0.3,0.5-0.6,0.6s-0.5,0.2-0.8,0.2s-0.6-0.1-0.9-0.2
			c-0.2-0.1-0.4-0.3-0.5-0.6s-0.2-0.6-0.2-1v-2.9h1.1v2.8C127.3,216.8,127.4,217,127.4,217.2z"/>
		<path d="M132.8,218.4h-1.1v-4.6h1.1V218.4z M133.8,214.8c-0.1,0-0.2-0.1-0.3-0.1c-0.2,0-0.3,0-0.4,0.1c-0.1,0.1-0.2,0.2-0.2,0.4
			c-0.1,0.2-0.1,0.4-0.1,0.6l-0.4-0.2c0-0.4,0.1-0.7,0.2-1s0.3-0.5,0.5-0.7s0.4-0.2,0.7-0.2c0.2,0,0.3,0,0.5,0.1s0.3,0.1,0.4,0.3
			l-0.5,0.9C134,214.9,133.9,214.8,133.8,214.8z"/>
		<path d="M136.2,217.4c0.1,0.1,0.2,0.2,0.3,0.2c0.1,0.1,0.3,0.1,0.4,0.1c0.2,0,0.4,0,0.6-0.1c0.2-0.1,0.3-0.2,0.4-0.4
			c0.1-0.2,0.2-0.4,0.2-0.6l0.2,0.6c0,0.3-0.1,0.5-0.3,0.7s-0.4,0.3-0.6,0.4s-0.5,0.1-0.8,0.1s-0.6-0.1-0.8-0.2
			c-0.2-0.1-0.4-0.3-0.6-0.5s-0.2-0.5-0.2-0.8s0.1-0.6,0.2-0.8c0.1-0.2,0.3-0.4,0.6-0.5s0.6-0.2,1-0.2c0.3,0,0.6,0,0.8,0.1
			s0.4,0.1,0.6,0.2s0.2,0.2,0.3,0.2v0.5c-0.2-0.1-0.4-0.3-0.7-0.3c-0.2-0.1-0.5-0.1-0.7-0.1s-0.4,0-0.6,0.1
			c-0.1,0.1-0.2,0.1-0.3,0.2c-0.1,0.1-0.1,0.2-0.1,0.4C136.1,217.1,136.1,217.3,136.2,217.4z M135.3,214.3c0.2-0.1,0.5-0.2,0.8-0.4
			c0.3-0.1,0.7-0.2,1.1-0.2c0.4,0,0.7,0.1,1,0.2s0.5,0.3,0.7,0.5s0.2,0.5,0.2,0.8v3.3H138v-3.1c0-0.1,0-0.3-0.1-0.4
			s-0.1-0.2-0.2-0.2c-0.1-0.1-0.2-0.1-0.3-0.1s-0.2,0-0.4,0s-0.4,0-0.6,0.1c-0.2,0.1-0.3,0.1-0.5,0.2s-0.2,0.1-0.3,0.2L135.3,214.3z
			"/>
		<path d="M142.4,213.8v1h-2.6v-1H142.4z M141.6,212.2v6.2h-1.1v-6.2H141.6z"/>
		<path d="M143.9,218.2c-0.4-0.2-0.6-0.5-0.8-0.8c-0.2-0.4-0.3-0.8-0.3-1.3c0-0.4,0.1-0.7,0.2-1s0.3-0.5,0.5-0.8s0.5-0.4,0.8-0.5
			s0.6-0.2,1-0.2c0.5,0,0.9,0.1,1.2,0.3s0.6,0.5,0.8,0.8s0.3,0.8,0.3,1.3c0,0.1,0,0.1,0,0.2c0,0.1,0,0.1,0,0.1h-4v-0.7h3.1l-0.3,0.5
			c0,0,0.1-0.1,0.1-0.2s0-0.1,0-0.2c0-0.2,0-0.5-0.1-0.6c-0.1-0.2-0.2-0.3-0.4-0.4c-0.2-0.1-0.4-0.1-0.6-0.1c-0.2,0-0.4,0-0.5,0.1
			c-0.2,0.1-0.3,0.2-0.4,0.3c-0.1,0.1-0.2,0.3-0.3,0.5s-0.1,0.4-0.1,0.7s0.1,0.6,0.2,0.8c0.1,0.2,0.2,0.4,0.4,0.5s0.4,0.2,0.7,0.2
			s0.5-0.1,0.8-0.2c0.2-0.1,0.4-0.3,0.5-0.5l0.9,0.4c-0.2,0.4-0.6,0.7-0.9,0.9c-0.4,0.2-0.8,0.3-1.4,0.3
			C144.7,218.5,144.3,218.4,143.9,218.2z"/>
		<path d="M148.5,214.8c0.2-0.4,0.5-0.6,0.8-0.8s0.7-0.3,1.1-0.3c0.3,0,0.5,0.1,0.8,0.2c0.2,0.1,0.4,0.3,0.6,0.5
			c0.2,0.2,0.3,0.5,0.4,0.8c0.1,0.3,0.1,0.6,0.1,1s0,0.7-0.1,1s-0.2,0.5-0.4,0.8c-0.2,0.2-0.4,0.4-0.6,0.5c-0.2,0.1-0.5,0.2-0.8,0.2
			c-0.4,0-0.8-0.1-1.1-0.3s-0.6-0.5-0.8-0.8c-0.2-0.4-0.3-0.8-0.3-1.3C148.2,215.6,148.3,215.2,148.5,214.8z M149.5,216.9
			c0.1,0.2,0.3,0.4,0.5,0.5s0.4,0.2,0.7,0.2c0.2,0,0.3,0,0.5-0.1s0.3-0.2,0.4-0.3c0.1-0.1,0.2-0.3,0.3-0.5s0.1-0.4,0.1-0.6
			s0-0.4-0.1-0.6c-0.1-0.2-0.2-0.3-0.3-0.5c-0.1-0.1-0.3-0.2-0.4-0.3s-0.3-0.1-0.5-0.1s-0.5,0.1-0.7,0.2c-0.2,0.1-0.4,0.3-0.5,0.5
			s-0.2,0.5-0.2,0.8S149.4,216.7,149.5,216.9z M153.1,210.6v7.8H152v-7.8H153.1z"/>
		<path d="M48.5,225.4v7h-1.2v-7H48.5z M48,225.4h3.1v1.1H48V225.4z M48,228.2h3v1h-3V228.2z"/>
		<path d="M52.1,228.9c0.2-0.4,0.5-0.6,0.9-0.8s0.8-0.3,1.3-0.3s0.9,0.1,1.3,0.3c0.4,0.2,0.7,0.5,0.9,0.8c0.2,0.4,0.3,0.8,0.3,1.2
			c0,0.5-0.1,0.9-0.3,1.2c-0.2,0.4-0.5,0.6-0.9,0.9c-0.4,0.2-0.8,0.3-1.3,0.3s-0.9-0.1-1.3-0.3c-0.4-0.2-0.7-0.5-0.9-0.9
			s-0.3-0.8-0.3-1.2C51.8,229.6,51.9,229.2,52.1,228.9z M53.1,230.9c0.1,0.2,0.3,0.4,0.5,0.5s0.4,0.2,0.7,0.2s0.5-0.1,0.7-0.2
			s0.4-0.3,0.5-0.5s0.2-0.5,0.2-0.8s-0.1-0.5-0.2-0.8c-0.1-0.2-0.3-0.4-0.5-0.5s-0.4-0.2-0.7-0.2s-0.5,0.1-0.7,0.2
			c-0.2,0.1-0.4,0.3-0.5,0.5s-0.2,0.5-0.2,0.8C52.9,230.4,53,230.7,53.1,230.9z"/>
		<path d="M59,231.2c0.1,0.2,0.2,0.3,0.3,0.4s0.3,0.1,0.5,0.1s0.4,0,0.5-0.1c0.2-0.1,0.3-0.2,0.4-0.4c0.1-0.2,0.1-0.3,0.1-0.5v-2.8
			h1.1v4.6h-1.1v-0.7c-0.1,0.3-0.3,0.5-0.6,0.6c-0.2,0.1-0.5,0.2-0.8,0.2s-0.6-0.1-0.9-0.2c-0.2-0.1-0.4-0.3-0.5-0.6s-0.2-0.6-0.2-1
			v-2.9h1.1v2.8C58.9,230.8,58.9,231,59,231.2z"/>
		<path d="M66.1,229.1c-0.1-0.2-0.2-0.3-0.3-0.3c-0.1-0.1-0.3-0.1-0.5-0.1s-0.4,0-0.5,0.1c-0.2,0.1-0.3,0.2-0.4,0.4
			s-0.1,0.3-0.1,0.5v2.8h-1.1v-4.6h1.1v0.7c0.1-0.3,0.3-0.5,0.6-0.6c0.2-0.1,0.5-0.2,0.8-0.2s0.6,0.1,0.9,0.2
			c0.2,0.1,0.4,0.3,0.5,0.6s0.2,0.6,0.2,1v2.9h-1.1v-2.9C66.2,229.4,66.1,229.2,66.1,229.1z"/>
		<path d="M68.6,228.8c0.2-0.4,0.5-0.6,0.8-0.8s0.7-0.3,1.1-0.3c0.3,0,0.5,0.1,0.8,0.2c0.2,0.1,0.4,0.3,0.6,0.5s0.3,0.5,0.4,0.8
			s0.1,0.6,0.1,1s0,0.7-0.1,1s-0.2,0.5-0.4,0.8c-0.2,0.2-0.4,0.4-0.6,0.5s-0.5,0.2-0.8,0.2c-0.4,0-0.8-0.1-1.1-0.3
			c-0.3-0.2-0.6-0.5-0.8-0.8c-0.2-0.4-0.3-0.8-0.3-1.3C68.3,229.6,68.4,229.2,68.6,228.8z M69.6,230.9c0.1,0.2,0.3,0.4,0.5,0.5
			s0.4,0.2,0.7,0.2c0.2,0,0.3,0,0.5-0.1s0.3-0.2,0.4-0.3s0.2-0.3,0.3-0.5c0.1-0.2,0.1-0.4,0.1-0.6s0-0.4-0.1-0.6
			c-0.1-0.2-0.2-0.3-0.3-0.5c-0.1-0.1-0.3-0.2-0.4-0.3c-0.2-0.1-0.3-0.1-0.5-0.1s-0.5,0.1-0.7,0.2c-0.2,0.1-0.4,0.3-0.5,0.5
			s-0.2,0.5-0.2,0.8S69.5,230.7,69.6,230.9z M73.2,224.6v7.8h-1.1v-7.8H73.2z"/>
		<path d="M77.7,225.5c0.1-0.1,0.3-0.2,0.5-0.2s0.4,0.1,0.5,0.2c0.1,0.1,0.2,0.3,0.2,0.5s-0.1,0.3-0.2,0.5c-0.1,0.1-0.3,0.2-0.5,0.2
			s-0.3-0.1-0.5-0.2c-0.1-0.1-0.2-0.3-0.2-0.5S77.6,225.6,77.7,225.5z M78.7,227.8v4.6h-1.1v-4.6H78.7z"/>
		<path d="M82.2,227.8v1h-2.6v-1H82.2z M81.4,226.2v6.2h-1.1v-6.2H81.4z"/>
		<path d="M87.9,227.8v1h-2.6v-1H87.9z M87.1,226.2v6.2H86v-6.2H87.1z"/>
		<path d="M88.6,228.9c0.2-0.4,0.5-0.6,0.9-0.8s0.8-0.3,1.3-0.3s0.9,0.1,1.3,0.3s0.7,0.5,0.9,0.8c0.2,0.4,0.3,0.8,0.3,1.2
			c0,0.5-0.1,0.9-0.3,1.2c-0.2,0.4-0.5,0.6-0.9,0.9c-0.4,0.2-0.8,0.3-1.3,0.3s-0.9-0.1-1.3-0.3s-0.7-0.5-0.9-0.9
			c-0.2-0.4-0.3-0.8-0.3-1.2C88.3,229.6,88.4,229.2,88.6,228.9z M89.6,230.9c0.1,0.2,0.3,0.4,0.5,0.5s0.4,0.2,0.7,0.2
			c0.3,0,0.5-0.1,0.7-0.2s0.4-0.3,0.5-0.5s0.2-0.5,0.2-0.8s-0.1-0.5-0.2-0.8c-0.1-0.2-0.3-0.4-0.5-0.5s-0.4-0.2-0.7-0.2
			c-0.3,0-0.5,0.1-0.7,0.2c-0.2,0.1-0.4,0.3-0.5,0.5s-0.2,0.5-0.2,0.8S89.4,230.7,89.6,230.9z"/>
		<path d="M98.3,232.4h-1.1v-7.8h1.1V232.4z M101.8,231.4c-0.2,0.4-0.5,0.6-0.8,0.8s-0.7,0.3-1.1,0.3c-0.3,0-0.6-0.1-0.8-0.2
			c-0.2-0.1-0.4-0.3-0.6-0.5s-0.3-0.5-0.4-0.8s-0.1-0.6-0.1-1s0-0.7,0.1-1s0.2-0.5,0.4-0.8c0.2-0.2,0.4-0.4,0.6-0.5s0.5-0.2,0.8-0.2
			c0.4,0,0.8,0.1,1.1,0.3c0.3,0.2,0.6,0.5,0.8,0.8c0.2,0.4,0.3,0.8,0.3,1.3C102.1,230.6,102,231.1,101.8,231.4z M100.8,229.3
			c-0.1-0.2-0.3-0.4-0.5-0.5s-0.4-0.2-0.7-0.2c-0.2,0-0.3,0-0.5,0.1s-0.3,0.2-0.4,0.3s-0.2,0.3-0.3,0.5c-0.1,0.2-0.1,0.4-0.1,0.6
			s0,0.4,0.1,0.6c0.1,0.2,0.2,0.3,0.3,0.5c0.1,0.1,0.3,0.2,0.4,0.3c0.2,0.1,0.3,0.1,0.5,0.1c0.3,0,0.5-0.1,0.7-0.2
			c0.2-0.1,0.4-0.3,0.5-0.5s0.2-0.5,0.2-0.8S100.9,229.6,100.8,229.3z"/>
		<path d="M103.9,232.2c-0.4-0.2-0.6-0.5-0.8-0.8c-0.2-0.4-0.3-0.8-0.3-1.3c0-0.4,0.1-0.7,0.2-1s0.3-0.5,0.5-0.8s0.5-0.4,0.8-0.5
			s0.6-0.2,1-0.2c0.5,0,0.9,0.1,1.2,0.3s0.6,0.5,0.8,0.8c0.2,0.3,0.3,0.8,0.3,1.3c0,0.1,0,0.1,0,0.2s0,0.1,0,0.1h-4v-0.7h3.1
			l-0.3,0.5c0,0,0.1-0.1,0.1-0.2s0-0.1,0-0.2c0-0.2,0-0.5-0.1-0.6c-0.1-0.2-0.2-0.3-0.4-0.4c-0.2-0.1-0.4-0.1-0.6-0.1
			s-0.4,0-0.5,0.1c-0.2,0.1-0.3,0.2-0.4,0.3s-0.2,0.3-0.3,0.5c-0.1,0.2-0.1,0.4-0.1,0.7s0,0.6,0.1,0.8s0.2,0.4,0.4,0.5
			c0.2,0.1,0.4,0.2,0.7,0.2c0.3,0,0.5-0.1,0.8-0.2c0.2-0.1,0.4-0.3,0.6-0.5l0.9,0.4c-0.2,0.4-0.6,0.7-0.9,0.9
			c-0.4,0.2-0.8,0.3-1.4,0.3C104.7,232.5,104.3,232.4,103.9,232.2z"/>
		<path d="M111.7,225.5c0.1-0.1,0.3-0.2,0.5-0.2s0.4,0.1,0.5,0.2c0.1,0.1,0.2,0.3,0.2,0.5s-0.1,0.3-0.2,0.5
			c-0.1,0.1-0.3,0.2-0.5,0.2s-0.3-0.1-0.5-0.2c-0.1-0.1-0.2-0.3-0.2-0.5S111.5,225.6,111.7,225.5z M112.7,227.8v4.6h-1.1v-4.6H112.7
			z"/>
		<path d="M117,229.1c-0.1-0.2-0.2-0.3-0.3-0.3c-0.1-0.1-0.3-0.1-0.5-0.1s-0.4,0-0.5,0.1s-0.3,0.2-0.4,0.4s-0.1,0.3-0.1,0.5v2.8
			h-1.1v-4.6h1.1v0.7c0.1-0.3,0.3-0.5,0.6-0.6c0.2-0.1,0.5-0.2,0.8-0.2s0.6,0.1,0.9,0.2c0.2,0.1,0.4,0.3,0.5,0.6s0.2,0.6,0.2,1v2.9
			h-1.1v-2.9C117.1,229.4,117.1,229.2,117,229.1z"/>
		<path d="M120.4,231.4c0.1,0.1,0.2,0.2,0.3,0.2c0.1,0.1,0.3,0.1,0.4,0.1c0.2,0,0.4,0,0.6-0.1s0.3-0.2,0.4-0.4s0.2-0.4,0.2-0.6
			l0.2,0.6c0,0.3-0.1,0.5-0.3,0.7c-0.2,0.2-0.4,0.3-0.6,0.4s-0.5,0.1-0.8,0.1s-0.6-0.1-0.8-0.2c-0.2-0.1-0.4-0.3-0.6-0.5
			s-0.2-0.5-0.2-0.8s0.1-0.6,0.2-0.8s0.3-0.4,0.6-0.5s0.6-0.2,1-0.2c0.3,0,0.6,0,0.8,0.1c0.2,0.1,0.4,0.1,0.6,0.2s0.2,0.2,0.3,0.2
			v0.5c-0.2-0.1-0.4-0.3-0.7-0.3c-0.2-0.1-0.5-0.1-0.7-0.1s-0.4,0-0.6,0.1c-0.1,0.1-0.2,0.1-0.3,0.2c-0.1,0.1-0.1,0.2-0.1,0.4
			C120.3,231.1,120.3,231.3,120.4,231.4z M119.5,228.3c0.2-0.1,0.5-0.2,0.8-0.4c0.3-0.1,0.7-0.2,1.1-0.2s0.7,0.1,1,0.2
			s0.5,0.3,0.7,0.5s0.2,0.5,0.2,0.8v3.3h-1.1v-3.1c0-0.1,0-0.3-0.1-0.4s-0.1-0.2-0.2-0.2c-0.1-0.1-0.2-0.1-0.3-0.1
			c-0.1,0-0.2,0-0.4,0c-0.2,0-0.4,0-0.6,0.1s-0.3,0.1-0.5,0.2s-0.2,0.1-0.3,0.2L119.5,228.3z"/>
		<path d="M125.6,230.9c0.1,0.2,0.3,0.4,0.5,0.5s0.5,0.2,0.7,0.2s0.4,0,0.6-0.1s0.4-0.2,0.5-0.3s0.3-0.3,0.3-0.4v1.2
			c-0.2,0.2-0.4,0.3-0.7,0.4s-0.6,0.1-0.9,0.1c-0.5,0-0.9-0.1-1.3-0.3s-0.7-0.5-0.9-0.9c-0.2-0.4-0.3-0.8-0.3-1.2
			c0-0.5,0.1-0.9,0.3-1.2c0.2-0.4,0.5-0.6,0.9-0.8s0.8-0.3,1.3-0.3c0.3,0,0.6,0,0.9,0.1s0.5,0.2,0.7,0.4v1.2
			c-0.1-0.2-0.2-0.3-0.3-0.4c-0.2-0.1-0.3-0.2-0.5-0.3s-0.4-0.1-0.6-0.1c-0.3,0-0.5,0.1-0.7,0.2c-0.2,0.1-0.4,0.3-0.5,0.5
			s-0.2,0.5-0.2,0.8C125.4,230.4,125.5,230.7,125.6,230.9z"/>
		<path d="M130.4,230.9c0.1,0.2,0.3,0.4,0.5,0.5s0.5,0.2,0.7,0.2s0.4,0,0.6-0.1c0.2-0.1,0.4-0.2,0.5-0.3s0.3-0.3,0.3-0.4v1.2
			c-0.2,0.2-0.4,0.3-0.7,0.4s-0.6,0.1-0.9,0.1c-0.5,0-0.9-0.1-1.3-0.3s-0.7-0.5-0.9-0.9s-0.3-0.8-0.3-1.2c0-0.5,0.1-0.9,0.3-1.2
			c0.2-0.4,0.5-0.6,0.9-0.8s0.8-0.3,1.3-0.3c0.3,0,0.6,0,0.9,0.1c0.3,0.1,0.5,0.2,0.7,0.4v1.2c-0.1-0.2-0.2-0.3-0.3-0.4
			c-0.2-0.1-0.3-0.2-0.5-0.3s-0.4-0.1-0.6-0.1c-0.3,0-0.5,0.1-0.7,0.2c-0.2,0.1-0.4,0.3-0.5,0.5s-0.2,0.5-0.2,0.8
			C130.2,230.4,130.3,230.7,130.4,230.9z"/>
		<path d="M135.5,231.2c0.1,0.2,0.2,0.3,0.3,0.4c0.1,0.1,0.3,0.1,0.5,0.1s0.4,0,0.5-0.1c0.2-0.1,0.3-0.2,0.4-0.4s0.1-0.3,0.1-0.5
			v-2.8h1.1v4.6h-1.1v-0.7c-0.1,0.3-0.3,0.5-0.6,0.6c-0.2,0.1-0.5,0.2-0.8,0.2s-0.6-0.1-0.9-0.2s-0.4-0.3-0.5-0.6s-0.2-0.6-0.2-1
			v-2.9h1.1v2.8C135.5,230.8,135.5,231,135.5,231.2z"/>
		<path d="M140.9,232.4h-1.1v-4.6h1.1V232.4z M142,228.8c-0.1,0-0.2-0.1-0.3-0.1c-0.2,0-0.3,0-0.4,0.1c-0.1,0.1-0.2,0.2-0.2,0.4
			c-0.1,0.2-0.1,0.4-0.1,0.6l-0.4-0.2c0-0.4,0.1-0.7,0.2-1s0.3-0.5,0.5-0.7s0.4-0.2,0.7-0.2c0.2,0,0.3,0,0.5,0.1
			c0.1,0.1,0.3,0.1,0.4,0.3l-0.5,0.9C142.1,228.9,142,228.8,142,228.8z"/>
		<path d="M144.3,231.4c0.1,0.1,0.2,0.2,0.3,0.2s0.3,0.1,0.4,0.1c0.2,0,0.4,0,0.6-0.1c0.2-0.1,0.3-0.2,0.4-0.4
			c0.1-0.2,0.2-0.4,0.2-0.6l0.2,0.6c0,0.3-0.1,0.5-0.3,0.7s-0.4,0.3-0.6,0.4c-0.3,0.1-0.5,0.1-0.8,0.1s-0.6-0.1-0.8-0.2
			c-0.2-0.1-0.4-0.3-0.6-0.5s-0.2-0.5-0.2-0.8s0.1-0.6,0.2-0.8c0.1-0.2,0.3-0.4,0.6-0.5s0.6-0.2,1-0.2c0.3,0,0.6,0,0.8,0.1
			s0.4,0.1,0.6,0.2c0.1,0.1,0.2,0.2,0.3,0.2v0.5c-0.2-0.1-0.4-0.3-0.7-0.3c-0.2-0.1-0.5-0.1-0.7-0.1s-0.4,0-0.6,0.1
			s-0.2,0.1-0.3,0.2c-0.1,0.1-0.1,0.2-0.1,0.4C144.2,231.1,144.2,231.3,144.3,231.4z M143.4,228.3c0.2-0.1,0.5-0.2,0.8-0.4
			c0.3-0.1,0.7-0.2,1.1-0.2c0.4,0,0.7,0.1,1,0.2s0.5,0.3,0.7,0.5s0.2,0.5,0.2,0.8v3.3h-1.1v-3.1c0-0.1,0-0.3-0.1-0.4
			c0-0.1-0.1-0.2-0.2-0.2c-0.1-0.1-0.2-0.1-0.3-0.1s-0.2,0-0.4,0s-0.4,0-0.6,0.1c-0.2,0.1-0.3,0.1-0.5,0.2s-0.2,0.1-0.3,0.2
			L143.4,228.3z"/>
		<path d="M150.5,227.8v1h-2.6v-1H150.5z M149.7,226.2v6.2h-1.1v-6.2H149.7z"/>
		<path d="M152,232.2c-0.4-0.2-0.6-0.5-0.8-0.8c-0.2-0.4-0.3-0.8-0.3-1.3c0-0.4,0.1-0.7,0.2-1s0.3-0.5,0.5-0.8s0.5-0.4,0.8-0.5
			s0.6-0.2,1-0.2c0.5,0,0.9,0.1,1.2,0.3s0.6,0.5,0.8,0.8s0.3,0.8,0.3,1.3c0,0.1,0,0.1,0,0.2s0,0.1,0,0.1h-4v-0.7h3.1l-0.3,0.5
			c0,0,0.1-0.1,0.1-0.2s0-0.1,0-0.2c0-0.2,0-0.5-0.1-0.6c-0.1-0.2-0.2-0.3-0.4-0.4c-0.2-0.1-0.4-0.1-0.6-0.1c-0.2,0-0.4,0-0.5,0.1
			c-0.2,0.1-0.3,0.2-0.4,0.3s-0.2,0.3-0.3,0.5s-0.1,0.4-0.1,0.7s0,0.6,0.1,0.8s0.2,0.4,0.4,0.5s0.4,0.2,0.7,0.2s0.5-0.1,0.8-0.2
			c0.2-0.1,0.4-0.3,0.6-0.5l0.9,0.4c-0.2,0.4-0.6,0.7-0.9,0.9c-0.4,0.2-0.8,0.3-1.4,0.3C152.8,232.5,152.4,232.4,152,232.2z"/>
		<path d="M156.6,228.8c0.2-0.4,0.5-0.6,0.8-0.8s0.7-0.3,1.1-0.3c0.3,0,0.5,0.1,0.8,0.2s0.4,0.3,0.6,0.5c0.2,0.2,0.3,0.5,0.4,0.8
			c0.1,0.3,0.1,0.6,0.1,1s0,0.7-0.1,1s-0.2,0.5-0.4,0.8c-0.2,0.2-0.4,0.4-0.6,0.5c-0.2,0.1-0.5,0.2-0.8,0.2c-0.4,0-0.8-0.1-1.1-0.3
			s-0.6-0.5-0.8-0.8c-0.2-0.4-0.3-0.8-0.3-1.3C156.3,229.6,156.4,229.2,156.6,228.8z M157.6,230.9c0.1,0.2,0.3,0.4,0.5,0.5
			s0.4,0.2,0.7,0.2c0.2,0,0.3,0,0.5-0.1s0.3-0.2,0.4-0.3c0.1-0.1,0.2-0.3,0.3-0.5s0.1-0.4,0.1-0.6s0-0.4-0.1-0.6
			c-0.1-0.2-0.2-0.3-0.3-0.5c-0.1-0.1-0.3-0.2-0.4-0.3c-0.2-0.1-0.3-0.1-0.5-0.1s-0.5,0.1-0.7,0.2c-0.2,0.1-0.4,0.3-0.5,0.5
			s-0.2,0.5-0.2,0.8S157.5,230.7,157.6,230.9z M161.2,224.6v7.8h-1.1v-7.8H161.2z"/>
	</g>
</g>
</svg>
