<?xml version="1.0" encoding="utf-8"?>
<!-- Generator: Adobe Illustrator 24.1.2, SVG Export Plug-In . SVG Version: 6.00 Build 0)  -->
<svg version="1.1" id="Layer_1" xmlns="http://www.w3.org/2000/svg" xmlns:xlink="http://www.w3.org/1999/xlink" x="0px" y="0px"
	 viewBox="0 0 200 300" style="enable-background:new 0 0 200 300;" xml:space="preserve">
<style type="text/css">
	.st0{fill:#35282B;}
	.st1{fill:#D13653;}
	.st2{fill:#FFFFFF;}
</style>
<g id="Layer_1_1_">
</g>
<g>
	<circle class="st0" cx="99.5" cy="133.9" r="65.5"/>
	<path class="st1" d="M140.3,185.3c15.4-12,25.2-30.7,25.2-51.7c0-36.2-29.3-65.5-65.5-65.5s-65.5,29.3-65.5,65.5H100L140.3,185.3z"
		/>
	<g>
		<path class="st2" d="M96.5,104.3l-2.8,3.5h-0.2c0.2-0.2,0.4-0.4,0.6-0.4c0.2-0.1,0.5-0.1,0.8-0.1s0.7,0.1,1,0.2s0.6,0.3,0.9,0.6
			c0.2,0.3,0.4,0.6,0.6,0.9c0.1,0.3,0.2,0.7,0.2,1.2c0,0.6-0.1,1.2-0.4,1.7s-0.7,0.8-1.2,1.1c-0.5,0.2-1,0.4-1.6,0.4
			s-1.2-0.1-1.6-0.4c-0.5-0.2-0.9-0.6-1.2-1.1c-0.3-0.5-0.4-1-0.4-1.7c0-0.4,0.1-0.8,0.2-1.1c0.1-0.3,0.3-0.7,0.5-0.9l2.8-3.8
			L96.5,104.3L96.5,104.3z M92.7,111.1c0.2,0.3,0.4,0.5,0.6,0.6c0.3,0.2,0.6,0.2,0.9,0.2s0.6-0.1,0.9-0.2c0.3-0.2,0.5-0.4,0.6-0.6
			c0.2-0.3,0.2-0.6,0.2-1s-0.1-0.7-0.2-1c-0.2-0.3-0.4-0.5-0.6-0.7s-0.6-0.2-0.9-0.2s-0.6,0.1-0.9,0.2s-0.5,0.4-0.6,0.7
			c-0.2,0.3-0.2,0.6-0.2,1S92.5,110.8,92.7,111.1z"/>
		<path class="st2" d="M104.2,104.3l-2.8,3.5h-0.2c0.2-0.2,0.4-0.4,0.6-0.4c0.2-0.1,0.5-0.1,0.8-0.1s0.7,0.1,1,0.2s0.6,0.3,0.9,0.6
			c0.2,0.3,0.4,0.6,0.6,0.9c0.1,0.3,0.2,0.7,0.2,1.2c0,0.6-0.1,1.2-0.4,1.7s-0.7,0.8-1.2,1.1c-0.5,0.2-1,0.4-1.6,0.4
			s-1.2-0.1-1.6-0.4c-0.5-0.2-0.9-0.6-1.2-1.1c-0.3-0.5-0.4-1-0.4-1.7c0-0.4,0.1-0.8,0.2-1.1c0.1-0.3,0.3-0.7,0.5-0.9l2.8-3.8
			L104.2,104.3L104.2,104.3z M100.4,111.1c0.2,0.3,0.4,0.5,0.6,0.6c0.3,0.2,0.6,0.2,0.9,0.2s0.6-0.1,0.9-0.2
			c0.3-0.2,0.5-0.4,0.6-0.6c0.2-0.3,0.2-0.6,0.2-1s-0.1-0.7-0.2-1c-0.2-0.3-0.4-0.5-0.6-0.7s-0.6-0.2-0.9-0.2s-0.6,0.1-0.9,0.2
			c-0.3,0.2-0.5,0.4-0.6,0.7c-0.2,0.3-0.2,0.6-0.2,1C100.2,110.5,100.3,110.8,100.4,111.1z"/>
		<path class="st2" d="M106.5,105.2c0.2-0.3,0.4-0.6,0.8-0.8c0.3-0.2,0.7-0.3,1.1-0.3s0.8,0.1,1.1,0.3c0.3,0.2,0.6,0.5,0.8,0.8
			s0.3,0.7,0.3,1.1s-0.1,0.8-0.3,1.1s-0.4,0.6-0.8,0.8c-0.3,0.2-0.7,0.3-1.1,0.3s-0.8-0.1-1.1-0.3c-0.3-0.2-0.6-0.5-0.8-0.8
			c-0.2-0.3-0.3-0.7-0.3-1.1C106.2,105.9,106.3,105.5,106.5,105.2z M114.7,104.3l-6.1,8.8h-1.3l6.1-8.8H114.7z M107.5,106.8
			c0.1,0.2,0.2,0.3,0.3,0.4s0.3,0.1,0.5,0.1s0.4,0,0.5-0.1s0.3-0.2,0.3-0.4c0.1-0.2,0.1-0.3,0.1-0.5s0-0.4-0.1-0.5
			c-0.1-0.2-0.2-0.3-0.3-0.4c-0.1-0.1-0.3-0.1-0.5-0.1s-0.4,0-0.5,0.1s-0.3,0.2-0.3,0.4s-0.1,0.3-0.1,0.5S107.4,106.6,107.5,106.8z
			 M111.7,110.1c0.2-0.3,0.4-0.6,0.8-0.8c0.3-0.2,0.7-0.3,1.1-0.3s0.8,0.1,1.1,0.3c0.3,0.2,0.6,0.5,0.8,0.8s0.3,0.7,0.3,1.1
			s-0.1,0.8-0.3,1.1c-0.2,0.3-0.4,0.6-0.8,0.8c-0.3,0.2-0.7,0.3-1.1,0.3s-0.8-0.1-1.1-0.3c-0.3-0.2-0.6-0.5-0.8-0.8
			c-0.2-0.3-0.3-0.7-0.3-1.1S111.6,110.4,111.7,110.1z M112.8,111.7c0.1,0.2,0.2,0.3,0.3,0.4c0.1,0.1,0.3,0.1,0.5,0.1s0.4,0,0.5-0.1
			s0.3-0.2,0.3-0.4c0.1-0.2,0.1-0.3,0.1-0.5s0-0.4-0.1-0.5c-0.1-0.2-0.2-0.3-0.3-0.4c-0.1-0.1-0.3-0.1-0.5-0.1s-0.4,0-0.5,0.1
			s-0.3,0.2-0.3,0.4c-0.1,0.2-0.1,0.3-0.1,0.5C112.6,111.4,112.7,111.5,112.8,111.7z"/>
	</g>
	<g>
		<path class="st2" d="M74.8,168.3c-0.4-0.1-0.7-0.3-1-0.6c-0.3-0.2-0.5-0.5-0.6-0.9c-0.1-0.3-0.2-0.7-0.2-1h1.5
			c0,0.3,0.1,0.5,0.2,0.7s0.3,0.4,0.6,0.5s0.5,0.2,0.8,0.2s0.6-0.1,0.8-0.2c0.2-0.1,0.4-0.3,0.5-0.5s0.2-0.5,0.2-0.7s0-0.4-0.1-0.6
			s-0.2-0.3-0.4-0.5c-0.2-0.1-0.4-0.2-0.6-0.3s-0.5-0.1-0.8-0.1v-0.9c0.5,0,0.9,0,1.4,0.1s0.8,0.2,1.1,0.4s0.6,0.5,0.7,0.8
			c0.2,0.3,0.3,0.7,0.3,1.1c0,0.5-0.1,0.9-0.4,1.3c-0.3,0.4-0.6,0.7-1.1,0.9s-1,0.3-1.6,0.3C75.6,168.5,75.2,168.4,74.8,168.3z
			 M75.6,163.2c0.3,0,0.5,0,0.7-0.1s0.4-0.2,0.5-0.3s0.3-0.3,0.3-0.4c0.1-0.2,0.1-0.3,0.1-0.5s0-0.4-0.1-0.6
			c-0.1-0.2-0.2-0.3-0.4-0.4s-0.4-0.2-0.7-0.2c-0.3,0-0.5,0.1-0.7,0.2c-0.2,0.1-0.4,0.2-0.5,0.4s-0.2,0.4-0.2,0.6h-1.4
			c0-0.5,0.1-0.9,0.3-1.3s0.6-0.7,1-0.9s0.9-0.3,1.4-0.3c0.6,0,1.1,0.1,1.5,0.3s0.7,0.5,0.9,0.9c0.2,0.4,0.3,0.8,0.3,1.2
			c0,0.3-0.1,0.6-0.2,0.9c-0.2,0.3-0.4,0.5-0.7,0.7c-0.3,0.2-0.6,0.4-1,0.5s-0.8,0.2-1.3,0.2v-0.9H75.6z"/>
		<path class="st2" d="M84.8,159.5h0.9v8.8h-1.5v-2.2l0.1-0.1v-3.8l-2.3,3.3h3l0.2-0.1H87v1.3h-7.3L84.8,159.5z"/>
		<path class="st2" d="M88.2,160.4c0.2-0.3,0.4-0.6,0.8-0.8c0.3-0.2,0.7-0.3,1.1-0.3s0.8,0.1,1.1,0.3c0.3,0.2,0.6,0.5,0.8,0.8
			s0.3,0.7,0.3,1.1c0,0.4-0.1,0.8-0.3,1.1s-0.4,0.6-0.8,0.8c-0.3,0.2-0.7,0.3-1.1,0.3s-0.8-0.1-1.1-0.3c-0.3-0.2-0.6-0.5-0.8-0.8
			c-0.2-0.3-0.3-0.7-0.3-1.1C87.9,161.1,88,160.7,88.2,160.4z M96.4,159.5l-6.1,8.8H89l6.1-8.8H96.4z M89.2,162
			c0.1,0.2,0.2,0.3,0.3,0.4c0.1,0.1,0.3,0.1,0.5,0.1s0.4,0,0.5-0.1s0.3-0.2,0.3-0.4c0.1-0.2,0.1-0.3,0.1-0.5s0-0.4-0.1-0.5
			c-0.1-0.2-0.2-0.3-0.3-0.4c-0.1-0.1-0.3-0.1-0.5-0.1s-0.4,0-0.5,0.1s-0.3,0.2-0.3,0.4s-0.1,0.3-0.1,0.5
			C89,161.6,89.1,161.8,89.2,162z M93.4,165.3c0.2-0.3,0.4-0.6,0.8-0.8s0.7-0.3,1.1-0.3s0.8,0.1,1.1,0.3c0.3,0.2,0.6,0.5,0.8,0.8
			s0.3,0.7,0.3,1.1s-0.1,0.8-0.3,1.1s-0.4,0.6-0.8,0.8c-0.3,0.2-0.7,0.3-1.1,0.3s-0.8-0.1-1.1-0.3s-0.6-0.5-0.8-0.8
			c-0.2-0.3-0.3-0.7-0.3-1.1S93.2,165.6,93.4,165.3z M94.4,166.9c0.1,0.2,0.2,0.3,0.3,0.4c0.1,0.1,0.3,0.1,0.5,0.1s0.4,0,0.5-0.1
			s0.3-0.2,0.3-0.4c0.1-0.2,0.1-0.3,0.1-0.5s0-0.4-0.1-0.5c-0.1-0.2-0.2-0.3-0.3-0.4s-0.3-0.1-0.5-0.1s-0.4,0-0.5,0.1
			s-0.3,0.2-0.3,0.4c-0.1,0.2-0.1,0.3-0.1,0.5C94.3,166.5,94.3,166.7,94.4,166.9z"/>
	</g>
</g>
<g>
	<circle class="st1" cx="75.5" cy="218.3" r="5"/>
	<circle class="st0" cx="75.5" cy="231.3" r="5"/>
	<g>
		<path d="M84.2,216.4c0.2-0.4,0.4-0.8,0.8-1.2c0.3-0.3,0.7-0.6,1.2-0.8c0.4-0.2,0.9-0.3,1.4-0.3s1,0.1,1.4,0.3s0.8,0.4,1.1,0.8
			c0.3,0.3,0.6,0.7,0.8,1.2c0.2,0.4,0.3,0.9,0.3,1.4s-0.1,1-0.3,1.4c-0.2,0.4-0.4,0.8-0.8,1.2s-0.7,0.6-1.1,0.8s-0.9,0.3-1.5,0.3
			c-0.5,0-1-0.1-1.5-0.3c-0.4-0.2-0.8-0.4-1.2-0.8s-0.6-0.7-0.8-1.2c-0.2-0.4-0.3-0.9-0.3-1.4C84,217.3,84.1,216.8,84.2,216.4z
			 M85.4,218.8c0.1,0.3,0.3,0.6,0.5,0.8s0.5,0.4,0.8,0.5s0.6,0.2,1,0.2s0.7-0.1,1-0.2c0.3-0.1,0.5-0.3,0.8-0.5s0.4-0.5,0.5-0.8
			s0.2-0.6,0.2-1s-0.1-0.7-0.2-1s-0.3-0.6-0.5-0.8s-0.5-0.4-0.8-0.5s-0.6-0.2-1-0.2c-0.3,0-0.7,0.1-1,0.2c-0.3,0.1-0.5,0.3-0.8,0.5
			s-0.4,0.5-0.5,0.8s-0.2,0.6-0.2,1C85.2,218.2,85.3,218.5,85.4,218.8z M88.7,218.3l3.1,3h-1.4l-3.1-3H88.7z"/>
		<path d="M93.7,220.1c0.1,0.2,0.2,0.3,0.3,0.4s0.3,0.1,0.5,0.1s0.4,0,0.5-0.1c0.2-0.1,0.3-0.2,0.4-0.4s0.1-0.3,0.1-0.5v-2.8h1.1
			v4.6h-1.1v-0.7c-0.1,0.3-0.3,0.5-0.6,0.6c-0.2,0.1-0.5,0.2-0.8,0.2s-0.6-0.1-0.9-0.2c-0.2-0.1-0.4-0.3-0.5-0.6s-0.2-0.6-0.2-1
			v-2.9h1.1v2.8C93.6,219.7,93.6,219.9,93.7,220.1z"/>
		<path d="M98.7,220.3c0.1,0.1,0.2,0.2,0.3,0.2c0.1,0.1,0.3,0.1,0.4,0.1c0.2,0,0.4,0,0.6-0.1s0.3-0.2,0.4-0.4s0.2-0.4,0.2-0.6
			l0.2,0.6c0,0.3-0.1,0.5-0.3,0.7c-0.2,0.2-0.4,0.3-0.6,0.4c-0.3,0.1-0.5,0.1-0.8,0.1s-0.6-0.1-0.8-0.2s-0.4-0.3-0.6-0.5
			s-0.2-0.5-0.2-0.8s0.1-0.6,0.2-0.8s0.3-0.4,0.6-0.5s0.6-0.2,1-0.2c0.3,0,0.6,0,0.8,0.1c0.2,0.1,0.4,0.1,0.6,0.2
			c0.1,0.1,0.2,0.2,0.3,0.2v0.5c-0.2-0.1-0.4-0.3-0.7-0.3c-0.2-0.1-0.5-0.1-0.7-0.1s-0.4,0-0.6,0.1c-0.1,0.1-0.2,0.1-0.3,0.2
			c-0.1,0.1-0.1,0.2-0.1,0.4C98.6,220,98.6,220.2,98.7,220.3z M97.8,217.2c0.2-0.1,0.5-0.2,0.8-0.4s0.7-0.2,1.1-0.2s0.7,0.1,1,0.2
			c0.3,0.1,0.5,0.3,0.7,0.5s0.2,0.5,0.2,0.8v3.3h-1.1v-3.1c0-0.1,0-0.3-0.1-0.4c0-0.1-0.1-0.2-0.2-0.2c-0.1-0.1-0.2-0.1-0.3-0.1
			c-0.1,0-0.2,0-0.4,0c-0.2,0-0.4,0-0.6,0.1s-0.3,0.1-0.5,0.2s-0.2,0.1-0.3,0.2L97.8,217.2z"/>
		<path d="M104,213.5v7.8h-1v-7.8H104z"/>
		<path d="M105.6,214.4c0.1-0.1,0.3-0.2,0.5-0.2s0.4,0.1,0.5,0.2c0.1,0.1,0.2,0.3,0.2,0.5s-0.1,0.3-0.2,0.5
			c-0.1,0.1-0.3,0.2-0.5,0.2s-0.3-0.1-0.5-0.2c-0.1-0.1-0.2-0.3-0.2-0.5S105.4,214.5,105.6,214.4z M106.6,216.7v4.6h-1.1v-4.6H106.6
			z"/>
		<path d="M110.1,216.7v1h-2.6v-1H110.1z M109.3,215.1v6.2h-1.1v-6.2H109.3z"/>
		<path d="M111.9,223.5h-1.2l1.2-2.7l-1.9-4.1h1.2l1.5,3.6h-0.5l1.4-3.6h1.2L111.9,223.5z"/>
		<path d="M83.7,228.3h4.9v1.1h-1.9v5.9h-1.2v-5.9h-1.8V228.3z"/>
		<path d="M89.5,228.4c0.1-0.1,0.3-0.2,0.5-0.2s0.4,0.1,0.5,0.2c0.1,0.1,0.2,0.3,0.2,0.5s-0.1,0.3-0.2,0.5c-0.1,0.1-0.3,0.2-0.5,0.2
			s-0.3-0.1-0.5-0.2c-0.1-0.1-0.2-0.3-0.2-0.5S89.3,228.5,89.5,228.4z M90.5,230.7v4.6h-1.1v-4.6H90.5z"/>
		<path d="M98.6,235.3h-1.1v-2.8c0-0.2,0-0.4-0.1-0.6c-0.1-0.2-0.1-0.3-0.2-0.3c-0.1-0.1-0.3-0.1-0.4-0.1c-0.2,0-0.3,0-0.5,0.1
			s-0.2,0.2-0.3,0.3s-0.1,0.3-0.1,0.6v2.8h-1.1v-2.8c0-0.2,0-0.4-0.1-0.6c-0.1-0.2-0.1-0.3-0.2-0.3c-0.1-0.1-0.3-0.1-0.4-0.1
			c-0.2,0-0.3,0-0.5,0.1s-0.2,0.2-0.3,0.3s-0.1,0.3-0.1,0.6v2.8H92v-4.6h1v0.7c0.1-0.2,0.2-0.3,0.3-0.4c0.1-0.1,0.3-0.2,0.4-0.3
			c0.2-0.1,0.3-0.1,0.5-0.1s0.4,0,0.6,0.1s0.3,0.2,0.4,0.3s0.2,0.3,0.3,0.5c0.2-0.3,0.4-0.5,0.6-0.6s0.5-0.2,0.8-0.2
			s0.6,0.1,0.8,0.2s0.4,0.3,0.5,0.6s0.2,0.6,0.2,1v2.8H98.6z"/>
		<path d="M100.7,235.1c-0.4-0.2-0.6-0.5-0.8-0.8c-0.2-0.4-0.3-0.8-0.3-1.3c0-0.4,0.1-0.7,0.2-1s0.3-0.5,0.5-0.8s0.5-0.4,0.8-0.5
			s0.6-0.2,1-0.2c0.5,0,0.9,0.1,1.2,0.3s0.6,0.5,0.8,0.8c0.2,0.3,0.3,0.8,0.3,1.3c0,0.1,0,0.1,0,0.2s0,0.1,0,0.1h-4.1v-0.8h3.1
			l-0.3,0.5c0,0,0.1-0.1,0.1-0.2s0-0.1,0-0.2c0-0.2,0-0.5-0.1-0.6c-0.1-0.2-0.2-0.3-0.4-0.4c-0.2-0.1-0.4-0.1-0.6-0.1
			s-0.4,0-0.5,0.1c-0.2,0.1-0.3,0.2-0.4,0.3s-0.2,0.3-0.3,0.5c-0.1,0.2-0.1,0.4-0.1,0.7s0.1,0.6,0.1,0.8c0.1,0.2,0.2,0.4,0.4,0.5
			c0.2,0.1,0.4,0.2,0.7,0.2c0.3,0,0.5-0.1,0.8-0.2c0.2-0.1,0.4-0.3,0.6-0.5l0.9,0.4c-0.2,0.4-0.6,0.7-0.9,0.9
			c-0.4,0.2-0.8,0.3-1.4,0.3C101.5,235.4,101,235.3,100.7,235.1z"/>
		<path d="M106.4,227.5v7.8h-1.1v-7.8H106.4z"/>
		<path d="M107.9,228.4c0.1-0.1,0.3-0.2,0.5-0.2s0.4,0.1,0.5,0.2c0.1,0.1,0.2,0.3,0.2,0.5s-0.1,0.3-0.2,0.5
			c-0.1,0.1-0.3,0.2-0.5,0.2s-0.3-0.1-0.5-0.2c-0.1-0.1-0.2-0.3-0.2-0.5C107.7,228.7,107.8,228.5,107.9,228.4z M108.9,230.7v4.6
			h-1.1v-4.6H108.9z"/>
		<path d="M113.3,231.9c-0.1-0.2-0.2-0.3-0.3-0.3c-0.1-0.1-0.3-0.1-0.5-0.1s-0.4,0-0.5,0.1s-0.3,0.2-0.4,0.4s-0.1,0.3-0.1,0.5v2.8
			h-1.1v-4.6h1.1v0.7c0.1-0.3,0.3-0.5,0.6-0.6c0.2-0.1,0.5-0.2,0.8-0.2s0.6,0.1,0.9,0.2c0.2,0.1,0.4,0.3,0.5,0.6s0.2,0.6,0.2,1v2.9
			h-1.1v-2.8C113.4,232.3,113.4,232.1,113.3,231.9z"/>
		<path d="M116.6,235.1c-0.4-0.2-0.6-0.5-0.8-0.8c-0.2-0.4-0.3-0.8-0.3-1.3c0-0.4,0.1-0.7,0.2-1s0.3-0.5,0.5-0.8s0.5-0.4,0.8-0.5
			s0.6-0.2,1-0.2c0.5,0,0.9,0.1,1.2,0.3s0.6,0.5,0.8,0.8s0.3,0.8,0.3,1.3c0,0.1,0,0.1,0,0.2c0,0.1,0,0.1,0,0.1h-4v-0.8h3.1l-0.3,0.5
			c0,0,0.1-0.1,0.1-0.2s0-0.1,0-0.2c0-0.2,0-0.5-0.1-0.6c-0.1-0.2-0.2-0.3-0.4-0.4c-0.2-0.1-0.4-0.1-0.6-0.1s-0.4,0-0.5,0.1
			c-0.2,0.1-0.3,0.2-0.4,0.3s-0.2,0.3-0.3,0.5c-0.1,0.2-0.1,0.4-0.1,0.7s0.1,0.6,0.2,0.8s0.2,0.4,0.4,0.5c0.2,0.1,0.4,0.2,0.7,0.2
			c0.3,0,0.5-0.1,0.8-0.2c0.2-0.1,0.4-0.3,0.5-0.5l0.9,0.4c-0.2,0.4-0.6,0.7-0.9,0.9c-0.4,0.2-0.8,0.3-1.4,0.3
			C117.4,235.4,117,235.3,116.6,235.1z"/>
		<path d="M121.9,234.2c0.1,0.1,0.3,0.2,0.5,0.3s0.3,0.1,0.5,0.1s0.3,0,0.5-0.1c0.1-0.1,0.2-0.2,0.2-0.4c0-0.1,0-0.2-0.1-0.3
			s-0.2-0.2-0.4-0.2s-0.3-0.1-0.5-0.2c-0.2-0.1-0.4-0.2-0.6-0.3s-0.4-0.3-0.5-0.4c-0.1-0.2-0.2-0.4-0.2-0.7s0.1-0.5,0.2-0.7
			s0.3-0.3,0.6-0.4c0.2-0.1,0.5-0.1,0.8-0.1s0.5,0,0.7,0.1s0.4,0.2,0.6,0.3s0.3,0.3,0.5,0.4l-0.6,0.6c-0.1-0.2-0.3-0.3-0.5-0.4
			c-0.2-0.1-0.4-0.2-0.7-0.2c-0.2,0-0.3,0-0.4,0.1s-0.2,0.2-0.2,0.3s0,0.2,0.1,0.3s0.2,0.2,0.4,0.2s0.3,0.1,0.5,0.2
			c0.3,0.1,0.5,0.2,0.7,0.3s0.4,0.3,0.5,0.4c0.1,0.2,0.2,0.4,0.2,0.7s-0.1,0.5-0.2,0.8c-0.1,0.2-0.3,0.4-0.6,0.5
			c-0.2,0.1-0.5,0.2-0.9,0.2c-0.3,0-0.6,0-0.9-0.1s-0.5-0.2-0.7-0.4s-0.4-0.3-0.5-0.5l0.6-0.6C121.6,234,121.8,234.1,121.9,234.2z"
			/>
		<path d="M126.2,234.2c0.1,0.1,0.3,0.2,0.4,0.3c0.2,0.1,0.3,0.1,0.5,0.1s0.3,0,0.5-0.1c0.1-0.1,0.2-0.2,0.2-0.4
			c0-0.1,0-0.2-0.1-0.3s-0.2-0.2-0.4-0.2c-0.2-0.1-0.3-0.1-0.5-0.2c-0.2-0.1-0.4-0.2-0.6-0.3s-0.4-0.3-0.5-0.4
			c-0.1-0.2-0.2-0.4-0.2-0.7s0.1-0.5,0.2-0.7s0.3-0.3,0.6-0.4c0.2-0.1,0.5-0.1,0.8-0.1s0.5,0,0.7,0.1s0.4,0.2,0.6,0.3
			s0.3,0.3,0.5,0.4l-0.6,0.6c-0.1-0.2-0.3-0.3-0.5-0.4c-0.2-0.1-0.4-0.2-0.7-0.2c-0.2,0-0.3,0-0.4,0.1s-0.1,0.2-0.1,0.3
			s0,0.2,0.1,0.3s0.2,0.2,0.4,0.2s0.3,0.1,0.5,0.2c0.3,0.1,0.5,0.2,0.7,0.3s0.4,0.3,0.5,0.4c0.1,0.2,0.2,0.4,0.2,0.7
			s-0.1,0.5-0.2,0.8c-0.1,0.2-0.3,0.4-0.6,0.5s-0.5,0.2-0.9,0.2c-0.3,0-0.6,0-0.9-0.1s-0.5-0.2-0.7-0.4s-0.4-0.3-0.5-0.5l0.6-0.6
			C125.9,234,126,234.1,126.2,234.2z"/>
	</g>
</g>
</svg>
