<?xml version="1.0" encoding="utf-8"?>
<!-- Generator: Adobe Illustrator 24.1.2, SVG Export Plug-In . SVG Version: 6.00 Build 0)  -->
<svg version="1.1" id="Layer_1" xmlns="http://www.w3.org/2000/svg" xmlns:xlink="http://www.w3.org/1999/xlink" x="0px" y="0px"
	 viewBox="0 0 200 300" style="enable-background:new 0 0 200 300;" xml:space="preserve">
<style type="text/css">
	.st0{fill:#35282B;}
	.st1{fill:#D13653;}
	.st2{fill:#FFFFFF;}
	.st3{font-family:'Jost-Medium';}
	.st4{font-size:12.5962px;}
	.st5{font-size:10px;}
</style>
<g id="Layer_1_1_">
</g>
<g>
	<circle class="st0" cx="99.9" cy="132.4" r="65.5"/>
	<path class="st1" d="M34.1,132.2c0-36.2,29.3-65.5,65.5-65.5s65.5,29.3,65.5,65.5s-29.3,65.5-65.5,65.5v-65.5H34.1z"/>
	<text transform="matrix(1 0 0 1 90.1972 111.7182)" class="st2 st3 st4">75%</text>
	<text transform="matrix(1 0 0 1 58.2099 158.741)" class="st2 st3 st4">25%</text>
</g>
<g>
	<circle class="st1" cx="69.9" cy="217" r="5"/>
	<circle class="st0" cx="69.9" cy="230" r="5"/>
	<text transform="matrix(1 0 0 1 77.9958 220.0237)" class="st3 st5">W</text>
	<text transform="matrix(1 0 0 1 87.3957 220.0237)" class="st3 st5">e</text>
	<text transform="matrix(1 0 0 1 92.7756 220.0237)" class="st3 st5">l</text>
	<text transform="matrix(1 0 0 1 95.2355 220.0237)" class="st3 st5">l</text>
	<text transform="matrix(1 0 0 1 97.6955 220.0237)" class="st3 st5">-</text>
	<text transform="matrix(1 0 0 1 99.8351 220.0237)" class="st3 st5">p</text>
	<text transform="matrix(1 0 0 1 105.7155 220.0237)" class="st3 st5">a</text>
	<text transform="matrix(1 0 0 1 110.7556 220.0237)" class="st3 st5">c</text>
	<text transform="matrix(1 0 0 1 115.5954 220.0237)" class="st3 st5">k</text>
	<text transform="matrix(1 0 0 1 120.3849 220.0237)" class="st3 st5">e</text>
	<text transform="matrix(1 0 0 1 125.7653 220.0237)" class="st3 st5">d</text>
	<text transform="matrix(1 0 0 1 131.6452 220.0237)" class="st3 st5"> </text>
	<text transform="matrix(1 0 0 1 77.9958 234.0237)" class="st3 st5">S</text>
	<text transform="matrix(1 0 0 1 83.7756 234.0237)" class="st3 st5">a</text>
	<text transform="matrix(1 0 0 1 88.8156 234.0237)" class="st3 st5">t</text>
	<text transform="matrix(1 0 0 1 91.5256 234.0237)" class="st3 st5">i</text>
	<text transform="matrix(1 0 0 1 94.1857 234.0237)" class="st3 st5">s</text>
	<text transform="matrix(1 0 0 1 98.4255 234.0237)" class="st3 st5">f</text>
	<text transform="matrix(1 0 0 1 101.5153 234.0237)" class="st3 st5">i</text>
	<text transform="matrix(1 0 0 1 104.1755 234.0237)" class="st3 st5">e</text>
	<text transform="matrix(1 0 0 1 109.5554 234.0237)" class="st3 st5">d</text>
</g>
</svg>
