<svg xmlns="http://www.w3.org/2000/svg" width="819.117" height="1088.064" viewBox="0 0 819.117 1088.064">
  <g id="Group_3" data-name="Group 3" transform="translate(-14.883 -21)">
    <rect id="Rectangle_4" data-name="Rectangle 4" width="76" height="27" transform="translate(293 86)" fill="#d13653"/>
    <text id="Login" transform="translate(315 104)" fill="#fff" font-size="12" font-family="SamsungSharpSans-Bold, Samsung Sharp Sans" font-weight="700"><tspan x="0" y="0">Login</tspan></text>
    <rect id="Rectangle_5" data-name="Rectangle 5" width="76" height="27" transform="translate(562 86)" fill="#d13653"/>
    <text id="Sign_up" data-name="Sign up" transform="translate(578 104)" fill="#fff" font-size="12" font-family="SamsungSharpSans-Bold, Samsung Sharp Sans" font-weight="700"><tspan x="0" y="0">Sign up</tspan></text>
    <rect id="Rectangle_6" data-name="Rectangle 6" width="86" height="27" transform="translate(396 21)" fill="#d13653"/>
    <text id="Start" transform="translate(424 39)" fill="#fff" font-size="12" font-family="SamsungSharpSans-Bold, Samsung Sharp Sans" font-weight="700"><tspan x="0" y="0">Start</tspan></text>
    <g id="Rectangle_7" data-name="Rectangle 7" transform="translate(492 150)" fill="#fff" stroke="#707070" stroke-width="1">
      <rect width="79" height="40" stroke="none"/>
      <rect x="0.5" y="0.5" width="78" height="39" fill="none"/>
    </g>
    <text id="via_phone_number" data-name="via phone
number" transform="translate(530 168)" fill="#707070" font-size="12" font-family="SamsungSharpSans-Bold, Samsung Sharp Sans" font-weight="700"><tspan x="-29.562" y="0">via phone</tspan><tspan x="-23.862" y="14">number</tspan></text>
    <g id="Rectangle_8" data-name="Rectangle 8" transform="translate(628 150)" fill="#fff" stroke="#707070" stroke-width="1">
      <rect width="79" height="40" stroke="none"/>
      <rect x="0.5" y="0.5" width="78" height="39" fill="none"/>
    </g>
    <text id="via_Facebook" data-name="via
Facebook" transform="translate(666 168)" fill="#707070" font-size="12" font-family="SamsungSharpSans-Bold, Samsung Sharp Sans" font-weight="700"><tspan x="-8.904" y="0">via</tspan><tspan x="-29.916" y="14">Facebook</tspan></text>
    <rect id="Rectangle_9" data-name="Rectangle 9" width="79" height="40" transform="translate(399 234)" fill="#d13653"/>
    <text id="Main_Page" data-name="Main Page" transform="translate(437 258)" fill="#fff" font-size="12" font-family="SamsungSharpSans-Bold, Samsung Sharp Sans" font-weight="700"><tspan x="-30.588" y="0">Main Page</tspan></text>
    <rect id="Rectangle_10" data-name="Rectangle 10" width="79" height="40" transform="translate(38 305)" fill="#d13653"/>
    <text id="Search_bar" data-name="Search bar" transform="translate(76 329)" fill="#fff" font-size="12" font-family="SamsungSharpSans-Bold, Samsung Sharp Sans" font-weight="700"><tspan x="-33.432" y="0">Search bar</tspan></text>
    <rect id="Rectangle_11" data-name="Rectangle 11" width="79" height="40" transform="translate(154 305)" fill="#d13653"/>
    <text id="Location" transform="translate(192 329)" fill="#fff" font-size="12" font-family="SamsungSharpSans-Bold, Samsung Sharp Sans" font-weight="700"><tspan x="-25.668" y="0">Location</tspan></text>
    <rect id="Rectangle_12" data-name="Rectangle 12" width="79" height="40" transform="translate(263 305)" fill="#d13653"/>
    <rect id="Rectangle_28" data-name="Rectangle 28" width="79" height="40" transform="translate(401 305)" fill="#d13653"/>
    <text id="Special_Offers" data-name="Special 
Offers" transform="translate(303 323)" fill="#fff" font-size="12" font-family="SamsungSharpSans-Bold, Samsung Sharp Sans" font-weight="700"><tspan x="-23.058" y="0">Special </tspan><tspan x="-18.882" y="14">Offers</tspan></text>
    <text id="New_Arrivals" data-name="New
Arrivals" transform="translate(441 323)" fill="#fff" font-size="12" font-family="SamsungSharpSans-Bold, Samsung Sharp Sans" font-weight="700"><tspan x="-13.716" y="0">New</tspan><tspan x="-22.29" y="14">Arrivals</tspan></text>
    <rect id="Rectangle_13" data-name="Rectangle 13" width="79" height="40" transform="translate(511 305)" fill="#d13653"/>
    <text id="Cart" transform="translate(550 329)" fill="#fff" font-size="12" font-family="SamsungSharpSans-Bold, Samsung Sharp Sans" font-weight="700"><tspan x="-13.494" y="0">Cart</tspan></text>
    <rect id="Rectangle_14" data-name="Rectangle 14" width="79" height="40" transform="translate(622 305)" fill="#d13653"/>
    <text id="Order" transform="translate(660 329)" fill="#fff" font-size="12" font-family="SamsungSharpSans-Bold, Samsung Sharp Sans" font-weight="700"><tspan x="-17.754" y="0">Order</tspan></text>
    <rect id="Rectangle_15" data-name="Rectangle 15" width="79" height="40" transform="translate(735 305)" fill="#d13653"/>
    <g id="Rectangle_38" data-name="Rectangle 38" transform="translate(755 410)" fill="#fff" stroke="#707070" stroke-width="1">
      <rect width="79" height="40" stroke="none"/>
      <rect x="0.5" y="0.5" width="78" height="39" fill="none"/>
    </g>
    <g id="Rectangle_39" data-name="Rectangle 39" transform="translate(755 464)" fill="#fff" stroke="#707070" stroke-width="1">
      <rect width="79" height="40" stroke="none"/>
      <rect x="0.5" y="0.5" width="78" height="39" fill="none"/>
    </g>
    <g id="Rectangle_40" data-name="Rectangle 40" transform="translate(755 518)" fill="#fff" stroke="#707070" stroke-width="1">
      <rect width="79" height="40" stroke="none"/>
      <rect x="0.5" y="0.5" width="78" height="39" fill="none"/>
    </g>
    <g id="Rectangle_44" data-name="Rectangle 44" transform="translate(755 571)" fill="#fff" stroke="#707070" stroke-width="1">
      <rect width="79" height="40" stroke="none"/>
      <rect x="0.5" y="0.5" width="78" height="39" fill="none"/>
    </g>
    <g id="Rectangle_42" data-name="Rectangle 42" transform="translate(755 625)" fill="#fff" stroke="#707070" stroke-width="1">
      <rect width="79" height="40" stroke="none"/>
      <rect x="0.5" y="0.5" width="78" height="39" fill="none"/>
    </g>
    <g id="Rectangle_43" data-name="Rectangle 43" transform="translate(755 679)" fill="#fff" stroke="#707070" stroke-width="1">
      <rect width="79" height="40" stroke="none"/>
      <rect x="0.5" y="0.5" width="78" height="39" fill="none"/>
    </g>
    <g id="Rectangle_41" data-name="Rectangle 41" transform="translate(754 357)" fill="#fff" stroke="#707070" stroke-width="1">
      <rect width="79" height="40" stroke="none"/>
      <rect x="0.5" y="0.5" width="78" height="39" fill="none"/>
    </g>
    <text id="Account" transform="translate(773 329)" fill="#fff" font-size="12" font-family="SamsungSharpSans-Bold, Samsung Sharp Sans" font-weight="700"><tspan x="-24.75" y="0">Account</tspan></text>
    <text id="Address" transform="translate(793 434)" fill="#707070" font-size="12" font-family="SamsungSharpSans-Bold, Samsung Sharp Sans" font-weight="700"><tspan x="-24.582" y="0">Address</tspan></text>
    <text id="Phone_no." data-name="Phone no." transform="translate(793 488)" fill="#707070" font-size="12" font-family="SamsungSharpSans-Bold, Samsung Sharp Sans" font-weight="700"><tspan x="-28.968" y="0">Phone no.</tspan></text>
    <text id="Credit_Card_Info." data-name="Credit Card
Info." transform="translate(794 536)" fill="#707070" font-size="12" font-family="SamsungSharpSans-Bold, Samsung Sharp Sans" font-weight="700"><tspan x="-34.98" y="0">Credit Card</tspan><tspan x="-12.288" y="14">Info.</tspan></text>
    <text id="My_Coupon" data-name="My Coupon" transform="translate(794 595)" fill="#707070" font-size="12" font-family="SamsungSharpSans-Bold, Samsung Sharp Sans" font-weight="700"><tspan x="-33.528" y="0">My Coupon</tspan></text>
    <text id="Language" transform="translate(793 649)" fill="#707070" font-size="12" font-family="SamsungSharpSans-Bold, Samsung Sharp Sans" font-weight="700"><tspan x="-30.174" y="0">Language</tspan></text>
    <text id="About" transform="translate(793 703)" fill="#707070" font-size="12" font-family="SamsungSharpSans-Bold, Samsung Sharp Sans" font-weight="700"><tspan x="-18.06" y="0">About</tspan></text>
    <text id="Profile_Picture" data-name="Profile
Picture" transform="translate(793 374)" fill="#707070" font-size="12" font-family="SamsungSharpSans-Bold, Samsung Sharp Sans" font-weight="700"><tspan x="-18.528" y="0">Profile</tspan><tspan x="-20.808" y="14">Picture</tspan></text>
    <g id="Rectangle_16" data-name="Rectangle 16" transform="translate(56 358)" fill="#fff" stroke="#707070" stroke-width="1">
      <rect width="79" height="40" stroke="none"/>
      <rect x="0.5" y="0.5" width="78" height="39" fill="none"/>
    </g>
    <text id="Filter" transform="translate(94 382)" fill="#707070" font-size="12" font-family="SamsungSharpSans-Bold, Samsung Sharp Sans" font-weight="700"><tspan x="-14.28" y="0">Filter</tspan></text>
    <g id="Rectangle_17" data-name="Rectangle 17" transform="translate(171 412)" fill="#fff" stroke="#707070" stroke-width="1">
      <rect width="79" height="40" stroke="none"/>
      <rect x="0.5" y="0.5" width="78" height="39" fill="none"/>
    </g>
    <text id="Manual" transform="translate(211 436)" fill="#707070" font-size="12" font-family="SamsungSharpSans-Bold, Samsung Sharp Sans" font-weight="700"><tspan x="-21.498" y="0">Manual</tspan></text>
    <g id="Rectangle_18" data-name="Rectangle 18" transform="translate(56 411)" fill="#fff" stroke="#707070" stroke-width="1">
      <rect width="79" height="40" stroke="none"/>
      <rect x="0.5" y="0.5" width="78" height="39" fill="none"/>
    </g>
    <text id="Search_Result" data-name="Search
Result" transform="translate(94 429)" fill="#707070" font-size="12" font-family="SamsungSharpSans-Bold, Samsung Sharp Sans" font-weight="700"><tspan x="-21.282" y="0">Search</tspan><tspan x="-17.496" y="14">Result</tspan></text>
    <g id="Rectangle_19" data-name="Rectangle 19" transform="translate(171 358)" fill="#fff" stroke="#707070" stroke-width="1">
      <rect width="79" height="40" stroke="none"/>
      <rect x="0.5" y="0.5" width="78" height="39" fill="none"/>
    </g>
    <text id="Auto" transform="translate(211 382)" fill="#707070" font-size="12" font-family="SamsungSharpSans-Bold, Samsung Sharp Sans" font-weight="700"><tspan x="-13.692" y="0">Auto</tspan></text>
    <g id="Rectangle_21" data-name="Rectangle 21" transform="translate(280 358)" fill="#fff" stroke="#707070" stroke-width="1">
      <rect width="79" height="40" stroke="none"/>
      <rect x="0.5" y="0.5" width="78" height="39" fill="none"/>
    </g>
    <g id="Rectangle_55" data-name="Rectangle 55" transform="translate(420 358)" fill="#fff" stroke="#707070" stroke-width="1">
      <rect width="79" height="40" stroke="none"/>
      <rect x="0.5" y="0.5" width="78" height="39" fill="none"/>
    </g>
    <g id="Rectangle_54" data-name="Rectangle 54" transform="translate(528 358)" fill="#fff" stroke="#707070" stroke-width="1">
      <rect width="79" height="40" stroke="none"/>
      <rect x="0.5" y="0.5" width="78" height="39" fill="none"/>
    </g>
    <text id="Select_Restaurant" data-name="Select
Restaurant" transform="translate(319 376)" fill="#707070" font-size="12" font-family="SamsungSharpSans-Bold, Samsung Sharp Sans" font-weight="700"><tspan x="-18.54" y="0">Select</tspan><tspan x="-32.598" y="14">Restaurant</tspan></text>
    <text id="Select_Restaurant-2" data-name="Select
Restaurant" transform="translate(459 376)" fill="#707070" font-size="12" font-family="SamsungSharpSans-Bold, Samsung Sharp Sans" font-weight="700"><tspan x="-18.54" y="0">Select</tspan><tspan x="-32.598" y="14">Restaurant</tspan></text>
    <text id="Cart_Detail" data-name="Cart
Detail" transform="translate(570 376)" fill="#707070" font-size="12" font-family="SamsungSharpSans-Bold, Samsung Sharp Sans" font-weight="700"><tspan x="-13.494" y="0">Cart</tspan><tspan x="-16.512" y="14">Detail</tspan></text>
    <g id="Rectangle_22" data-name="Rectangle 22" transform="translate(280 411)" fill="#fff" stroke="#707070" stroke-width="1">
      <rect width="79" height="40" stroke="none"/>
      <rect x="0.5" y="0.5" width="78" height="39" fill="none"/>
    </g>
    <g id="Rectangle_56" data-name="Rectangle 56" transform="translate(420 411)" fill="#fff" stroke="#707070" stroke-width="1">
      <rect width="79" height="40" stroke="none"/>
      <rect x="0.5" y="0.5" width="78" height="39" fill="none"/>
    </g>
    <text id="Select_Menu" data-name="Select
Menu" transform="translate(320 429)" fill="#707070" font-size="12" font-family="SamsungSharpSans-Bold, Samsung Sharp Sans" font-weight="700"><tspan x="-18.54" y="0">Select</tspan><tspan x="-16.008" y="14">Menu</tspan></text>
    <text id="Select_Menu-2" data-name="Select
Menu" transform="translate(460 429)" fill="#707070" font-size="12" font-family="SamsungSharpSans-Bold, Samsung Sharp Sans" font-weight="700"><tspan x="-18.54" y="0">Select</tspan><tspan x="-16.008" y="14">Menu</tspan></text>
    <g id="Rectangle_23" data-name="Rectangle 23" transform="translate(280 464)" fill="#fff" stroke="#707070" stroke-width="1">
      <rect width="79" height="40" stroke="none"/>
      <rect x="0.5" y="0.5" width="78" height="39" fill="none"/>
    </g>
    <g id="Rectangle_57" data-name="Rectangle 57" transform="translate(420 464)" fill="#fff" stroke="#707070" stroke-width="1">
      <rect width="79" height="40" stroke="none"/>
      <rect x="0.5" y="0.5" width="78" height="39" fill="none"/>
    </g>
    <text id="Select_Dish" data-name="Select
Dish" transform="translate(321 481)" fill="#707070" font-size="12" font-family="SamsungSharpSans-Bold, Samsung Sharp Sans" font-weight="700"><tspan x="-18.54" y="0">Select</tspan><tspan x="-12.054" y="14">Dish</tspan></text>
    <text id="Select_Dish-2" data-name="Select
Dish" transform="translate(461 481)" fill="#707070" font-size="12" font-family="SamsungSharpSans-Bold, Samsung Sharp Sans" font-weight="700"><tspan x="-18.54" y="0">Select</tspan><tspan x="-12.054" y="14">Dish</tspan></text>
    <g id="Rectangle_24" data-name="Rectangle 24" transform="translate(280 517)" fill="#fff" stroke="#707070" stroke-width="1">
      <rect width="79" height="40" stroke="none"/>
      <rect x="0.5" y="0.5" width="78" height="39" fill="none"/>
    </g>
    <g id="Rectangle_58" data-name="Rectangle 58" transform="translate(420 517)" fill="#fff" stroke="#707070" stroke-width="1">
      <rect width="79" height="40" stroke="none"/>
      <rect x="0.5" y="0.5" width="78" height="39" fill="none"/>
    </g>
    <g id="Rectangle_27" data-name="Rectangle 27" transform="translate(280 644)" fill="#fff" stroke="#707070" stroke-width="1">
      <rect width="79" height="40" stroke="none"/>
      <rect x="0.5" y="0.5" width="78" height="39" fill="none"/>
    </g>
    <g id="Rectangle_61" data-name="Rectangle 61" transform="translate(420 644)" fill="#fff" stroke="#707070" stroke-width="1">
      <rect width="79" height="40" stroke="none"/>
      <rect x="0.5" y="0.5" width="78" height="39" fill="none"/>
    </g>
    <g id="Rectangle_46" data-name="Rectangle 46" transform="translate(354 713)" fill="#fff" stroke="#707070" stroke-width="1">
      <rect width="79" height="40" stroke="none"/>
      <rect x="0.5" y="0.5" width="78" height="39" fill="none"/>
    </g>
    <g id="Rectangle_47" data-name="Rectangle 47" transform="translate(306 778)" fill="#fff" stroke="#707070" stroke-width="1">
      <rect width="79" height="40" stroke="none"/>
      <rect x="0.5" y="0.5" width="78" height="39" fill="none"/>
    </g>
    <g id="Rectangle_49" data-name="Rectangle 49" transform="translate(354 843)" fill="#fff" stroke="#707070" stroke-width="1">
      <rect width="79" height="40" stroke="none"/>
      <rect x="0.5" y="0.5" width="78" height="39" fill="none"/>
    </g>
    <g id="Rectangle_50" data-name="Rectangle 50" transform="translate(354 898)" fill="#fff" stroke="#707070" stroke-width="1">
      <rect width="79" height="40" stroke="none"/>
      <rect x="0.5" y="0.5" width="78" height="39" fill="none"/>
    </g>
    <g id="Rectangle_51" data-name="Rectangle 51" transform="translate(354 951)" fill="#fff" stroke="#707070" stroke-width="1">
      <rect width="79" height="40" stroke="none"/>
      <rect x="0.5" y="0.5" width="78" height="39" fill="none"/>
    </g>
    <g id="Rectangle_52" data-name="Rectangle 52" transform="translate(305 1015)" fill="#fff" stroke="#707070" stroke-width="1">
      <rect width="79" height="40" stroke="none"/>
      <rect x="0.5" y="0.5" width="78" height="39" fill="none"/>
    </g>
    <g id="Rectangle_53" data-name="Rectangle 53" transform="translate(402 1015)" fill="#fff" stroke="#707070" stroke-width="1">
      <rect width="79" height="40" stroke="none"/>
      <rect x="0.5" y="0.5" width="78" height="39" fill="none"/>
    </g>
    <g id="Rectangle_48" data-name="Rectangle 48" transform="translate(399 778)" fill="#fff" stroke="#707070" stroke-width="1">
      <rect width="79" height="40" stroke="none"/>
      <rect x="0.5" y="0.5" width="78" height="39" fill="none"/>
    </g>
    <text id="Add_Ingredient" data-name="Add
Ingredient" transform="translate(320 535)" fill="#707070" font-size="12" font-family="SamsungSharpSans-Bold, Samsung Sharp Sans" font-weight="700"><tspan x="-11.964" y="0">Add</tspan><tspan x="-30.708" y="14">Ingredient</tspan></text>
    <text id="Add_Ingredient-2" data-name="Add
Ingredient" transform="translate(460 535)" fill="#707070" font-size="12" font-family="SamsungSharpSans-Bold, Samsung Sharp Sans" font-weight="700"><tspan x="-11.964" y="0">Add</tspan><tspan x="-30.708" y="14">Ingredient</tspan></text>
    <text id="Add_to_Cart" data-name="Add
to Cart" transform="translate(319 661)" fill="#707070" font-size="12" font-family="SamsungSharpSans-Bold, Samsung Sharp Sans" font-weight="700"><tspan x="-11.964" y="0">Add</tspan><tspan x="-21.114" y="14">to Cart</tspan></text>
    <text id="Add_to_Cart-2" data-name="Add
to Cart" transform="translate(459 661)" fill="#707070" font-size="12" font-family="SamsungSharpSans-Bold, Samsung Sharp Sans" font-weight="700"><tspan x="-11.964" y="0">Add</tspan><tspan x="-21.114" y="14">to Cart</tspan></text>
    <text id="Checkout" transform="translate(392 737)" fill="#707070" font-size="12" font-family="SamsungSharpSans-Bold, Samsung Sharp Sans" font-weight="700"><tspan x="-28.836" y="0">Checkout</tspan></text>
    <text id="Credit_or_Debit" data-name="Credit or
Debit" transform="translate(345 796)" fill="#707070" font-size="12" font-family="SamsungSharpSans-Bold, Samsung Sharp Sans" font-weight="700"><tspan x="-26.436" y="0">Credit or</tspan><tspan x="-15.45" y="14">Debit</tspan></text>
    <text id="Order_Placed" data-name="Order
Placed" transform="translate(394 862)" fill="#707070" font-size="12" font-family="SamsungSharpSans-Bold, Samsung Sharp Sans" font-weight="700"><tspan x="-17.754" y="0">Order</tspan><tspan x="-20.37" y="14">Placed</tspan></text>
    <text id="Track_Order" data-name="Track
Order" transform="translate(394 915)" fill="#707070" font-size="12" font-family="SamsungSharpSans-Bold, Samsung Sharp Sans" font-weight="700"><tspan x="-16.734" y="0">Track</tspan><tspan x="-17.754" y="14">Order</tspan></text>
    <text id="Order_Arrived" data-name="Order
Arrived" transform="translate(392 968)" fill="#707070" font-size="12" font-family="SamsungSharpSans-Bold, Samsung Sharp Sans" font-weight="700"><tspan x="-17.754" y="0">Order</tspan><tspan x="-21.774" y="14">Arrived</tspan></text>
    <text id="Rate_App" data-name="Rate App" transform="translate(345 1039)" fill="#707070" font-size="12" font-family="SamsungSharpSans-Bold, Samsung Sharp Sans" font-weight="700"><tspan x="-26.988" y="0">Rate App</tspan></text>
    <text id="Rate_Place" data-name="Rate Place" transform="translate(440 1039)" fill="#707070" font-size="12" font-family="SamsungSharpSans-Bold, Samsung Sharp Sans" font-weight="700"><tspan x="-31.224" y="0">Rate Place</tspan></text>
    <text id="COD" transform="translate(437 802)" fill="#707070" font-size="12" font-family="SamsungSharpSans-Bold, Samsung Sharp Sans" font-weight="700"><tspan x="-13.056" y="0">COD</tspan></text>
    <g id="Rectangle_25" data-name="Rectangle 25" transform="translate(263 582)" fill="#fff" stroke="#707070" stroke-width="1">
      <rect width="53" height="40" stroke="none"/>
      <rect x="0.5" y="0.5" width="52" height="39" fill="none"/>
    </g>
    <g id="Rectangle_59" data-name="Rectangle 59" transform="translate(403 582)" fill="#fff" stroke="#707070" stroke-width="1">
      <rect width="53" height="40" stroke="none"/>
      <rect x="0.5" y="0.5" width="52" height="39" fill="none"/>
    </g>
    <g id="Rectangle_26" data-name="Rectangle 26" transform="translate(322 582)" fill="#fff" stroke="#707070" stroke-width="1">
      <rect width="53" height="40" stroke="none"/>
      <rect x="0.5" y="0.5" width="52" height="39" fill="none"/>
    </g>
    <g id="Rectangle_60" data-name="Rectangle 60" transform="translate(462 582)" fill="#fff" stroke="#707070" stroke-width="1">
      <rect width="53" height="40" stroke="none"/>
      <rect x="0.5" y="0.5" width="52" height="39" fill="none"/>
    </g>
    <text id="Yes" transform="translate(288 606)" fill="#707070" font-size="12" font-family="SamsungSharpSans-Bold, Samsung Sharp Sans" font-weight="700"><tspan x="-9.978" y="0">Yes</tspan></text>
    <text id="Yes-2" data-name="Yes" transform="translate(428 606)" fill="#707070" font-size="12" font-family="SamsungSharpSans-Bold, Samsung Sharp Sans" font-weight="700"><tspan x="-9.978" y="0">Yes</tspan></text>
    <text id="No" transform="translate(350 606)" fill="#707070" font-size="12" font-family="SamsungSharpSans-Bold, Samsung Sharp Sans" font-weight="700"><tspan x="-8.016" y="0">No</tspan></text>
    <text id="No-2" data-name="No" transform="translate(490 606)" fill="#707070" font-size="12" font-family="SamsungSharpSans-Bold, Samsung Sharp Sans" font-weight="700"><tspan x="-8.016" y="0">No</tspan></text>
    <g id="Rectangle_36" data-name="Rectangle 36" transform="translate(643 360)" fill="#fff" stroke="#707070" stroke-width="1">
      <rect width="79" height="40" stroke="none"/>
      <rect x="0.5" y="0.5" width="78" height="39" fill="none"/>
    </g>
    <text id="Ongoing" transform="translate(681 384)" fill="#707070" font-size="12" font-family="SamsungSharpSans-Bold, Samsung Sharp Sans" font-weight="700"><tspan x="-25.464" y="0">Ongoing</tspan></text>
    <g id="Rectangle_37" data-name="Rectangle 37" transform="translate(643 411)" fill="#fff" stroke="#707070" stroke-width="1">
      <rect width="79" height="40" stroke="none"/>
      <rect x="0.5" y="0.5" width="78" height="39" fill="none"/>
    </g>
    <text id="History" transform="translate(681 435)" fill="#707070" font-size="12" font-family="SamsungSharpSans-Bold, Samsung Sharp Sans" font-weight="700"><tspan x="-20.652" y="0">History</tspan></text>
    <path id="Path_1" data-name="Path 1" d="M776,86V68.668h269V86" transform="translate(-445)" fill="none" stroke="#707070" stroke-width="1"/>
    <path id="Path_2" data-name="Path 2" d="M884,48V69.57" transform="translate(-445 -1)" fill="none" stroke="#707070" stroke-width="1"/>
    <path id="Path_5" data-name="Path 5" d="M775.5,113V214.3H886.811v19.842" transform="translate(-445)" fill="none" stroke="#707070" stroke-width="1"/>
    <path id="Path_6" data-name="Path 6" d="M975,150V130.852h136.963V150" transform="translate(-445)" fill="none" stroke="#707070" stroke-width="1"/>
    <path id="Path_7" data-name="Path 7" d="M1045,113v17.688" transform="translate(-445)" fill="none" stroke="#707070" stroke-width="1"/>
    <path id="Path_8" data-name="Path 8" d="M975,190v12.547h136.816V190" transform="translate(-445)" fill="none" stroke="#707070" stroke-width="1"/>
    <path id="Path_9" data-name="Path 9" d="M886.811,214.422h158.322V202.484" transform="translate(-445)" fill="none" stroke="#707070" stroke-width="1"/>
    <path id="Path_10" data-name="Path 10" d="M886.811,274v30.623" transform="translate(-445)" fill="none" stroke="#707070" stroke-width="1"/>
    <path id="Path_11" data-name="Path 11" d="M518,305V285.715h701.207V305" transform="translate(-445)" fill="none" stroke="#707070" stroke-width="1"/>
    <path id="Path_12" data-name="Path 12" d="M637,285.715v19.758" transform="translate(-445)" fill="none" stroke="#707070" stroke-width="1"/>
    <path id="Path_13" data-name="Path 13" d="M748,305.473V285.051" transform="translate(-445)" fill="none" stroke="#707070" stroke-width="1"/>
    <path id="Path_14" data-name="Path 14" d="M995.5,304.623V285.855" transform="translate(-445)" fill="none" stroke="#707070" stroke-width="1"/>
    <path id="Path_15" data-name="Path 15" d="M1106.5,305.473V286.379" transform="translate(-445)" fill="none" stroke="#707070" stroke-width="1"/>
    <path id="Path_16" data-name="Path 16" d="M488,345v87.324h13.145" transform="translate(-445)" fill="none" stroke="#707070" stroke-width="1"/>
    <path id="Path_17" data-name="Path 17" d="M488,379h13.125" transform="translate(-445)" fill="none" stroke="#707070" stroke-width="1"/>
    <path id="Path_18" data-name="Path 18" d="M488,345v87.324h13.145" transform="translate(-329)" fill="none" stroke="#707070" stroke-width="1"/>
    <path id="Path_19" data-name="Path 19" d="M488,379h13.125" transform="translate(-329)" fill="none" stroke="#707070" stroke-width="1"/>
    <path id="Path_20" data-name="Path 20" d="M488,345V538h13.125" transform="translate(-220)" fill="none" stroke="#707070" stroke-width="1"/>
    <path id="Path_21" data-name="Path 21" d="M488,379h13.125" transform="translate(-220)" fill="none" stroke="#707070" stroke-width="1"/>
    <path id="Path_22" data-name="Path 22" d="M713,431h12.453" transform="translate(-445)" fill="none" stroke="#707070" stroke-width="1"/>
    <path id="Path_23" data-name="Path 23" d="M713,484h11.77" transform="translate(-445)" fill="none" stroke="#707070" stroke-width="1"/>
    <path id="Path_24" data-name="Path 24" d="M488,345V538h13.125" transform="translate(-80)" fill="none" stroke="#707070" stroke-width="1"/>
    <path id="Path_25" data-name="Path 25" d="M488,379h13.125" transform="translate(-80)" fill="none" stroke="#707070" stroke-width="1"/>
    <path id="Path_26" data-name="Path 26" d="M713,431h12.453" transform="translate(-305)" fill="none" stroke="#707070" stroke-width="1"/>
    <path id="Path_27" data-name="Path 27" d="M713,484h11.77" transform="translate(-305)" fill="none" stroke="#707070" stroke-width="1"/>
    <path id="Path_28" data-name="Path 28" d="M961.914,345v35.57H973.4" transform="translate(-445)" fill="none" stroke="#707070" stroke-width="1"/>
    <path id="Path_29" data-name="Path 29" d="M488,345v87.324h13.145" transform="translate(142)" fill="none" stroke="#707070" stroke-width="1"/>
    <path id="Path_30" data-name="Path 30" d="M488,379h13.125" transform="translate(142)" fill="none" stroke="#707070" stroke-width="1"/>
    <path id="Path_31" data-name="Path 31" d="M488,345V699h13.125" transform="translate(254)" fill="none" stroke="#707070" stroke-width="1"/>
    <path id="Path_32" data-name="Path 32" d="M488,379h13.125" transform="translate(254)" fill="none" stroke="#707070" stroke-width="1"/>
    <path id="Path_33" data-name="Path 33" d="M713,431h12.453" transform="translate(29)" fill="none" stroke="#707070" stroke-width="1"/>
    <path id="Path_34" data-name="Path 34" d="M713,484h11.77" transform="translate(29)" fill="none" stroke="#707070" stroke-width="1"/>
    <path id="Path_35" data-name="Path 35" d="M1187,539h13.023" transform="translate(-445)" fill="none" stroke="#707070" stroke-width="1"/>
    <path id="Path_36" data-name="Path 36" d="M1187,591h14.461" transform="translate(-445)" fill="none" stroke="#707070" stroke-width="1"/>
    <path id="Path_37" data-name="Path 37" d="M1187,644h13.285" transform="translate(-445)" fill="none" stroke="#707070" stroke-width="1"/>
    <path id="Path_38" data-name="Path 38" d="M764,558v11.039" transform="translate(-445 -1)" fill="none" stroke="#707070" stroke-width="1"/>
    <path id="Path_39" data-name="Path 39" d="M726.125,582V568.086h62V582" transform="translate(-438.125)" fill="none" stroke="#707070" stroke-width="1"/>
    <path id="Path_40" data-name="Path 40" d="M733,622v9.837h30.918V644.4" transform="translate(-445)" fill="none" stroke="#707070" stroke-width="1"/>
    <path id="Path_41" data-name="Path 41" d="M820,602h7.99V536.9H803.9" transform="translate(-445)" fill="none" stroke="#707070" stroke-width="1"/>
    <path id="Path_42" data-name="Path 42" d="M820,602h7.99V536.9H803.9" transform="translate(-305)" fill="none" stroke="#707070" stroke-width="1"/>
    <path id="Path_43" data-name="Path 43" d="M764,558v11.039" transform="translate(-305 -1)" fill="none" stroke="#707070" stroke-width="1"/>
    <path id="Path_44" data-name="Path 44" d="M726.125,582V568.086h62V582" transform="translate(-298.125)" fill="none" stroke="#707070" stroke-width="1"/>
    <path id="Path_45" data-name="Path 45" d="M733,622v9.837h30.918V644.4" transform="translate(-305)" fill="none" stroke="#707070" stroke-width="1"/>
    <path id="Path_46" data-name="Path 46" d="M764,684v11.73H904.208V684" transform="translate(-445)" fill="none" stroke="#707070" stroke-width="1"/>
    <path id="Path_47" data-name="Path 47" d="M837,695.73v17.457" transform="translate(-445)" fill="none" stroke="#707070" stroke-width="1"/>
    <path id="Path_48" data-name="Path 48" d="M837,753v10.91" transform="translate(-445)" fill="none" stroke="#707070" stroke-width="1"/>
    <path id="Path_49" data-name="Path 49" d="M793.5,779.764v-14.09H887v14.09" transform="translate(-448.5 -1.764)" fill="none" stroke="#707070" stroke-width="1"/>
    <path id="Path_50" data-name="Path 50" d="M790,818v9.833h95.014V818" transform="translate(-445)" fill="none" stroke="#707070" stroke-width="1"/>
    <path id="Path_51" data-name="Path 51" d="M837,827.833v15.883" transform="translate(-445)" fill="none" stroke="#707070" stroke-width="1"/>
    <path id="Path_52" data-name="Path 52" d="M836.75,883v15.613" transform="translate(-445)" fill="none" stroke="#707070" stroke-width="1"/>
    <path id="Path_53" data-name="Path 53" d="M836.75,938v13.625" transform="translate(-445)" fill="none" stroke="#707070" stroke-width="1"/>
    <path id="Path_54" data-name="Path 54" d="M837,991v10.619" transform="translate(-445)" fill="none" stroke="#707070" stroke-width="1"/>
    <path id="Path_55" data-name="Path 55" d="M789.5,1015v-13.382h99.6V1015" transform="translate(-445)" fill="none" stroke="#707070" stroke-width="1"/>
    <path id="Path_56" data-name="Path 56" d="M790,1055v11.44H890.751V1055" transform="translate(-445)" fill="none" stroke="#707070" stroke-width="1"/>
    <path id="Path_57" data-name="Path 57" d="M836.75,1066.44v42.124H460.383V253.258H844.719" transform="translate(-445)" fill="none" stroke="#707070" stroke-width="1"/>
    <path id="Path_58" data-name="Path 58" d="M1012.5,398V732.6H877.586" transform="translate(-445)" fill="none" stroke="#707070" stroke-width="1"/>
    <path id="Path_59" data-name="Path 59" d="M539,451v33H713.836" transform="translate(-445)" fill="none" stroke="#707070" stroke-width="1"/>
  </g>
</svg>
