<?xml version="1.0" encoding="utf-8"?>
<!-- Generator: Adobe Illustrator 24.1.2, SVG Export Plug-In . SVG Version: 6.00 Build 0)  -->
<svg version="1.1" id="Layer_1" xmlns="http://www.w3.org/2000/svg" xmlns:xlink="http://www.w3.org/1999/xlink" x="0px" y="0px"
	 viewBox="0 0 647.8 159.5" style="enable-background:new 0 0 647.8 159.5;" xml:space="preserve">
<style type="text/css">
	.st0{fill:#F5F5F5;}
	.st1{fill:#EBEBEB;}
	.st2{fill:#707070;}
	.st3{font-family:'SamsungSharpSans-Medium';}
	.st4{font-size:4px;}
	.st5{fill:#FFFFFF;}
	.st6{fill:none;stroke:#707070;stroke-width:0.5;}
	.st7{font-family:'SamsungSharpSans-Bold';}
	.st8{font-size:5px;}
	.st9{fill:none;stroke:#707070;stroke-width:0.3;}
	.st10{fill:#D3D3D3;}
	.st11{font-size:3px;}
	.st12{fill:none;}
	.st13{fill:none;stroke:#707070;stroke-width:0.3;stroke-linecap:round;stroke-linejoin:round;}
	.st14{fill:none;stroke:#707070;stroke-linecap:round;stroke-linejoin:round;}
	.st15{fill:none;stroke:#707070;stroke-linecap:round;}
	.st16{font-size:7px;}
	.st17{fill:none;stroke:#D13653;}
	.st18{fill:none;stroke:#707070;}
</style>
<g id="Group_11" transform="translate(-27 -26)">
	<rect id="Rectangle_106" x="601.8" y="26.5" class="st0" width="73" height="159"/>
	<rect id="Rectangle_97" x="509.1" y="26.5" class="st0" width="73" height="159"/>
	<rect id="Rectangle_91" x="416.4" y="26.5" class="st0" width="73" height="159"/>
	<rect id="Rectangle_115" x="416.4" y="26.5" class="st1" width="73" height="43"/>
	<rect id="Rectangle_84" x="319" y="26" class="st0" width="73" height="159"/>
	
		<image style="overflow:visible;enable-background:new    ;" width="884" height="1421" id="Screen_Shot_2020-05-06_at_14.44.57" xlink:href="10EC92FB32087FE1.png"  transform="matrix(8.324295e-02 0 0 8.324295e-02 601.2132 26.0742)">
	</image>
	<text transform="matrix(1 0 0 1 522.1036 35.5)" class="st2 st3 st4">Delivery Address</text>
	<rect id="Rectangle_85" x="319" y="26" class="st1" width="73" height="43"/>
	<rect id="Rectangle_86" x="319" y="93" class="st1" width="73" height="23"/>
	<rect id="Rectangle_71" x="205" y="26" class="st1" width="73" height="14"/>
	<rect id="Rectangle_62" x="27" y="26" class="st0" width="73" height="159"/>
	<path id="Path_60" class="st0" d="M115,26h73v159h-73V26z"/>
	<path id="Path_62" class="st0" d="M205,26h73v159h-73V26z"/>
	<g id="Rectangle_63" transform="translate(46 99)">
		<rect class="st5" width="36" height="14"/>
		<rect x="0.2" y="0.2" class="st6" width="35.5" height="13.5"/>
	</g>
	<g id="Rectangle_64" transform="translate(124 66)">
		<path class="st5" d="M3,0h49c1.7,0,3,1.3,3,3v6c0,1.7-1.3,3-3,3H3c-1.7,0-3-1.3-3-3V3C0,1.3,1.3,0,3,0z"/>
		<path class="st6" d="M3,0.2h49c1.5,0,2.8,1.2,2.8,2.8v6c0,1.5-1.2,2.8-2.8,2.8H3c-1.5,0-2.8-1.2-2.8-2.8V3C0.2,1.5,1.5,0.2,3,0.2z
			"/>
	</g>
	<g id="Rectangle_67" transform="translate(124 131)">
		<path class="st5" d="M3,0h49c1.7,0,3,1.3,3,3v6c0,1.7-1.3,3-3,3H3c-1.7,0-3-1.3-3-3V3C0,1.3,1.3,0,3,0z"/>
		<path class="st6" d="M3,0.2h49c1.5,0,2.8,1.2,2.8,2.8v6c0,1.5-1.2,2.8-2.8,2.8H3c-1.5,0-2.8-1.2-2.8-2.8V3C0.2,1.5,1.5,0.2,3,0.2z
			"/>
	</g>
	<g id="Rectangle_68" transform="translate(124 145)">
		<path class="st5" d="M3,0h49c1.7,0,3,1.3,3,3v6c0,1.7-1.3,3-3,3H3c-1.7,0-3-1.3-3-3V3C0,1.3,1.3,0,3,0z"/>
		<path class="st6" d="M3,0.2h49c1.5,0,2.8,1.2,2.8,2.8v6c0,1.5-1.2,2.8-2.8,2.8H3c-1.5,0-2.8-1.2-2.8-2.8V3C0.2,1.5,1.5,0.2,3,0.2z
			"/>
	</g>
	<g id="Rectangle_65" transform="translate(124 80)">
		<path class="st5" d="M3,0h49c1.7,0,3,1.3,3,3v6c0,1.7-1.3,3-3,3H3c-1.7,0-3-1.3-3-3V3C0,1.3,1.3,0,3,0z"/>
		<path class="st6" d="M3,0.2h49c1.5,0,2.8,1.2,2.8,2.8v6c0,1.5-1.2,2.8-2.8,2.8H3c-1.5,0-2.8-1.2-2.8-2.8V3C0.2,1.5,1.5,0.2,3,0.2z
			"/>
	</g>
	<g id="Rectangle_66" transform="translate(124 94)">
		<path class="st2" d="M3,0h49c1.7,0,3,1.3,3,3v6c0,1.7-1.3,3-3,3H3c-1.7,0-3-1.3-3-3V3C0,1.3,1.3,0,3,0z"/>
		<path class="st6" d="M3,0.2h49c1.5,0,2.8,1.2,2.8,2.8v6c0,1.5-1.2,2.8-2.8,2.8H3c-1.5,0-2.8-1.2-2.8-2.8V3C0.2,1.5,1.5,0.2,3,0.2z
			"/>
	</g>
	<g id="Rectangle_95" transform="translate(327 341)">
		<path class="st2" d="M100.4-173.5h49c1.7,0,3,1.3,3,3v6c0,1.7-1.3,3-3,3h-49c-1.7,0-3-1.3-3-3v-6
			C97.4-172.2,98.8-173.5,100.4-173.5z"/>
		<path class="st6" d="M100.4-173.2h49c1.5,0,2.8,1.2,2.8,2.8v6c0,1.5-1.2,2.8-2.8,2.8h-49c-1.5,0-2.8-1.2-2.8-2.8v-6
			C97.7-172,98.9-173.2,100.4-173.2z"/>
	</g>
	<g id="Rectangle_105" transform="translate(214 341)">
		<path class="st2" d="M307.1-173.5h49c1.7,0,3,1.3,3,3v6c0,1.7-1.3,3-3,3h-49c-1.7,0-3-1.3-3-3v-6
			C304.1-172.2,305.4-173.5,307.1-173.5z"/>
		<path class="st6" d="M307.1-173.2h49c1.5,0,2.8,1.2,2.8,2.8v6c0,1.5-1.2,2.8-2.8,2.8h-49c-1.5,0-2.8-1.2-2.8-2.8v-6
			C304.4-172,305.6-173.2,307.1-173.2z"/>
	</g>
	<text transform="matrix(1 0 0 1 56 108)" class="st2 st7 st8">yumm</text>
	<text transform="matrix(1 0 0 1 133 138)" class="st2 st7 st4">Log in with Google</text>
	<text transform="matrix(1 0 0 1 131 152)" class="st2 st7 st4">Log in with facebook</text>
	<text transform="matrix(1 0 0 1 142 102)" class="st5 st7 st8">Register</text>
	<text transform="matrix(1 0 0 1 437.2131 175.314)" class="st5 st7 st8">Add to Cart</text>
	<text transform="matrix(1 0 0 1 532.1036 175.5)" class="st5 st7 st8">Order Now</text>
	<text transform="matrix(1 0 0 1 144 57)" class="st2 st7 st8">yumm</text>
	<g id="Rectangle_70" transform="translate(209 40)">
		<path class="st5" d="M3,0h59c1.7,0,3,1.3,3,3v6c0,1.7-1.3,3-3,3H3c-1.7,0-3-1.3-3-3V3C0,1.3,1.3,0,3,0z"/>
		<path class="st6" d="M3,0.2h59c1.5,0,2.8,1.2,2.8,2.8v6c0,1.5-1.2,2.8-2.8,2.8H3c-1.5,0-2.8-1.2-2.8-2.8V3C0.2,1.5,1.5,0.2,3,0.2z
			"/>
	</g>
	<text transform="matrix(1 0 0 1 210 35)" class="st2 st3 st4">Delivery Address</text>
	<g id="Group_4" transform="translate(87.381 -135.446) rotate(43)">
		<g id="Ellipse_1" transform="translate(214 44)">
			<circle class="st5" cx="1.7" cy="1.7" r="1.7"/>
			<circle class="st9" cx="1.7" cy="1.7" r="1.5"/>
		</g>
		<path id="Path_63" class="st9" d="M217.4,45.7h2.5"/>
	</g>
	<text transform="matrix(1 0 0 1 209 62)" class="st2 st7 st4">Special Offers</text>
	<text transform="matrix(1 0 0 1 209 177)" class="st2 st7 st4">Recommended for You</text>
	<g transform="matrix(1, 0, 0, 1, 27, 26)">
		<path id="Rectangle_72-2" class="st10" d="M186,40h20c2.2,0,4,1.8,4,4v32c0,2.2-1.8,4-4,4h-20c-2.2,0-4-1.8-4-4V44
			C182,41.8,183.8,40,186,40z"/>
	</g>
	<g transform="matrix(1, 0, 0, 1, 27, 26)">
		<path id="Rectangle_82-2" class="st10" d="M186,98h20c2.2,0,4,1.8,4,4v32c0,2.2-1.8,4-4,4h-20c-2.2,0-4-1.8-4-4v-32
			C182,99.8,183.8,98,186,98z"/>
	</g>
	<g transform="matrix(1, 0, 0, 1, 27, 26)">
		<path id="Rectangle_73-2" class="st10" d="M217,40h20c2.2,0,4,1.8,4,4v32c0,2.2-1.8,4-4,4h-20c-2.2,0-4-1.8-4-4V44
			C213,41.8,214.8,40,217,40z"/>
	</g>
	<g transform="matrix(1, 0, 0, 1, 27, 26)">
		<path id="Rectangle_81-2" class="st10" d="M217,98h20c2.2,0,4,1.8,4,4v32c0,2.2-1.8,4-4,4h-20c-2.2,0-4-1.8-4-4v-32
			C213,99.8,214.8,98,217,98z"/>
	</g>
	<g transform="matrix(1, 0, 0, 1, 27, 26)">
		<path id="Rectangle_74-2" class="st10" d="M248,40h20c2.2,0,4,1.8,4,4v32c0,2.2-1.8,4-4,4h-20c-2.2,0-4-1.8-4-4V44
			C244,41.8,245.8,40,248,40z"/>
	</g>
	<g transform="matrix(1, 0, 0, 1, 27, 26)">
		<path id="Rectangle_78-2" class="st10" d="M248,98h20c2.2,0,4,1.8,4,4v32c0,2.2-1.8,4-4,4h-20c-2.2,0-4-1.8-4-4v-32
			C244,99.8,245.8,98,248,98z"/>
	</g>
	<g transform="matrix(1, 0, 0, 1, 27, 26)">
		<path id="Rectangle_75-2" class="st5" d="M182,64h28l0,0v12c0,2.2-1.8,4-4,4h-20c-2.2,0-4-1.8-4-4V64L182,64z"/>
	</g>
	<g transform="matrix(1, 0, 0, 1, 27, 26)">
		<path id="Rectangle_83-2" class="st5" d="M182,122h28l0,0v12c0,2.2-1.8,4-4,4h-20c-2.2,0-4-1.8-4-4V122L182,122z"/>
	</g>
	<g transform="matrix(1, 0, 0, 1, 27, 26)">
		<path id="Rectangle_76-2" class="st5" d="M213,64h28l0,0v12c0,2.2-1.8,4-4,4h-20c-2.2,0-4-1.8-4-4V64L213,64z"/>
	</g>
	<g transform="matrix(1, 0, 0, 1, 27, 26)">
		<path id="Rectangle_80-2" class="st5" d="M213,122h28l0,0v12c0,2.2-1.8,4-4,4h-20c-2.2,0-4-1.8-4-4V122L213,122z"/>
	</g>
	<g transform="matrix(1, 0, 0, 1, 27, 26)">
		<path id="Rectangle_77-2" class="st5" d="M244,64h28l0,0v12c0,2.2-1.8,4-4,4h-20c-2.2,0-4-1.8-4-4V64L244,64z"/>
	</g>
	<g transform="matrix(1, 0, 0, 1, 27, 26)">
		<path id="Rectangle_79-2" class="st5" d="M244,122h28l0,0v12c0,2.2-1.8,4-4,4h-20c-2.2,0-4-1.8-4-4V122L244,122z"/>
	</g>
	<text transform="matrix(1 0 0 1 324 77)" class="st2 st7 st4">Restaurant Name</text>
	<text transform="matrix(1 0 0 1 422.4252 77.5)" class="st2 st7 st4">Restaurant Name</text>
	<text transform="matrix(1 0 0 1 422.4252 96.5)" class="st2 st7 st4">Add on</text>
	<text transform="matrix(1 0 0 1 346 101)" class="st2 st7 st4">Special Offer</text>
	<text transform="matrix(1 0 0 1 346 125)" class="st2 st7 st4">Menu Name</text>
	<text transform="matrix(1 0 0 1 346 146)" class="st2 st7 st4">Menu Name</text>
	<text transform="matrix(1 0 0 1 346 167)" class="st2 st7 st4">Menu Name</text>
	<text transform="matrix(1 0 0 1 324 81)" class="st2 st3 st11">Lorem Ipsum idor su remasad</text>
	<text transform="matrix(1 0 0 1 422.4252 81.5)" class="st2 st3 st11">Lorem Ipsum idor su remasad</text>
	<text transform="matrix(1 0 0 1 428.4252 101.5)" class="st2 st3 st11">Lorem Ipsum idor su remasad</text>
	<text transform="matrix(1 0 0 1 519.1036 124.5)" class="st2 st3 st11">Cash on Delivery</text>
	<text transform="matrix(1 0 0 1 428.4252 107.5)" class="st2 st3 st11">Lorem Ipsum idor su remasad</text>
	<text transform="matrix(1 0 0 1 519.1036 132.5)" class="st2 st3 st11">Credit Card</text>
	<text transform="matrix(1 0 0 1 519.1036 140.5)" class="st2 st3 st11">Debit Card</text>
	<text transform="matrix(1 0 0 1 329 88)" class="st2 st3 st11">3.9</text>
	<path id="Path_64" class="st2" d="M327.3,86.2c0-0.1-0.1-0.1-0.2-0.1l-1-0.1l-0.4-0.9c0-0.1-0.1-0.1-0.2-0.1l-0.1,0.1L325,86
		l-0.9,0.1c-0.1,0-0.2,0.1-0.2,0.2c0,0,0,0.1,0.1,0.1l0.7,0.6l-0.2,0.9c0,0.1,0,0.2,0.1,0.2h0.1l0.8-0.5l0.8,0.5
		c0.1,0,0.2,0,0.2-0.1v-0.1l-0.2-0.9l0.7-0.6C327.3,86.3,327.3,86.3,327.3,86.2z"/>
	<path id="Rectangle_87" class="st5" d="M327,95h11c2.2,0,4,1.8,4,4v11c0,2.2-1.8,4-4,4h-11c-2.2,0-4-1.8-4-4V99
		C323,96.8,324.8,95,327,95z"/>
	<g id="Rectangle_93" transform="translate(325 272)">
		<path class="st5" d="M98.4-173.5h2c0.6,0,1,0.4,1,1v2c0,0.6-0.4,1-1,1h-2c-0.6,0-1-0.4-1-1v-2C97.4-173.1,97.9-173.5,98.4-173.5z"
			/>
		<path class="st9" d="M98.4-173.4h2c0.5,0,0.8,0.4,0.8,0.9v2c0,0.5-0.4,0.9-0.8,0.9h-2c-0.5,0-0.9-0.4-0.9-0.9v-2
			C97.6-173,98-173.4,98.4-173.4z"/>
	</g>
	<g id="Rectangle_102" transform="translate(209 295)">
		<path class="st5" d="M305.1-173.5h2c0.6,0,1,0.4,1,1v2c0,0.6-0.4,1-1,1h-2c-0.6,0-1-0.4-1-1v-2
			C304.1-173.1,304.6-173.5,305.1-173.5z"/>
		<path class="st9" d="M305.1-173.4h2c0.5,0,0.9,0.4,0.9,0.9v2c0,0.5-0.4,0.9-0.9,0.9h-2c-0.5,0-0.9-0.4-0.9-0.9v-2
			C304.3-173,304.6-173.4,305.1-173.4z"/>
	</g>
	<g id="Rectangle_94" transform="translate(325 278)">
		<path class="st5" d="M98.4-173.5h2c0.6,0,1,0.4,1,1v2c0,0.6-0.4,1-1,1h-2c-0.6,0-1-0.4-1-1v-2C97.4-173.1,97.9-173.5,98.4-173.5z"
			/>
		<path class="st9" d="M98.4-173.4h2c0.5,0,0.8,0.4,0.8,0.9v2c0,0.5-0.4,0.9-0.8,0.9h-2c-0.5,0-0.9-0.4-0.9-0.9v-2
			C97.6-173,98-173.4,98.4-173.4z"/>
	</g>
	<g id="Rectangle_103" transform="translate(209 303)">
		<path class="st5" d="M305.1-173.5h2c0.6,0,1,0.4,1,1v2c0,0.6-0.4,1-1,1h-2c-0.6,0-1-0.4-1-1v-2
			C304.1-173.1,304.6-173.5,305.1-173.5z"/>
		<path class="st9" d="M305.1-173.4h2c0.5,0,0.9,0.4,0.9,0.9v2c0,0.5-0.4,0.9-0.9,0.9h-2c-0.5,0-0.9-0.4-0.9-0.9v-2
			C304.3-173,304.6-173.4,305.1-173.4z"/>
	</g>
	<g id="Rectangle_104" transform="translate(209 311)">
		<path class="st5" d="M305.1-173.5h2c0.6,0,1,0.4,1,1v2c0,0.6-0.4,1-1,1h-2c-0.6,0-1-0.4-1-1v-2
			C304.1-173.1,304.6-173.5,305.1-173.5z"/>
		<path class="st9" d="M305.1-173.4h2c0.5,0,0.9,0.4,0.9,0.9v2c0,0.5-0.4,0.9-0.9,0.9h-2c-0.5,0-0.9-0.4-0.9-0.9v-2
			C304.3-173,304.6-173.4,305.1-173.4z"/>
	</g>
	<path id="Rectangle_88" class="st10" d="M327,118h11c2.2,0,4,1.8,4,4v11c0,2.2-1.8,4-4,4h-11c-2.2,0-4-1.8-4-4v-11
		C323,119.8,324.8,118,327,118z"/>
	<path id="Rectangle_89" class="st10" d="M327,139h11c2.2,0,4,1.8,4,4v11c0,2.2-1.8,4-4,4h-11c-2.2,0-4-1.8-4-4v-11
		C323,140.8,324.8,139,327,139z"/>
	<path id="Rectangle_90" class="st10" d="M327,160h11c2.2,0,4,1.8,4,4v11c0,2.2-1.8,4-4,4h-11c-2.2,0-4-1.8-4-4v-11
		C323,161.8,324.8,160,327,160z"/>
	<text transform="matrix(1 0 0 1 346 106)" class="st2 st3 st11">Lorem Ipsum idor </text>
	<text transform="matrix(1 0 0 1 346 110)" class="st2 st3 st11">su remasad</text>
	<text transform="matrix(1 0 0 1 346 130)" class="st2 st3 st11">Lorem Ipsum idor </text>
	<text transform="matrix(1 0 0 1 346 134)" class="st2 st3 st11">su remasad</text>
	<text transform="matrix(1 0 0 1 346 151)" class="st2 st3 st11">Lorem Ipsum idor </text>
	<text transform="matrix(1 0 0 1 346 155)" class="st2 st3 st11">su remasad</text>
	<text transform="matrix(1 0 0 1 346 172)" class="st2 st3 st11">Lorem Ipsum idor </text>
	<text transform="matrix(1 0 0 1 346 176)" class="st2 st3 st11">su remasad</text>
	<text transform="matrix(1 0 0 1 382 110)" class="st2 st7 st8">55</text>
	<text transform="matrix(1 0 0 1 478.4252 81.5)" class="st2 st7 st8">55</text>
	<text transform="matrix(1 0 0 1 382 134)" class="st2 st7 st8">55</text>
	<text transform="matrix(1 0 0 1 382 155)" class="st2 st7 st8">55</text>
	<text transform="matrix(1 0 0 1 382 176)" class="st2 st7 st8">55</text>
	<g id="Group_5" transform="translate(2 3.441)">
		<g id="Rectangle_96" transform="translate(266 28.559)">
			<path class="st12" d="M1,0h3c0.6,0,1,0.4,1,1v2c0,0.6-0.4,1-1,1H1C0.4,4,0,3.6,0,3V1C0,0.4,0.4,0,1,0z"/>
			<path class="st9" d="M1,0.2h3c0.5,0,0.8,0.4,0.8,0.9v2C4.8,3.6,4.4,4,4,4H1C0.5,3.9,0.2,3.5,0.2,3V1C0.2,0.5,0.5,0.2,1,0.2z"/>
		</g>
		<path id="Path_65" class="st9" d="M267.2,28.8v-1.2h2.5v1.2"/>
	</g>
	<g id="Group_6" transform="translate(-1)">
		<g id="Ellipse_2" transform="translate(262 31)">
			<circle class="st12" cx="1.5" cy="1.5" r="1.5"/>
			<circle class="st9" cx="1.5" cy="1.5" r="1.3"/>
		</g>
		<path id="Path_66" class="st13" d="M262.9,33.9l-1.5,2h3.9l-1.4-2"/>
	</g>
	<g id="Group_7" transform="translate(292 -172.377)">
		<path id="Path_67" class="st14" d="M32.5,204.1l-1.3,1.5l1.3,1.5"/>
		<path id="Path_68" class="st15" d="M31.3,205.6h3.3"/>
	</g>
	<g id="Group_8" transform="translate(293 1.623)">
		<path id="Path_67-2" class="st14" d="M130,30.6l-1.3,1.5l1.3,1.5"/>
		<path id="Path_68-2" class="st15" d="M128.7,32.1h3.3"/>
	</g>
	<g id="Group_9" transform="translate(179 1.927)">
		<path id="Path_67-3" class="st14" d="M336.6,30.6l-1.3,1.5l1.3,1.5"/>
		<path id="Path_68-3" class="st15" d="M335.4,32.1h3.3"/>
	</g>
	<g id="Group_10" transform="translate(90 1.927)">
		<path id="Path_67-4" class="st14" d="M519.3,30.6l-1.3,1.5l1.3,1.5"/>
		<path id="Path_68-4" class="st15" d="M518.1,32.1h3.3"/>
	</g>
	<path id="Rectangle_99" class="st1" d="M515.1,39.5h61c1.1,0,2,0.9,2,2v5c0,1.1-0.9,2-2,2h-61c-1.1,0-2-0.9-2-2v-5
		C513.1,40.4,514,39.5,515.1,39.5z"/>
	<text transform="matrix(1 0 0 1 516.1036 45.5)" class="st2 st3 st11">Additional information</text>
	<text transform="matrix(1 0 0 1 513.1036 55.5)" class="st2 st7 st4">Your Order</text>
	<text transform="matrix(1 0 0 1 513.1036 103.5)" class="st2 st7 st4">Total</text>
	<text transform="matrix(1 0 0 1 513.1036 117.5)" class="st2 st7 st4">Payment Method</text>
	<path id="Rectangle_100" class="st10" d="M517.1,58.5h11c2.2,0,4,1.8,4,4v11c0,2.2-1.8,4-4,4h-11c-2.2,0-4-1.8-4-4v-11
		C513.1,60.3,514.9,58.5,517.1,58.5z"/>
	<text transform="matrix(1 0 0 1 536.1036 70.5)" class="st2 st3 st11">Lorem Ipsum idor </text>
	<text transform="matrix(1 0 0 1 536.1036 74.5)" class="st2 st3 st11">su remasad</text>
	<text transform="matrix(1 0 0 1 513.1036 95.5)" class="st2 st3 st11">Delivery Fee</text>
	<text transform="matrix(1 0 0 1 573.1036 74.5)" class="st2 st7 st8">55</text>
	<text transform="matrix(1 0 0 1 573.1036 95.5)" class="st2 st7 st8">10</text>
	<text transform="matrix(1 0 0 1 573.1036 103.5)" class="st2 st7 st8">65</text>
	<path id="Rectangle_101" class="st10" d="M538.1,79.5h24c1.1,0,2,0.9,2,2v5c0,1.1-0.9,2-2,2h-24c-1.1,0-2-0.9-2-2v-5
		C536.1,80.4,537,79.5,538.1,79.5z"/>
	<text transform="matrix(1 0 0 1 538.1036 86.5)" class="st2 st7 st16">-</text>
	<text transform="matrix(1 0 0 1 541.1974 86.5)" class="st2 st7 st8">       1       </text>
	<text transform="matrix(1 0 0 1 560.0021 86.5)" class="st2 st7 st16">+</text>
	<g transform="matrix(1, 0, 0, 1, 27, 26)">
		
			<image style="overflow:visible;opacity:8.000000e-02;" width="74" height="52" xlink:href="10EC92FB32087FE6.png"  transform="matrix(1 0 0 1 576 109.5)">
		</image>
		<g>
			<g>
				<path id="Rectangle_107-2_12_" class="st5" d="M584.8,113.5h53c2.2,0,4,1.8,4,4v32c0,2.2-1.8,4-4,4h-53c-2.2,0-4-1.8-4-4v-32
					C580.8,115.3,582.6,113.5,584.8,113.5z"/>
			</g>
		</g>
	</g>
	<text transform="matrix(1 0 0 1 612.7849 150.5)" class="st2 st7 st4">Your food is on the way.</text>
	<text transform="matrix(1 0 0 1 612.7849 155.5)" class="st2 st3 st11">Estimate delivery time: 14:35</text>
	<g id="Rectangle_108" transform="translate(124 334)">
		<path class="st2" d="M489.8-173.5h49c1.7,0,3,1.3,3,3v6c0,1.7-1.3,3-3,3h-49c-1.7,0-3-1.3-3-3v-6
			C486.8-172.2,488.1-173.5,489.8-173.5z"/>
		<path class="st6" d="M489.8-173.2h49c1.5,0,2.8,1.2,2.8,2.8v6c0,1.5-1.2,2.8-2.8,2.8h-49c-1.5,0-2.8-1.2-2.8-2.8v-6
			C487-172,488.3-173.2,489.8-173.2z"/>
	</g>
	<text transform="matrix(1 0 0 1 625.7849 168.5)" class="st5 st7 st8">Call Driver</text>
	<g id="Rectangle_110" transform="translate(209 66)">
		<path class="st12" d="M4,0h20c2.2,0,4,1.8,4,4v32c0,2.2-1.8,4-4,4H4c-2.2,0-4-1.8-4-4V4C0,1.8,1.8,0,4,0z"/>
		<path class="st17" d="M4,0.5h20c1.9,0,3.5,1.6,3.5,3.5v32c0,1.9-1.6,3.5-3.5,3.5H4c-1.9,0-3.5-1.6-3.5-3.5V4
			C0.5,2.1,2.1,0.5,4,0.5z"/>
	</g>
	<g id="Rectangle_111" transform="translate(124 94)">
		<path class="st12" d="M3,0h49c1.7,0,3,1.3,3,3v6c0,1.7-1.3,3-3,3H3c-1.7,0-3-1.3-3-3V3C0,1.3,1.3,0,3,0z"/>
		<path class="st17" d="M3,0.5h49c1.4,0,2.5,1.1,2.5,2.5v6c0,1.4-1.1,2.5-2.5,2.5H3c-1.4,0-2.5-1.1-2.5-2.5V3C0.5,1.6,1.6,0.5,3,0.5
			z"/>
	</g>
	<g id="Rectangle_112" transform="translate(319 93)">
		<rect y="0" class="st12" width="73" height="23"/>
		<rect x="0.5" y="0.5" class="st17" width="72" height="22"/>
	</g>
	<g id="Rectangle_113" transform="translate(327 341)">
		<path class="st12" d="M100.4-173.5h49c1.7,0,3,1.3,3,3v6c0,1.7-1.3,3-3,3h-49c-1.7,0-3-1.3-3-3v-6
			C97.4-172.2,98.8-173.5,100.4-173.5z"/>
		<path class="st17" d="M100.4-173h49c1.4,0,2.5,1.1,2.5,2.5v6c0,1.4-1.1,2.5-2.5,2.5h-49c-1.4,0-2.5-1.1-2.5-2.5v-6
			C97.9-171.9,99-173,100.4-173z"/>
	</g>
	<g id="Rectangle_114" transform="translate(214 341)">
		<path class="st12" d="M307.1-173.5h49c1.7,0,3,1.3,3,3v6c0,1.7-1.3,3-3,3h-49c-1.7,0-3-1.3-3-3v-6
			C304.1-172.2,305.4-173.5,307.1-173.5z"/>
		<path class="st17" d="M307.1-173h49c1.4,0,2.5,1.1,2.5,2.5v6c0,1.4-1.1,2.5-2.5,2.5h-49c-1.4,0-2.5-1.1-2.5-2.5v-6
			C304.6-171.9,305.7-173,307.1-173z"/>
	</g>
	<path id="Path_69" class="st17" d="M179,100h15.3V83.4h15.1"/>
	<path id="Path_70" class="st17" d="M223,106v4.6h96.5"/>
	<path id="Path_72" class="st17" d="M518.1,173.5h-39.3"/>
	<path id="Path_73_1_" class="st17" d="M601.8,93h-10.1v80.5h-19.3"/>
	<path id="Path_74" class="st18" d="M319.5,26"/>
	<polyline class="st17" points="391.5,104.5 403.5,104.5 403.5,173.5 424.9,173.5 	"/>
</g>
</svg>
